<svg width="197" height="81" viewBox="0 0 197 81" fill="none" xmlns="http://www.w3.org/2000/svg">
<path opacity="0.2" d="M181.604 26.0183C181.706 23.0696 179.261 20.4745 176.334 20.4242L5.58286 17.488C3.02644 17.4441 1.0069 19.3757 0.917512 21.9503L0.196883 42.7073C0.0924066 45.7166 2.63667 48.3423 5.61783 48.3017L176.551 45.9729C179.044 45.939 180.979 44.027 181.066 41.5104L181.604 26.0183Z" fill="#FDBC88"/>
<path opacity="0.1" d="M195.984 34.88C195.956 32.0109 193.555 29.5611 190.718 29.507L20.4338 26.2583C17.8591 26.2091 15.8297 28.1641 15.7611 30.7596L15.1482 53.9521C15.068 56.9884 17.6719 59.6071 20.6704 59.5058L191.706 53.7314C194.24 53.6458 196.148 51.6232 196.123 49.0493L195.984 34.88Z" fill="#3CC2DD"/>
</svg>
