<svg width="339" height="287" viewBox="0 0 339 287" fill="none" xmlns="http://www.w3.org/2000/svg">
<path opacity="0.15" d="M22 74.1535C22 67.982 27.5354 63.2836 33.6249 64.2864L308.611 109.571C313.442 110.366 316.986 114.542 316.986 119.438V274.235C316.986 280.567 311.175 285.305 304.972 284.03L29.9861 227.492C25.3368 226.536 22 222.443 22 217.696V74.1535Z" fill="#FB9D50"/>
<path opacity="0.25" d="M339 12.2746C339 6.10536 333.469 1.40761 327.381 2.40652L52.3947 47.5274C47.5615 48.3204 44.0139 52.4975 44.0139 57.3954V224.367C44.0139 230.697 49.8201 235.434 56.0208 234.164L331.007 177.83C335.66 176.876 339 172.782 339 168.033V12.2746Z" fill="#2A889B"/>
<path d="M76.6966 154.503H155.464V146.631H76.6966C75.652 146.631 74.6501 147.045 73.9115 147.782C73.1728 148.52 72.7578 149.52 72.7578 150.563C72.7567 151.08 72.8578 151.592 73.0552 152.07C73.2527 152.548 73.5426 152.982 73.9085 153.348C74.2744 153.714 74.7089 154.005 75.1874 154.203C75.6658 154.401 76.1787 154.503 76.6966 154.503Z" fill="#263238"/>
<path d="M107.134 269.018H112.156L112.156 154.494H107.134L107.134 269.018Z" fill="#9BA7AB"/>
<path opacity="0.7" d="M107.134 269.018H112.156L112.156 154.494H107.134L107.134 269.018Z" fill="white"/>
<path d="M82.2044 269.018H87.2266L87.2266 154.494H82.2044L82.2044 269.018Z" fill="#9BA7AB"/>
<path opacity="0.7" d="M82.2044 269.018H87.2266L87.2266 154.494H82.2044L82.2044 269.018Z" fill="white"/>
<path d="M76.6982 153.12C78.1128 153.12 79.2597 151.975 79.2597 150.563C79.2597 149.151 78.1128 148.006 76.6982 148.006C75.2835 148.006 74.1367 149.151 74.1367 150.563C74.1367 151.975 75.2835 153.12 76.6982 153.12Z" fill="#9BA7AB"/>
<path d="M85.3867 150.562C85.3868 151.058 85.5335 151.542 85.8086 151.955C86.0836 152.368 86.4747 152.69 86.9326 152.881C87.3905 153.073 87.8949 153.125 88.3825 153.031C88.87 152.938 89.319 152.702 89.673 152.355C90.0269 152.007 90.2701 151.563 90.372 151.078C90.474 150.593 90.43 150.089 90.2457 149.628C90.0615 149.168 89.7451 148.773 89.3363 148.491C88.9276 148.21 88.4446 148.055 87.9482 148.047C87.6138 148.042 87.2817 148.103 86.9711 148.226C86.6606 148.35 86.3779 148.535 86.1394 148.769C85.901 149.003 85.7117 149.282 85.5824 149.59C85.4532 149.898 85.3867 150.228 85.3867 150.562Z" fill="#9BA7AB"/>
<path d="M99.2021 153.12C100.617 153.12 101.764 151.975 101.764 150.563C101.764 149.151 100.617 148.006 99.2021 148.006C97.7874 148.006 96.6406 149.151 96.6406 150.563C96.6406 151.975 97.7874 153.12 99.2021 153.12Z" fill="#9BA7AB"/>
<path d="M110.456 153.12C111.871 153.12 113.017 151.975 113.017 150.563C113.017 149.151 111.871 148.006 110.456 148.006C109.041 148.006 107.895 149.151 107.895 150.563C107.895 151.975 109.041 153.12 110.456 153.12Z" fill="#9BA7AB"/>
<path d="M121.702 153.12C123.117 153.12 124.264 151.975 124.264 150.563C124.264 149.151 123.117 148.006 121.702 148.006C120.287 148.006 119.141 149.151 119.141 150.563C119.141 151.975 120.287 153.12 121.702 153.12Z" fill="#9BA7AB"/>
<path d="M132.956 153.12C134.371 153.12 135.517 151.975 135.517 150.563C135.517 149.151 134.371 148.006 132.956 148.006C131.541 148.006 130.395 149.151 130.395 150.563C130.395 151.975 131.541 153.12 132.956 153.12Z" fill="#9BA7AB"/>
<path d="M144.21 153.12C145.625 153.12 146.771 151.975 146.771 150.563C146.771 149.151 145.625 148.006 144.21 148.006C142.795 148.006 141.648 149.151 141.648 150.563C141.648 151.975 142.795 153.12 144.21 153.12Z" fill="#9BA7AB"/>
<path d="M155.464 148.014V153.119C154.785 153.119 154.135 152.85 153.655 152.371C153.176 151.893 152.906 151.243 152.906 150.566C152.906 149.889 153.176 149.24 153.655 148.761C154.135 148.283 154.785 148.014 155.464 148.014Z" fill="#9BA7AB"/>
<path d="M194.086 59.1602H188.871V59.9985H194.086V59.1602Z" fill="#9BA7AB"/>
<path d="M184.027 59.1602H167.23V59.9985H184.027V59.1602Z" fill="#9BA7AB"/>
<path d="M134.947 62.0938H215.747C217.576 62.0938 219.329 62.8189 220.622 64.1096C221.915 65.4004 222.642 67.151 222.642 68.9764V269.017H128.035V68.9764C128.035 68.0711 128.214 67.1748 128.562 66.3387C128.909 65.5025 129.419 64.743 130.061 64.1037C130.703 63.4644 131.465 62.9577 132.303 62.6128C133.142 62.268 134.04 62.0916 134.947 62.0938Z" fill="#9BA7AB"/>
<path opacity="0.2" d="M154.22 122.814H128.051V122.034H153.447V62.0938H154.22V122.814Z" fill="white"/>
<path opacity="0.4" d="M200.985 62.0938H215.749C217.578 62.0938 219.331 62.8189 220.625 64.1096C221.918 65.4004 222.644 67.151 222.644 68.9764V269.017H194.09V68.9764C194.09 67.151 194.816 65.4004 196.109 64.1096C197.402 62.8189 199.156 62.0938 200.985 62.0938Z" fill="#263238"/>
<path d="M203.183 96.4062H213.555C214.446 96.4062 215.3 96.7595 215.93 97.3884C216.56 98.0173 216.914 98.8702 216.914 99.7595V162.768H199.832V99.7595C199.832 98.8716 200.185 98.02 200.813 97.3914C201.441 96.7627 202.293 96.4085 203.183 96.4062Z" fill="#9BA7AB"/>
<path d="M203.183 96.4062H212.169C213.06 96.4062 213.915 96.7595 214.544 97.3884C215.174 98.0173 215.528 98.8702 215.528 99.7595V162.768H199.832V99.7595C199.832 98.8702 200.186 98.0173 200.816 97.3884C201.446 96.7595 202.3 96.4062 203.191 96.4062H203.183Z" fill="black"/>
<path opacity="0.2" d="M194.089 257.741H164.812V163.254H194.089V164.025H165.585V256.97H194.089V257.741Z" fill="white"/>
<path opacity="0.2" d="M153.599 257.744C152.631 257.742 151.685 257.454 150.881 256.916C150.077 256.378 149.451 255.614 149.081 254.721C148.712 253.827 148.616 252.845 148.806 251.898C148.996 250.95 149.463 250.08 150.148 249.397C150.833 248.715 151.705 248.25 152.655 248.062C153.605 247.874 154.589 247.971 155.483 248.342C156.377 248.712 157.141 249.338 157.679 250.142C158.216 250.945 158.503 251.89 158.503 252.856C158.503 253.499 158.376 254.135 158.13 254.728C157.883 255.322 157.522 255.861 157.066 256.315C156.611 256.769 156.07 257.129 155.475 257.374C154.88 257.619 154.242 257.745 153.599 257.744ZM153.599 248.74C152.783 248.74 151.986 248.981 151.308 249.434C150.63 249.886 150.101 250.529 149.789 251.281C149.477 252.033 149.395 252.861 149.554 253.659C149.714 254.458 150.106 255.191 150.683 255.767C151.26 256.342 151.994 256.734 152.794 256.893C153.594 257.052 154.423 256.971 155.177 256.659C155.93 256.347 156.574 255.82 157.027 255.143C157.48 254.466 157.722 253.67 157.722 252.856C157.72 251.765 157.285 250.719 156.512 249.948C155.739 249.177 154.692 248.742 153.599 248.74Z" fill="white"/>
<path opacity="0.2" d="M140.506 257.744C139.537 257.744 138.591 257.457 137.785 256.92C136.98 256.383 136.353 255.62 135.982 254.726C135.611 253.833 135.515 252.851 135.703 251.903C135.892 250.955 136.359 250.084 137.043 249.4C137.728 248.717 138.601 248.251 139.55 248.063C140.5 247.874 141.485 247.971 142.379 248.341C143.274 248.711 144.039 249.337 144.577 250.141C145.115 250.945 145.402 251.89 145.402 252.856C145.402 254.152 144.886 255.396 143.968 256.312C143.05 257.229 141.804 257.744 140.506 257.744ZM140.506 248.74C139.69 248.74 138.893 248.981 138.215 249.434C137.537 249.886 137.008 250.529 136.696 251.281C136.384 252.033 136.302 252.861 136.461 253.659C136.62 254.458 137.013 255.191 137.59 255.767C138.166 256.342 138.901 256.734 139.701 256.893C140.501 257.052 141.33 256.971 142.084 256.659C142.837 256.347 143.481 255.82 143.934 255.143C144.387 254.466 144.629 253.67 144.629 252.856C144.627 251.765 144.192 250.72 143.419 249.948C142.646 249.177 141.599 248.742 140.506 248.74Z" fill="white"/>
<path d="M303.482 154.503H224.715V146.631H303.482C304.527 146.631 305.529 147.045 306.268 147.782C307.006 148.52 307.421 149.52 307.421 150.563C307.422 151.08 307.321 151.592 307.124 152.07C306.926 152.548 306.636 152.982 306.271 153.348C305.905 153.714 305.47 154.005 304.992 154.203C304.513 154.401 304 154.503 303.482 154.503Z" fill="#9BA7AB"/>
<path d="M278.608 154.503H199.832V146.631H278.608C279.127 146.629 279.641 146.729 280.12 146.925C280.6 147.122 281.036 147.411 281.404 147.777C281.771 148.142 282.063 148.576 282.262 149.054C282.461 149.532 282.564 150.045 282.563 150.563C282.565 151.081 282.463 151.595 282.265 152.074C282.066 152.553 281.775 152.988 281.407 153.354C281.039 153.72 280.603 154.01 280.122 154.208C279.642 154.405 279.127 154.505 278.608 154.503Z" fill="#263238"/>
<path d="M273.05 154.504H268.027V269.027H273.05V154.504Z" fill="#9BA7AB"/>
<path opacity="0.7" d="M273.05 154.504H268.027V269.027H273.05V154.504Z" fill="white"/>
<path d="M297.975 154.504H292.953V269.027H297.975V154.504Z" fill="#9BA7AB"/>
<path opacity="0.7" d="M297.975 154.504H292.953V269.027H297.975V154.504Z" fill="white"/>
<path d="M278.608 153.12C280.023 153.12 281.17 151.975 281.17 150.563C281.17 149.151 280.023 148.006 278.608 148.006C277.194 148.006 276.047 149.151 276.047 150.563C276.047 151.975 277.194 153.12 278.608 153.12Z" fill="#9BA7AB"/>
<path d="M267.354 153.12C268.769 153.12 269.916 151.975 269.916 150.563C269.916 149.151 268.769 148.006 267.354 148.006C265.94 148.006 264.793 149.151 264.793 150.563C264.793 151.975 265.94 153.12 267.354 153.12Z" fill="#9BA7AB"/>
<path d="M256.101 153.12C257.515 153.12 258.662 151.975 258.662 150.563C258.662 149.151 257.515 148.006 256.101 148.006C254.686 148.006 253.539 149.151 253.539 150.563C253.539 151.975 254.686 153.12 256.101 153.12Z" fill="#9BA7AB"/>
<path d="M244.847 153.12C246.261 153.12 247.408 151.975 247.408 150.563C247.408 149.151 246.261 148.006 244.847 148.006C243.432 148.006 242.285 149.151 242.285 150.563C242.285 151.975 243.432 153.12 244.847 153.12Z" fill="#9BA7AB"/>
<path d="M233.593 153.12C235.007 153.12 236.154 151.975 236.154 150.563C236.154 149.151 235.007 148.006 233.593 148.006C232.178 148.006 231.031 149.151 231.031 150.563C231.031 151.975 232.178 153.12 233.593 153.12Z" fill="#9BA7AB"/>
<path d="M222.339 153.12C223.753 153.12 224.9 151.975 224.9 150.563C224.9 149.151 223.753 148.006 222.339 148.006C220.924 148.006 219.777 149.151 219.777 150.563C219.777 151.975 220.924 153.12 222.339 153.12Z" fill="#9BA7AB"/>
<path d="M211.085 153.12C212.5 153.12 213.646 151.975 213.646 150.563C213.646 149.151 212.5 148.006 211.085 148.006C209.67 148.006 208.523 149.151 208.523 150.563C208.523 151.975 209.67 153.12 211.085 153.12Z" fill="#9BA7AB"/>
<path d="M199.832 148.014V153.119C200.51 153.119 201.161 152.85 201.64 152.371C202.12 151.893 202.389 151.243 202.389 150.566C202.389 149.889 202.12 149.24 201.64 148.761C201.161 148.283 200.51 148.014 199.832 148.014Z" fill="#9BA7AB"/>
<path d="M183.203 82.7578H138.935C137.312 82.7578 135.996 84.0715 135.996 85.6919V173.087C135.996 174.708 137.312 176.021 138.935 176.021H183.203C184.826 176.021 186.142 174.708 186.142 173.087V85.6919C186.142 84.0715 184.826 82.7578 183.203 82.7578Z" fill="white"/>
<path opacity="0.3" d="M177.653 92.7188H144.488C142.758 92.7188 141.355 94.1187 141.355 95.8457V117.399C141.355 119.126 142.758 120.526 144.488 120.526H177.653C179.383 120.526 180.785 119.126 180.785 117.399V95.8457C180.785 94.1187 179.383 92.7188 177.653 92.7188Z" fill="#9BA7AB"/>
<path opacity="0.3" d="M177.812 124.508H144.328C142.687 124.508 141.355 125.836 141.355 127.475V140.687C141.355 142.326 142.687 143.655 144.328 143.655H177.812C179.454 143.655 180.785 142.326 180.785 140.687V127.475C180.785 125.836 179.454 124.508 177.812 124.508Z" fill="#9BA7AB"/>
<path d="M153.229 134.132L146.645 131.743C147.172 130.297 148.163 129.065 149.464 128.238C150.765 127.412 152.302 127.037 153.838 127.171C155.374 127.306 156.823 127.943 157.959 128.983C159.096 130.023 159.857 131.409 160.124 132.925L153.229 134.132Z" fill="#9BA7AB"/>
<path d="M153.232 134.131L160.127 132.924C160.197 133.323 160.233 133.727 160.236 134.131C160.268 135.07 160.111 136.007 159.774 136.884C159.436 137.761 158.925 138.561 158.271 139.237C157.617 139.913 156.833 140.45 155.967 140.817C155.1 141.184 154.169 141.374 153.227 141.374C152.286 141.374 151.354 141.184 150.488 140.817C149.621 140.45 148.838 139.913 148.184 139.237C147.53 138.561 147.019 137.761 146.681 136.884C146.344 136.007 146.186 135.07 146.219 134.131C146.219 133.316 146.364 132.507 146.647 131.742L153.232 134.131Z" fill="white"/>
<path d="M172.369 133.176H169.715V141.073H172.369V133.176Z" fill="white"/>
<path d="M167.853 137.375H165.199V141.072H167.853V137.375Z" fill="white"/>
<path d="M167.853 135.121H165.199V137.376H167.853V135.121Z" fill="#9BA7AB"/>
<path d="M172.369 128.363H169.715V133.175H172.369V128.363Z" fill="#9BA7AB"/>
<path d="M176.88 134.609H174.227V141.064H176.88V134.609Z" fill="white"/>
<path d="M176.88 131.65H174.227V134.61H176.88V131.65Z" fill="#9BA7AB"/>
<path d="M147.091 112.628H174.956C175.147 112.63 175.334 112.583 175.501 112.493C175.668 112.402 175.809 112.27 175.911 112.11C176.013 111.95 176.072 111.766 176.083 111.576C176.093 111.387 176.056 111.198 175.973 111.027C174.883 108.673 174.223 106.143 174.024 103.557C173.503 97.6892 169.523 96.264 167.826 103.557C166.13 110.851 159.352 107.095 156.589 103.624C154.019 100.405 149.82 103.968 146.091 110.977C146.002 111.149 145.959 111.34 145.965 111.534C145.972 111.727 146.028 111.916 146.128 112.082C146.228 112.247 146.37 112.384 146.538 112.48C146.707 112.576 146.897 112.627 147.091 112.628Z" fill="#9BA7AB"/>
<path d="M146.017 150.142C146.786 150.142 147.538 150.37 148.177 150.797C148.817 151.223 149.315 151.829 149.61 152.538C149.904 153.248 149.981 154.028 149.831 154.781C149.681 155.534 149.31 156.226 148.767 156.768C148.223 157.311 147.53 157.681 146.776 157.831C146.021 157.98 145.24 157.904 144.529 157.61C143.819 157.316 143.211 156.819 142.784 156.18C142.357 155.542 142.129 154.792 142.129 154.024C142.131 152.995 142.541 152.009 143.27 151.282C143.999 150.554 144.987 150.145 146.017 150.142ZM146.017 149.371C145.093 149.371 144.19 149.645 143.422 150.157C142.654 150.67 142.055 151.398 141.702 152.25C141.349 153.103 141.257 154.04 141.438 154.945C141.619 155.849 142.064 156.68 142.718 157.331C143.372 157.983 144.205 158.426 145.111 158.605C146.018 158.784 146.957 158.69 147.81 158.336C148.663 157.982 149.392 157.383 149.904 156.616C150.416 155.848 150.688 154.946 150.687 154.024C150.688 153.412 150.568 152.806 150.333 152.24C150.099 151.675 149.755 151.161 149.321 150.728C148.887 150.296 148.372 149.954 147.805 149.721C147.238 149.488 146.63 149.369 146.017 149.371Z" fill="#263238"/>
<path d="M158.69 150.142C159.459 150.142 160.21 150.37 160.85 150.797C161.489 151.223 161.988 151.829 162.282 152.538C162.576 153.248 162.653 154.028 162.503 154.781C162.353 155.534 161.983 156.226 161.439 156.768C160.895 157.311 160.202 157.681 159.448 157.831C158.694 157.98 157.912 157.904 157.202 157.61C156.491 157.316 155.884 156.819 155.456 156.18C155.029 155.542 154.801 154.791 154.801 154.024C154.803 152.995 155.214 152.009 155.943 151.282C156.671 150.554 157.659 150.145 158.69 150.142ZM158.69 149.371C157.765 149.369 156.861 149.642 156.092 150.153C155.323 150.665 154.723 151.393 154.369 152.245C154.014 153.097 153.921 154.035 154.101 154.939C154.281 155.844 154.726 156.676 155.379 157.328C156.033 157.98 156.866 158.425 157.772 158.604C158.679 158.784 159.618 158.691 160.472 158.337C161.326 157.983 162.055 157.384 162.567 156.617C163.08 155.849 163.352 154.946 163.351 154.024C163.352 153.413 163.232 152.807 162.998 152.242C162.764 151.677 162.421 151.164 161.988 150.731C161.555 150.299 161.041 149.956 160.475 149.723C159.909 149.49 159.302 149.37 158.69 149.371Z" fill="#9BA7AB"/>
<path d="M180.785 166.399C180.785 166.797 180.667 167.186 180.445 167.517C180.223 167.848 179.908 168.106 179.539 168.258C179.17 168.41 178.764 168.45 178.373 168.371C177.982 168.293 177.623 168.101 177.341 167.818C177.06 167.536 176.868 167.177 176.792 166.786C176.715 166.395 176.756 165.99 176.91 165.623C177.064 165.255 177.323 164.942 177.656 164.722C177.988 164.502 178.379 164.385 178.778 164.387C179.311 164.389 179.822 164.602 180.198 164.979C180.574 165.356 180.785 165.867 180.785 166.399Z" fill="#9BA7AB"/>
<path opacity="0.3" d="M171.934 166.399C171.934 166.797 171.815 167.186 171.593 167.517C171.371 167.848 171.056 168.106 170.687 168.258C170.319 168.41 169.913 168.45 169.522 168.371C169.13 168.293 168.771 168.101 168.49 167.818C168.208 167.536 168.017 167.177 167.94 166.786C167.863 166.395 167.904 165.99 168.058 165.623C168.212 165.255 168.472 164.942 168.804 164.722C169.137 164.502 169.527 164.385 169.926 164.387C170.459 164.389 170.97 164.602 171.346 164.979C171.722 165.356 171.934 165.867 171.934 166.399Z" fill="#9BA7AB"/>
<path d="M163.082 166.399C163.082 166.797 162.964 167.186 162.742 167.516C162.521 167.847 162.206 168.105 161.838 168.258C161.469 168.41 161.064 168.45 160.673 168.372C160.282 168.294 159.923 168.103 159.641 167.821C159.359 167.54 159.167 167.181 159.09 166.791C159.012 166.401 159.052 165.996 159.204 165.629C159.357 165.261 159.615 164.947 159.947 164.726C160.278 164.505 160.668 164.387 161.066 164.387C161.601 164.387 162.114 164.599 162.492 164.976C162.87 165.353 163.082 165.865 163.082 166.399Z" fill="#9BA7AB"/>
<path d="M154.23 166.399C154.23 166.797 154.112 167.186 153.891 167.516C153.669 167.847 153.354 168.105 152.986 168.258C152.618 168.41 152.213 168.45 151.822 168.372C151.431 168.294 151.071 168.103 150.79 167.821C150.508 167.54 150.316 167.181 150.238 166.791C150.16 166.401 150.2 165.996 150.353 165.629C150.505 165.261 150.764 164.947 151.095 164.726C151.426 164.505 151.816 164.387 152.215 164.387C152.749 164.387 153.262 164.599 153.64 164.976C154.018 165.353 154.23 165.865 154.23 166.399Z" fill="#9BA7AB"/>
<path d="M145.379 166.399C145.379 166.797 145.261 167.186 145.039 167.516C144.818 167.847 144.503 168.105 144.135 168.258C143.766 168.41 143.361 168.45 142.97 168.372C142.579 168.294 142.22 168.103 141.938 167.821C141.656 167.54 141.464 167.181 141.386 166.791C141.309 166.401 141.349 165.996 141.501 165.629C141.654 165.261 141.912 164.947 142.243 164.726C142.575 164.505 142.965 164.387 143.363 164.387C143.898 164.387 144.41 164.599 144.788 164.976C145.166 165.353 145.379 165.865 145.379 166.399Z" fill="#9BA7AB"/>
<path d="M278.598 116.133H234.297V146.639H278.598V116.133Z" fill="#9BA7AB"/>
<path opacity="0.7" d="M253.541 116.133H245.621V127.341H253.541V116.133Z" fill="white"/>
<path opacity="0.2" d="M278.608 116.133H264.793V146.639H278.608V116.133Z" fill="black"/>
<path opacity="0.7" d="M273.906 116.133H269.488V127.341H273.906V116.133Z" fill="#9BA7AB"/>
<path d="M242.824 138.131V143.111H237.836V138.131H242.824ZM243.597 137.352H237.055V143.882H243.597V137.352Z" fill="white"/>
<path opacity="0.4" d="M252.894 137.352H246.352V143.882H252.894V137.352Z" fill="#263238"/>
<path d="M114.398 121.172H101.397C101.035 121.172 100.742 121.465 100.742 121.826V145.978C100.742 146.339 101.035 146.632 101.397 146.632H114.398C114.76 146.632 115.053 146.339 115.053 145.978V121.826C115.053 121.465 114.76 121.172 114.398 121.172Z" fill="#263238"/>
<path d="M100.632 121.172H113.624C113.798 121.172 113.965 121.241 114.088 121.363C114.21 121.486 114.279 121.652 114.279 121.826V145.97C114.279 146.143 114.21 146.309 114.088 146.432C113.965 146.555 113.798 146.623 113.624 146.623H100.632C100.456 146.623 100.287 146.554 100.163 146.429C100.039 146.305 99.9687 146.137 99.9688 145.961V121.817C99.9698 121.732 99.9879 121.647 100.022 121.568C100.056 121.489 100.105 121.417 100.167 121.358C100.228 121.298 100.301 121.25 100.381 121.218C100.461 121.187 100.546 121.171 100.632 121.172Z" fill="#9BA7AB"/>
<path d="M113.516 145.255V122.553C113.516 122.219 113.245 121.949 112.911 121.949H101.363C101.029 121.949 100.759 122.219 100.759 122.553V145.255C100.759 145.588 101.029 145.858 101.363 145.858H112.911C113.245 145.858 113.516 145.588 113.516 145.255Z" fill="white"/>
<path opacity="0.2" d="M106.881 121.949H104.244L102.262 145.858H104.907L106.881 121.949Z" fill="#9BA7AB"/>
<path opacity="0.2" d="M109.527 121.949H107.813L105.84 145.858H107.545L109.527 121.949Z" fill="#9BA7AB"/>
<path d="M101.793 97.1203H80.5536C80.4489 97.126 80.3443 97.1064 80.2488 97.0633C80.1532 97.0202 80.0693 96.9549 80.0043 96.8727C79.9393 96.7906 79.895 96.694 79.8751 96.5912C79.8553 96.4884 79.8604 96.3824 79.8902 96.282L85.3994 66.9407C85.4429 66.7116 85.563 66.5039 85.7399 66.3517C85.9168 66.1994 86.1402 66.1115 86.3736 66.1024H107.605C107.709 66.0972 107.814 66.117 107.91 66.1601C108.005 66.2031 108.089 66.2683 108.155 66.3501C108.221 66.4319 108.266 66.5282 108.287 66.6308C108.308 66.7335 108.304 66.8397 108.276 66.9407L102.767 96.282C102.724 96.5111 102.604 96.7187 102.427 96.871C102.25 97.0232 102.026 97.1111 101.793 97.1203Z" fill="#9BA7AB"/>
<path d="M101.035 95.8875H81.0471C80.9504 95.8917 80.854 95.8733 80.7656 95.8338C80.6773 95.7942 80.5994 95.7346 80.5382 95.6597C80.477 95.5848 80.4342 95.4966 80.4132 95.4022C80.3922 95.3079 80.3936 95.2099 80.4173 95.1162L85.599 67.4516C85.6454 67.2389 85.7614 67.0477 85.9287 66.9081C86.0959 66.7685 86.3049 66.6883 86.5228 66.6803H106.511C106.607 66.676 106.704 66.6944 106.792 66.734C106.881 66.7735 106.958 66.8331 107.02 66.9081C107.081 66.983 107.124 67.0711 107.145 67.1655C107.166 67.2599 107.164 67.3578 107.141 67.4516L101.95 95.1162C101.907 95.3288 101.793 95.5207 101.627 95.6606C101.461 95.8006 101.252 95.8805 101.035 95.8875Z" fill="white"/>
<path d="M54.5752 68.1553L54.3904 68.5493L54.1637 69.0607L53.7186 70.117C53.433 70.8463 53.1643 71.5925 52.9207 72.3553C52.4252 73.8727 51.9633 75.4236 51.6022 77.0164C50.8461 80.2088 50.3351 83.4542 50.0737 86.7242L49.9813 87.8979C49.9813 88.0571 49.9813 88.1074 49.9057 87.9733C49.7813 87.7471 49.5948 87.561 49.3682 87.4368C49.1499 87.3194 49.0827 87.3613 49.1751 87.4368C49.6776 87.5291 50.1927 87.5291 50.6952 87.4368C51.4309 87.3268 52.1579 87.1643 52.8703 86.9505C56.0506 85.945 59.1594 84.7266 62.1756 83.3038L64.208 86.4643C61.3609 88.7965 58.2353 90.7676 54.9027 92.3326C53.9843 92.7481 53.0387 93.101 52.0725 93.3889C50.8833 93.757 49.6361 93.9019 48.394 93.8164C47.4556 93.7499 46.5462 93.4626 45.7402 92.9781C44.7878 92.38 44.0453 91.5011 43.6154 90.4631C43.3022 89.6613 43.1399 88.8087 43.1367 87.9481V86.4308C43.1467 82.7432 43.5152 79.0653 44.2369 75.4487C44.5953 73.61 45.0694 71.7957 45.6562 70.0164C45.9417 69.1194 46.2777 68.2224 46.6304 67.3254C46.8152 66.8811 46.9915 66.4368 47.2015 65.9841L47.529 65.2966C47.655 65.0535 47.7474 64.8691 47.9321 64.5254L54.5752 68.1553Z" fill="#B55B52"/>
<path d="M59.5818 38.2852C60.4217 42.6864 62.3869 52.2768 59.3047 55.2025C59.3047 55.2025 60.5056 59.6624 68.6856 59.6624C77.6885 59.6624 72.9855 55.2025 72.9855 55.2025C68.0809 54.0373 68.2069 50.3989 69.0635 46.987L59.5818 38.2852Z" fill="#B55B52"/>
<path d="M57.4915 56.7365C57.4915 56.7365 56.702 54.2215 56.4081 52.7545C56.1142 51.2874 67.1495 51.7569 70.8028 52.6958C74.456 53.6347 75.6234 57.9018 75.6234 57.9018L57.4915 56.7365Z" fill="#263238"/>
<path d="M79.259 37.2715C79.5052 38.7221 79.9488 40.1324 80.5775 41.4631C80.2338 41.6148 79.861 41.6896 79.4853 41.6824C79.1096 41.6751 78.7399 41.586 78.4023 41.4212L79.259 37.2715Z" fill="#A02724"/>
<path d="M77.9583 32.77C77.9065 32.7553 77.8599 32.7263 77.824 32.6862C77.7907 32.6542 77.7642 32.6157 77.7461 32.5732C77.7281 32.5308 77.7188 32.4851 77.7188 32.4389C77.7187 32.3928 77.7281 32.3471 77.7461 32.3046C77.7642 32.2621 77.7907 32.2237 77.824 32.1916C78.2108 31.7894 78.6892 31.4863 79.2185 31.3083C79.7478 31.1302 80.3123 31.0824 80.8641 31.1688C80.909 31.1778 80.9516 31.1956 80.9895 31.2212C81.0274 31.2468 81.0599 31.2797 81.0849 31.3179C81.1099 31.3562 81.127 31.399 81.1353 31.444C81.1435 31.4889 81.1427 31.535 81.1329 31.5796C81.1128 31.6708 81.0573 31.7502 80.9785 31.8005C80.8998 31.8508 80.8043 31.8679 80.713 31.8479C80.276 31.7881 79.831 31.8329 79.4148 31.9787C78.9986 32.1244 78.6232 32.367 78.3195 32.6862C78.2735 32.7331 78.2151 32.7659 78.1512 32.7808C78.0872 32.7956 78.0203 32.7919 77.9583 32.77Z" fill="#263238"/>
<path d="M78.9506 36.1572C78.8246 36.7441 79.0346 37.2806 79.4209 37.356C79.8072 37.4315 80.2104 37.0291 80.3363 36.4423C80.4623 35.8554 80.244 35.3189 79.8576 35.2435C79.4713 35.168 79.0682 35.5704 78.9506 36.1572Z" fill="#263238"/>
<path d="M79.6797 35.2105L81.1746 35.1016C81.1746 35.1016 80.2256 36.0489 79.6797 35.2105Z" fill="#263238"/>
<path d="M21.7969 268.59H29.2126L31.5809 251.438H24.1568L21.7969 268.59Z" fill="#B55B52"/>
<path d="M30.4812 263.51H22.1418C21.9984 263.508 21.8592 263.558 21.7497 263.65C21.6402 263.743 21.5677 263.871 21.5455 264.013L20.5965 270.594C20.5788 270.761 20.5965 270.929 20.6484 271.089C20.7003 271.249 20.7851 271.396 20.8976 271.521C21.01 271.646 21.1474 271.746 21.301 271.814C21.4546 271.882 21.6208 271.918 21.789 271.918C24.6948 271.868 26.0973 271.692 29.7674 271.692C32.0181 271.692 35.3103 271.927 38.426 271.927C41.5418 271.927 41.7098 268.85 40.4164 268.573C34.5964 267.324 33.6978 265.606 31.7158 263.963C31.37 263.672 30.9331 263.512 30.4812 263.51Z" fill="#263238"/>
<path opacity="0.2" d="M24.1558 251.438H31.5799L30.3538 260.282H22.9297L24.1558 251.438Z" fill="black"/>
<path d="M49.9767 56.955C46.9701 57.9107 44.7109 69.2449 44.7109 69.2449L54.243 77.6281C54.243 77.6281 60.4829 66.6042 58.6689 62.9323C56.7709 59.1347 53.5291 55.8317 49.9767 56.955Z" fill="#263238"/>
<path d="M86.4129 62.8743C86.4129 67.6276 86.5892 76.4635 83.4819 92.2156C82.9192 95.0743 84.0362 96.3401 83.5323 99.2659C83.2047 101.169 82.1381 100.892 81.987 101.781H51.8455C51.8455 100.884 50.527 100.406 50.2247 98.4779C49.5192 94.0431 52.0891 93.6743 52.0051 90.8826C51.7951 83.8407 50.7705 75.927 47.68 62.0276C47.5229 61.3487 47.5089 60.6447 47.6387 59.9601C47.7686 59.2756 48.0395 58.6254 48.4343 58.0508C48.8291 57.4763 49.3391 56.9898 49.9321 56.6224C50.5251 56.2549 51.1881 56.0144 51.8791 55.9162C54.0459 55.606 56.6577 55.3042 59.2948 55.1701C63.8493 54.847 68.4211 54.847 72.9756 55.1701C75.6463 55.4132 78.4849 55.8324 80.7776 56.2096C82.3587 56.4674 83.7954 57.2807 84.8287 58.5027C85.862 59.7248 86.4238 61.2752 86.4129 62.8743Z" fill="#263238"/>
<path opacity="0.4" d="M85.2639 76.5807C85.0708 78.6933 85.2051 81.0741 84.8692 83.7651C79.889 81.2502 79.2004 74.8119 80.7288 71.5508C82.496 72.979 84.0265 74.6765 85.2639 76.5807Z" fill="black"/>
<path d="M87.5389 64.9277C88.3788 68.1804 89.2858 71.5337 90.2432 74.7948C91.2006 78.0559 92.2252 81.3169 93.4261 84.402C93.9945 85.9064 94.6392 87.381 95.3577 88.8199C95.1516 88.6058 94.9026 88.4373 94.6271 88.3253C94.1316 88.1493 93.7873 88.2667 93.846 88.3253C94.2892 88.2582 94.7098 88.0857 95.0722 87.8223C96.3858 86.9767 97.6223 86.0173 98.7674 84.9553C100.01 83.8571 101.287 82.6583 102.463 81.5014L105.528 83.681C104.672 85.3146 103.707 86.8887 102.639 88.3924C101.518 89.9947 100.213 91.4606 98.7507 92.7601C98.3098 93.136 97.8409 93.4779 97.3481 93.7828C96.7303 94.174 96.0602 94.476 95.3577 94.6798C94.251 94.9978 93.07 94.9418 91.9984 94.5205C90.9046 94.0552 89.9933 93.2456 89.4034 92.2152C88.4378 90.5921 87.5712 88.9124 86.8083 87.1852C85.3409 83.8713 84.0651 80.4761 82.9871 77.0164C82.4412 75.3397 81.9289 73.6044 81.467 71.8774C81.0051 70.1505 80.5432 68.4487 80.1484 66.6547L87.5389 64.9277Z" fill="#B55B52"/>
<path d="M85.2064 58.7316C89.1032 63.1077 90.7409 71.0801 90.7409 71.0801L79.4956 78.3819C79.4956 78.3819 73.9359 65.8071 75.2964 61.9508C77.0853 56.7951 81.4104 54.4897 85.2064 58.7316Z" fill="#263238"/>
<path d="M106.04 81.8446C106.527 80.344 105.041 80.3608 105.545 77.2925C105.721 76.2111 104.781 75.75 104.705 76.3201C104.218 79.2123 98.5155 83.5883 101.564 84.9799C103.387 85.8267 106.04 81.8446 106.04 81.8446Z" fill="#B55B52"/>
<path d="M108.29 80.4111C108.231 78.7345 106.93 76.5968 105.645 79.2543L104.973 79.774C104.973 79.774 103.159 80.0423 100.883 83.1273L103.318 85.307L104.158 85.1812C105.485 84.9647 106.736 84.4168 107.795 83.5884L107.963 83.4459C108.152 83.2774 108.299 83.0665 108.391 82.8304C108.483 82.5943 108.517 82.3398 108.492 82.0878L108.29 80.4111Z" fill="#B55B52"/>
<path d="M59.6489 30.0776C58.6076 37.3543 57.9693 40.4141 60.8751 44.8489C65.2002 51.5555 74.3795 51.2201 77.5877 44.4046C80.4683 38.268 81.6944 27.395 75.2446 23.0776C73.8236 22.1272 72.1836 21.5534 70.4792 21.4104C68.7747 21.2673 67.0618 21.5596 65.5018 22.2599C63.9418 22.9601 62.5859 24.0451 61.562 25.4128C60.5381 26.7805 59.8797 28.3858 59.6489 30.0776Z" fill="#B55B52"/>
<path d="M74.2123 35.5785C77.1601 33.6755 80.2758 30.9509 80.0071 27.2456C79.7383 23.5402 75.0605 20.0527 68.619 20.0527C60.0108 20.0527 60.3635 25.636 60.3635 25.636C58.6838 25.8456 41.9544 40.6168 62.673 46.3509C83.3916 52.0851 74.2123 35.5785 74.2123 35.5785Z" fill="#263238"/>
<path d="M57.0211 26.1465C57.0211 26.1465 56.1813 27.9908 56.4584 28.8291C59.2635 29.5501 69.0559 29.9692 73.9857 29.0638C74.5624 28.0761 75.2843 27.1803 76.1272 26.4064L57.0211 26.1465Z" fill="white"/>
<path d="M56.2305 27.0353C56.6756 28.5359 73.6905 27.7395 79.1662 27.0353C80.4768 26.8554 81.7675 26.5522 83.021 26.1299V25.5598H80.6779C80.6779 25.5598 79.1662 15.3407 68.7691 15.3574C59.8417 15.4161 54.6096 21.5527 56.2305 27.0353Z" fill="#9BA7AB"/>
<path d="M71.1217 14.8798C69.4446 14.7484 67.7598 14.7484 66.0827 14.8798C64.4535 15.3996 62.9838 15.6343 60.9766 18.7361L65.4697 18.887C65.4697 18.887 68.3923 15.6427 71.3065 15.6175C71.2935 15.362 71.2307 15.1114 71.1217 14.8798Z" fill="#9BA7AB"/>
<path opacity="0.2" d="M64.0991 25.7443H64.0571C64.0161 25.7391 63.9766 25.7259 63.9408 25.7053C63.9051 25.6847 63.8737 25.6573 63.8487 25.6245C63.8237 25.5917 63.8055 25.5543 63.7951 25.5144C63.7847 25.4745 63.7824 25.433 63.7883 25.3922C64.9557 17.8976 70.3894 15.3323 70.6246 15.2652C70.662 15.2485 70.7024 15.2394 70.7435 15.2384C70.7845 15.2374 70.8253 15.2445 70.8636 15.2593C70.9018 15.2741 70.9368 15.2963 70.9664 15.3247C70.996 15.353 71.0197 15.387 71.0361 15.4245C71.0543 15.4612 71.0648 15.5012 71.0669 15.5421C71.0691 15.583 71.063 15.6239 71.0488 15.6623C71.0347 15.7007 71.0129 15.7359 70.9847 15.7656C70.9565 15.7953 70.9226 15.8191 70.8849 15.8353C70.8261 15.8353 65.5268 18.3503 64.4098 25.4844C64.3995 25.5584 64.362 25.626 64.3046 25.674C64.2471 25.722 64.1739 25.7471 64.0991 25.7443Z" fill="black"/>
<path d="M77.033 34.7736C77.4788 36.2757 77.3837 37.8862 76.7642 39.3257C75.9244 41.2119 74.1608 40.7927 73.2622 39.1161C72.4223 37.6155 71.9016 34.8239 73.2622 33.4826C74.6227 32.1412 76.4787 32.9628 77.033 34.7736Z" fill="#B55B52"/>
<path d="M74.0284 101.812C74.0284 101.812 60.9606 152.657 51.5545 181.311C43.9541 204.457 31.785 258.554 31.785 258.554H21.707C21.707 258.554 27.1491 206.075 32.9271 183.18C47.5486 125.252 38.0249 120.541 51.8905 101.812H74.0284Z" fill="#9BA7AB"/>
<path opacity="0.4" d="M60.3961 117.742C56.0206 133.67 56.3565 151.049 58.2293 159.566C60.9336 150.294 63.6378 140.612 66.0229 131.901C65.1999 127.173 62.6888 121.682 60.3961 117.742Z" fill="black"/>
<path d="M33.2703 258.757H20.3789L20.7232 254.238L34.4628 253.777L33.2703 258.757Z" fill="#263238"/>
<path d="M71.724 268.574H79.1481L78.5686 251.422H71.1445L71.724 268.574Z" fill="#B55B52"/>
<path d="M79.7355 263.51H71.396C71.2532 263.507 71.1141 263.556 71.0056 263.649C70.8971 263.742 70.8268 263.871 70.8082 264.013L69.8592 270.594C69.8402 270.76 69.8568 270.929 69.9076 271.089C69.9585 271.248 70.0426 271.396 70.1543 271.521C70.2661 271.646 70.4031 271.746 70.5563 271.814C70.7095 271.883 70.8754 271.918 71.0433 271.918C73.9491 271.868 75.3516 271.692 79.0217 271.692C81.2724 271.692 84.573 271.927 87.6887 271.927C90.8045 271.927 90.964 268.85 89.6707 268.573C83.8507 267.324 82.9521 265.606 80.9785 263.963C80.6294 263.672 80.1899 263.512 79.7355 263.51Z" fill="#263238"/>
<path opacity="0.2" d="M71.1445 251.422H78.5686L78.8626 260.266H71.4385L71.1445 251.422Z" fill="black"/>
<path d="M81.9865 101.812C81.9865 101.812 81.9865 152.657 79.9793 181.311C78.3417 204.457 80.1053 258.554 80.1053 258.554H69.9854C69.9854 258.554 61.9146 206.075 61.797 183.18C61.5031 125.252 50.7617 120.541 59.8066 101.812H81.9865Z" fill="#9BA7AB"/>
<path d="M81.4935 258.757H68.6021L67.9219 254.238L81.5607 253.777L81.4935 258.757Z" fill="#263238"/>
<path d="M51.3952 100.045L50.0346 102.744C49.9339 102.954 50.1774 103.163 50.5301 103.163H82.1329C82.41 103.163 82.6368 103.029 82.6536 102.861L82.9223 100.17C82.9223 99.9777 82.704 99.8184 82.41 99.8184H51.8907C51.7955 99.8103 51.6999 99.8269 51.6131 99.8666C51.5263 99.9062 51.4512 99.9676 51.3952 100.045Z" fill="white"/>
<path d="M55.4924 103.457H54.6525C54.493 103.457 54.367 103.373 54.3754 103.273L54.7617 99.7684C54.7617 99.6678 54.9129 99.584 55.0725 99.584H55.9123C56.0718 99.584 56.1978 99.6678 56.1894 99.7684L55.8031 103.273C55.8115 103.373 55.6603 103.457 55.4924 103.457Z" fill="#263238"/>
<path d="M75.3127 103.457H74.4729C74.3133 103.457 74.1873 103.373 74.1957 103.273L74.582 99.7684C74.582 99.6678 74.7332 99.584 74.9012 99.584H75.741C75.9006 99.584 76.0265 99.6678 76.0181 99.7684L75.6318 103.273C75.615 103.373 75.4722 103.457 75.3127 103.457Z" fill="#263238"/>
</svg>
