<svg width="305" height="293" viewBox="0 0 305 293" fill="none" xmlns="http://www.w3.org/2000/svg">
<path opacity="0.15" d="M289.348 111.215C289.348 105.044 283.813 100.346 277.724 101.348L42.7521 140.01C37.9208 140.805 34.3757 144.982 34.3757 149.878V280.737C34.3757 287.069 40.1857 291.807 46.388 290.532L281.36 242.261C286.01 241.306 289.348 237.213 289.348 232.466V111.215Z" fill="#FB9D50"/>
<path opacity="0.25" d="M15.3479 57.773C15.3479 51.6043 20.8784 46.9067 26.9658 47.9047L261.938 86.428C266.772 87.2205 270.32 91.3978 270.32 96.2962V237.671C270.32 244 264.515 248.737 258.315 247.468L23.3426 199.37C18.6892 198.418 15.3479 194.323 15.3479 189.574V57.773Z" fill="#2A889B"/>
<path d="M146.143 236.122H164.757L181.678 182.879C183.253 177.873 186.389 173.502 190.626 170.406C194.863 167.309 199.98 165.649 205.228 165.669H218.299C223.547 165.648 228.665 167.307 232.903 170.404C237.14 173.501 240.276 177.872 241.85 182.879L258.779 236.122H277.348L260.138 181.865C258.352 176.181 254.796 171.218 249.988 167.699C245.181 164.181 239.374 162.292 233.417 162.309H190.138C184.18 162.294 178.373 164.184 173.565 167.702C168.756 171.22 165.197 176.182 163.408 181.865L146.143 236.122Z" fill="#9BA7AB"/>
<path opacity="0.4" d="M146.143 236.122H164.757L181.678 182.879C183.253 177.873 186.389 173.502 190.626 170.406C194.863 167.309 199.98 165.649 205.228 165.669H218.299C223.547 165.648 228.665 167.307 232.903 170.404C237.14 173.501 240.276 177.872 241.85 182.879L258.779 236.122H277.348L260.138 181.865C258.352 176.181 254.796 171.218 249.988 167.699C245.181 164.181 239.374 162.292 233.417 162.309H190.138C184.18 162.294 178.373 164.184 173.565 167.702C168.756 171.22 165.197 176.182 163.408 181.865L146.143 236.122Z" fill="black"/>
<path d="M146.144 236.122H149.659L166.579 182.88C168.154 177.873 171.29 173.502 175.527 170.406C179.765 167.309 184.881 165.65 190.13 165.669H218.3C223.548 165.648 228.666 167.307 232.904 170.404C237.141 173.501 240.276 177.873 241.851 182.88L258.78 236.122H262.285L245.075 181.865C243.287 176.173 239.722 171.202 234.904 167.683C230.086 164.164 224.267 162.28 218.3 162.309H190.121C184.163 162.294 178.356 164.184 173.547 167.702C168.739 171.22 165.18 176.182 163.39 181.865L146.144 236.122Z" fill="#9BA7AB"/>
<path d="M62.7178 89.674C63.2226 88.8852 63.9178 88.236 64.7394 87.7865C65.5609 87.3369 66.4824 87.1014 67.4189 87.1016H142.546C143.613 87.1016 144.657 87.4069 145.556 87.9815C146.455 88.5562 147.17 89.376 147.618 90.3443L191.314 185.091H271.74C272.474 185.091 273.2 185.235 273.878 185.516C274.556 185.797 275.172 186.209 275.691 186.728C276.21 187.247 276.622 187.863 276.903 188.541C277.184 189.219 277.328 189.946 277.328 190.679C277.328 191.413 277.184 192.14 276.903 192.818C276.622 193.496 276.21 194.112 275.691 194.631C275.172 195.15 274.556 195.562 273.878 195.843C273.2 196.124 272.474 196.268 271.74 196.268H112.591C111.524 196.267 110.48 195.961 109.582 195.387C108.683 194.812 107.967 193.993 107.519 193.025L62.3465 95.1088C61.9388 94.2467 61.7588 93.2945 61.8239 92.343C61.8889 91.3916 62.1967 90.4727 62.7178 89.674Z" fill="#9BA7AB"/>
<path opacity="0.5" d="M62.7178 89.674C63.2226 88.8852 63.9178 88.236 64.7394 87.7865C65.5609 87.3369 66.4824 87.1014 67.4189 87.1016H142.546C143.613 87.1016 144.657 87.4069 145.556 87.9815C146.455 88.5562 147.17 89.376 147.618 90.3443L191.314 185.091H271.74C272.474 185.091 273.2 185.235 273.878 185.516C274.556 185.797 275.172 186.209 275.691 186.728C276.21 187.247 276.622 187.863 276.903 188.541C277.184 189.219 277.328 189.946 277.328 190.679C277.328 191.413 277.184 192.14 276.903 192.818C276.622 193.496 276.21 194.112 275.691 194.631C275.172 195.15 274.556 195.562 273.878 195.843C273.2 196.124 272.474 196.268 271.74 196.268H112.591C111.524 196.267 110.48 195.961 109.582 195.387C108.683 194.812 107.967 193.993 107.519 193.025L62.3465 95.1088C61.9388 94.2467 61.7588 93.2945 61.8239 92.343C61.8889 91.3916 62.1967 90.4727 62.7178 89.674Z" fill="white"/>
<path opacity="0.5" d="M112.611 196.268H196.642C198.124 196.268 199.546 195.679 200.594 194.631C201.642 193.583 202.231 192.162 202.231 190.679C202.231 189.197 201.642 187.776 200.594 186.728C199.546 185.68 198.124 185.091 196.642 185.091H116.189L72.4662 90.3805C71.8209 89.0747 70.6913 88.0723 69.3179 87.5869C67.9446 87.1016 66.436 87.1716 65.1134 87.7821C63.7909 88.3926 62.759 89.4953 62.2375 90.8553C61.716 92.2154 61.746 93.7253 62.3213 95.0635L107.539 193.025C107.987 193.993 108.703 194.812 109.602 195.387C110.501 195.961 111.545 196.267 112.611 196.268Z" fill="#9BA7AB"/>
<path d="M142.037 102.048L143.206 102.491L144.284 102.872C144.999 103.125 145.724 103.334 146.439 103.56C147.88 103.995 149.329 104.375 150.805 104.711C153.817 105.422 156.883 105.88 159.972 106.078C163.368 106.336 166.783 106.073 170.099 105.299L170.769 105.136L171.104 105.046L171.276 105C171.36 104.984 171.442 104.96 171.521 104.928C172.514 104.619 173.45 104.151 174.293 103.542C175.947 102.334 177.16 100.617 177.747 98.6544C178.334 96.6918 178.263 94.5909 177.544 92.6726C177.494 92.5308 177.437 92.3917 177.372 92.2559L177.245 91.9932L176.992 91.4588L176.494 90.399C175.172 87.7089 173.659 85.1176 171.965 82.6454C170.334 80.2088 168.559 77.9262 166.747 75.707C164.936 73.4878 163.034 71.3682 161.059 69.3211C159.084 67.274 157.091 65.3175 154.881 63.4062L149.963 67.8084C152.88 72.3374 155.869 76.8664 158.55 81.486C159.238 82.6273 159.881 83.7776 160.543 84.928C161.204 86.0783 161.811 87.2287 162.354 88.3881C163.528 90.6155 164.575 92.9079 165.488 95.2541L165.796 96.0965L165.95 96.5131L166.023 96.7215C166.023 96.7758 166.104 96.9207 166.023 96.7939C165.781 96.205 165.736 95.5534 165.896 94.937C166.068 94.281 166.454 93.701 166.992 93.2885C167.266 93.0789 167.572 92.9138 167.898 92.7994C167.961 92.7994 167.898 92.7994 167.898 92.7994H167.816H167.644L167.309 92.8537C165.204 93.1246 163.073 93.1246 160.968 92.8537C158.564 92.5791 156.18 92.1494 153.831 91.5675C152.617 91.2957 151.412 90.9425 150.207 90.6617L148.396 90.1182L147.49 89.8465L146.711 89.5838L142.037 102.048Z" fill="#FF8B7B"/>
<path d="M129.792 93.6427C132.745 88.0268 142.02 85.2369 159.348 90.4634L159.094 109.485C159.094 109.485 122.129 108.208 129.792 93.6427Z" fill="#9BA7AB"/>
<path opacity="0.2" d="M140.066 96.5949C145.22 95.3449 151.841 98.7144 158.227 109.466C154.803 109.267 142.086 108.325 134.522 104.502C134.196 100.707 135.582 97.6818 140.066 96.5949Z" fill="black"/>
<path d="M245.981 234.864L255.184 231.286L250.048 208.396L240.845 211.965L245.981 234.864Z" fill="#FF8B7B"/>
<path d="M253.625 227.173L244.631 227.336C244.437 227.346 244.254 227.424 244.112 227.557C243.971 227.69 243.882 227.868 243.861 228.061L242.421 237.409C242.386 237.626 242.398 237.848 242.454 238.06C242.511 238.273 242.612 238.471 242.751 238.642C242.889 238.813 243.062 238.952 243.258 239.052C243.454 239.152 243.668 239.209 243.888 239.22C247.584 239.094 249.278 238.813 253.933 238.74C256.805 238.74 265.455 238.912 269.413 238.849C273.372 238.786 273.689 234.438 272.049 234.066C264.712 232.409 257.611 230.045 255.183 227.726C254.753 227.351 254.196 227.154 253.625 227.173Z" fill="#263238"/>
<path opacity="0.2" d="M240.844 211.974L250.047 208.396L252.692 220.199L243.208 222.536L240.844 211.974Z" fill="black"/>
<path d="M173.723 155.072C173.723 155.072 194.094 154.964 223.977 161.005C244.683 165.19 254.774 213.786 254.774 213.786L239.982 219.067C239.982 219.067 230.018 186.042 220.507 178.85C170.888 178.605 146.105 193.342 139.955 160.797C148.134 157.491 173.723 155.072 173.723 155.072Z" fill="black"/>
<path d="M257.809 216.568L237.899 220.726L236.314 214.159L257.075 209.395L257.809 216.568Z" fill="#9BA7AB"/>
<path d="M155.989 64.3834L151.333 59.2656L143.181 64.7004C143.181 64.7004 148.208 71.041 153.996 69.0664L155.989 64.3834Z" fill="#FF8B7B"/>
<path d="M142.446 55.418L139.738 60.6263L143.162 64.6662L151.332 59.2676L142.446 55.418Z" fill="#FF8B7B"/>
<path d="M142.01 73.8043L150.244 67.1648C150.328 67.0978 150.398 67.0139 150.448 66.9183C150.498 66.8228 150.527 66.7179 150.534 66.6103C150.541 66.5027 150.525 66.3949 150.487 66.2938C150.45 66.1927 150.392 66.1006 150.316 66.0235L136.086 51.096C135.929 50.9266 135.713 50.8237 135.482 50.8086C135.251 50.7934 135.023 50.8671 134.845 51.0144L126.612 57.6539C126.526 57.72 126.455 57.8037 126.404 57.8993C126.354 57.9948 126.324 58.1002 126.317 58.2082C126.31 58.3162 126.326 58.4244 126.365 58.5257C126.403 58.6269 126.462 58.7188 126.539 58.7952L140.769 73.7228C140.927 73.8922 141.143 73.995 141.373 74.0102C141.604 74.0253 141.832 73.9517 142.01 73.8043Z" fill="#263238"/>
<path d="M126.06 163.154C126.06 163.154 111.024 141.016 103.714 105.337C103.318 103.357 103.354 101.314 103.82 99.3492C104.285 97.3843 105.17 95.543 106.412 93.9513C107.655 92.3595 109.227 91.0547 111.02 90.126C112.813 89.1974 114.786 88.6667 116.803 88.5704C124.049 88.1899 131.694 88.0903 137.908 88.1175C140.942 88.1281 143.891 89.1241 146.31 90.9553C148.729 92.7866 150.488 95.3541 151.323 98.2715C156.944 117.882 164.445 136.905 173.723 155.074L126.06 163.154Z" fill="#9BA7AB"/>
<path d="M132.048 104.792C132.154 104.608 132.299 104.45 132.474 104.331C132.649 104.212 132.849 104.134 133.058 104.104C133.268 104.073 133.481 104.09 133.683 104.155C133.885 104.219 134.069 104.328 134.222 104.475L142.121 110.879L144.648 104.167C144.715 103.967 144.827 103.786 144.976 103.638C145.124 103.489 145.306 103.377 145.505 103.311C145.704 103.244 145.916 103.224 146.124 103.253C146.332 103.282 146.531 103.359 146.704 103.478C147.109 103.726 147.419 104.103 147.583 104.548C147.748 104.994 147.757 105.481 147.61 105.933L144.893 113.179L153.208 119.927C153.574 120.223 153.829 120.633 153.931 121.093C154.033 121.552 153.976 122.032 153.769 122.455C153.665 122.65 153.513 122.816 153.328 122.938C153.143 123.059 152.93 123.133 152.71 123.152C152.307 123.168 151.912 123.032 151.605 122.772L143.706 116.368L141.179 123.125C141.093 123.375 140.935 123.593 140.726 123.754C140.517 123.915 140.265 124.011 140.001 124.031C139.683 124.054 139.366 123.975 139.096 123.804C138.692 123.555 138.383 123.178 138.219 122.733C138.054 122.288 138.044 121.801 138.19 121.35L140.907 114.103L132.592 107.355C132.22 107.055 131.963 106.637 131.864 106.17C131.765 105.703 131.83 105.216 132.048 104.792V104.792Z" fill="white"/>
<path opacity="0.2" d="M103.506 101.096C108.561 94.0402 113.09 93.0438 114.376 93.4423C126.088 97.1289 113.524 129.375 111.577 132.98C108.287 123.971 105.668 114.731 103.742 105.335C103.448 103.943 103.369 102.513 103.506 101.096V101.096Z" fill="black"/>
<path d="M141.305 91.8849C141.607 91.8849 141.903 91.8034 142.162 91.649C142.422 91.4946 142.634 91.273 142.778 91.0076C142.922 90.7423 142.992 90.443 142.979 90.1414C142.967 89.8399 142.874 89.5472 142.709 89.2943C142.492 88.9592 137.22 81.0153 129.258 82.4103C129.041 82.4483 128.833 82.5288 128.647 82.647C128.461 82.7653 128.3 82.919 128.174 83.0994C128.047 83.2798 127.957 83.4834 127.91 83.6985C127.862 83.9136 127.857 84.1361 127.895 84.3532C127.933 84.5703 128.013 84.7777 128.131 84.9637C128.25 85.1497 128.403 85.3106 128.584 85.4372C128.764 85.5638 128.968 85.6536 129.183 85.7015C129.398 85.7494 129.62 85.7545 129.838 85.7164C135.589 84.7019 139.865 91.0697 139.901 91.1512C140.057 91.3792 140.267 91.5654 140.511 91.6934C140.756 91.8213 141.029 91.8871 141.305 91.8849V91.8849Z" fill="#263238"/>
<path d="M116.668 65.8516C119.023 72.2555 122.04 83.8497 118.389 88.4965C122.893 92.4012 128.743 94.3935 134.694 94.049C142.212 93.7954 140.681 90.7882 138.226 88.1251C130.907 86.8842 130.156 80.7338 130.5 75.607L116.668 65.8516Z" fill="#FF8B7B"/>
<path d="M149.637 90.2903C149.637 93.4062 147.436 95.9244 144.718 95.9244C142.001 95.9244 139.809 93.4062 139.809 90.2903C139.809 87.1744 142.01 84.6562 144.718 84.6562C147.427 84.6562 149.637 87.1834 149.637 90.2903Z" fill="#263238"/>
<path opacity="0.4" d="M149.637 90.2903C149.637 93.4062 147.436 95.9244 144.718 95.9244C142.001 95.9244 139.809 93.4062 139.809 90.2903C139.809 87.1744 142.01 84.6562 144.718 84.6562C147.427 84.6562 149.637 87.1834 149.637 90.2903Z" fill="#9BA7AB"/>
<path d="M149.051 90.2893C149.053 91.562 148.677 92.8067 147.971 93.8657C147.265 94.9247 146.261 95.7504 145.085 96.2382C143.91 96.7261 142.616 96.8542 141.367 96.6064C140.119 96.3585 138.972 95.7458 138.072 94.8459C137.172 93.9459 136.56 92.7992 136.312 91.5508C136.064 90.3024 136.192 89.0086 136.68 87.8331C137.168 86.6576 137.994 85.6532 139.053 84.9473C140.112 84.2413 141.356 83.8654 142.629 83.8672C144.331 83.8696 145.964 84.547 147.167 85.7508C148.371 86.9547 149.049 88.5868 149.051 90.2893V90.2893Z" fill="#263238"/>
<path opacity="0.2" d="M122.282 69.8281L130.434 75.589C130.325 76.7943 130.325 78.0069 130.434 79.2122C127.716 78.9948 123.477 76.214 122.689 73.3426C122.348 72.2042 122.21 71.0145 122.282 69.8281Z" fill="black"/>
<path d="M114.049 56.9485C116.151 65.4358 116.948 70.5354 122.12 74.3126C123.755 75.5834 125.708 76.3803 127.765 76.6162C129.822 76.8522 131.905 76.5181 133.785 75.6505C135.665 74.7829 137.27 73.4151 138.426 71.6967C139.581 69.9783 140.242 67.9753 140.336 65.9068C140.77 57.972 137.265 45.4086 128.18 43.1169C119.231 40.8615 111.948 48.4521 114.049 56.9485Z" fill="#FF8B7B"/>
<path d="M117.943 50.4621C121.086 47.011 136.059 52.5726 137.753 44.9367C139.447 37.3009 130.905 35.5346 127.554 39.1215C125.652 41.1596 120.878 37.1378 118.758 40.2356C115.217 45.4077 110.063 42.6088 108.577 47.482C107.345 51.5128 113.786 55.0092 117.943 50.4621Z" fill="#263238"/>
<path d="M111.512 51.3765C111.512 51.3765 108.468 49.3294 105.724 53.8675C107.492 52.7032 109.451 51.86 111.512 51.3765V51.3765Z" fill="#263238"/>
<path d="M111.168 50.1988L114.891 48.668C120.108 50.5701 119.972 54.293 119.972 57.7894C119.961 60.3588 120.964 62.829 122.762 64.6643L117.916 66.2133C117.916 66.2133 100.742 58.9578 111.168 50.1988Z" fill="#263238"/>
<path d="M112.655 67.4186C114.265 68.6079 116.265 69.142 118.253 68.9132C120.862 68.5871 121.052 66.0871 119.385 64.2121C117.9 62.5273 114.739 60.6614 112.574 61.9385C110.409 63.2157 110.69 65.9512 112.655 67.4186Z" fill="#FF8B7B"/>
<path d="M128.497 57.2285C128.624 57.926 129.104 58.4423 129.566 58.3879C130.028 58.3336 130.291 57.7086 130.164 57.0111C130.037 56.3136 129.557 55.7973 129.104 55.8607C128.651 55.9241 128.37 56.531 128.497 57.2285Z" fill="#263238"/>
<path d="M136.931 56.3144C137.057 57.0119 137.538 57.5282 137.999 57.4648C138.461 57.4014 138.724 56.7945 138.597 56.097C138.47 55.3996 137.99 54.8833 137.528 54.9467C137.066 55.0101 136.777 55.617 136.931 56.3144Z" fill="#263238"/>
<path d="M133.969 57.0664C133.969 57.0664 136.306 60.8798 138.426 62.5918C137.393 63.9052 135.183 63.6606 135.183 63.6606L133.969 57.0664Z" fill="#FF5652"/>
<path d="M132.194 67.1654C130.556 67.1741 128.98 66.5437 127.8 65.4082C127.783 65.3885 127.769 65.3656 127.76 65.3406C127.751 65.3157 127.747 65.2892 127.748 65.2627C127.749 65.2362 127.756 65.2102 127.767 65.1862C127.779 65.1622 127.794 65.1407 127.814 65.1228C127.834 65.105 127.857 65.0912 127.882 65.0822C127.907 65.0732 127.933 65.0693 127.96 65.0705C127.986 65.0718 128.012 65.0783 128.036 65.0896C128.06 65.1009 128.082 65.1168 128.099 65.1364C128.755 65.7497 129.539 66.208 130.395 66.4776C131.251 66.7473 132.157 66.8213 133.045 66.6944C133.101 66.6888 133.157 66.7043 133.202 66.7378C133.248 66.7712 133.279 66.8204 133.29 66.8756C133.295 66.9019 133.294 66.9291 133.288 66.9553C133.282 66.9814 133.271 67.006 133.254 67.0274C133.238 67.0488 133.218 67.0665 133.194 67.0794C133.17 67.0922 133.144 67.0999 133.118 67.102C132.811 67.1444 132.503 67.1656 132.194 67.1654Z" fill="#263238"/>
<path d="M125.001 55.2546C124.929 55.2525 124.858 55.2339 124.793 55.2003C124.696 55.1482 124.623 55.0606 124.589 54.956C124.556 54.8513 124.564 54.7376 124.612 54.6387C124.903 54.0567 125.334 53.5564 125.867 53.1831C126.4 52.8099 127.018 52.5754 127.665 52.501C127.777 52.4934 127.888 52.5297 127.974 52.6024C128.06 52.675 128.115 52.7783 128.126 52.8905C128.133 52.9438 128.128 52.9979 128.112 53.0492C128.097 53.1006 128.071 53.1482 128.036 53.1891C128.001 53.2299 127.958 53.2631 127.91 53.2865C127.861 53.3099 127.809 53.3231 127.755 53.3253C127.245 53.3918 126.76 53.5839 126.342 53.8843C125.925 54.1847 125.589 54.5839 125.364 55.0463C125.327 55.1098 125.274 55.1626 125.211 55.1992C125.147 55.2357 125.075 55.2549 125.001 55.2546V55.2546Z" fill="#263238"/>
<path d="M138.333 53.2622C138.265 53.2728 138.196 53.2678 138.13 53.2474C138.064 53.227 138.003 53.1917 137.953 53.1444C137.584 52.7582 137.129 52.4631 136.626 52.2823C136.123 52.1015 135.585 52.0401 135.054 52.1028C134.945 52.1194 134.832 52.0943 134.74 52.0322C134.648 51.9701 134.582 51.8757 134.556 51.7676C134.543 51.7164 134.54 51.663 134.548 51.6107C134.556 51.5584 134.575 51.5082 134.603 51.4633C134.63 51.4184 134.667 51.3796 134.711 51.3494C134.754 51.3192 134.803 51.2981 134.855 51.2875C135.524 51.2043 136.202 51.2762 136.839 51.4976C137.475 51.7191 138.051 52.0843 138.524 52.5647C138.563 52.602 138.595 52.6469 138.616 52.6967C138.638 52.7466 138.649 52.8003 138.649 52.8546C138.649 52.9089 138.638 52.9626 138.616 53.0124C138.595 53.0622 138.563 53.1072 138.524 53.1444C138.474 53.2023 138.407 53.2434 138.333 53.2622Z" fill="#263238"/>
<path d="M282.919 236.758L288.11 228.361L270.211 213.18L265.03 221.576L282.919 236.758Z" fill="#FF8B7B"/>
<path d="M285.064 225.453L276.749 231.794C276.612 231.917 276.524 232.085 276.501 232.268C276.478 232.451 276.521 232.636 276.622 232.79L281.26 240.987C281.353 241.182 281.485 241.355 281.649 241.495C281.813 241.635 282.004 241.74 282.21 241.802C282.416 241.864 282.633 241.883 282.847 241.856C283.061 241.83 283.267 241.759 283.452 241.649C286.079 239.547 287.881 237.862 291.251 235.308C293.316 233.723 299.783 229.185 302.646 226.984C305.508 224.783 303.09 221.169 301.668 221.757C295.282 224.429 289.756 225.598 286.586 225.1C286.322 225.051 286.05 225.057 285.788 225.118C285.527 225.179 285.28 225.293 285.064 225.453V225.453Z" fill="#263238"/>
<path opacity="0.2" d="M265.027 221.584L270.217 213.188L279.438 221.014L273.278 228.586L265.027 221.584Z" fill="black"/>
<path d="M160.943 157.238C160.943 157.238 191.741 162.673 220.726 172.039C240.826 178.534 275.817 215.689 275.817 215.689L267.212 228.814C267.212 228.814 223.924 197.601 215.255 189.367C165.98 183.515 128.48 196.206 126.052 163.153C134.585 160.789 160.943 157.238 160.943 157.238Z" fill="#263238"/>
<path d="M279.957 216.069L266.579 231.377L261.352 227.093L275.057 210.779L279.957 216.069Z" fill="#9BA7AB"/>
<path d="M102.944 101.078C101.412 107.697 100.22 114.391 99.3753 121.132C98.9586 124.529 98.6235 127.962 98.4695 131.522C98.4061 133.334 98.388 135.145 98.4695 137.038C98.5239 138.007 98.6054 138.995 98.7684 140.064C98.935 141.294 99.2139 142.507 99.6018 143.687C99.8909 144.52 100.271 145.319 100.734 146.069C101.11 146.651 101.528 147.205 101.984 147.727C102.801 148.652 103.712 149.489 104.701 150.227C106.369 151.456 108.167 152.498 110.064 153.334C113.415 154.776 116.901 155.881 120.471 156.631C127.209 158.081 134.078 158.836 140.97 158.886L141.676 152.328C135.455 150.842 129.317 149.028 123.288 146.893C120.474 145.916 117.747 144.704 115.136 143.27C114.053 142.66 113.041 141.931 112.12 141.096C111.783 140.808 111.479 140.483 111.214 140.127C111.138 140.015 111.072 139.897 111.015 139.774C111.133 139.937 111.151 139.982 111.142 139.901C111.071 139.481 111.023 139.057 110.997 138.632C110.997 138.053 110.951 137.392 110.997 136.703C110.997 135.326 111.096 133.832 111.241 132.31C111.531 129.276 111.966 126.132 112.464 122.98C113.47 116.685 114.692 110.236 115.951 103.959L102.944 101.078Z" fill="#FF8B7B"/>
<path d="M113.486 89.1395C111.675 89.6195 103.459 90.8605 97.6167 110.942L117.363 118.641C117.363 118.641 131.032 84.4474 113.486 89.1395Z" fill="#9BA7AB"/>
<path d="M120.263 93.3694C120.261 94.6417 120.637 95.886 121.342 96.9448C122.048 98.0036 123.052 98.8293 124.227 99.3174C125.402 99.8056 126.695 99.9342 127.943 99.6871C129.191 99.44 130.338 98.8282 131.238 97.9291C132.139 97.0301 132.752 95.8842 133.001 94.6364C133.25 93.3886 133.123 92.0951 132.637 90.9194C132.15 89.7438 131.326 88.7388 130.268 88.0318C129.21 87.3247 127.966 86.9473 126.694 86.9473C125.85 86.9461 125.014 87.1113 124.234 87.4335C123.453 87.7557 122.744 88.2286 122.147 88.8251C121.55 89.4215 121.076 90.1299 120.753 90.9096C120.429 91.6894 120.263 92.5252 120.263 93.3694Z" fill="#263238"/>
<path d="M127.032 96.8487C127.428 96.8487 127.812 96.708 128.115 96.4516C128.417 96.1952 128.619 95.8397 128.684 95.4484C128.75 95.0572 128.674 94.6554 128.471 94.3147C128.268 93.974 127.95 93.7165 127.575 93.5878C127.466 93.5878 120.274 91.0063 119.83 85.182C119.797 84.7388 119.588 84.3271 119.251 84.0374C118.914 83.7478 118.476 83.604 118.032 83.6376C117.589 83.6713 117.177 83.8796 116.888 84.2168C116.598 84.554 116.454 84.9924 116.488 85.4356C117.104 93.4882 126.108 96.6313 126.452 96.7671C126.64 96.8243 126.835 96.8519 127.032 96.8487Z" fill="#263238"/>
<path d="M119.676 93.3684C119.676 96.4753 121.877 99.0025 124.595 99.0025C127.312 99.0025 129.504 96.4753 129.504 93.3684C129.504 90.2616 127.312 87.7344 124.595 87.7344C121.877 87.7344 119.676 90.2525 119.676 93.3684Z" fill="#263238"/>
<path opacity="0.4" d="M119.676 93.3684C119.676 96.4753 121.877 99.0025 124.595 99.0025C127.312 99.0025 129.504 96.4753 129.504 93.3684C129.504 90.2616 127.312 87.7344 124.595 87.7344C121.877 87.7344 119.676 90.2525 119.676 93.3684Z" fill="#9BA7AB"/>
<path d="M140.4 152.029L148.063 153.125L144.44 162.4C144.44 162.4 136.07 160.262 136.106 156.06L137.918 153.152C138.183 152.749 138.556 152.429 138.996 152.23C139.435 152.031 139.922 151.962 140.4 152.029V152.029Z" fill="#FF8B7B"/>
<path d="M156.196 157.772L151.404 165.317L144.42 162.4L148.061 153.125L156.196 157.772Z" fill="#FF8B7B"/>
<path d="M229.782 160.1H133.623C133.039 160.104 132.48 160.339 132.068 160.753C131.656 161.166 131.424 161.726 131.422 162.31H231.965C231.963 161.729 231.733 161.172 231.325 160.759C230.917 160.346 230.363 160.109 229.782 160.1V160.1Z" fill="#9BA7AB"/>
<path opacity="0.2" d="M229.782 160.1H133.623C133.039 160.104 132.48 160.339 132.068 160.753C131.656 161.166 131.424 161.726 131.422 162.31H231.965C231.963 161.729 231.733 161.172 231.325 160.759C230.917 160.346 230.363 160.109 229.782 160.1V160.1Z" fill="white"/>
<path opacity="0.4" d="M161.685 160.1H133.605C133.021 160.104 132.463 160.339 132.051 160.753C131.639 161.166 131.406 161.726 131.404 162.31H163.895C163.892 161.724 163.659 161.164 163.245 160.75C162.831 160.336 162.27 160.102 161.685 160.1Z" fill="black"/>
<path d="M241.379 110.942H174.069C172.958 110.996 171.894 111.404 171.031 112.107C170.169 112.809 169.555 113.769 169.277 114.846L159.911 156.196C159.773 156.659 159.746 157.148 159.835 157.623C159.923 158.098 160.123 158.545 160.419 158.927C160.715 159.308 161.098 159.614 161.536 159.818C161.974 160.022 162.454 160.119 162.937 160.1H230.247C231.359 160.048 232.425 159.641 233.289 158.938C234.154 158.235 234.77 157.274 235.047 156.196L244.404 114.846C244.545 114.383 244.573 113.894 244.486 113.418C244.398 112.942 244.198 112.494 243.901 112.112C243.605 111.729 243.221 111.423 242.782 111.22C242.343 111.017 241.862 110.921 241.379 110.942Z" fill="#9BA7AB"/>
<path opacity="0.2" d="M241.379 110.942H174.069C172.958 110.996 171.894 111.404 171.031 112.107C170.169 112.809 169.555 113.769 169.277 114.846L159.911 156.196C159.773 156.659 159.746 157.148 159.835 157.623C159.923 158.098 160.123 158.545 160.419 158.927C160.715 159.308 161.098 159.614 161.536 159.818C161.974 160.022 162.454 160.119 162.937 160.1H230.247C231.359 160.048 232.425 159.641 233.289 158.938C234.154 158.235 234.77 157.274 235.047 156.196L244.404 114.846C244.545 114.383 244.573 113.894 244.486 113.418C244.398 112.942 244.198 112.494 243.901 112.112C243.605 111.729 243.221 111.423 242.782 111.22C242.343 111.017 241.862 110.921 241.379 110.942Z" fill="white"/>
<path opacity="0.4" d="M161.802 158.241L171.92 113.54C171.959 113.347 171.933 113.147 171.848 112.97C171.762 112.792 171.621 112.648 171.446 112.557C171.271 112.467 171.072 112.437 170.878 112.47C170.684 112.504 170.506 112.6 170.371 112.743C169.835 113.345 169.455 114.07 169.266 114.854L159.918 156.194C159.718 156.954 159.796 157.76 160.136 158.468C160.225 158.625 160.359 158.752 160.522 158.833C160.684 158.913 160.866 158.943 161.046 158.919C161.225 158.894 161.393 158.817 161.528 158.696C161.663 158.575 161.758 158.417 161.802 158.241V158.241Z" fill="black"/>
<path d="M68.0065 236.122H86.6206L103.541 182.879C105.116 177.873 108.252 173.502 112.489 170.406C116.727 167.309 121.843 165.649 127.092 165.669H140.153C145.401 165.649 150.518 167.309 154.756 170.406C158.993 173.502 162.129 177.873 163.704 182.879L180.624 236.122H199.211L182.001 181.865C180.217 176.182 176.663 171.219 171.857 167.7C167.051 164.181 161.245 162.292 155.289 162.309H112.01C106.052 162.293 100.244 164.182 95.4356 167.7C90.6268 171.218 87.0685 176.181 85.28 181.865L68.0065 236.122Z" fill="#9BA7AB"/>
<path opacity="0.4" d="M68.0065 236.122H86.6206L103.541 182.879C105.116 177.873 108.252 173.502 112.489 170.406C116.727 167.309 121.843 165.649 127.092 165.669H140.153C145.401 165.649 150.518 167.309 154.756 170.406C158.993 173.502 162.129 177.873 163.704 182.879L180.624 236.122H199.211L182.001 181.865C180.217 176.182 176.663 171.219 171.857 167.7C167.051 164.181 161.245 162.292 155.289 162.309H112.01C106.052 162.293 100.244 164.182 95.4356 167.7C90.6268 171.218 87.0685 176.181 85.28 181.865L68.0065 236.122Z" fill="black"/>
<path d="M68.0086 236.122H71.5593L88.4434 182.879C90.0188 177.873 93.1544 173.502 97.3918 170.406C101.629 167.309 106.746 165.649 111.994 165.669H140.155C145.404 165.649 150.52 167.309 154.758 170.406C158.995 173.502 162.131 177.873 163.706 182.879L180.626 236.122H184.141L166.931 181.865C165.147 176.182 161.592 171.219 156.786 167.7C151.98 164.181 146.175 162.292 140.219 162.309H112.039C106.081 162.293 100.274 164.182 95.4649 167.7C90.6561 171.218 87.0978 176.181 85.3093 181.865L68.0086 236.122Z" fill="#9BA7AB"/>
</svg>
