<svg width="206" height="114" viewBox="0 0 206 114" fill="none" xmlns="http://www.w3.org/2000/svg">
<path opacity="0.25" d="M206 11.7861C206 5.61297 200.462 0.914213 194.371 1.91966L-19.197 37.1753C-24.0259 37.9724 -27.5683 42.1475 -27.5683 47.0418V175.824C-27.5683 182.158 -21.7537 186.896 -15.5497 185.618L198.019 141.6C202.666 140.643 206 136.551 206 131.806V11.7861Z" fill="#FDBC88"/>
<path opacity="0.15" d="M-45 61.0802C-45 54.9047 -39.458 50.2053 -33.3655 51.2147L180.203 86.598C185.029 87.3976 188.568 91.5715 188.568 96.4635V215.546C188.568 221.883 182.749 226.622 176.543 225.339L-37.0256 181.162C-41.6694 180.201 -45 176.111 -45 171.369V61.0802Z" fill="#3CC2DD"/>
</svg>
