<svg width="274" height="247" viewBox="0 0 274 247" fill="none" xmlns="http://www.w3.org/2000/svg">
<path opacity="0.15" d="M274 65.2147C274 59.0437 268.466 54.3455 262.376 55.3474L27.4042 94.0102C22.5729 94.8051 19.0278 98.9813 19.0278 103.877V234.737C19.0278 241.069 24.8378 245.806 31.0401 244.532L266.012 196.261C270.662 195.306 274 191.213 274 186.465V65.2147Z" fill="#FB9D50"/>
<path opacity="0.25" d="M0 11.773C0 5.60431 5.53047 0.90671 11.6179 1.90473L246.59 40.428C251.424 41.2205 254.972 45.3978 254.972 50.2962V191.671C254.972 198 249.167 202.737 242.967 201.468L7.99466 153.37C3.34128 152.418 0 148.324 0 143.574V11.773Z" fill="#2A889B"/>
<g clip-path="url(#clip0_476_36372)">
<path opacity="0.3" d="M207.802 56.4429C207.357 53.9364 206.762 51.4589 206.02 49.0238L206.614 48.8516C207.353 51.3115 207.948 53.8126 208.396 56.3419L207.802 56.4429Z" fill="#A8E1F0"/>
<path opacity="0.3" d="M204.157 43.6181C202.237 38.8352 199.767 34.2922 196.797 30.0808L197.284 29.7363C200.274 33.9793 202.76 38.5563 204.691 43.3746L204.157 43.6181Z" fill="#A8E1F0"/>
<path opacity="0.3" d="M206.257 79.2049C207.765 70.8516 207.597 62.282 205.764 53.9941C203.93 45.7063 200.468 37.8655 195.578 30.9275C190.687 23.9895 184.467 18.0928 177.278 13.58C170.088 9.06714 162.074 6.02829 153.7 4.64005C119.61 -1.02077 86.8632 21.7651 80.3292 55.724C78.1773 66.8481 79.0165 78.3439 82.7609 89.0375C86.5052 99.7311 93.0207 109.239 101.642 116.591C104.03 118.664 105.834 121.325 106.876 124.31C107.918 127.295 108.161 130.501 107.582 133.609L106.822 137.815C106.251 140.984 106.962 144.251 108.798 146.896C110.635 149.542 113.447 151.35 116.617 151.922L138.755 155.89C141.925 156.461 145.191 155.75 147.837 153.913C150.482 152.077 152.29 149.264 152.863 146.095L153.623 141.884C154.179 138.757 155.544 135.829 157.581 133.392C159.618 130.955 162.257 129.093 165.236 127.99C175.737 124.148 185.05 117.623 192.247 109.064C199.444 100.505 204.274 90.2103 206.257 79.2049Z" fill="#A8E1F0"/>
<path d="M122.228 51C131.483 50.7819 138.809 43.1023 138.591 33.8471C138.373 24.5919 130.693 17.2659 121.438 17.484C112.183 17.7021 104.857 25.3817 105.075 34.6369C105.293 43.8921 112.972 51.2182 122.228 51Z" fill="white"/>
<path d="M151.25 32.1779C154.507 31.1975 156.353 27.7618 155.373 24.5042C154.392 21.2466 150.957 19.4006 147.699 20.381C144.442 21.3615 142.596 24.7971 143.576 28.0547C144.556 31.3123 147.992 33.1583 151.25 32.1779Z" fill="white"/>
<path d="M74.3629 63.1537C74.0956 64.4308 73.7986 65.8505 73.5372 67.1929C73.2759 68.5354 73.0383 69.9134 72.8304 71.2499C72.6225 72.5864 72.4739 73.8992 72.4086 75.1109C72.373 75.7049 72.4086 76.2989 72.4086 76.786C72.4086 77.2731 72.5155 77.6711 72.4918 77.7186L72.2245 77.2315C72.0997 77.1127 71.88 76.9999 71.8384 77.0533C71.7968 77.1068 71.9453 77.1959 72.2067 77.2672C72.9879 77.4289 73.79 77.465 74.5827 77.3741C75.5796 77.2934 76.5711 77.1565 77.5526 76.9642C78.5624 76.786 79.6435 76.5247 80.6236 76.3227L80.8018 76.2871C81.2806 76.181 81.7813 76.2413 82.2212 76.4581C82.6611 76.6749 83.014 77.0351 83.2216 77.4794C83.4292 77.9237 83.4792 78.4255 83.3632 78.902C83.2473 79.3785 82.9724 79.8013 82.5838 80.1005C81.6057 80.8523 80.571 81.5275 79.4891 82.1201C78.381 82.7329 77.2224 83.2496 76.0261 83.6645C74.6397 84.1594 73.1797 84.4164 71.7077 84.4249C70.7198 84.4183 69.7414 84.231 68.8209 83.8724C67.6319 83.4081 66.6011 82.6123 65.8509 81.5796C65.7737 81.4676 65.7043 81.3505 65.643 81.2291L65.5776 81.1103C65.0575 80.0751 64.6952 78.9679 64.5025 77.8255C64.3531 76.9297 64.2658 76.0247 64.2411 75.1169C64.1892 73.4853 64.2468 71.8521 64.4134 70.2283C64.5559 68.6542 64.7876 67.1216 65.049 65.6069C65.3103 64.0922 65.6429 62.6369 66.0587 61.0628C66.3763 60.0197 67.0798 59.1369 68.0258 58.5946C68.9718 58.0523 70.089 57.8912 71.1497 58.1443C72.2104 58.3973 73.1345 59.0454 73.7338 59.9564C74.3331 60.8674 74.5623 61.9726 74.3747 63.0468L74.3629 63.1537Z" fill="#A8E1F0"/>
<path opacity="0.2" d="M74.3629 63.1537C74.0956 64.4308 73.7986 65.8505 73.5372 67.1929C73.2759 68.5354 73.0383 69.9134 72.8304 71.2499C72.6225 72.5864 72.4739 73.8992 72.4086 75.1109C72.373 75.7049 72.4086 76.2989 72.4086 76.786C72.4086 77.2731 72.5155 77.6711 72.4918 77.7186L72.2245 77.2315C72.0997 77.1127 71.88 76.9999 71.8384 77.0533C71.7968 77.1068 71.9453 77.1959 72.2067 77.2672C72.9879 77.4289 73.79 77.465 74.5827 77.3741C75.5796 77.2934 76.5711 77.1565 77.5526 76.9642C78.5624 76.786 79.6435 76.5247 80.6236 76.3227L80.8018 76.2871C81.2806 76.181 81.7813 76.2413 82.2212 76.4581C82.6611 76.6749 83.014 77.0351 83.2216 77.4794C83.4292 77.9237 83.4792 78.4255 83.3632 78.902C83.2473 79.3785 82.9724 79.8013 82.5838 80.1005C81.6057 80.8523 80.571 81.5275 79.4891 82.1201C78.381 82.7329 77.2224 83.2496 76.0261 83.6645C74.6397 84.1594 73.1797 84.4164 71.7077 84.4249C70.7198 84.4183 69.7414 84.231 68.8209 83.8724C67.6319 83.4081 66.6011 82.6123 65.8509 81.5796C65.7737 81.4676 65.7043 81.3505 65.643 81.2291L65.5776 81.1103C65.0575 80.0751 64.6952 78.9679 64.5025 77.8255C64.3531 76.9297 64.2658 76.0247 64.2411 75.1169C64.1892 73.4853 64.2468 71.8521 64.4134 70.2283C64.5559 68.6542 64.7876 67.1216 65.049 65.6069C65.3103 64.0922 65.6429 62.6369 66.0587 61.0628C66.3763 60.0197 67.0798 59.1369 68.0258 58.5946C68.9718 58.0523 70.089 57.8912 71.1497 58.1443C72.2104 58.3973 73.1345 59.0454 73.7338 59.9564C74.3331 60.8674 74.5623 61.9726 74.3747 63.0468L74.3629 63.1537Z" fill="black"/>
<path d="M61.0647 168.113C61.0647 168.113 58.3442 164.805 58.4748 163.7L55.3326 161.918L53.2773 165.143L55.8434 166.599L56.3305 166.474L56.6275 167.068C57.9425 167.906 59.3791 168.535 60.8865 168.933C60.9902 168.827 61.0619 168.694 61.0934 168.549C61.1249 168.404 61.1149 168.253 61.0647 168.113Z" fill="#A8E1F0"/>
<path d="M64.2841 126.534C66.6244 109.771 65.8641 99.5838 68.3173 91.3213L83.5416 90.0977C83.5416 90.0977 76.7937 116.661 73.699 127.722C70.6042 138.782 58.7361 164.11 58.7361 164.11L54.5781 161.734C54.5781 161.734 60.1617 139.471 64.2841 126.534Z" fill="#263238"/>
<path d="M76.6957 102.465C75.6621 104.841 73.6425 120.231 73.6485 127.912C73.6485 127.852 73.6485 127.793 73.696 127.734C74.783 123.843 76.3215 118.034 77.854 112.129L76.6957 102.465Z" fill="black"/>
<path d="M88.7316 167.851C88.7316 167.851 82.3224 166.924 81.859 165.902H77.8555L78.0456 169.722H80.2731L80.6354 169.371L81.1819 169.722C82.9639 169.722 88.1198 169.223 89.1474 168.534C89.1433 168.394 89.1029 168.257 89.03 168.137C88.9571 168.017 88.8542 167.919 88.7316 167.851Z" fill="#A8E1F0"/>
<path d="M77.7739 126.971C74.4297 104.257 74.4297 90.1967 74.4297 90.1967L89.3272 89.9531C89.3272 89.9531 87.5452 117.045 86.9156 128.391C86.2681 140.188 82.5853 166.151 82.5853 166.151H77.3937C77.3937 166.151 76.2057 141.56 77.7739 126.971Z" fill="#263238"/>
<path d="M75.6903 47.4531C75.0012 50.4231 74.5022 54.3019 73.6172 56.5116C75.12 57.9075 77.5554 59.642 80.8046 59.5945C84.0538 59.547 83.4598 57.3551 82.5866 56.2206C80.2581 55.0326 80.169 53.8446 80.7393 52.8169L75.6903 47.4531Z" fill="#7F3E3B"/>
<path d="M70.5938 57.2429C71.4667 56.4585 72.398 55.7417 73.3796 55.0985C74.1993 54.6887 80.5076 54.8253 81.951 55.0985C83.3945 55.3718 85.1943 57.5458 85.1943 57.5458L70.5938 57.2429Z" fill="white"/>
<path d="M85.9441 47.0795C85.8728 47.3706 85.9797 47.6735 86.1698 47.6735C86.3599 47.6735 86.5737 47.5131 86.6391 47.2161C86.7044 46.9191 86.6034 46.6518 86.4074 46.6221C86.2114 46.5924 86.0094 46.7884 85.9441 47.0795Z" fill="#263238"/>
<path d="M85.8346 47.4883C85.9854 48.4591 86.2692 49.4046 86.6781 50.2979C86.4446 50.3956 86.193 50.4424 85.9401 50.4352C85.6871 50.428 85.4385 50.367 85.2109 50.2563L85.8346 47.4883Z" fill="#630F0F"/>
<path d="M86.9633 45.3919C86.9375 45.4049 86.909 45.4117 86.8801 45.4117C86.8512 45.4117 86.8227 45.4049 86.797 45.3919C86.597 45.2966 86.3769 45.2512 86.1555 45.2595C85.9342 45.2677 85.7181 45.3295 85.5258 45.4394C85.4865 45.4624 85.4398 45.4694 85.3954 45.459C85.3511 45.4486 85.3124 45.4217 85.2873 45.3837C85.2622 45.3456 85.2526 45.2994 85.2605 45.2546C85.2684 45.2097 85.2932 45.1696 85.3298 45.1424C85.5709 45.0008 85.8428 44.9197 86.1222 44.9063C86.4015 44.8928 86.6799 44.9474 86.9336 45.0652C86.9771 45.0848 87.0114 45.1205 87.0291 45.1648C87.0469 45.2091 87.0467 45.2586 87.0286 45.3028C87.013 45.3366 86.9908 45.3668 86.9633 45.3919Z" fill="#263238"/>
<path d="M76.2044 44.0921C75.6104 47.7452 75.0877 49.8538 76.5014 52.0932C78.622 55.4671 83.4512 54.7781 85.1203 51.3686C86.6231 48.2976 87.3359 42.8447 84.1165 40.6469C83.4044 40.1608 82.5806 39.8634 81.7223 39.7823C80.8639 39.7013 79.9991 39.8393 79.2086 40.1835C78.4181 40.5277 77.7279 41.0668 77.2025 41.7504C76.6771 42.434 76.3337 43.2396 76.2044 44.0921Z" fill="#7F3E3B"/>
<path d="M82.179 49.4137C78.2527 51.8194 75.9064 51.261 74.9322 49.8295C73.3343 47.4891 74.9322 46.1764 74.9322 46.1764C73.0373 46.2417 72.5027 42.9747 73.8214 41.8521C72.6334 40.6641 73.4234 37.896 75.449 38.3237C75.2826 36.2803 78.4724 34.2667 81.5434 36.411C84.062 35.0923 87.5606 36.0784 88.416 38.389C89.2714 40.6997 87.9883 41.6917 87.9883 41.6917C88.7486 42.5173 87.3943 45.0121 84.9827 44.9171C84.555 46.212 84.3887 47.2337 82.8383 47.2931C82.476 48.9801 82.874 48.8197 82.179 49.4137Z" fill="#263238"/>
<path d="M81.2381 47.0729C81.019 47.8321 81.0998 48.6465 81.4638 49.3479C81.9449 50.2151 82.8894 49.8171 83.3408 48.8786C83.7507 48.0351 84.0002 46.562 83.2339 46.0274C82.4677 45.4928 81.5054 46.0987 81.2381 47.0729Z" fill="#7F3E3B"/>
<path d="M70.7964 56.8325C76.4213 56.1924 82.1052 56.2802 87.7076 57.0938C88.88 57.3031 89.9499 57.8954 90.7496 58.7779C91.5493 59.6604 92.0337 60.7833 92.1269 61.9706C92.7209 69.1996 91.1171 81.8339 89.7509 94.5574C78.6016 98.2996 67.2799 94.504 67.2799 94.504C67.0304 91.9379 68.4144 83.5328 69.2757 79.06C68.6461 74.4268 67.0364 69.1164 66.1276 62.9626C66.0232 62.2523 66.0618 61.5284 66.2411 60.8333C66.4205 60.1382 66.7369 59.486 67.1719 58.9149C67.6068 58.3439 68.1515 57.8655 68.7739 57.5079C69.3964 57.1502 70.084 56.9206 70.7964 56.8325Z" fill="#A8E1F0"/>
<path opacity="0.2" d="M85.9453 66.9551C86.6997 71.3091 89.1113 76.4947 91.2913 79.928C91.5943 76.9224 91.8497 74.0534 92.01 71.416L85.9453 66.9551Z" fill="black"/>
<path d="M114.306 71.4743L113.201 71.0466C112.996 70.968 112.776 70.9394 112.558 70.9632C112.34 70.987 112.13 71.0624 111.947 71.1832L110.207 72.3297C109.865 72.5553 109.582 72.8596 109.381 73.2172C109.181 73.5748 109.069 73.9752 109.055 74.3849V74.9017C110.837 75.7333 113.379 75.3175 113.379 75.3175L114.116 75.2818C114.267 75.278 114.417 75.2442 114.556 75.1823C114.695 75.1204 114.82 75.0317 114.924 74.9213C115.028 74.8109 115.11 74.681 115.164 74.539C115.218 74.3969 115.243 74.2457 115.238 74.0938L115.185 72.6326C115.167 72.3748 115.075 72.1278 114.918 71.922C114.762 71.7162 114.549 71.5606 114.306 71.4743Z" fill="#7F3E3B"/>
<path d="M91.4649 60.1647C92.0589 61.3527 92.6529 62.6417 93.2825 63.8653C93.9122 65.089 94.5478 66.3245 95.1952 67.5066C95.8427 68.6886 96.5377 69.8232 97.2267 70.827C97.5712 71.326 97.9276 71.7774 98.2424 72.1516C98.5573 72.5259 98.8364 72.7932 98.878 72.8407L98.3731 72.6328C98.9169 72.8818 99.5096 73.0056 100.108 72.9951C101.015 73.0136 101.923 72.962 102.822 72.8407C103.796 72.7219 104.794 72.5437 105.792 72.3417C106.79 72.1398 107.865 71.8962 108.845 71.7002L109.012 71.6646C109.49 71.5585 109.991 71.6188 110.431 71.8356C110.871 72.0524 111.224 72.4126 111.431 72.8569C111.639 73.3012 111.689 73.803 111.573 74.2795C111.457 74.756 111.182 75.1788 110.794 75.478C109.853 76.2136 108.86 76.8805 107.824 77.4739C106.771 78.0781 105.677 78.6081 104.551 79.0599C103.321 79.5536 102.043 79.916 100.737 80.1409C99.1458 80.4463 97.5063 80.3935 95.9377 79.9865C95.8255 79.9567 95.7162 79.917 95.611 79.8677L95.4328 79.7786C94.3922 79.271 93.4348 78.608 92.5935 77.8125C91.9271 77.1965 91.3057 76.5335 90.7343 75.8285C89.695 74.57 88.7424 73.2423 87.8831 71.8546C87.0337 70.5241 86.2793 69.1698 85.5665 67.8095C84.8537 66.4492 84.2062 65.0949 83.5885 63.5921C83.3576 63.0792 83.23 62.5259 83.2129 61.9637C83.1959 61.4015 83.2897 60.8414 83.4891 60.3155C83.8918 59.2533 84.7 58.3946 85.7358 57.9283C86.7716 57.462 87.9502 57.4263 89.0124 57.829C89.5383 58.0283 90.0198 58.3294 90.4294 58.7149C90.839 59.1004 91.1687 59.5627 91.3996 60.0756L91.4649 60.1647Z" fill="#A8E1F0"/>
<path d="M95.483 169.723H44.5V173.904H95.483V169.723Z" fill="#263238"/>
<path d="M89.5377 192.277H38.5547V196.459H89.5377V192.277Z" fill="#263238"/>
<path d="M83.6002 214.83H32.6172V219.012H83.6002V214.83Z" fill="#263238"/>
<path d="M95.4805 169.723H94.3281V219.013H95.4805V169.723Z" fill="#263238"/>
<path d="M80.7969 219.013H81.9492L93.1996 169.723H92.0413L80.7969 219.013Z" fill="#263238"/>
<path d="M51.8399 169.723H50.6875V219.013H51.8399V169.723Z" fill="#263238"/>
<path d="M37.1562 219.013H38.3086L49.559 169.723H48.4007L37.1562 219.013Z" fill="#263238"/>
<path d="M158.595 160.195C153.38 159.601 151.182 164.223 154.954 166.492C158.726 168.761 148.42 175.687 153.332 179.352C158.245 183.017 164.22 190.846 167.636 183.439C171.051 176.031 161.797 172.153 165.955 168.553C170.113 164.953 164.505 154.552 158.595 160.195Z" fill="#E0E0E0"/>
<path d="M167.636 183.588C167.61 183.588 167.586 183.582 167.564 183.569C167.542 183.557 167.524 183.539 167.511 183.517C167.491 183.482 167.486 183.441 167.496 183.402C167.506 183.363 167.53 183.33 167.564 183.309C168.723 182.632 169.394 181.854 169.608 180.933C170.018 179.151 168.669 177.143 167.368 175.177C165.788 172.801 164.155 170.318 166.026 168.518C167.172 167.414 167.535 165.673 167.024 163.731C166.43 161.426 164.767 159.573 162.925 159.086C161.405 158.7 159.86 159.276 158.464 160.755C158.437 160.782 158.399 160.797 158.36 160.797C158.321 160.797 158.284 160.782 158.256 160.755C158.242 160.741 158.231 160.724 158.223 160.706C158.215 160.688 158.211 160.668 158.211 160.648C158.211 160.628 158.215 160.608 158.223 160.59C158.231 160.571 158.242 160.555 158.256 160.541C160.116 158.575 161.868 158.504 163.008 158.795C164.957 159.288 166.685 161.242 167.327 163.648C167.867 165.697 167.469 167.544 166.246 168.726C164.553 170.354 166.05 172.617 167.63 175.005C168.966 177.024 170.344 179.109 169.905 180.998C169.673 182.002 168.96 182.84 167.725 183.564C167.698 183.58 167.667 183.588 167.636 183.588Z" fill="#E0E0E0"/>
<path d="M147.204 199.951L158.021 201.935C159.001 207.59 156.542 214.861 146.818 214.861C134.986 214.861 123.718 212.592 125.393 207.139C127.418 200.611 147.204 199.951 147.204 199.951Z" fill="#263238"/>
<path opacity="0.2" d="M147.204 199.951L158.021 201.935C159.001 207.59 156.542 214.861 146.818 214.861C134.986 214.861 123.718 212.592 125.393 207.139C127.418 200.611 147.204 199.951 147.204 199.951Z" fill="black"/>
<path d="M158.295 209.693C160.511 211.57 164.443 215.182 163.909 215.604C161.295 217.689 158.503 213.109 155.664 213.822C156.068 211.778 158.295 209.693 158.295 209.693Z" fill="#263238"/>
<path d="M163.2 201.935C164.18 207.59 161.721 216.737 151.997 216.737C136.054 216.737 126.746 216.993 125.451 211.451C124.157 205.909 147.002 205.285 147.002 205.285C146.387 204.339 145.985 203.27 145.825 202.153C145.665 201.036 145.751 199.897 146.075 198.816C156.607 199.001 163.2 201.935 163.2 201.935Z" fill="#263238"/>
<path d="M152.384 181.846C151.748 183.034 151.083 184.032 150.376 185.089C149.657 186.132 148.886 187.137 148.065 188.101C147.221 189.099 146.306 190.034 145.327 190.899C144.812 191.354 144.27 191.779 143.705 192.17C143.42 192.372 143.111 192.562 142.802 192.764L142.321 193.037C142.059 193.181 141.785 193.3 141.502 193.394C140.498 193.698 139.428 193.698 138.425 193.394C137.673 193.176 136.951 192.866 136.274 192.473C135.129 191.784 134.061 190.974 133.091 190.055C131.27 188.346 129.642 186.442 128.238 184.377C128.052 184.109 127.971 183.783 128.009 183.459C128.048 183.136 128.204 182.838 128.448 182.622C128.692 182.406 129.007 182.287 129.332 182.287C129.658 182.288 129.972 182.408 130.216 182.624L130.257 182.666C131.956 184.195 133.741 185.624 135.603 186.949C136.456 187.558 137.365 188.085 138.318 188.523C138.695 188.697 139.095 188.819 139.506 188.885C139.832 188.933 139.993 188.885 139.945 188.85C139.898 188.814 139.898 188.85 139.945 188.85L140.224 188.653C140.409 188.511 140.599 188.374 140.789 188.214C141.157 187.899 141.531 187.561 141.9 187.192C142.648 186.423 143.352 185.612 144.008 184.763C144.679 183.896 145.339 182.981 145.962 182.06C146.586 181.139 147.21 180.147 147.744 179.262L147.786 179.197C148.151 178.607 148.731 178.183 149.404 178.013C150.076 177.843 150.788 177.941 151.39 178.287C151.991 178.632 152.435 179.198 152.627 179.864C152.819 180.531 152.744 181.246 152.419 181.858L152.384 181.846Z" fill="#FFC3BD"/>
<path d="M150.209 177.51C146.687 178.211 143.859 184.21 143.859 184.21L149.354 190.4C149.354 190.4 152.27 186.301 152.829 184.4C153.387 182.499 152.229 177.106 150.209 177.51Z" fill="#A8E1F0"/>
<path d="M125.202 182.648L125.618 180.937C125.642 180.84 125.685 180.747 125.744 180.666C125.804 180.585 125.879 180.517 125.965 180.465C126.051 180.413 126.147 180.378 126.246 180.364C126.346 180.349 126.447 180.354 126.545 180.379L127.78 180.688C128.261 180.808 128.692 181.074 129.016 181.448L131.018 183.759L130.032 185.375C129.123 185.236 128.248 184.927 127.454 184.466L125.594 183.509C125.441 183.431 125.319 183.304 125.248 183.147C125.177 182.991 125.161 182.815 125.202 182.648Z" fill="#FFC3BD"/>
<path d="M150.208 177.511C154.598 176.602 158.007 176.079 162.748 178.105C163.984 178.639 165.005 179.574 165.646 180.759C166.286 181.945 166.508 183.311 166.276 184.639C165.225 190.846 163.359 196.317 163.199 201.954C152.252 206.48 145.896 202.441 146.074 198.835C148.658 192.07 146.811 184.359 147.737 180.587C148.212 178.645 148.759 177.814 150.208 177.511Z" fill="#A8E1F0"/>
<path d="M159.17 169.598C158.754 171.724 158.238 176.054 159.723 177.468C157.52 179.101 155.448 180.904 153.527 182.862C151.151 179.351 153.112 177.444 153.112 177.444C155.487 176.85 155.529 174.712 155.113 173.061L159.17 169.598Z" fill="#FFC3BD"/>
<path opacity="0.2" d="M157.517 171.012L155.141 173.061C155.24 173.451 155.308 173.848 155.343 174.249C156.251 174.118 157.671 173.346 157.867 172.366C157.867 171.892 157.746 171.426 157.517 171.012Z" fill="black"/>
<path d="M163.97 168.613C162.039 171.583 161.285 172.908 158.832 173.615C155.137 174.684 151.888 171.655 152.892 168.156C153.794 165.002 156.8 160.648 160.519 161.117C161.339 161.218 162.12 161.527 162.787 162.015C163.455 162.503 163.986 163.153 164.332 163.904C164.678 164.655 164.826 165.481 164.762 166.306C164.699 167.13 164.426 167.924 163.97 168.613Z" fill="#FFC3BD"/>
<path opacity="0.2" d="M158.992 166.746C159.152 166.755 159.309 166.797 159.451 166.871C159.593 166.945 159.718 167.048 159.818 167.174C159.516 167.09 159.235 166.944 158.992 166.746Z" fill="black"/>
<path opacity="0.2" d="M158.914 166.979C159.059 167.022 159.191 167.098 159.301 167.201C159.412 167.304 159.497 167.431 159.55 167.573C159.298 167.422 159.081 167.22 158.914 166.979Z" fill="black"/>
<path opacity="0.2" d="M157.648 162.518C158.5 162.857 159.281 163.35 159.953 163.973C159.139 163.565 158.367 163.077 157.648 162.518Z" fill="black"/>
<path d="M158.273 160.617C159.937 164.228 161.742 165.476 162.485 165.844C160.038 167.032 160.139 170.186 162.61 171.012C165.081 171.837 165.782 166.925 165.704 165.119C165.627 163.313 162.426 159.375 158.273 160.617Z" fill="#E0E0E0"/>
<path d="M154.663 168.553C156.154 168.75 157.627 169.062 159.07 169.485C158.476 170.162 157.597 170.614 155.958 170.168C154.318 169.723 154.663 168.553 154.663 168.553Z" fill="white"/>
<path d="M158.573 166.658C158.436 166.913 158.187 167.038 158.021 166.949C157.854 166.86 157.836 166.574 157.979 166.325C158.121 166.075 158.371 165.945 158.531 166.034C158.692 166.123 158.715 166.408 158.573 166.658Z" fill="#263238"/>
<path d="M155.727 165.059C155.585 165.309 155.335 165.44 155.175 165.345C155.014 165.25 154.991 164.97 155.133 164.751C155.276 164.531 155.519 164.37 155.686 164.465C155.852 164.56 155.87 164.804 155.727 165.059Z" fill="#263238"/>
<path d="M155.747 164.489L155.242 163.973C155.242 163.973 155.284 164.62 155.747 164.489Z" fill="#263238"/>
<path d="M156.348 166.004C155.806 166.45 155.207 166.822 154.566 167.109C154.721 167.602 155.368 167.78 155.368 167.78L156.348 166.004Z" fill="#ED847E"/>
<path d="M163.279 171.676C162.691 172.032 161.987 172.141 161.319 171.979C160.434 171.754 160.446 170.857 161.07 170.257C161.693 169.657 162.768 169.187 163.475 169.728C163.622 169.853 163.737 170.011 163.809 170.19C163.881 170.368 163.909 170.562 163.89 170.754C163.871 170.946 163.805 171.13 163.698 171.29C163.592 171.451 163.448 171.584 163.279 171.676Z" fill="#FFC3BD"/>
<path d="M159.918 166.278C159.885 166.264 159.858 166.239 159.84 166.208C159.822 166.177 159.814 166.142 159.817 166.106C159.808 165.829 159.742 165.557 159.624 165.307C159.505 165.056 159.337 164.833 159.128 164.651C159.112 164.635 159.1 164.617 159.091 164.596C159.083 164.576 159.078 164.554 159.078 164.532C159.078 164.51 159.083 164.488 159.091 164.468C159.1 164.447 159.112 164.429 159.128 164.413C159.144 164.397 159.162 164.385 159.182 164.376C159.203 164.368 159.225 164.363 159.247 164.363C159.269 164.363 159.291 164.368 159.311 164.376C159.332 164.385 159.35 164.397 159.366 164.413C159.618 164.629 159.822 164.896 159.961 165.198C160.101 165.499 160.173 165.827 160.173 166.16C160.171 166.181 160.165 166.203 160.154 166.222C160.144 166.241 160.13 166.258 160.112 166.272C160.095 166.286 160.076 166.296 160.054 166.302C160.033 166.309 160.011 166.311 159.989 166.308L159.918 166.278Z" fill="#263238"/>
<path d="M155.502 163.202C155.473 163.197 155.446 163.184 155.423 163.165C155.4 163.147 155.382 163.122 155.371 163.095C155.363 163.074 155.359 163.051 155.359 163.029C155.36 163.006 155.365 162.984 155.375 162.963C155.384 162.942 155.398 162.924 155.414 162.909C155.431 162.894 155.451 162.882 155.472 162.875C155.721 162.772 155.991 162.731 156.258 162.755C156.526 162.778 156.784 162.867 157.011 163.012C157.048 163.038 157.072 163.077 157.08 163.122C157.088 163.166 157.078 163.212 157.052 163.249C157.024 163.284 156.985 163.306 156.941 163.313C156.897 163.32 156.852 163.31 156.815 163.285C156.633 163.173 156.427 163.106 156.215 163.089C156.002 163.073 155.788 163.107 155.591 163.19C155.563 163.202 155.532 163.207 155.502 163.202Z" fill="#263238"/>
<path d="M158.595 166.089L158.09 165.578C158.09 165.578 158.137 166.226 158.595 166.089Z" fill="#263238"/>
<path d="M121.701 170.382C121.33 170.411 120.97 170.524 120.649 170.713C120.327 170.901 120.053 171.161 119.847 171.471C119.641 171.781 119.508 172.134 119.459 172.504C119.41 172.873 119.445 173.248 119.563 173.602C121.701 179.845 128.698 184.068 136.593 183.415C144.487 182.761 150.694 177.433 151.775 170.941C151.833 170.572 151.806 170.196 151.696 169.84C151.586 169.484 151.396 169.157 151.142 168.885C150.887 168.613 150.573 168.403 150.225 168.27C149.877 168.138 149.503 168.086 149.132 168.119L121.701 170.382Z" fill="#263238"/>
<path d="M165.485 183.83C164.844 185.018 164.184 186.01 163.478 187.061C162.763 188.103 161.994 189.107 161.173 190.067C160.335 191.063 159.426 191.996 158.452 192.859C157.94 193.311 157.403 193.733 156.843 194.124C156.557 194.326 156.249 194.516 155.946 194.718L155.465 194.985L155.084 195.181C154.926 195.253 154.763 195.314 154.597 195.366C153.883 195.584 153.122 195.598 152.399 195.407C151.831 195.246 151.299 194.977 150.831 194.617C150.18 194.097 149.616 193.475 149.162 192.776C148.439 191.657 147.842 190.462 147.38 189.212C146.513 186.892 145.878 184.493 145.485 182.048C145.434 181.729 145.502 181.402 145.674 181.129C145.846 180.856 146.112 180.655 146.422 180.563C146.732 180.471 147.064 180.495 147.358 180.631C147.651 180.767 147.885 181.004 148.016 181.3V181.341C148.925 183.45 149.917 185.588 150.986 187.531C151.478 188.453 152.056 189.326 152.714 190.138C152.933 190.419 153.198 190.66 153.498 190.851C153.582 190.893 153.611 190.851 153.498 190.851C153.353 190.809 153.198 190.809 153.053 190.851C153.027 190.85 153.001 190.85 152.976 190.851C152.976 190.851 152.91 190.887 152.976 190.851L153.261 190.661C153.445 190.519 153.635 190.376 153.819 190.222C154.193 189.901 154.562 189.562 154.93 189.194C155.676 188.427 156.378 187.618 157.033 186.77C157.698 185.903 158.351 184.988 158.975 184.08C159.599 183.171 160.217 182.167 160.757 181.288L160.799 181.222C161.152 180.607 161.734 180.157 162.419 179.972C163.103 179.787 163.834 179.881 164.449 180.233C165.064 180.586 165.514 181.169 165.699 181.854C165.885 182.538 165.791 183.268 165.438 183.884L165.485 183.83Z" fill="#FFC3BD"/>
<path d="M163.394 179.102C159.83 179.131 156.961 186.188 156.961 186.188L162.45 192.383C162.45 192.383 165.372 188.285 165.93 186.384C166.489 184.483 166.079 179.084 163.394 179.102Z" fill="#A8E1F0"/>
<path d="M143.506 178.896L144.754 177.535C144.824 177.457 144.909 177.394 145.005 177.349C145.1 177.304 145.203 177.279 145.308 177.274C145.413 177.27 145.518 177.286 145.617 177.323C145.716 177.36 145.806 177.416 145.882 177.488L146.863 178.391C147.243 178.745 147.504 179.207 147.611 179.715L148.282 182.84L146.56 183.826C145.796 183.241 145.149 182.517 144.653 181.693L143.429 179.882C143.331 179.732 143.285 179.554 143.299 179.375C143.313 179.197 143.386 179.028 143.506 178.896Z" fill="#FFC3BD"/>
<path d="M162.154 172.271C162.15 172.429 162.099 172.582 162.008 172.712C161.917 172.841 161.791 172.941 161.644 172.999C161.497 173.057 161.336 173.071 161.181 173.038C161.027 173.006 160.885 172.929 160.774 172.817C160.662 172.705 160.586 172.562 160.555 172.407C160.524 172.253 160.539 172.092 160.598 171.945C160.657 171.799 160.757 171.673 160.887 171.583C161.017 171.493 161.171 171.443 161.329 171.44C161.439 171.436 161.548 171.456 161.65 171.496C161.752 171.537 161.845 171.598 161.922 171.676C162 171.754 162.06 171.847 162.1 171.95C162.14 172.052 162.159 172.162 162.154 172.271Z" fill="white"/>
<path d="M202.217 125.18C202.562 125.667 202.811 126.071 203.085 126.522C203.358 126.974 203.596 127.402 203.839 127.847C204.32 128.738 204.754 129.629 205.164 130.579C205.574 131.53 205.942 132.445 206.269 133.407C206.441 133.882 206.583 134.369 206.732 134.85L206.94 135.581C207.005 135.836 207.07 136.021 207.165 136.472C207.278 137.146 207.278 137.835 207.165 138.509C207.073 139.081 206.936 139.646 206.756 140.196C206.413 141.196 205.987 142.166 205.484 143.095C204.519 144.861 203.383 146.528 202.093 148.073C201.93 148.284 201.694 148.426 201.432 148.472C201.169 148.517 200.899 148.462 200.675 148.318C200.451 148.174 200.289 147.951 200.222 147.693C200.154 147.435 200.186 147.162 200.311 146.926V146.891C200.715 146.059 201.136 145.198 201.499 144.342C201.861 143.487 202.241 142.632 202.544 141.776C202.851 140.953 203.101 140.109 203.293 139.252C203.466 138.605 203.495 137.927 203.376 137.268L202.948 136.127C202.77 135.706 202.615 135.272 202.431 134.85C202.081 134.007 201.689 133.175 201.297 132.344C200.905 131.512 200.465 130.71 200.02 129.908C199.806 129.51 199.58 129.112 199.348 128.72L198.671 127.609L198.612 127.514C198.317 127.042 198.219 126.473 198.339 125.929C198.458 125.385 198.786 124.91 199.251 124.604C199.716 124.298 200.283 124.187 200.83 124.293C201.376 124.4 201.859 124.716 202.176 125.174L202.217 125.18Z" fill="#CE7A63"/>
<path d="M201.351 151.483L202.23 150.794C202.392 150.665 202.521 150.5 202.607 150.312C202.693 150.124 202.732 149.919 202.723 149.712L202.634 147.758C202.618 147.372 202.509 146.996 202.316 146.661C202.124 146.326 201.854 146.043 201.529 145.834L201.12 145.572C199.587 146.612 198.696 148.869 198.696 148.869L198.375 149.463C198.305 149.587 198.26 149.724 198.242 149.866C198.225 150.008 198.236 150.152 198.275 150.289C198.313 150.427 198.379 150.555 198.468 150.667C198.556 150.779 198.666 150.873 198.791 150.942L199.979 151.601C200.194 151.718 200.439 151.77 200.683 151.748C200.927 151.727 201.159 151.635 201.351 151.483Z" fill="#CE7A63"/>
<path d="M196.571 113.816C195.977 115.996 195.252 119.994 196.672 121.455C196.672 121.455 197.759 123.499 191.326 123.172C186.818 122.94 189.888 121.455 189.888 121.455C192.365 120.861 192.437 119.079 192.14 117.369L196.571 113.816Z" fill="#CE7A63"/>
<path d="M206.059 205.109L210.217 203.57C210.62 206.315 211.179 209.033 211.892 211.714L208.969 212.967C208.969 212.967 207.027 207.075 206.059 205.109Z" fill="#CE7A63"/>
<path d="M208.29 217.797C210.523 216.164 210.339 216.241 211.569 215.279C212.62 214.453 212.965 214.406 213.814 213.752C214.527 213.212 214.046 212.499 213.297 211.828C213.012 211.566 212.656 211.281 212.246 210.907C212.132 210.803 211.985 210.743 211.832 210.735C211.678 210.728 211.526 210.774 211.402 210.865L208.789 212.778C208.695 212.847 208.617 212.936 208.563 213.039C208.508 213.142 208.478 213.256 208.474 213.372C208.46 214.006 208.318 214.63 208.056 215.207C207.793 215.784 207.416 216.301 206.947 216.728C205.872 217.797 207.399 218.451 208.29 217.797Z" fill="#263238"/>
<path d="M187.984 144.598C187.984 144.598 192.38 167.229 195.784 177.773C199.348 188.851 204.593 201.176 206.963 208.393C207.699 208.488 209.802 207.609 210.83 206.736C210.83 206.736 209.261 187.811 203.904 178.04C204.444 149.528 199.021 144.598 199.021 144.598H187.984Z" fill="#A8E1F0"/>
<path opacity="0.2" d="M196.143 153.086L191.617 161.723C192.651 166.261 193.803 170.959 194.896 174.791C198.193 165.602 196.143 153.086 196.143 153.086Z" fill="black"/>
<path d="M206.062 207.05C206.204 207.542 206.303 208.045 206.359 208.553C206.364 208.596 206.378 208.637 206.401 208.674C206.424 208.711 206.455 208.742 206.491 208.765C206.527 208.789 206.569 208.804 206.611 208.809C206.654 208.814 206.698 208.81 206.739 208.797C208.282 208.296 209.756 207.606 211.129 206.742C211.189 206.704 211.237 206.651 211.27 206.589C211.302 206.526 211.317 206.456 211.313 206.385L211.123 204.936C211.115 204.89 211.096 204.847 211.068 204.809C211.041 204.772 211.005 204.742 210.963 204.721C210.921 204.7 210.875 204.689 210.829 204.689C210.782 204.69 210.736 204.701 210.695 204.722L206.294 206.629C206.211 206.66 206.143 206.72 206.101 206.797C206.059 206.874 206.045 206.964 206.062 207.05Z" fill="#263238"/>
<path opacity="0.1" d="M206.062 207.05C206.204 207.542 206.303 208.045 206.359 208.553C206.364 208.596 206.378 208.637 206.401 208.674C206.424 208.711 206.455 208.742 206.491 208.765C206.527 208.789 206.569 208.804 206.611 208.809C206.654 208.814 206.698 208.81 206.739 208.797C208.282 208.296 209.756 207.606 211.129 206.742C211.189 206.704 211.237 206.651 211.27 206.589C211.302 206.526 211.317 206.456 211.313 206.385L211.123 204.936C211.115 204.89 211.096 204.847 211.068 204.809C211.041 204.772 211.005 204.742 210.963 204.721C210.921 204.7 210.875 204.689 210.829 204.689C210.782 204.69 210.736 204.701 210.695 204.722L206.294 206.629C206.211 206.66 206.143 206.72 206.101 206.797C206.059 206.874 206.045 206.964 206.062 207.05Z" fill="white"/>
<path d="M184.327 207.051L188.331 207.342C187.678 210.538 186.989 215.587 186.989 215.587H183.805C183.805 215.587 184.375 209.237 184.327 207.051Z" fill="#CE7A63"/>
<path d="M180.445 218.746C183.207 218.746 183.011 218.705 184.567 218.651C185.898 218.604 186.213 218.77 187.288 218.746C188.179 218.746 188.143 217.873 187.882 216.887C187.775 216.513 187.627 216.068 187.472 215.527C187.431 215.374 187.341 215.238 187.216 215.141C187.09 215.045 186.936 214.992 186.777 214.992H183.54C183.423 214.99 183.307 215.017 183.203 215.071C183.099 215.125 183.011 215.204 182.946 215.301C182.591 215.803 182.132 216.222 181.6 216.53C181.067 216.837 180.475 217.026 179.863 217.083C178.366 217.309 179.34 218.746 180.445 218.746Z" fill="#263238"/>
<path d="M184.573 144.598C184.573 144.598 184.068 164.318 183.622 176.602C183.177 188.886 184.133 210.585 184.133 210.585C184.222 211.179 187.353 210.947 187.887 210.585C187.887 210.585 193.863 192.997 191.582 177.773C199.583 158.034 197.278 145.103 197.278 145.103L184.573 144.598Z" fill="#A8E1F0"/>
<path d="M183.705 208.946C183.705 209.35 183.669 210.069 183.634 210.604C183.627 210.689 183.654 210.774 183.708 210.84C183.762 210.907 183.84 210.95 183.925 210.96C185.309 211.074 186.701 211.06 188.083 210.918C188.149 210.912 188.212 210.884 188.261 210.839C188.31 210.794 188.344 210.735 188.356 210.669L188.635 209.214C188.644 209.166 188.642 209.117 188.63 209.07C188.618 209.023 188.596 208.979 188.566 208.942C188.535 208.904 188.497 208.873 188.454 208.851C188.41 208.83 188.363 208.818 188.315 208.816L184.044 208.649C184.001 208.643 183.958 208.647 183.917 208.659C183.876 208.671 183.838 208.692 183.806 208.72C183.774 208.748 183.748 208.783 183.731 208.822C183.714 208.861 183.705 208.904 183.705 208.946Z" fill="#263238"/>
<path opacity="0.1" d="M183.705 208.946C183.705 209.35 183.669 210.069 183.634 210.604C183.627 210.689 183.654 210.774 183.708 210.84C183.762 210.907 183.84 210.95 183.925 210.96C185.309 211.074 186.701 211.06 188.083 210.918C188.149 210.912 188.212 210.884 188.261 210.839C188.31 210.794 188.344 210.735 188.356 210.669L188.635 209.214C188.644 209.166 188.642 209.117 188.63 209.07C188.618 209.023 188.596 208.979 188.566 208.942C188.535 208.904 188.497 208.873 188.454 208.851C188.41 208.83 188.363 208.818 188.315 208.816L184.044 208.649C184.001 208.643 183.958 208.647 183.917 208.659C183.876 208.671 183.838 208.692 183.806 208.72C183.774 208.748 183.748 208.783 183.731 208.822C183.714 208.861 183.705 208.904 183.705 208.946Z" fill="white"/>
<path d="M198.238 141.158C198.313 142.312 198.456 143.46 198.666 144.597H184.719L184.57 141.033C184.57 141.033 195.322 140.439 198.238 141.158Z" fill="#CE7A63"/>
<path d="M183.23 126.671C183.145 128.815 183.177 130.963 183.325 133.104C183.444 135.895 182.909 136.579 183.325 141.158C184.852 142.049 194.914 142.014 199.856 141.378C199.559 137.416 199.191 134.749 201.87 125.839C202.018 125.361 202.055 124.855 201.978 124.36C201.901 123.865 201.712 123.395 201.425 122.984C201.139 122.573 200.763 122.233 200.325 121.99C199.887 121.747 199.4 121.607 198.9 121.58C198.306 121.521 197.676 121.473 197.035 121.443C194.776 121.295 192.51 121.295 190.251 121.443C189.509 121.509 188.748 121.598 188.018 121.693C186.766 121.837 185.603 122.413 184.729 123.321C183.855 124.23 183.325 125.414 183.23 126.671Z" fill="#263238"/>
<path d="M166.349 117.625C166.472 119.897 166.065 122.166 165.161 124.254C165.041 124.502 164.992 124.777 165.019 125.051C165.046 125.325 165.149 125.586 165.316 125.804C167.448 128.679 171.452 127.652 173.038 127.088C173.253 127.01 173.448 126.885 173.607 126.722C173.767 126.558 173.887 126.36 173.959 126.143C174.642 124.088 175.307 121.492 174.719 118.807C174.68 118.59 174.589 118.386 174.452 118.213C173.127 116.615 170.157 116.431 168.096 116.093C167.876 116.054 167.651 116.066 167.436 116.126C167.222 116.186 167.023 116.294 166.856 116.441C166.688 116.588 166.556 116.77 166.468 116.975C166.38 117.18 166.34 117.402 166.349 117.625Z" fill="white"/>
<path d="M173.969 113.662C175.31 113.662 176.398 112.313 176.398 110.65C176.398 108.987 175.31 107.639 173.969 107.639C172.627 107.639 171.539 108.987 171.539 110.65C171.539 112.313 172.627 113.662 173.969 113.662Z" fill="white"/>
<path d="M164.092 119.217C162.904 119.46 162.779 119.656 162.583 121.094C162.387 119.656 162.227 119.46 161.074 119.217C162.227 118.973 162.387 118.777 162.583 117.346C162.779 118.777 162.933 118.973 164.092 119.217Z" fill="white"/>
<path d="M172.12 118.124L172.714 119.057C172.83 119.23 172.901 119.428 172.923 119.635C172.945 119.842 172.916 120.052 172.839 120.245L172.126 122.074C171.986 122.434 171.762 122.755 171.472 123.01C171.183 123.265 170.837 123.447 170.463 123.542L169.993 123.66C168.877 122.181 168.752 119.758 168.752 119.758L168.645 119.075C168.618 118.935 168.618 118.79 168.647 118.65C168.676 118.511 168.733 118.378 168.813 118.26C168.894 118.142 168.997 118.042 169.117 117.964C169.237 117.887 169.372 117.834 169.512 117.809L170.867 117.572C171.107 117.532 171.353 117.562 171.576 117.661C171.799 117.759 171.988 117.92 172.12 118.124Z" fill="#CE7A63"/>
<path d="M184.822 128.316C184.679 128.482 184.62 128.536 184.531 128.631L184.281 128.875C184.115 129.025 183.949 129.168 183.782 129.302C183.45 129.57 183.117 129.813 182.778 130.051C182.101 130.496 181.392 130.893 180.658 131.239C179.939 131.581 179.199 131.877 178.442 132.124C177.697 132.362 176.939 132.56 176.173 132.718L176.048 132.747C175.956 132.765 175.863 132.777 175.769 132.783C175.298 132.792 174.83 132.71 174.391 132.54C174.019 132.397 173.673 132.196 173.363 131.946C172.898 131.551 172.497 131.086 172.175 130.567C171.653 129.726 171.238 128.822 170.94 127.877C170.658 127.011 170.429 126.128 170.257 125.233C170.088 124.35 169.967 123.457 169.895 122.56C169.873 122.304 169.944 122.049 170.096 121.842C170.248 121.634 170.469 121.489 170.72 121.432C170.971 121.376 171.233 121.412 171.459 121.534C171.686 121.656 171.86 121.856 171.95 122.097V122.139C172.241 122.893 172.544 123.689 172.865 124.443C173.185 125.198 173.524 125.946 173.892 126.641C174.221 127.294 174.619 127.909 175.08 128.477C175.231 128.668 175.414 128.833 175.621 128.964C175.769 129.035 175.728 128.964 175.621 128.964L175.217 129.029C175.84 128.809 176.452 128.578 177.052 128.322C177.652 128.067 178.24 127.782 178.787 127.479C179.336 127.181 179.87 126.853 180.385 126.499C180.64 126.326 180.884 126.148 181.109 125.964C181.228 125.875 181.329 125.78 181.436 125.691L181.578 125.566C181.62 125.566 181.685 125.465 181.662 125.495C181.842 125.268 182.067 125.081 182.323 124.944C182.578 124.807 182.859 124.723 183.147 124.698C183.436 124.673 183.727 124.706 184.002 124.797C184.278 124.888 184.532 125.033 184.749 125.225C184.966 125.417 185.142 125.651 185.266 125.913C185.39 126.175 185.46 126.459 185.47 126.749C185.481 127.039 185.433 127.328 185.328 127.598C185.224 127.868 185.066 128.115 184.863 128.322L184.822 128.316Z" fill="#CE7A63"/>
<path d="M188.647 121.617C185.844 121.557 182.969 123.155 178.638 126.696C178.549 128.62 181.882 131.822 181.882 131.822C181.882 131.822 192.384 126.03 188.647 121.617Z" fill="#263238"/>
<path d="M189.47 109.759C189.37 110.044 189.138 110.234 188.954 110.18C188.77 110.127 188.704 109.854 188.805 109.586C188.906 109.319 189.138 109.111 189.322 109.165C189.506 109.218 189.571 109.48 189.47 109.759Z" fill="#263238"/>
<path d="M189.399 109.195L188.805 108.803C188.805 108.803 188.947 109.432 189.399 109.195Z" fill="#263238"/>
<path d="M189.243 110.295C188.759 110.873 188.202 111.387 187.586 111.821C187.696 111.966 187.838 112.084 188.001 112.165C188.163 112.247 188.343 112.29 188.524 112.291L189.243 110.295Z" fill="#BA4D3C"/>
<path d="M189.896 107.408C189.875 107.403 189.855 107.395 189.838 107.383C189.821 107.37 189.806 107.355 189.795 107.336C189.773 107.296 189.768 107.249 189.78 107.204C189.792 107.16 189.821 107.122 189.86 107.099C190.1 106.946 190.371 106.85 190.653 106.818C190.935 106.787 191.22 106.819 191.488 106.915C191.508 106.924 191.526 106.937 191.541 106.954C191.555 106.971 191.566 106.991 191.573 107.012C191.58 107.033 191.582 107.055 191.58 107.078C191.577 107.1 191.57 107.121 191.559 107.14C191.537 107.182 191.501 107.214 191.457 107.23C191.413 107.247 191.365 107.246 191.321 107.229C191.109 107.156 190.884 107.133 190.661 107.161C190.439 107.188 190.226 107.267 190.038 107.39C189.995 107.413 189.944 107.419 189.896 107.408Z" fill="#263238"/>
<path d="M199.204 111.369C197.85 114.689 197.345 116.121 195.046 117.374C191.571 119.257 187.77 117.107 188.102 113.507C188.399 110.27 190.562 105.381 194.357 104.971C195.168 104.856 195.994 104.96 196.751 105.272C197.508 105.584 198.168 106.092 198.662 106.745C199.157 107.397 199.467 108.17 199.563 108.983C199.658 109.796 199.534 110.62 199.204 111.369Z" fill="#CE7A63"/>
<path d="M192.047 111.293C190.086 108.394 191.767 106.879 192.605 106.434C190.77 105.905 189.433 105.4 189.582 103.707C189.644 103.311 189.788 102.933 190.007 102.596C190.225 102.26 190.511 101.973 190.847 101.755C191.183 101.536 191.562 101.391 191.958 101.328C192.354 101.265 192.758 101.287 193.146 101.391C192.712 101.747 194.613 104.094 196.187 103.351C197.245 102.953 198.409 102.94 199.476 103.315C200.543 103.69 201.443 104.428 202.02 105.4C203.303 107.705 202.911 111.934 199.561 113.817C200.814 115.754 196.716 118.427 193.811 117.381C190.906 116.336 189.671 112.231 192.047 111.293Z" fill="#263238"/>
<path d="M204.156 104.705C204.91 106.832 204.019 108.786 202.142 109.178C200.414 109.535 198.216 108.537 198.032 106.505C197.871 104.759 198.513 102.71 200.045 102.038C201.715 101.308 203.419 102.615 204.156 104.705Z" fill="white"/>
<path d="M210.515 103.867C210.603 104.65 210.513 105.443 210.253 106.186C209.993 106.93 209.568 107.606 209.012 108.163C208.455 108.72 207.78 109.145 207.037 109.406C206.293 109.667 205.501 109.758 204.718 109.671C201.516 109.445 198.184 106.986 198.914 103.867C199.508 101.176 201.7 98.3966 204.718 98.0639C207.991 97.7016 210.301 100.398 210.515 103.867Z" fill="#263238"/>
<path d="M192.871 111.47C192.695 111.764 192.461 112.019 192.182 112.217C191.902 112.416 191.585 112.554 191.249 112.622C190.411 112.759 190.15 111.785 190.518 110.876C190.851 110.062 191.706 109.011 192.461 109.296C193.215 109.581 193.399 110.692 192.871 111.47Z" fill="#CE7A63"/>
<path d="M199.051 121.617C201.481 121.991 202.461 122.728 204.445 127.617C203.542 129.44 199.319 131.181 199.319 131.181C199.319 131.181 196.521 124.854 199.051 121.617Z" fill="#263238"/>
<path d="M184.543 145.667C189.529 146.225 194.562 146.225 199.548 145.667C199.599 145.658 199.648 145.637 199.691 145.607C199.734 145.576 199.769 145.536 199.793 145.489C199.818 145.443 199.832 145.391 199.833 145.339C199.835 145.286 199.825 145.234 199.803 145.186C199.684 144.901 199.559 144.592 199.441 144.325C199.416 144.261 199.371 144.208 199.313 144.172C199.256 144.137 199.187 144.122 199.12 144.129C194.327 144.654 189.491 144.654 184.698 144.129C184.655 144.125 184.612 144.129 184.571 144.142C184.53 144.155 184.492 144.176 184.46 144.203C184.427 144.231 184.4 144.265 184.381 144.303C184.362 144.341 184.35 144.383 184.347 144.426L184.258 145.323C184.255 145.405 184.283 145.485 184.336 145.549C184.388 145.612 184.462 145.654 184.543 145.667Z" fill="#263238"/>
</g>
<defs>
<clipPath id="clip0_476_36372">
<rect width="231" height="221" fill="white" transform="translate(18 4)"/>
</clipPath>
</defs>
</svg>
