<svg width="186" height="106" viewBox="0 0 186 106" fill="none" xmlns="http://www.w3.org/2000/svg">
<path opacity="0.25" d="M0 -93.2139C0 -99.387 5.53804 -104.086 11.6287 -103.08L207.947 -70.6723C212.776 -69.8752 216.318 -65.7001 216.318 -60.8059V56.932C216.318 63.2664 210.504 68.0048 204.3 66.7261L7.98139 26.264C3.33429 25.3062 0 21.2147 0 16.4699V-93.2139Z" fill="#FDBC88"/>
<path opacity="0.15" d="M232.461 -47.5604C232.461 -53.7359 226.919 -58.4353 220.826 -57.4259L24.5082 -24.9005C19.6819 -24.1009 16.1427 -19.927 16.1427 -15.035V93.7196C16.1427 100.057 21.9623 104.796 28.1683 103.512L224.487 62.9036C229.13 61.943 232.461 57.853 232.461 53.1109V-47.5604Z" fill="#3CC2DD"/>
</svg>
