<svg width="165" height="164" viewBox="0 0 165 164" fill="none" xmlns="http://www.w3.org/2000/svg">
<rect opacity="0.8" x="26" y="13" width="87.6305" height="87.3963" rx="10" fill="#9BA7AB"/>
<g opacity="0.8" filter="url(#filter0_dd_842_12944)">
<rect x="38.5" y="26" width="87.6305" height="87.3963" rx="10" fill="#D6E1E1"/>
</g>
<path d="M107.133 59.3972V79.8722C107.133 88.9722 101.708 94.3972 92.6078 94.3972H71.6578C62.5578 94.3972 57.1328 88.9722 57.1328 79.8722V59.4222L107.133 59.3972Z" fill="#2A889B"/>
<path d="M74.6312 83.7723C74.3562 83.7723 74.0562 83.6973 73.8062 83.5723C71.8812 82.5973 70.2312 81.1473 69.0312 79.3473C68.0313 77.8473 68.0313 75.9223 69.0312 74.4223C70.2312 72.6223 71.8812 71.1723 73.8062 70.2223C74.7312 69.7473 75.8562 70.1473 76.3312 71.0723C76.8062 71.9973 76.4312 73.1223 75.4812 73.5973C74.1312 74.2723 72.9812 75.2973 72.1562 76.5473C72.0062 76.7723 72.0062 77.0723 72.1562 77.3223C72.9812 78.5723 74.1312 79.5973 75.4812 80.2723C76.4062 80.7473 76.7812 81.8723 76.3312 82.7973C75.9812 83.3973 75.3062 83.7723 74.6312 83.7723Z" fill="#FB9D50"/>
<path d="M90.1579 83.7723C89.4579 83.7723 88.8079 83.3973 88.4829 82.7473C88.0079 81.8223 88.3829 80.6973 89.3329 80.2223C90.6829 79.5473 91.8329 78.5223 92.6579 77.2723C92.8079 77.0473 92.8079 76.7473 92.6579 76.4973C91.8329 75.2473 90.6829 74.2223 89.3329 73.5473C88.4079 73.0723 88.0329 71.9473 88.4829 71.0223C88.9579 70.0973 90.0829 69.7223 91.0079 70.1723C92.9329 71.1473 94.5829 72.5973 95.7829 74.3973C96.7829 75.8973 96.7829 77.8223 95.7829 79.3223C94.5829 81.1223 92.9329 82.5723 91.0079 83.5223C90.7079 83.6973 90.4329 83.7723 90.1579 83.7723Z" fill="#FB9D50"/>
<path d="M107.133 58.9222V59.3972L57.1328 59.4222V58.9222C57.1328 49.8222 62.5578 44.3972 71.6578 44.3972H92.6078C101.708 44.3972 107.133 49.8222 107.133 58.9222Z" fill="#FB9D50"/>
<defs>
<filter id="filter0_dd_842_12944" x="0.5" y="0" width="163.629" height="163.396" filterUnits="userSpaceOnUse" color-interpolation-filters="sRGB">
<feFlood flood-opacity="0" result="BackgroundImageFix"/>
<feColorMatrix in="SourceAlpha" type="matrix" values="0 0 0 0 0 0 0 0 0 0 0 0 0 0 0 0 0 0 127 0" result="hardAlpha"/>
<feMorphology radius="4" operator="erode" in="SourceAlpha" result="effect1_dropShadow_842_12944"/>
<feOffset dy="12"/>
<feGaussianBlur stdDeviation="21"/>
<feColorMatrix type="matrix" values="0 0 0 0 0.0941176 0 0 0 0 0.152941 0 0 0 0 0.294118 0 0 0 0.12 0"/>
<feBlend mode="normal" in2="BackgroundImageFix" result="effect1_dropShadow_842_12944"/>
<feColorMatrix in="SourceAlpha" type="matrix" values="0 0 0 0 0 0 0 0 0 0 0 0 0 0 0 0 0 0 127 0" result="hardAlpha"/>
<feMorphology radius="6" operator="erode" in="SourceAlpha" result="effect2_dropShadow_842_12944"/>
<feOffset dy="8"/>
<feGaussianBlur stdDeviation="9"/>
<feColorMatrix type="matrix" values="0 0 0 0 0.0941176 0 0 0 0 0.152941 0 0 0 0 0.294118 0 0 0 0.12 0"/>
<feBlend mode="normal" in2="effect1_dropShadow_842_12944" result="effect2_dropShadow_842_12944"/>
<feBlend mode="normal" in="SourceGraphic" in2="effect2_dropShadow_842_12944" result="shape"/>
</filter>
</defs>
</svg>
