<svg width="165" height="164" viewBox="0 0 165 164" fill="none" xmlns="http://www.w3.org/2000/svg">
<rect opacity="0.8" x="26" y="13" width="87.6305" height="87.3963" rx="10" fill="#9BA7AB"/>
<g opacity="0.8" filter="url(#filter0_dd_842_13401)">
<rect x="38.5" y="26" width="87.6305" height="87.3963" rx="10" fill="#D6E1E1"/>
</g>
<path d="M98.3563 64.0972L98.5563 61.9722L99.0062 57.0972L94.2563 56.0222L92.1562 55.5472L91.0562 53.6972L88.5812 49.4972L84.1063 51.3972L82.1313 52.2472L80.1562 51.3972L75.6813 49.4722L73.2063 53.6722L72.1062 55.5222L70.0063 55.9972L65.2562 57.0722L65.7062 61.9222L65.9063 64.0472L64.5062 65.6722L61.2812 69.3722L64.5062 73.0472L65.9063 74.6722L65.7062 76.7972L65.2562 81.6972L70.0063 82.7722L72.1062 83.2472L73.2063 85.0972L75.6813 89.2722L80.1313 87.3472L82.1313 86.5222L84.1063 87.3722L88.5562 89.2972L91.0313 85.0972L92.1313 83.2472L94.2313 82.7722L98.9813 81.6972L98.5312 76.8222L98.3312 74.6972L99.7313 73.0722L102.956 69.3972L99.7313 65.7222L98.3563 64.0972ZM77.3563 81.1972L67.8562 71.6722L71.5562 67.9722L77.3563 73.7972L91.9812 59.1222L95.6813 62.8222L77.3563 81.1972Z" fill="#2A889B"/>
<path d="M109.633 69.3722L103.533 62.3972L104.383 53.1722L95.3578 51.1222L90.6328 43.1472L82.1328 46.7972L73.6328 43.1472L68.9078 51.1222L59.8828 53.1472L60.7328 62.3972L54.6328 69.3722L60.7328 76.3472L59.8828 85.5972L68.9078 87.6472L73.6328 95.6472L82.1328 91.9722L90.6328 95.6222L95.3578 87.6472L104.383 85.5972L103.533 76.3722L109.633 69.3722ZM99.7578 73.0722L98.3578 74.6972L98.5578 76.8222L99.0078 81.6972L94.2578 82.7722L92.1578 83.2472L91.0578 85.0972L88.5828 89.2972L84.1328 87.3722L82.1328 86.5222L80.1578 87.3722L75.7078 89.2972L73.2328 85.1222L72.1328 83.2722L70.0328 82.7972L65.2828 81.7222L65.7328 76.8222L65.9328 74.6972L64.5328 73.0722L61.3078 69.3972L64.5328 65.6972L65.9328 64.0722L65.7078 61.9222L65.2578 57.0722L70.0078 55.9972L72.1078 55.5222L73.2078 53.6722L75.6828 49.4722L80.1328 51.3972L82.1328 52.2472L84.1078 51.3972L88.5578 49.4722L91.0328 53.6722L92.1328 55.5222L94.2328 55.9972L98.9828 57.0722L98.5328 61.9472L98.3328 64.0722L99.7328 65.6972L102.958 69.3722L99.7578 73.0722Z" fill="#2A889B"/>
<path d="M77.3594 73.7723L71.5594 67.9473L67.8594 71.6723L77.3594 81.1973L95.7094 62.7973L92.0094 59.0723L77.3594 73.7723Z" fill="#FB9D50"/>
<defs>
<filter id="filter0_dd_842_13401" x="0.5" y="0" width="163.629" height="163.396" filterUnits="userSpaceOnUse" color-interpolation-filters="sRGB">
<feFlood flood-opacity="0" result="BackgroundImageFix"/>
<feColorMatrix in="SourceAlpha" type="matrix" values="0 0 0 0 0 0 0 0 0 0 0 0 0 0 0 0 0 0 127 0" result="hardAlpha"/>
<feMorphology radius="4" operator="erode" in="SourceAlpha" result="effect1_dropShadow_842_13401"/>
<feOffset dy="12"/>
<feGaussianBlur stdDeviation="21"/>
<feColorMatrix type="matrix" values="0 0 0 0 0.0941176 0 0 0 0 0.152941 0 0 0 0 0.294118 0 0 0 0.12 0"/>
<feBlend mode="normal" in2="BackgroundImageFix" result="effect1_dropShadow_842_13401"/>
<feColorMatrix in="SourceAlpha" type="matrix" values="0 0 0 0 0 0 0 0 0 0 0 0 0 0 0 0 0 0 127 0" result="hardAlpha"/>
<feMorphology radius="6" operator="erode" in="SourceAlpha" result="effect2_dropShadow_842_13401"/>
<feOffset dy="8"/>
<feGaussianBlur stdDeviation="9"/>
<feColorMatrix type="matrix" values="0 0 0 0 0.0941176 0 0 0 0 0.152941 0 0 0 0 0.294118 0 0 0 0.12 0"/>
<feBlend mode="normal" in2="effect1_dropShadow_842_13401" result="effect2_dropShadow_842_13401"/>
<feBlend mode="normal" in="SourceGraphic" in2="effect2_dropShadow_842_13401" result="shape"/>
</filter>
</defs>
</svg>
