<svg width="317" height="293" viewBox="0 0 317 293" fill="none" xmlns="http://www.w3.org/2000/svg">
<path opacity="0.15" d="M0 73.6535C0 67.482 5.53536 62.7836 11.6249 63.7864L286.611 109.071C291.442 109.866 294.986 114.042 294.986 118.938V273.735C294.986 280.067 289.175 284.805 282.972 283.53L7.9861 226.992C3.33677 226.036 0 221.943 0 217.196V73.6535Z" fill="#FB9D50"/>
<path opacity="0.25" d="M317 11.7746C317 5.60536 311.469 0.907611 305.381 1.90652L30.3947 47.0274C25.5615 47.8204 22.0139 51.9975 22.0139 56.8954V223.867C22.0139 230.197 27.8201 234.934 34.0208 233.664L309.007 177.33C313.66 176.376 317 172.282 317 167.533V11.7746Z" fill="#2A889B"/>
<path d="M42.4989 63.3392L41.8047 63.373L42.4857 77.35L43.1799 77.3161L42.4989 63.3392Z" fill="#2A889B"/>
<path d="M43.4012 82.0443L42.707 82.0781L43.0416 88.9451L43.7358 88.9112L43.4012 82.0443Z" fill="#2A889B"/>
<path d="M260.864 205.215H52.3151C51.9953 205.213 51.6885 205.088 51.4592 204.865C51.2298 204.642 51.0957 204.339 51.0849 204.019L43.6067 50.3896C43.5992 50.2234 43.6255 50.0574 43.6839 49.9016C43.7424 49.7458 43.8318 49.6035 43.9468 49.4833C44.0618 49.3631 44.1999 49.2675 44.3529 49.2022C44.5059 49.1369 44.6705 49.1033 44.8369 49.1035H253.399C253.716 49.103 254.02 49.2238 254.25 49.441C254.481 49.6582 254.619 49.9554 254.637 50.2714L262.115 203.957C262.118 204.122 262.087 204.286 262.025 204.44C261.964 204.593 261.872 204.733 261.755 204.85C261.638 204.967 261.499 205.06 261.346 205.123C261.193 205.185 261.029 205.217 260.864 205.215Z" fill="#2A889B"/>
<path opacity="0.8" d="M53.4823 201.517L46.2473 52.8789C46.2399 52.7124 46.2661 52.5461 46.3244 52.3899C46.3828 52.2338 46.4721 52.0911 46.587 51.9703C46.7019 51.8495 46.84 51.7532 46.993 51.6872C47.1461 51.6211 47.3108 51.5867 47.4775 51.5859H250.98C251.297 51.5856 251.602 51.7076 251.831 51.9264C252.06 52.1453 252.196 52.4442 252.211 52.7608L259.446 201.399C259.454 201.566 259.428 201.733 259.37 201.889C259.312 202.046 259.223 202.189 259.108 202.31C258.993 202.431 258.855 202.527 258.701 202.593C258.548 202.659 258.382 202.692 258.215 202.692H54.7124C54.3961 202.691 54.0923 202.568 53.8635 202.35C53.6347 202.131 53.4983 201.833 53.4823 201.517Z" fill="#C0E3F2"/>
<path d="M104.599 194.384C104.438 194.383 104.283 194.32 104.166 194.209C104.049 194.098 103.978 193.947 103.967 193.786L97.4827 60.5525C97.4705 60.4652 97.4766 60.3763 97.5007 60.2915C97.5248 60.2068 97.5664 60.128 97.6227 60.0602C97.679 59.9924 97.7489 59.9372 97.8279 59.898C97.9068 59.8588 97.993 59.8365 98.0811 59.8326C98.1691 59.8288 98.257 59.8433 98.3391 59.8754C98.4212 59.9074 98.4956 59.9563 98.5577 60.0188C98.6198 60.0814 98.6682 60.1562 98.6997 60.2385C98.7312 60.3208 98.7451 60.4088 98.7406 60.4969L105.232 193.724C105.236 193.807 105.223 193.89 105.195 193.968C105.166 194.046 105.123 194.118 105.067 194.179C105.01 194.241 104.943 194.29 104.867 194.325C104.792 194.361 104.71 194.38 104.627 194.384H104.599Z" fill="#C0E3F2"/>
<path d="M207.584 194.384C207.422 194.383 207.268 194.32 207.15 194.209C207.033 194.098 206.962 193.947 206.951 193.786L200.467 60.5525C200.455 60.4652 200.461 60.3763 200.485 60.2915C200.509 60.2068 200.551 60.128 200.607 60.0602C200.663 59.9924 200.733 59.9372 200.812 59.898C200.891 59.8588 200.977 59.8365 201.065 59.8326C201.153 59.8288 201.241 59.8433 201.323 59.8754C201.406 59.9074 201.48 59.9563 201.542 60.0188C201.604 60.0814 201.653 60.1562 201.684 60.2385C201.716 60.3208 201.73 60.4088 201.725 60.4969L208.223 193.724C208.227 193.807 208.214 193.89 208.186 193.968C208.158 194.046 208.114 194.118 208.058 194.179C208.002 194.241 207.934 194.29 207.859 194.325C207.783 194.361 207.702 194.38 207.619 194.384H207.584Z" fill="#C0E3F2"/>
<path d="M156.099 194.384C155.937 194.383 155.782 194.32 155.665 194.209C155.548 194.098 155.477 193.947 155.466 193.786L148.975 60.5525C148.963 60.4652 148.969 60.3763 148.993 60.2915C149.017 60.2068 149.059 60.128 149.115 60.0602C149.171 59.9924 149.241 59.9372 149.32 59.898C149.399 59.8588 149.485 59.8365 149.573 59.8326C149.661 59.8288 149.749 59.8433 149.831 59.8754C149.913 59.9074 149.988 59.9563 150.05 60.0188C150.112 60.0814 150.16 60.1562 150.192 60.2385C150.223 60.3208 150.237 60.4088 150.233 60.4969L156.717 193.724C156.722 193.806 156.71 193.889 156.682 193.967C156.655 194.046 156.612 194.117 156.556 194.179C156.501 194.24 156.434 194.29 156.359 194.325C156.284 194.361 156.202 194.38 156.119 194.384H156.099Z" fill="#C0E3F2"/>
<path d="M246.894 74.2812H53.5932C53.505 74.2905 53.4159 74.2812 53.3316 74.2538C53.2473 74.2264 53.1697 74.1816 53.1038 74.1223C53.0379 74.0629 52.9853 73.9904 52.9492 73.9094C52.9132 73.8285 52.8945 73.7408 52.8945 73.6521C52.8945 73.5635 52.9132 73.4758 52.9492 73.3948C52.9853 73.3138 53.0379 73.2413 53.1038 73.182C53.1697 73.1227 53.2473 73.0779 53.3316 73.0505C53.4159 73.0231 53.505 73.0137 53.5932 73.023H246.894C246.982 73.0137 247.071 73.0231 247.155 73.0505C247.239 73.0779 247.317 73.1227 247.383 73.182C247.449 73.2413 247.501 73.3138 247.538 73.3948C247.574 73.4758 247.592 73.5635 247.592 73.6521C247.592 73.7408 247.574 73.8285 247.538 73.9094C247.501 73.9904 247.449 74.0629 247.383 74.1223C247.317 74.1816 247.239 74.2264 247.155 74.2538C247.071 74.2812 246.982 74.2905 246.894 74.2812Z" fill="#C0E3F2"/>
<path d="M59.4187 66.497C59.8684 66.3169 60.354 66.2444 60.8367 66.2855C61.3194 66.3265 61.7859 66.4799 62.1987 66.7334C62.8937 67.1783 63.3177 68.1237 64.1934 68.3322C65.1872 68.5338 65.493 67.7205 66.195 67.2547C67.0846 66.6638 68.4398 66.928 69.4337 67.0045C72.0701 67.1991 74.7041 67.4308 77.3358 67.6996C79.9351 67.9499 82.5622 68.3948 85.1546 67.8873C86.0511 67.7135 85.6689 66.3441 84.7793 66.497C82.1244 67.0184 79.3096 66.4483 76.6478 66.1911C73.9859 65.9339 71.3032 65.6906 68.6205 65.496C67.7043 65.3828 66.7744 65.4827 65.9031 65.7879C65.4921 65.9702 65.123 66.2353 64.8189 66.5665C64.7077 66.6777 64.5965 66.9072 64.4158 66.8793C64.2351 66.8515 64.0335 66.4414 63.964 66.358C63.3595 65.6753 62.5637 65.1903 61.68 64.9659C60.7963 64.7416 59.8655 64.7882 59.0087 65.0997C58.1677 65.4334 58.5291 66.8029 59.384 66.4901L59.4187 66.497Z" fill="#C0E3F2"/>
<path d="M106.341 68.5827C107.398 67.7903 108.989 66.7336 109.858 68.3186C110.296 69.1111 110.72 70.0634 111.811 69.8966C112.902 69.7297 113.625 68.3742 114.389 67.7346C115.529 66.7684 116.683 66.4834 118.017 67.2619C119.056 68.0132 120.239 68.5411 121.492 68.8121C122.694 68.9618 123.914 68.7665 125.009 68.2491C125.638 67.8912 126.329 67.6553 127.045 67.5539C127.806 67.6125 128.562 67.7123 129.311 67.8528C130.932 67.9155 132.554 67.7612 134.134 67.394C135.031 67.2272 134.649 65.8577 133.752 66.0037C132.037 66.4117 130.263 66.5129 128.512 66.3026C127.877 66.1555 127.222 66.1086 126.573 66.1636C125.96 66.2724 125.366 66.4666 124.808 66.7406C123.355 67.3732 121.951 67.679 120.429 67.0047C119.248 66.4834 118.344 65.5171 117.01 65.3225C115.902 65.2102 114.794 65.5371 113.924 66.2331C113.429 66.6185 112.964 67.0415 112.534 67.4983C112.345 67.7448 112.138 67.9772 111.915 68.1934C111.568 68.4507 111.54 68.4228 111.331 68.0405C110.824 67.0881 110.338 66.3096 109.198 66.0802C107.843 65.8091 106.675 66.5459 105.639 67.3245C104.944 67.8667 105.639 69.0972 106.334 68.548L106.341 68.5827Z" fill="#C0E3F2"/>
<path d="M159.574 68.1932C160.401 67.8039 161.242 67.4494 162.104 67.1435C162.944 66.7733 163.838 66.5386 164.752 66.4483C165.551 66.4483 166.253 66.9072 167.017 67.074C167.605 67.2051 168.22 67.1417 168.769 66.8932C169.269 66.6638 169.783 66.1008 170.325 66.0104C170.868 65.92 171.465 66.636 172 66.8793C172.543 67.1058 173.137 67.1756 173.717 67.0809C174.252 67.0184 175.038 66.7403 175.538 67.0809C176.038 67.4216 176.143 68.0264 176.643 68.3253C176.857 68.455 177.101 68.5281 177.352 68.5379C177.602 68.5476 177.851 68.4936 178.075 68.3809C178.575 68.1376 178.846 67.6857 179.263 67.3242C179.875 66.8098 180.584 67.0948 181.286 67.2617C181.915 67.4429 182.573 67.5042 183.225 67.4424C183.954 67.3451 184.802 66.8793 185.539 67.0253C186.762 67.2686 187.395 68.5616 188.757 67.8943C189.577 67.4911 188.861 66.2676 188.062 66.6708C187.714 66.8376 186.707 65.9756 186.373 65.8088C185.774 65.5774 185.118 65.5386 184.497 65.6976C183.758 65.9427 182.98 66.0488 182.203 66.0104C181.552 65.842 180.894 65.7074 180.229 65.6072C179.641 65.5572 179.054 65.72 178.575 66.066C178.304 66.2676 177.72 67.1644 177.366 67.0879C177.206 67.0879 176.949 66.5248 176.852 66.3927C176.693 66.1793 176.497 65.9958 176.275 65.8505C175.787 65.5776 175.223 65.4703 174.669 65.5446C174.052 65.6988 173.412 65.7435 172.779 65.6767C172.181 65.5029 171.785 64.919 171.187 64.7105C169.839 64.2447 169.193 65.35 168.039 65.6906C167.295 65.9061 166.531 65.3778 165.829 65.1901C165.102 64.9989 164.338 64.9989 163.612 65.1901C161.98 65.6332 160.395 66.2339 158.879 66.9836C158.059 67.3729 158.775 68.5964 159.574 68.2071V68.1932Z" fill="#C0E3F2"/>
<path d="M206.937 67.8109L210.725 66.7334C211.323 66.5596 211.928 66.351 212.532 66.2189C213.126 66.1285 213.732 66.2385 214.256 66.5318C215.283 66.8465 216.36 66.969 217.432 66.8932C218.697 66.8932 219.955 66.8932 221.22 66.8446L236.718 66.6569C236.903 66.6569 237.079 66.5837 237.21 66.4533C237.34 66.3229 237.413 66.1461 237.413 65.9617C237.413 65.7774 237.34 65.6006 237.21 65.4702C237.079 65.3398 236.903 65.2666 236.718 65.2666L220.893 65.4612C219.649 65.4612 218.405 65.5029 217.161 65.5099C216.547 65.533 215.932 65.4934 215.326 65.3917C214.756 65.2666 214.277 64.9468 213.728 64.7939C212.692 64.5089 211.511 65.065 210.531 65.35L206.583 66.4762C206.492 66.5008 206.406 66.5432 206.331 66.6009C206.256 66.6586 206.194 66.7305 206.147 66.8125C206.099 66.8945 206.069 66.9849 206.057 67.0787C206.045 67.1725 206.051 67.2677 206.076 67.359C206.1 67.4503 206.143 67.5358 206.2 67.6107C206.258 67.6856 206.33 67.7485 206.412 67.7956C206.494 67.8427 206.584 67.8732 206.678 67.8854C206.772 67.8975 206.867 67.8911 206.958 67.8665L206.937 67.8109Z" fill="#C0E3F2"/>
<path opacity="0.3" d="M105.746 122.964L72.1846 124.771C70.368 113.46 69.4732 102.019 69.5088 90.5627L102.299 89.3184C102.82 100.589 103.971 111.822 105.746 122.964Z" fill="#2A889B"/>
<path d="M106.513 121.428L72.9516 123.236C71.0303 112.108 69.8693 100.862 69.4766 89.5761L103.038 87.7617C103.568 99.0399 104.728 110.28 106.513 121.428Z" fill="#2A889B"/>
<path opacity="0.3" d="M148.016 135.302L114.273 133.265V99.8145L148.016 101.851V135.302Z" fill="#2A889B"/>
<path d="M147.571 134.552L113.836 132.515L114.232 98.8691L147.967 100.899L147.571 134.552Z" fill="#C0E3F2"/>
<path opacity="0.3" d="M180.178 128.747L213.907 127.641C214.741 119.876 211.071 100.363 209.042 93.4258L176.328 95.5113C179.129 107.816 180.331 119.397 180.178 128.747Z" fill="#2A889B"/>
<path d="M180.758 127.643L213.423 125.961C214.257 118.203 212.095 105.489 209.656 92.3223L176.129 94.4494C178.895 106.768 180.911 118.293 180.758 127.643Z" fill="#2A889B"/>
<path opacity="0.3" d="M87.6842 180.46L122.115 176.984C122.024 169.129 117.986 150.888 115.595 144.055L83.125 147.892C86.6 160.071 86.7251 171.11 87.6842 180.46Z" fill="#2A889B"/>
<path d="M88.495 179.98L121.688 176.372C122.098 168.559 119.249 155.942 116.128 142.9L82.8516 146.856C85.5273 159.063 88.1336 170.651 88.495 179.98Z" fill="#2A889B"/>
<path opacity="0.3" d="M171.391 142.992L204.903 149.248C207.419 141.935 208.066 122.297 207.579 115.186L174.866 110.062C174.9 122.561 173.552 134.004 171.391 142.992Z" fill="#2A889B"/>
<path d="M172.172 142.053L204.733 147.544C207.255 140.231 207.895 127.489 208.367 114.253L174.82 108.998C174.862 121.497 174.361 133.064 172.172 142.053Z" fill="#C0E3F2"/>
<path d="M251.065 111.76C251.76 112.455 252.288 113.081 252.865 113.762C253.442 114.443 253.998 115.103 254.54 115.792C255.638 117.182 256.68 118.572 257.674 120.032C258.668 121.492 259.613 122.987 260.454 124.572C261.353 126.162 262.14 127.814 262.81 129.514L263.067 130.161L263.13 130.32L263.213 130.564L263.366 131.036C263.443 131.342 263.512 131.634 263.575 131.926C263.637 132.218 263.672 132.482 263.707 132.753C263.816 133.746 263.851 134.745 263.811 135.743C263.732 137.548 263.53 139.345 263.206 141.123C262.586 144.545 261.691 147.911 260.531 151.189L256.875 150.341C257.146 147.074 257.396 143.737 257.487 140.525C257.542 138.968 257.517 137.409 257.41 135.854C257.362 135.171 257.262 134.492 257.111 133.824L257.007 133.414L256.875 133.115L256.479 132.316C255.05 129.542 253.388 126.895 251.51 124.405C250.564 123.119 249.571 121.86 248.57 120.609C248.069 119.977 247.555 119.358 247.041 118.746L245.512 116.973L251.065 111.76Z" fill="#B65B52"/>
<path d="M257.319 148.971L254.789 151.689L259.737 154.608C259.737 154.608 261.447 152.335 260.78 150.006L257.319 148.971Z" fill="#B55B52"/>
<path d="M251.496 155.707L256.312 157.397L259.732 154.609L254.783 151.689L251.496 155.707Z" fill="#B55B52"/>
<path d="M265.369 166.843L233.559 159.892C235.146 149.139 237.468 138.509 240.509 128.074L272.326 135.026C269.41 145.492 267.088 156.115 265.369 166.843Z" fill="#2A889B"/>
<path d="M270.383 136.557L239.176 127.264L229.884 158.478L261.091 167.771L270.383 136.557Z" fill="#C0E3F2"/>
<path d="M233.036 90.904C233.036 91.3072 232.786 91.5991 232.521 91.5991C232.257 91.5991 232.063 91.2585 232.084 90.8553C232.104 90.4521 232.334 90.1602 232.598 90.1602C232.862 90.1602 233.057 90.5008 233.036 90.904Z" fill="#263238"/>
<path d="M232.819 91.6289C232.281 92.8423 231.579 93.9766 230.734 95.0004C231 95.2087 231.309 95.356 231.638 95.4317C231.967 95.5074 232.309 95.5096 232.639 95.4384L232.819 91.6289Z" fill="#A02724"/>
<path d="M234.635 88.7297C234.693 88.7178 234.744 88.6857 234.781 88.6394C234.825 88.5951 234.85 88.5351 234.85 88.4725C234.85 88.41 234.825 88.35 234.781 88.3057C234.494 88.0706 234.155 87.9071 233.793 87.8285C233.43 87.75 233.054 87.7586 232.696 87.8538C232.666 87.8633 232.639 87.8786 232.615 87.8987C232.591 87.9189 232.571 87.9436 232.557 87.9714C232.543 87.9992 232.534 88.0295 232.532 88.0607C232.53 88.0918 232.533 88.1231 232.543 88.1527C232.552 88.1825 232.568 88.2101 232.588 88.2339C232.608 88.2577 232.633 88.2773 232.661 88.2915C232.688 88.3057 232.719 88.3143 232.75 88.3167C232.781 88.3192 232.812 88.3154 232.842 88.3057C233.129 88.2299 233.429 88.2245 233.718 88.2898C234.008 88.3552 234.277 88.4894 234.503 88.6811C234.542 88.7089 234.587 88.7257 234.635 88.7297Z" fill="#263238"/>
<path d="M245.13 96.6895C244.365 100.353 243.872 105.421 246.394 107.861C246.394 107.861 245.352 111.573 238.548 111.573C231.077 111.573 234.996 108.319 234.996 108.319C238.117 107.353 238.138 103.815 237.464 100.972L245.13 96.6895Z" fill="#B55B52"/>
<path d="M229.307 279.973C228.668 279.973 228.049 279.882 227.841 279.597C227.787 279.521 227.758 279.43 227.758 279.337C227.758 279.243 227.787 279.152 227.841 279.076C227.881 279.006 227.935 278.946 227.999 278.898C228.064 278.85 228.138 278.816 228.216 278.798C229.05 278.576 230.787 279.57 230.857 279.611C230.879 279.623 230.897 279.641 230.909 279.664C230.92 279.686 230.924 279.712 230.919 279.736C230.913 279.76 230.901 279.781 230.884 279.798C230.867 279.815 230.845 279.827 230.822 279.834C230.322 279.923 229.815 279.97 229.307 279.973ZM228.529 279C228.452 278.992 228.376 278.992 228.299 279C228.202 279.022 228.117 279.082 228.063 279.166C227.98 279.312 228.007 279.389 228.063 279.431C228.292 279.75 229.557 279.757 230.489 279.625C229.882 279.291 229.216 279.078 228.529 279Z" fill="#2A889B"/>
<path d="M230.821 279.835H230.773C230.168 279.564 228.986 278.479 229.084 277.916C229.084 277.784 229.209 277.617 229.529 277.582C229.652 277.563 229.778 277.571 229.898 277.606C230.019 277.641 230.13 277.702 230.224 277.784C230.849 278.305 230.967 279.654 230.974 279.71C230.973 279.752 230.955 279.791 230.926 279.821C230.91 279.83 230.893 279.836 230.875 279.839C230.857 279.841 230.839 279.84 230.821 279.835ZM229.626 277.805H229.549C229.341 277.805 229.327 277.909 229.32 277.937C229.258 278.278 230.064 279.126 230.675 279.494C230.624 278.929 230.401 278.393 230.036 277.958C229.922 277.86 229.776 277.805 229.626 277.805Z" fill="#2A889B"/>
<path d="M236.523 279.716H231.519L231.172 268.135H236.176L236.523 279.716Z" fill="#B55B52"/>
<path d="M231.358 279.139H236.82C236.919 279.138 237.015 279.172 237.093 279.234C237.17 279.296 237.223 279.382 237.244 279.479L238.175 283.921C238.199 284.03 238.197 284.143 238.17 284.25C238.144 284.358 238.093 284.459 238.022 284.544C237.951 284.63 237.862 284.699 237.761 284.745C237.66 284.791 237.55 284.814 237.439 284.811C235.472 284.811 232.629 284.665 230.148 284.665C227.257 284.665 225.429 284.825 222.031 284.825C219.98 284.825 219.438 282.74 220.3 282.559C224.22 281.704 226.743 281.613 230.148 279.528C230.507 279.288 230.926 279.153 231.358 279.139Z" fill="#263238"/>
<path d="M248.403 108.457C253.199 108.513 259.905 120.678 259.905 120.678L252.469 128.248C249.191 126.501 246.542 123.771 244.893 120.442C242.058 114.658 243.503 108.409 248.403 108.457Z" fill="#2A889B"/>
<path opacity="0.3" d="M248.403 108.457C253.199 108.513 259.905 120.678 259.905 120.678L252.469 128.248C249.191 126.501 246.542 123.771 244.893 120.442C242.058 114.658 243.503 108.409 248.403 108.457Z" fill="black"/>
<path d="M225.656 114.005C224.565 119.406 223.779 130.508 226.469 152.482H253.213C253.421 148.923 251.697 133.386 253.984 116.702C254.128 115.637 254.049 114.553 253.754 113.52C253.458 112.486 252.952 111.525 252.268 110.696C251.583 109.868 250.734 109.19 249.775 108.705C248.816 108.221 247.767 107.94 246.693 107.88H246.395C242.608 107.665 238.811 107.665 235.024 107.88C233.773 107.999 232.536 108.179 231.438 108.374C230.021 108.625 228.712 109.296 227.681 110.3C226.65 111.304 225.944 112.595 225.656 114.005Z" fill="#2A889B"/>
<path opacity="0.2" d="M225.656 114.005C224.565 119.406 223.779 130.508 226.469 152.482H253.213C253.421 148.923 251.697 133.386 253.984 116.702C254.128 115.637 254.049 114.553 253.754 113.52C253.458 112.486 252.952 111.525 252.268 110.696C251.583 109.868 250.734 109.19 249.775 108.705C248.816 108.221 247.767 107.94 246.693 107.88H246.395C242.608 107.665 238.811 107.665 235.024 107.88C233.773 107.999 232.536 108.179 231.438 108.374C230.021 108.625 228.712 109.296 227.681 110.3C226.65 111.304 225.944 112.595 225.656 114.005Z" fill="black"/>
<path opacity="0.2" d="M231.806 125.134L228.206 122.688C224.731 123.821 224.55 127.199 224.731 132.079C227.719 131.328 231.159 128.492 231.806 125.134Z" fill="black"/>
<path opacity="0.2" d="M231.172 268.135L231.353 274.106H236.357L236.176 268.135H231.172Z" fill="black"/>
<path d="M246.52 90.5979C245.95 95.5335 245.867 98.4532 243.233 100.893C239.271 104.557 233.287 102.047 232.37 97.0559C231.543 92.5652 232.613 85.2382 237.562 83.4656C238.641 83.0643 239.806 82.9489 240.944 83.1305C242.081 83.312 243.153 83.7845 244.054 84.502C244.955 85.2195 245.656 86.1578 246.088 87.2258C246.52 88.2938 246.669 89.4554 246.52 90.5979Z" fill="#B55B52"/>
<path d="M235.98 92.7122C234.445 93.0598 233.75 89.438 235.285 88.0477C233.895 87.3525 231.887 86.3446 231.22 84.8291C230.448 83.0912 232.533 81.0058 234.333 81.0961C233.75 79.9352 235.028 76.8348 238.698 78.0027C242.368 79.1706 244.091 80.978 244.091 80.978C244.091 80.978 245.3 76.96 247.851 80.2063C250.11 83.0843 249.241 85.5521 249.241 85.5521C249.241 85.5521 252.605 88.7429 251.736 91.1133C251.251 92.5001 250.257 93.6506 248.956 94.3319C248.956 94.3319 249.463 99.8932 245.377 101.283C241.29 102.674 238.712 99.8932 239.059 98.2665C236.418 98.3569 233.722 94.8811 235.98 92.7122Z" fill="#263238"/>
<path d="M237.764 92.3431C237.579 93.567 237.003 94.6983 236.123 95.5686C234.949 96.7017 233.865 95.8884 233.774 94.4216C233.691 93.1008 234.205 90.9458 235.581 90.3341C236.957 89.7223 237.951 90.8693 237.764 92.3431Z" fill="#B55B52"/>
<path d="M278.978 273.405L274.53 275.004L270.109 263.555L274.557 261.963L278.978 273.405Z" fill="#B55B52"/>
<path d="M272.552 275.726C272.052 276.122 271.51 276.421 271.162 276.337C271.075 276.307 270.999 276.251 270.944 276.177C270.889 276.102 270.859 276.013 270.857 275.92C270.846 275.84 270.852 275.759 270.873 275.682C270.895 275.604 270.932 275.532 270.982 275.468C271.503 274.773 273.477 274.481 273.56 274.474C273.584 274.47 273.609 274.474 273.631 274.483C273.653 274.493 273.672 274.509 273.685 274.53C273.697 274.551 273.704 274.575 273.704 274.599C273.704 274.624 273.697 274.648 273.685 274.669C273.338 275.052 272.959 275.406 272.552 275.726ZM271.343 275.447C271.277 275.492 271.221 275.549 271.176 275.614C271.116 275.691 271.089 275.789 271.1 275.885C271.1 276.052 271.19 276.094 271.239 276.108C271.614 276.219 272.629 275.447 273.268 274.766C272.588 274.865 271.934 275.096 271.343 275.447Z" fill="#2A889B"/>
<path d="M273.657 274.683C273.643 274.687 273.629 274.687 273.615 274.683C272.976 274.843 271.377 274.724 271.106 274.217C271.044 274.099 271.016 273.911 271.252 273.682C271.336 273.6 271.437 273.536 271.547 273.494C271.657 273.452 271.774 273.433 271.892 273.438C272.705 273.438 273.629 274.446 273.671 274.488C273.681 274.505 273.686 274.524 273.686 274.544C273.686 274.563 273.681 274.582 273.671 274.599C273.674 274.613 273.675 274.628 273.673 274.642C273.67 274.657 273.665 274.671 273.657 274.683ZM271.468 273.828C271.446 273.84 271.427 273.857 271.412 273.876C271.259 274.022 271.301 274.099 271.315 274.127C271.475 274.425 272.628 274.599 273.337 274.516C272.952 274.095 272.443 273.808 271.885 273.696C271.734 273.687 271.586 273.734 271.468 273.828Z" fill="#2A889B"/>
<path d="M273.683 273.779L277.978 270.4C278.058 270.34 278.155 270.307 278.256 270.307C278.356 270.307 278.454 270.34 278.534 270.4L282.224 273.181C282.312 273.246 282.383 273.33 282.432 273.427C282.481 273.524 282.507 273.632 282.507 273.741C282.507 273.85 282.481 273.957 282.432 274.054C282.383 274.151 282.312 274.236 282.224 274.3C280.654 275.489 277.623 277.936 275.775 279.577C273.613 281.502 275.295 280.216 272.758 282.475C271.222 283.866 269.346 282.726 269.86 282.024C272.181 278.812 272.675 276.9 272.981 274.85C273.066 274.415 273.318 274.03 273.683 273.779Z" fill="#263238"/>
<path d="M200.629 126.421L198.676 122.215L193.359 125.503C193.359 125.503 195.111 129.083 198.739 128.694L200.629 126.421Z" fill="#B55B52"/>
<path d="M193.679 121.075L192.49 122.097C192.308 122.253 192.161 122.446 192.058 122.664C191.956 122.881 191.9 123.117 191.895 123.357C191.89 123.597 191.935 123.835 192.028 124.056C192.121 124.278 192.259 124.477 192.434 124.641L193.359 125.503L198.676 122.215L195.486 120.825C195.191 120.693 194.866 120.646 194.546 120.69C194.226 120.734 193.926 120.868 193.679 121.075Z" fill="#B55B52"/>
<path opacity="0.2" d="M270.109 263.555L272.389 269.457L276.837 267.865L274.557 261.963L270.109 263.555Z" fill="black"/>
<path d="M235.953 152.482C235.953 152.482 244.293 190.904 247.49 205.168C250.965 220.782 269.376 268.268 269.376 268.268L277.452 263.888C277.452 263.888 268.813 226.635 262.502 206.315C260.209 189.52 253.21 152.482 253.21 152.482H235.953Z" fill="#263238"/>
<path d="M267.102 265.889C267.061 265.889 268.756 269.024 268.756 269.024L278.751 265.27L277.958 262.219L267.102 265.889Z" fill="#2A889B"/>
<path opacity="0.3" d="M240.89 170.291C247.186 171.132 247.895 193.315 247.777 206.335C247.694 205.925 247.596 205.536 247.52 205.167C245.776 197.374 242.502 182.373 239.875 170.361C240.204 170.262 240.551 170.238 240.89 170.291Z" fill="black"/>
<path d="M226.466 152.482C226.466 152.482 224.339 189.882 224.687 205.134C225.048 221.004 229.503 272.953 229.503 272.953H237.975C237.975 272.953 239.365 221.929 239.935 206.35C240.568 189.36 244.049 152.482 244.049 152.482H226.466Z" fill="#263238"/>
<path d="M227.924 269.574C227.883 269.574 228.355 273.092 228.355 273.092H238.662L238.982 269.957L227.924 269.574Z" fill="#2A889B"/>
<path d="M233.674 116.59C232.518 118.648 231.23 120.629 229.817 122.52C228.416 124.386 226.91 126.171 225.307 127.866C223.722 129.555 222.047 131.154 220.33 132.669C218.614 134.185 216.821 135.631 215.208 136.959L214.638 137.431L214.166 137.598C213.015 138.009 211.785 138.144 210.573 137.994C209.578 137.884 208.601 137.646 207.667 137.285C206.102 136.623 204.632 135.756 203.296 134.706C202.061 133.747 200.9 132.696 199.821 131.564C199.293 131.015 198.792 130.438 198.299 129.861C197.805 129.284 197.347 128.7 196.867 128.04L199.612 125.475C200.676 126.267 201.823 127.129 202.969 127.866C204.075 128.622 205.222 129.318 206.403 129.951C207.451 130.53 208.563 130.983 209.718 131.3C210.146 131.416 210.588 131.47 211.031 131.46C211.264 131.462 211.493 131.4 211.692 131.279L210.656 131.919C212.352 130.334 213.888 128.916 215.417 127.421C216.946 125.926 218.384 124.411 219.767 122.847C221.15 121.283 222.471 119.67 223.687 117.981C224.903 116.291 226.029 114.595 227.093 112.857L233.674 116.59Z" fill="#B65B52"/>
<path d="M237.237 115.54C236.757 122.735 228.508 128.748 228.508 128.748L217.805 122.874C217.805 122.874 221.745 114.4 227.055 110.396C233.623 105.482 237.598 110.063 237.237 115.54Z" fill="#2A889B"/>
<path opacity="0.2" d="M237.237 115.54C236.757 122.735 228.508 128.748 228.508 128.748L217.805 122.874C217.805 122.874 221.745 114.4 227.055 110.396C233.623 105.482 237.598 110.063 237.237 115.54Z" fill="black"/>
</svg>
