<svg width="304" height="274" viewBox="0 0 304 274" fill="none" xmlns="http://www.w3.org/2000/svg">
<path opacity="0.15" d="M304 71.0555C304 64.8846 298.466 60.1864 292.377 61.1881L29.4878 104.437C24.6564 105.232 21.1111 109.408 21.1111 114.305V261.737C21.1111 268.069 26.921 272.807 33.1231 271.533L296.012 217.535C300.662 216.58 304 212.487 304 207.739V71.0555Z" fill="#FB9D50"/>
<path opacity="0.25" d="M0 11.7727C0 5.6041 5.53029 0.906536 11.6176 1.90438L274.507 44.9976C279.34 45.79 282.889 49.9674 282.889 54.8659V213.962C282.889 220.291 277.084 225.028 270.884 223.759L7.99494 169.957C3.34141 169.004 0 164.91 0 160.16V11.7727Z" fill="#2A889B"/>
<path d="M262.345 45.0195H159.793C159.793 45.0195 141.32 62.0854 141.32 103.576C141.32 139.257 155.33 187.636 150.07 207.439C146.103 222.382 126.868 224.948 117.648 225.303H215.26C215.26 225.303 247.362 227.249 252.622 207.439C257.881 187.629 243.872 139.257 243.872 103.569C243.872 62.0581 262.345 45.0195 262.345 45.0195Z" fill="#2A889B"/>
<path opacity="0.7" d="M262.345 45.0195H159.793C159.793 45.0195 141.32 62.0854 141.32 103.576C141.32 139.257 155.33 187.636 150.07 207.439C146.103 222.382 126.868 224.948 117.648 225.303H215.26C215.26 225.303 247.362 227.249 252.622 207.439C257.881 187.629 243.872 139.257 243.872 103.569C243.872 62.0581 262.345 45.0195 262.345 45.0195Z" fill="white"/>
<g opacity="0.8">
<path opacity="0.8" d="M234.447 88.7771H152.43C154.75 70.5235 161.003 59.9017 164.453 55.2598H243.537C239.659 63.3831 235.998 74.4486 234.447 88.7771Z" fill="#2A889B"/>
<path opacity="0.3" d="M233.758 98.4571H151.625C151.693 96.7983 151.788 95.1873 151.924 93.6309H234.009C233.896 95.2009 233.812 96.8096 233.758 98.4571Z" fill="#2A889B"/>
<path opacity="0.3" d="M177.379 108.13H151.598C151.553 106.587 151.528 105.069 151.523 103.577V103.311H177.311V103.57C177.311 105.079 177.331 106.601 177.379 108.13Z" fill="#2A889B"/>
<path opacity="0.3" d="M234.246 117.804H152.175C152.032 116.179 151.917 114.568 151.828 112.984H233.933C234.015 114.582 234.119 116.188 234.246 117.804Z" fill="#2A889B"/>
<path opacity="0.3" d="M235.151 127.463H153.148C152.957 125.847 152.78 124.239 152.617 122.637H234.689C234.804 124.261 234.974 125.872 235.151 127.463Z" fill="#2A889B"/>
<path opacity="0.3" d="M236.337 137.155H154.401C154.177 135.544 153.966 133.933 153.762 132.336H235.724C235.915 133.942 236.119 135.549 236.337 137.155Z" fill="#2A889B"/>
<path opacity="0.3" d="M237.691 146.829H155.762C155.527 145.218 155.3 143.612 155.082 142.01H237.004C237.228 143.614 237.46 145.211 237.691 146.829Z" fill="#2A889B"/>
<path opacity="0.3" d="M239.141 156.508H157.24C157.11 155.627 156.974 154.733 156.838 153.839L156.512 151.682H238.413C238.658 153.293 238.896 154.904 239.141 156.508Z" fill="#2A889B"/>
<path opacity="0.3" d="M158.669 166.181C158.442 164.588 158.215 162.981 157.988 161.361H239.876C240.114 162.972 240.359 164.577 240.59 166.181H158.669Z" fill="#2A889B"/>
<path opacity="0.3" d="M159.967 175.855C159.776 174.278 159.565 172.667 159.348 171.035H227.661C227.892 172.66 228.11 174.271 228.342 175.855H159.967Z" fill="#2A889B"/>
<path opacity="0.3" d="M160.973 185.533C160.841 183.959 160.691 182.35 160.523 180.707H242.527C242.71 182.359 242.881 183.97 243.023 185.533H160.973Z" fill="#2A889B"/>
<path opacity="0.3" d="M161.443 195.206C161.443 193.65 161.381 192.039 161.293 190.387H204.56C204.669 192.073 204.731 193.684 204.751 195.206H161.443Z" fill="#2A889B"/>
</g>
<path d="M223.126 220.081C217.92 221.03 212.647 220.306 207.415 220.081C204.906 219.918 202.387 219.984 199.89 220.279C197.44 220.607 195.004 221.248 192.534 221.03C193.351 220.59 194.119 220.066 194.827 219.467C194.859 219.436 194.881 219.397 194.893 219.354C194.905 219.311 194.905 219.266 194.894 219.223C194.883 219.181 194.861 219.141 194.83 219.11C194.8 219.078 194.761 219.055 194.718 219.043C187.037 216.313 180.042 223.699 172.387 221.979C174.558 220.368 177.613 220.334 179.464 218.217C179.498 218.181 179.521 218.135 179.53 218.086C179.538 218.036 179.533 217.985 179.513 217.939C179.494 217.893 179.461 217.853 179.42 217.825C179.379 217.797 179.33 217.781 179.28 217.78C172.435 217.644 165.971 220.299 159.167 220.907C158.84 220.907 158.84 221.446 159.167 221.419C165.733 220.845 172.027 218.327 178.647 218.272C176.667 220.047 173.646 220.108 171.632 221.897C171.601 221.929 171.578 221.968 171.567 222.011C171.555 222.054 171.555 222.099 171.566 222.143C171.577 222.186 171.598 222.225 171.629 222.258C171.66 222.29 171.698 222.314 171.741 222.327C179.457 224.463 186.479 217.077 194.099 219.357C193.305 219.983 192.439 220.512 191.52 220.934C191.477 220.96 191.443 220.998 191.421 221.044C191.399 221.089 191.391 221.14 191.398 221.19C191.404 221.24 191.425 221.287 191.458 221.325C191.49 221.363 191.533 221.391 191.582 221.405C194.092 221.828 196.549 221.289 199.025 220.893C201.799 220.494 204.606 220.384 207.401 220.566C212.688 220.818 217.995 221.535 223.248 220.566C223.595 220.518 223.459 220.019 223.126 220.081Z" fill="#2A889B"/>
<path d="M84.2378 70.209C84.6665 70.7619 85.2176 71.4104 85.7211 72.0111C86.2246 72.6119 86.7757 73.2194 87.3201 73.8065C88.4155 74.9806 89.5246 76.1342 90.7221 77.2196C92.9429 79.335 95.4654 81.1066 98.2067 82.4759C98.5401 82.6261 98.8871 82.7626 99.1933 82.8855C99.3447 82.9459 99.4991 82.9983 99.6559 83.0425C99.8011 83.1001 99.9515 83.1435 100.105 83.1722C100.758 83.3407 101.426 83.4458 102.099 83.4862C103.605 83.5597 105.115 83.4727 106.603 83.2268C108.183 82.985 109.749 82.6522 111.291 82.2302C112.856 81.8206 114.455 81.3155 115.945 80.7898L117.306 83.5204C114.281 85.4173 111.006 86.8788 107.576 87.8619C105.767 88.3814 103.903 88.6816 102.024 88.7562C101.006 88.7972 99.9865 88.7308 98.9823 88.5582C98.7238 88.5172 98.4584 88.4558 98.1999 88.3944C97.9413 88.3329 97.6691 88.2647 97.4446 88.1896C96.9683 88.0462 96.5056 87.8892 96.0838 87.7117C92.6206 86.283 89.4335 84.2568 86.6669 81.725C85.3168 80.5512 84.0291 79.3071 82.8089 77.9978C82.2034 77.3152 81.6114 76.6804 81.0399 75.9977C80.4683 75.3151 79.924 74.6325 79.332 73.8474L84.2378 70.209Z" fill="#FFB573"/>
<path d="M77.319 68.2772C77.1693 72.0999 78.6799 78.9945 78.6799 78.9945L88.1104 77.8477C88.1104 77.8477 88.4574 67.7583 86.6271 65.3213C83.5312 61.246 77.4619 64.6592 77.319 68.2772Z" fill="#2A889B"/>
<path d="M114.68 81.7599L119.096 77.7051L119.66 82.0739C119.66 82.0739 117.83 84.5383 115.755 83.5007L114.68 81.7599Z" fill="#FFB573"/>
<path d="M121.312 77.944L123.183 80.4015L119.658 82.0739L119.094 77.7051L121.312 77.944Z" fill="#FFB573"/>
<path d="M120.198 66.8922C120.667 66.8922 120.926 66.8922 121.259 66.8922C121.402 66.8823 121.545 66.8823 121.688 66.8922L122.041 66.9399C122.347 66.976 122.638 67.0913 122.885 67.2744C123.006 67.4167 123.085 67.5888 123.117 67.7728L123.273 68.2916L123.906 70.3395L125.171 74.4831L127.696 82.7771C129.363 88.3064 131.098 93.8221 132.704 99.3651C136.004 110.437 139.127 121.551 142.195 132.685C145.264 143.818 148.149 155 151.115 166.134C154.082 177.267 156.736 188.531 157.681 200.218C157.716 200.999 157.481 201.768 157.018 202.397C156.554 203.026 155.889 203.476 155.135 203.672C154.38 203.868 153.581 203.797 152.872 203.473C152.163 203.149 151.586 202.59 151.238 201.89C146.407 191.214 143.25 180.107 140.487 168.898C137.725 157.689 134.792 146.576 132.084 135.374C129.376 124.172 126.73 112.909 124.253 101.625C122.98 95.9929 121.824 90.327 120.606 84.6816L118.803 76.2033L117.898 71.9641L117.449 69.8411L117.333 69.3155C117.271 69.138 117.257 68.9473 117.292 68.7626C117.425 68.4918 117.621 68.2575 117.864 68.0799L118.156 67.8615C118.269 67.7757 118.387 67.6981 118.51 67.6294C118.803 67.4588 119.014 67.3154 119.435 67.1106C119.673 66.9885 119.932 66.9143 120.198 66.8922Z" fill="#263238"/>
<path d="M157.029 201.979C156.978 201.794 156.856 201.637 156.691 201.541C156.525 201.445 156.329 201.419 156.144 201.467L154.647 201.856L153.15 202.245C152.965 202.293 152.806 202.413 152.708 202.578C152.61 202.742 152.581 202.939 152.626 203.126C153.559 207.426 152.626 210.505 153.62 214.287C154.647 218.266 159.117 220.308 159.117 220.308L158.975 218.608L159.655 220.164C159.655 220.164 162.574 216.205 161.547 212.225C160.58 208.443 158.294 206.191 157.029 201.979Z" fill="#2A889B"/>
<path opacity="0.3" d="M157.029 201.979C156.978 201.794 156.856 201.637 156.691 201.541C156.525 201.445 156.329 201.419 156.144 201.467L154.647 201.856L153.15 202.245C152.965 202.293 152.806 202.413 152.708 202.578C152.61 202.742 152.581 202.939 152.626 203.126C153.559 207.426 152.626 210.505 153.62 214.287C154.647 218.266 159.117 220.308 159.117 220.308L158.975 218.608L159.655 220.164C159.655 220.164 162.574 216.205 161.547 212.225C160.58 208.443 158.294 206.191 157.029 201.979Z" fill="white"/>
<path d="M158.189 211.849C158.233 212.028 158.223 212.217 158.16 212.39C158.098 212.564 157.986 212.715 157.838 212.825C157.69 212.934 157.513 212.998 157.329 213.007C157.145 213.015 156.963 212.97 156.805 212.875C156.647 212.78 156.521 212.64 156.442 212.474C156.363 212.307 156.335 212.12 156.361 211.938C156.388 211.755 156.468 211.584 156.591 211.447C156.714 211.31 156.874 211.212 157.053 211.166C157.293 211.106 157.548 211.145 157.761 211.273C157.974 211.4 158.128 211.608 158.189 211.849Z" fill="#263238"/>
<path d="M159.031 218.813C159.005 218.821 158.976 218.823 158.948 218.82C158.921 218.817 158.894 218.808 158.869 218.794C158.845 218.78 158.824 218.761 158.807 218.738C158.791 218.716 158.779 218.69 158.773 218.662L157.085 212.143C157.078 212.116 157.076 212.088 157.08 212.061C157.084 212.033 157.093 212.007 157.107 211.982C157.12 211.958 157.139 211.937 157.161 211.92C157.183 211.903 157.208 211.891 157.235 211.884C157.262 211.876 157.29 211.873 157.318 211.876C157.346 211.88 157.373 211.888 157.397 211.903C157.421 211.917 157.442 211.936 157.459 211.958C157.476 211.981 157.487 212.007 157.494 212.034L159.181 218.553C159.188 218.58 159.19 218.608 159.186 218.636C159.183 218.663 159.174 218.69 159.16 218.714C159.146 218.738 159.127 218.759 159.105 218.776C159.083 218.793 159.058 218.806 159.031 218.813Z" fill="#263238"/>
<path d="M153.518 178.538L144.346 180.92C144.092 180.984 143.822 180.945 143.597 180.811C143.371 180.676 143.207 180.458 143.142 180.203C143.076 179.953 143.111 179.686 143.238 179.461C143.365 179.235 143.574 179.068 143.822 178.995L153.042 176.613C153.292 176.547 153.557 176.582 153.782 176.709C154.007 176.836 154.173 177.047 154.246 177.295C154.282 177.425 154.291 177.56 154.274 177.693C154.256 177.827 154.212 177.955 154.144 178.071C154.076 178.187 153.986 178.288 153.878 178.368C153.771 178.448 153.648 178.506 153.518 178.538Z" fill="#2A889B"/>
<path d="M106.957 53.6008C106.794 54.0104 106.882 54.4405 107.148 54.5565C107.413 54.6726 107.767 54.4336 107.93 54.0241C108.093 53.6145 108.012 53.1844 107.74 53.0684C107.468 52.9523 107.127 53.1913 106.957 53.6008Z" fill="#263238"/>
<path d="M107.617 53.0547L108.713 53.198C108.713 53.198 107.896 53.7373 107.617 53.0547Z" fill="#263238"/>
<path d="M107.149 54.1465C107.138 55.2454 107.275 56.3407 107.557 57.4026C107.286 57.4607 107.005 57.4585 106.735 57.396C106.464 57.3335 106.211 57.2122 105.992 57.0409L107.149 54.1465Z" fill="#ED893E"/>
<path d="M108.601 51.1024C108.558 51.0942 108.519 51.0754 108.485 51.0478C108.24 50.8233 107.947 50.6585 107.629 50.5661C107.31 50.4738 106.975 50.4564 106.648 50.5153C106.581 50.5322 106.511 50.5224 106.451 50.488C106.391 50.4536 106.347 50.3973 106.328 50.331C106.312 50.2641 106.321 50.1932 106.356 50.1334C106.39 50.0735 106.446 50.0293 106.512 50.0102C106.921 49.9289 107.343 49.9446 107.745 50.056C108.146 50.1674 108.516 50.3714 108.825 50.6519C108.85 50.676 108.869 50.7047 108.882 50.7363C108.895 50.768 108.902 50.8019 108.902 50.8362C108.902 50.8705 108.895 50.9044 108.882 50.936C108.869 50.9677 108.85 50.9964 108.825 51.0205C108.798 51.0517 108.763 51.0756 108.724 51.0899C108.684 51.1042 108.642 51.1085 108.601 51.1024Z" fill="#263238"/>
<path d="M92.5324 53.3887C92.8249 56.7131 91.7227 62.1537 89.2188 64.0036C89.2188 64.0036 91.1035 67.4987 97.1388 68.3111C103.773 69.2053 100.656 65.4577 100.656 65.4577C97.1251 64.0924 97.5062 61.4506 98.3975 59.0204L92.5324 53.3887Z" fill="#FFB573"/>
<path d="M110.612 71.1309C111.136 74.23 111.782 77.4452 112.456 80.5785C112.817 82.1418 113.177 83.7118 113.599 85.2477C114.021 86.7837 114.443 88.3196 114.912 89.8282C115.171 90.5723 115.402 91.33 115.674 92.0536L116.083 93.1458L116.178 93.412V93.494C116.191 93.5358 116.207 93.5768 116.226 93.6168C116.366 93.8602 116.595 94.039 116.865 94.1152C117.403 94.3075 117.968 94.4157 118.539 94.436C119.999 94.4764 121.459 94.3574 122.894 94.081C124.397 93.808 125.983 93.4394 127.459 93.0298L128.704 95.7944C127.954 96.2425 127.182 96.6526 126.391 97.0232C125.609 97.4075 124.807 97.7494 123.989 98.0471C122.276 98.7184 120.478 99.1503 118.648 99.3305C117.573 99.4286 116.489 99.3548 115.436 99.112C114.088 98.8036 112.874 98.069 111.973 97.0164C111.74 96.7338 111.531 96.4324 111.347 96.1153C111.252 95.9583 111.177 95.7944 111.095 95.6374L110.966 95.3302L110.435 94.1356C110.088 93.337 109.755 92.5383 109.462 91.7328C108.877 90.1218 108.319 88.5039 107.836 86.8792C107.353 85.2546 106.917 83.6162 106.475 81.9779C105.666 78.6876 105.006 75.4315 104.516 72.0251L110.612 71.1309Z" fill="#FFB573"/>
<path d="M126.804 93.2217L129.431 91.1328L130.614 95.1877C130.614 95.1877 127.022 97.7953 126.062 94.7303L126.804 93.2217Z" fill="#FFB573"/>
<path d="M131.805 91.8496L132.744 94.8122L130.615 95.1877L129.438 91.1328L131.805 91.8496Z" fill="#FFB573"/>
<path d="M82.7344 221.946L88.2253 222.356L89.8515 209.706L84.3606 209.297L82.7344 221.946Z" fill="#FFB573"/>
<path d="M47.5703 205.877L52.3264 208.778L60.2396 198.866L55.4835 195.965L47.5703 205.877Z" fill="#FFB573"/>
<path d="M55.6489 210.239C55.5813 210.249 55.5124 210.249 55.4448 210.239C54.7644 210.239 53.9547 209.174 53.5464 208.546C53.5315 208.525 53.5234 208.5 53.5234 208.474C53.5234 208.449 53.5315 208.424 53.5464 208.403C53.5596 208.381 53.5788 208.363 53.6018 208.352C53.6248 208.341 53.6505 208.338 53.6757 208.341C53.9003 208.389 55.8666 208.805 56.1252 209.461C56.1529 209.533 56.1612 209.612 56.1493 209.688C56.1374 209.765 56.1056 209.837 56.0572 209.898C55.9658 210.056 55.8211 210.177 55.6489 210.239ZM53.9479 208.689C54.5262 209.508 55.0774 209.993 55.4516 210C55.5331 210.001 55.6133 209.98 55.6839 209.939C55.7545 209.898 55.8129 209.839 55.853 209.768C55.8712 209.739 55.8809 209.706 55.8809 209.672C55.8809 209.638 55.8712 209.605 55.853 209.577C55.7442 209.229 54.7304 208.88 53.9479 208.696V208.689Z" fill="#2A889B"/>
<path d="M55.3555 208.532C54.7902 208.686 54.1985 208.717 53.6205 208.621C53.599 208.614 53.5796 208.601 53.5642 208.584C53.5487 208.568 53.5377 208.547 53.532 208.525C53.5213 208.507 53.5156 208.486 53.5156 208.464C53.5156 208.442 53.5213 208.421 53.532 208.402C53.5729 208.355 54.6547 207.242 55.4508 207.276C55.5536 207.277 55.6547 207.302 55.7466 207.348C55.8385 207.394 55.9188 207.461 55.9815 207.542C56.0552 207.615 56.1021 207.711 56.1144 207.814C56.1268 207.917 56.1039 208.021 56.0496 208.109C55.8695 208.321 55.6262 208.47 55.3555 208.532ZM53.9267 208.409C54.6071 208.484 55.6549 208.286 55.8658 207.972C55.8658 207.918 55.9203 207.843 55.8114 207.706C55.7713 207.654 55.7198 207.611 55.6609 207.582C55.6019 207.552 55.5371 207.536 55.4712 207.536C54.8785 207.659 54.3388 207.964 53.9267 208.409Z" fill="#2A889B"/>
<path d="M53.7554 207.712L49.2443 203.357C49.1697 203.28 49.0695 203.233 48.9629 203.226C48.8562 203.218 48.7505 203.25 48.6659 203.316L44.8148 206.292C44.7219 206.375 44.6476 206.476 44.5967 206.59C44.5458 206.703 44.5195 206.826 44.5195 206.951C44.5195 207.075 44.5458 207.198 44.5967 207.312C44.6476 207.426 44.7219 207.527 44.8148 207.61C46.4137 209.105 47.2575 209.746 49.2375 211.664C50.4622 212.845 52.1224 214.689 53.8098 216.32C55.4972 217.952 57.1438 216.409 56.5859 215.583C54.0684 211.883 54.4426 210.497 54.2181 208.606C54.17 208.264 54.0068 207.948 53.7554 207.712Z" fill="#263238"/>
<path d="M90.6049 222.533C90.0238 222.522 89.4452 222.456 88.8766 222.335C88.8505 222.33 88.8266 222.316 88.8083 222.297C88.79 222.277 88.7783 222.252 88.7746 222.226C88.7711 222.199 88.7757 222.171 88.7878 222.147C88.7999 222.123 88.819 222.103 88.8426 222.089C89.0944 221.96 91.3261 220.833 91.9793 221.215C92.0421 221.248 92.0949 221.297 92.1321 221.357C92.1692 221.417 92.1893 221.486 92.1902 221.557C92.2043 221.675 92.1886 221.795 92.1446 221.906C92.1007 222.017 92.0298 222.115 91.9385 222.192C91.5451 222.453 91.0751 222.574 90.6049 222.533ZM89.3121 222.151C90.5232 222.349 91.4282 222.301 91.7684 222.001C91.8284 221.949 91.8748 221.883 91.9033 221.81C91.9318 221.736 91.9416 221.656 91.9317 221.577C91.9337 221.55 91.9277 221.522 91.9144 221.498C91.9011 221.474 91.8811 221.454 91.8568 221.441C91.4894 221.236 90.2307 221.714 89.3121 222.151Z" fill="#2A889B"/>
<path d="M88.9043 222.348C88.8798 222.355 88.8539 222.355 88.8295 222.348C88.8095 222.335 88.7937 222.317 88.784 222.295C88.7743 222.273 88.7712 222.249 88.775 222.225C88.775 222.13 89.0404 219.877 90.2719 219.877H90.374C90.7346 219.911 90.8367 220.089 90.8571 220.239C90.9591 220.86 89.6255 222.055 88.9587 222.355L88.9043 222.348ZM90.2651 220.116C89.4758 220.116 89.1628 221.427 89.0676 221.986C89.748 221.577 90.6529 220.621 90.5917 220.266C90.5917 220.232 90.5917 220.143 90.34 220.123L90.2651 220.116Z" fill="#2A889B"/>
<path d="M88.5677 221.57H82.3963C82.2895 221.57 82.186 221.608 82.1039 221.676C82.0218 221.745 81.9664 221.84 81.9473 221.946L81.1172 226.84C81.1006 226.963 81.1105 227.088 81.146 227.206C81.1816 227.325 81.242 227.434 81.3232 227.527C81.4044 227.62 81.5045 227.695 81.6169 227.746C81.7292 227.797 81.8511 227.823 81.9745 227.823C84.1246 227.823 85.1656 227.659 87.8805 227.659C89.5475 227.659 92.9972 227.83 95.3038 227.83C97.6104 227.83 97.7941 225.543 96.8347 225.338C92.5549 224.41 90.8947 223.127 89.4794 221.925C89.2269 221.703 88.9039 221.577 88.5677 221.57Z" fill="#263238"/>
<path opacity="0.2" d="M89.8503 209.705L88.9453 216.737L83.5156 215.822L84.3593 209.303L89.8503 209.705Z" fill="black"/>
<path opacity="0.2" d="M55.4764 195.965L60.2393 198.873L56.9597 202.969L52.1016 200.19L55.4764 195.965Z" fill="black"/>
<path d="M79.9647 97.1935L102.194 100.19C110.808 68.912 108.27 68.0723 108.27 68.0723C107.29 67.6039 106.278 67.2069 105.242 66.8845C104.194 66.5023 103.135 66.1541 102.064 65.8401C99.926 65.2033 97.7516 64.695 95.5529 64.3178C91.2854 63.5817 86.948 63.3366 82.6251 63.5874C82.1918 63.6178 81.771 63.7459 81.394 63.9622C81.017 64.1785 80.6935 64.4774 80.4477 64.8366C80.3553 64.9699 80.2756 65.1116 80.2096 65.2599C79.9677 65.7793 79.8735 66.3557 79.9374 66.9255C81.8154 83.3633 81.2098 88.7698 79.9647 97.1935Z" fill="#2A889B"/>
<path opacity="0.2" d="M104.357 77.6295C103.919 80.866 104.334 84.1611 105.561 87.1864C107.038 81.0836 107.84 76.9469 108.235 74.0798C106.541 74.0047 104.779 74.66 104.357 77.6295Z" fill="black"/>
<path d="M108.074 67.9636C111.884 70.148 114.531 75.3565 115.327 78.3806L107.216 85.8213C107.216 85.8213 103.011 76.0118 103.352 72.9673C103.692 69.9227 106.638 67.1376 108.074 67.9636Z" fill="#2A889B"/>
<path d="M93.7347 46.5285C92.0268 51.7029 91.1967 53.8532 92.6936 57.5394C94.9526 63.0892 101.641 64.2634 104.853 59.7512C107.744 55.6895 110.051 47.9074 105.934 43.7707C105.069 42.8477 103.979 42.1671 102.772 41.796C101.565 41.4249 100.282 41.3762 99.0497 41.6547C97.8178 41.9332 96.6796 42.5292 95.7475 43.3839C94.8154 44.2387 94.1216 45.3225 93.7347 46.5285Z" fill="#FFB573"/>
<path d="M102.193 51.1168C101.835 52.066 101.778 53.1033 102.03 54.0863C102.37 55.4515 103.391 55.5676 104.024 54.687C104.656 53.8064 105.085 52.2159 104.405 51.069C103.724 49.9222 102.636 50.0724 102.193 51.1168Z" fill="#FFB573"/>
<path d="M95.5855 40.0847C91.9113 38.0368 85.2977 44.0303 83.6375 53.8125C82.4468 60.8163 97.3546 64.2022 106.772 64.0929C106.146 62.441 102.233 57.4714 104.73 52.6861C106.547 49.2115 108.615 50.017 108.752 45.9758C108.922 40.8834 102.199 37.4702 95.5855 40.0847Z" fill="#263238"/>
<path d="M103.952 42.2824C108.225 41.866 112.518 46.0779 109.334 50.2761C108.556 49.6503 107.651 49.2037 106.682 48.9678C105.713 48.7318 104.705 48.7124 103.727 48.9108C101.775 49.3477 103.952 42.2824 103.952 42.2824Z" fill="#263238"/>
<path d="M96.3281 99.3993C96.3281 99.3993 87.7209 136.002 83.6384 157.034C79.379 179.22 58.9599 202.334 58.9599 202.334L52.0469 198.456C52.0469 198.456 64.8931 177.363 69.0572 156.645C77.5215 114.595 71.7788 106.13 79.9438 97.2012L96.3281 99.3993Z" fill="#263238"/>
<path d="M59.6695 202.983L51.0078 198.143L52.2734 195.576L61.9897 200.061L59.6695 202.983Z" fill="#2A889B"/>
<path opacity="0.2" d="M91.7368 107.352C85.0279 113.202 85.756 133.975 86.4568 143.299C89.2737 130.002 92.6553 115.202 94.6217 106.635C93.9345 106.103 92.9751 106.301 91.7368 107.352Z" fill="black"/>
<path d="M101.87 100.205C101.87 100.205 105.755 143.668 103.633 160.243C101.428 177.486 90.2149 214.997 90.2149 214.997L82.2812 213.973C82.2812 213.973 88.7179 176.797 89.861 159.731C91.1062 141.115 85.5744 98.0137 85.5744 98.0137L101.87 100.205Z" fill="#263238"/>
<path d="M91.8906 215.454L80.6094 213.993L80.7795 210.648L93.0269 211.836L91.8906 215.454Z" fill="#2A889B"/>
<path d="M79.7692 95.8494L78.5581 97.6994C78.4628 97.8427 78.6329 98.0202 78.8847 98.0543L102.202 101.194C102.407 101.194 102.583 101.147 102.604 101.024L103.019 99.0715C103.019 98.9349 102.883 98.7916 102.665 98.7643L80.1502 95.7334C80.0821 95.7191 80.0115 95.7223 79.9449 95.7426C79.8784 95.7628 79.8179 95.7996 79.7692 95.8494Z" fill="#2A889B"/>
<path opacity="0.5" d="M79.7692 95.8494L78.5581 97.6994C78.4628 97.8427 78.6329 98.0202 78.8847 98.0543L102.202 101.194C102.407 101.194 102.583 101.147 102.604 101.024L103.019 99.0715C103.019 98.9349 102.883 98.7916 102.665 98.7643L80.1502 95.7334C80.0821 95.7191 80.0115 95.7223 79.9449 95.7426C79.8784 95.7628 79.8179 95.7996 79.7692 95.8494Z" fill="black"/>
<path d="M82.5319 98.7903L81.9264 98.7084C81.8039 98.7084 81.7222 98.6196 81.7359 98.5445L82.2938 96.0051C82.2938 95.9369 82.4231 95.8891 82.5387 95.9027L83.1443 95.9846C83.2668 95.9846 83.3484 96.0734 83.3348 96.1485L82.7769 98.6879C82.7633 98.7288 82.6476 98.7903 82.5319 98.7903Z" fill="#263238"/>
<path d="M97.7584 100.84L97.1528 100.758C97.0372 100.758 96.9487 100.669 96.9623 100.594L97.5203 98.0544C97.5203 97.9793 97.6495 97.9315 97.772 97.952L98.3708 98.0271C98.4932 98.0271 98.5749 98.1227 98.5613 98.1978L98.0033 100.73C97.9897 100.84 97.8741 100.84 97.7584 100.84Z" fill="#263238"/>
</svg>
