<svg width="294" height="263" viewBox="0 0 294 263" fill="none" xmlns="http://www.w3.org/2000/svg">
<path opacity="0.15" d="M274 81.2147C274 75.0437 268.466 70.3455 262.376 71.3474L27.4042 110.01C22.5729 110.805 19.0278 114.981 19.0278 119.877V250.737C19.0278 257.069 24.8378 261.806 31.0401 260.532L266.012 212.261C270.662 211.306 274 207.213 274 202.465V81.2147Z" fill="#FB9D50"/>
<path opacity="0.25" d="M0 27.773C0 21.6043 5.53047 16.9067 11.6179 17.9047L246.59 56.428C251.424 57.2205 254.972 61.3978 254.972 66.2962V207.671C254.972 214 249.167 218.737 242.967 217.468L7.99466 169.37C3.34128 168.418 0 164.323 0 159.574V27.773Z" fill="#2A889B"/>
<g clip-path="url(#clip0_476_38986)">
<path d="M159.279 245.694C233.641 245.694 293.924 242.172 293.924 237.827C293.924 233.483 233.641 229.961 159.279 229.961C84.9158 229.961 24.6328 233.483 24.6328 237.827C24.6328 242.172 84.9158 245.694 159.279 245.694Z" fill="#F5F5F5"/>
<path d="M270.028 212.775C270.028 212.775 264.695 202.351 270.792 192.025C276.889 181.698 278.653 179.287 274.764 177.202C270.876 175.117 269.098 185.444 269.098 185.444C269.098 185.444 265.82 178.328 268.528 170.851C271.237 163.373 272.931 151.254 269.223 149.955C265.514 148.655 268.528 165.097 265.306 170.705C265.306 170.705 262.619 164.451 262.174 158.474C261.73 152.498 262.424 142.929 259.507 140.476C256.591 138.023 254.716 139.725 257.584 152.936C259.306 160.809 260.26 168.831 260.431 176.889C260.431 176.889 254.098 159.558 249.848 159.051C245.598 158.544 245.605 164.159 249.244 169.023C252.882 173.887 259.896 182.616 261.049 187.091C261.049 187.091 254.105 174.047 247.855 178.057C241.605 182.067 253.299 189.933 258.514 192.775C263.73 195.617 267.341 213.47 267.341 213.47L270.028 212.775Z" fill="#2A889B"/>
<path opacity="0.6" d="M270.028 212.775C270.028 212.775 264.695 202.351 270.792 192.025C276.889 181.698 278.653 179.287 274.764 177.202C270.876 175.117 269.098 185.444 269.098 185.444C269.098 185.444 265.82 178.328 268.528 170.851C271.237 163.373 272.931 151.254 269.223 149.955C265.514 148.655 268.528 165.097 265.306 170.705C265.306 170.705 262.619 164.451 262.174 158.474C261.73 152.498 262.424 142.929 259.507 140.476C256.591 138.023 254.716 139.725 257.584 152.936C259.306 160.809 260.26 168.831 260.431 176.889C260.431 176.889 254.098 159.558 249.848 159.051C245.598 158.544 245.605 164.159 249.244 169.023C252.882 173.887 259.896 182.616 261.049 187.091C261.049 187.091 254.105 174.047 247.855 178.057C241.605 182.067 253.299 189.933 258.514 192.775C263.73 195.617 267.341 213.47 267.341 213.47L270.028 212.775Z" fill="white"/>
<path d="M265.812 217.062C265.812 217.062 271.013 206.541 264.777 196.319C258.541 186.097 256.742 183.699 260.61 181.538C264.478 179.377 266.381 189.71 266.381 189.71C266.381 189.71 269.562 182.546 266.756 175.117C263.95 167.688 262.096 155.59 265.77 154.235C269.443 152.88 266.68 169.37 269.937 174.929C269.937 174.929 272.548 168.675 272.909 162.664C273.27 156.653 272.45 147.119 275.339 144.631C278.228 142.143 280.11 143.811 277.423 157.063C275.808 164.957 274.962 172.988 274.895 181.045C274.895 181.045 280.999 163.63 285.242 163.074C289.485 162.518 289.555 168.119 285.978 173.039C282.402 177.959 275.506 186.764 274.416 191.267C274.416 191.267 281.193 178.133 287.499 182.045C293.805 185.958 282.214 193.998 277.041 196.91C271.867 199.821 268.485 217.715 268.485 217.715L265.812 217.062Z" fill="#2A889B"/>
<path opacity="0.7" d="M265.812 217.062C265.812 217.062 271.013 206.541 264.777 196.319C258.541 186.097 256.742 183.699 260.61 181.538C264.478 179.377 266.381 189.71 266.381 189.71C266.381 189.71 269.562 182.546 266.756 175.117C263.95 167.688 262.096 155.59 265.77 154.235C269.443 152.88 266.68 169.37 269.937 174.929C269.937 174.929 272.548 168.675 272.909 162.664C273.27 156.653 272.45 147.119 275.339 144.631C278.228 142.143 280.11 143.811 277.423 157.063C275.808 164.957 274.962 172.988 274.895 181.045C274.895 181.045 280.999 163.63 285.242 163.074C289.485 162.518 289.555 168.119 285.978 173.039C282.402 177.959 275.506 186.764 274.416 191.267C274.416 191.267 281.193 178.133 287.499 182.045C293.805 185.958 282.214 193.998 277.041 196.91C271.867 199.821 268.485 217.715 268.485 217.715L265.812 217.062Z" fill="white"/>
<path d="M289.786 209.564H246.855L250.328 237.139H286.314L289.786 209.564Z" fill="#2A889B"/>
<path d="M164.099 222.02H33.8906V237.134H164.099V222.02Z" fill="#2A889B"/>
<path opacity="0.4" d="M164.099 222.02H33.8906V237.134H164.099V222.02Z" fill="white"/>
<path opacity="0.4" d="M164.097 222.02H88.3125V237.134H164.097V222.02Z" fill="white"/>
<path d="M224.552 222.02H94.3438V237.134H224.552V222.02Z" fill="#2A889B"/>
<path opacity="0.4" d="M224.552 222.02H94.3438V237.134H224.552V222.02Z" fill="white"/>
<path opacity="0.4" d="M224.554 222.02H148.77V237.134H224.554V222.02Z" fill="white"/>
<path d="M167.858 190.406H34.7187C31.405 190.406 28.7188 193.094 28.7188 196.41V219.843C28.7188 223.159 31.405 225.847 34.7187 225.847H167.858C171.171 225.847 173.858 223.159 173.858 219.843V196.41C173.858 193.094 171.171 190.406 167.858 190.406Z" fill="#2A889B"/>
<path opacity="0.6" d="M167.857 190.406H90.2734C86.9597 190.406 84.2734 193.094 84.2734 196.41V219.843C84.2734 223.159 86.9597 225.847 90.2734 225.847H167.857C171.17 225.847 173.857 223.159 173.857 219.843V196.41C173.857 193.094 171.17 190.406 167.857 190.406Z" fill="white"/>
<path opacity="0.6" d="M167.858 190.406H34.7187C31.405 190.406 28.7188 193.094 28.7188 196.41V219.843C28.7188 223.159 31.405 225.847 34.7187 225.847H167.858C171.171 225.847 173.858 223.159 173.858 219.843V196.41C173.858 193.094 171.171 190.406 167.858 190.406Z" fill="white"/>
<path d="M226.194 190.406H93.0547C89.741 190.406 87.0547 193.094 87.0547 196.41V219.843C87.0547 223.159 89.741 225.847 93.0547 225.847H226.194C229.507 225.847 232.194 223.159 232.194 219.843V196.41C232.194 193.094 229.507 190.406 226.194 190.406Z" fill="#2A889B"/>
<path opacity="0.6" d="M226.193 190.406H148.609C145.296 190.406 142.609 193.094 142.609 196.41V219.843C142.609 223.159 145.296 225.847 148.609 225.847H226.193C229.506 225.847 232.193 223.159 232.193 219.843V196.41C232.193 193.094 229.506 190.406 226.193 190.406Z" fill="white"/>
<path opacity="0.6" d="M226.194 190.406H93.0547C89.741 190.406 87.0547 193.094 87.0547 196.41V219.843C87.0547 223.159 89.741 225.847 93.0547 225.847H226.194C229.507 225.847 232.194 223.159 232.194 219.843V196.41C232.194 193.094 229.507 190.406 226.194 190.406Z" fill="white"/>
<path d="M117.366 191.227H31.9493L18.9424 123.973C18.6098 122.249 18.6621 120.473 19.0955 118.771C19.529 117.07 20.3327 115.485 21.4494 114.13C22.5661 112.776 23.9681 111.685 25.5552 110.936C27.1422 110.187 28.8751 109.798 30.6299 109.797H91.7826C94.5476 109.798 97.226 110.762 99.3584 112.523C101.491 114.284 102.945 116.733 103.47 119.449L117.366 191.227Z" fill="#2A889B"/>
<path d="M56.2132 191.227H31.9563L18.9424 123.973C18.6098 122.249 18.6621 120.473 19.0955 118.771C19.529 117.07 20.3327 115.485 21.4494 114.13C22.5661 112.776 23.9681 111.685 25.5552 110.936C27.1422 110.187 28.8751 109.798 30.6299 109.797V109.797C33.3956 109.798 36.075 110.761 38.2086 112.522C40.3422 114.283 41.7973 116.732 42.3243 119.449L56.2132 191.227Z" fill="#2A889B"/>
<g opacity="0.6">
<path opacity="0.6" d="M117.366 191.227H31.9493L18.9424 123.973C18.6098 122.249 18.6621 120.473 19.0955 118.771C19.529 117.07 20.3327 115.485 21.4494 114.13C22.5661 112.776 23.9681 111.685 25.5552 110.936C27.1422 110.187 28.8751 109.798 30.6299 109.797H91.7826C94.5476 109.798 97.226 110.762 99.3584 112.523C101.491 114.284 102.945 116.733 103.47 119.449L117.366 191.227Z" fill="white"/>
<path opacity="0.6" d="M56.2132 191.227H31.9563L18.9424 123.973C18.6098 122.249 18.6621 120.473 19.0955 118.771C19.529 117.07 20.3327 115.485 21.4494 114.13C22.5661 112.776 23.9681 111.685 25.5552 110.936C27.1422 110.187 28.8751 109.798 30.6299 109.797V109.797C33.3956 109.798 36.075 110.761 38.2086 112.522C40.3422 114.283 41.7973 116.732 42.3243 119.449L56.2132 191.227Z" fill="white"/>
</g>
<path opacity="0.6" d="M117.365 191.102H56.2122L42.3233 119.38C41.7932 116.67 40.3351 114.231 38.2004 112.481C36.0657 110.732 33.388 109.783 30.6289 109.797H91.7817C94.5406 109.785 97.2174 110.736 99.3508 112.486C101.484 114.237 102.941 116.677 103.469 119.387L117.365 191.102Z" fill="white"/>
<path d="M92.5147 121.172C98.1675 122.423 97.5563 140.963 101.931 145.932C105.091 149.524 117.265 150.449 119.813 152.763C122.362 155.077 119.813 159.594 119.813 159.594C119.813 159.594 98.8133 159.121 93.6258 156.752C88.4383 154.382 92.5147 121.172 92.5147 121.172Z" fill="#2A889B"/>
<path opacity="0.1" d="M92.5147 121.172C98.1675 122.423 97.5563 140.963 101.931 145.932C105.091 149.524 117.265 150.449 119.813 152.763C122.362 155.077 119.813 159.594 119.813 159.594C119.813 159.594 98.8133 159.121 93.6258 156.752C88.4383 154.382 92.5147 121.172 92.5147 121.172Z" fill="black"/>
<path d="M131.796 174.042C131.726 174.16 131.65 174.209 131.567 174.195C129.15 173.757 122.664 177.308 114.775 181.408L112.56 182.548L111.803 182.93C107.824 184.966 103.595 187.023 99.414 188.704C94.4904 190.699 89.6362 192.179 85.3654 192.499C84.782 192.547 84.2195 192.568 83.664 192.568C64.4765 192.568 70.7265 160.887 70.7265 160.887L93.6432 159.129L96.3445 163.792L97.8098 166.314L101.115 165.425C102.775 164.98 105.247 164.403 108.06 163.799L108.754 163.653C109.706 163.451 110.699 163.25 111.713 163.048C119.192 161.533 127.775 160.067 130.956 160.046C133.22 160.032 132.824 172.534 131.796 174.042Z" fill="#E4897B"/>
<path d="M108.531 162.609L112.976 184.652C112.976 184.652 97.6981 197.098 84.5037 192.24C71.3092 187.383 75.4759 164.958 75.4759 164.958L92.837 159.635L97.587 165.305L108.531 162.609Z" fill="#2A889B"/>
<path opacity="0.6" d="M112.977 184.618C112.719 184.757 112.473 184.918 112.241 185.097C109.293 187.132 106.175 188.908 102.921 190.406V190.406C97.8032 192.491 91.4004 194.291 85.3726 192.415C85.0809 192.324 84.7962 192.269 84.5115 192.164C71.3171 187.3 75.4837 164.903 75.4837 164.903L92.8448 159.594L96.3171 163.763L97.5601 165.25L107.887 162.735L108.532 162.575L108.748 163.652L110.692 173.297L112.56 182.547L112.977 184.618Z" fill="white"/>
<path d="M107.77 162.144L112.401 186.008L115.179 183.812L111.478 161.686L107.77 162.144Z" fill="#2A889B"/>
<path opacity="0.4" d="M115.179 183.812L112.401 186.008L112.242 185.181L111.804 182.929L109.922 173.228L108.089 163.798L107.888 162.735L107.77 162.144L111.478 161.686L111.707 163.048L113.443 173.43L114.776 181.407L115.179 183.812Z" fill="white"/>
<path opacity="0.2" d="M131.796 174.04C131.726 174.159 131.65 174.207 131.566 174.193C129.15 173.755 122.664 177.306 114.775 181.406L115.178 183.811L112.4 186.007L112.24 185.096C109.292 187.131 106.174 188.907 102.921 190.406V190.406L99.4484 188.62L94.3789 185.965L96.4622 167.008L99.4692 171.177C99.4692 171.177 106.483 172.88 109.955 173.213L110.726 173.29C111.678 173.366 112.608 173.422 113.504 173.429C114.115 173.429 114.691 173.429 115.24 173.38C121.15 172.963 127.608 172.741 131.796 174.04Z" fill="black"/>
<path d="M180.013 186.834L179.798 191.428H179.263C178.569 191.469 177.305 191.532 175.562 191.615C165.721 192.067 141.326 192.929 130.923 190.844L83.1172 191.796L93.6241 173.381L159.339 183.617L179.569 186.765L180.013 186.834Z" fill="#E4897B"/>
<path d="M187.908 181.373C187.824 183.166 187.755 184.785 187.685 186.279C187.588 188.322 187.512 190.143 187.428 191.88C187.29 194.903 184.81 192.895 179.449 192.527C179.317 192.527 179.269 192.089 179.262 191.464C179.262 190.122 179.456 187.857 179.567 186.773C179.567 186.391 179.63 186.154 179.63 186.154C180.285 185.545 180.906 184.9 181.491 184.222C182.982 182.622 184.124 180.729 184.845 178.663C185.915 174.89 188.095 177.12 187.908 181.373Z" fill="#263238"/>
<path d="M106.671 174.77L101.289 193.581L90.7061 192.566C90.7061 192.566 63.3103 203.032 70.5672 161.712L92.2617 157.744L98.2547 172.164L106.671 174.77Z" fill="#2A889B"/>
<path opacity="0.6" d="M106.671 174.77L101.289 193.581L90.7061 192.566C90.7061 192.566 63.3103 203.032 70.5672 161.712L92.2617 157.744L98.2547 172.164L106.671 174.77Z" fill="white"/>
<path d="M105.514 173.742L99.4375 193.881H103.028L108.354 174.771L105.514 173.742Z" fill="#2A889B"/>
<path opacity="0.4" d="M105.514 173.742L99.4375 193.881H103.028L108.354 174.771L105.514 173.742Z" fill="white"/>
<path opacity="0.2" d="M187.683 186.272C187.586 188.315 187.51 190.135 187.426 191.873C187.287 194.896 184.808 192.887 179.447 192.519C179.315 192.519 179.266 192.081 179.26 191.456C178.565 191.498 177.301 191.56 175.558 191.643C170.489 188.787 163.391 185.466 159.336 183.617L179.565 186.765C179.565 186.383 179.628 186.147 179.628 186.147C180.283 185.537 180.904 184.892 181.489 184.215L187.683 186.272Z" fill="black"/>
<path d="M130.949 160.045C130.116 160.045 130.685 174.034 131.567 174.193C135.297 174.888 186.179 189.892 186.179 189.892L187.665 185.437C187.665 185.437 139.29 160.003 130.949 160.045Z" fill="#E4897B"/>
<path d="M185.573 190.753C185.087 190.579 187.483 184.666 187.483 184.666C187.483 184.666 192.497 182.206 194.545 178.877C196.594 175.548 198.087 178.293 196.747 182.352C195.406 186.41 194.378 189.468 193.427 192.338C192.476 195.208 190.628 192.567 185.573 190.753Z" fill="#263238"/>
<path d="M95.7314 162.381L97.5855 165.272C97.5855 165.272 77.6758 189.017 72.9327 190.407C72.9327 190.407 70.2522 188.155 70.3216 182.797C70.3911 177.44 95.7314 162.381 95.7314 162.381Z" fill="#2A889B"/>
<path opacity="0.1" d="M95.7314 162.381L97.5855 165.272C97.5855 165.272 77.6758 189.017 72.9327 190.407C72.9327 190.407 70.2522 188.155 70.3216 182.797C70.3911 177.44 95.7314 162.381 95.7314 162.381Z" fill="black"/>
<path d="M89.075 95.0301C90.1568 95.7963 91.0306 96.8202 91.6175 98.0092C92.2043 99.1983 92.4857 100.515 92.4361 101.84C92.2625 106.413 91.3181 113.494 92.4361 116.072C93.5542 118.65 89.5473 119.366 89.5473 119.366C89.7768 118.664 89.7768 117.907 89.5473 117.205C89.5473 117.205 89.5472 118.4 87.95 118.831C86.3528 119.262 73.5959 119.581 70.7278 117.205C67.8597 114.828 73.8528 95.6625 77.1514 94.5089C80.45 93.3554 89.075 95.0301 89.075 95.0301Z" fill="#263238"/>
<path d="M92.0951 104.314C92.0951 107.094 92.0048 113.056 93.3034 115.377C94.602 117.699 92.6993 118.671 92.6993 118.671" stroke="#263238" stroke-width="0.5" stroke-linecap="round" stroke-linejoin="round"/>
<path d="M93.6181 155.557L97.2431 163.771L70.9097 188.093C64.9514 185.487 69.6042 143.514 64.5625 128.33C64.3195 127.635 64.0695 126.836 63.7986 126.051C63.7131 125.795 63.6802 125.524 63.7017 125.256C63.7233 124.987 63.7989 124.725 63.9241 124.486C64.0493 124.247 64.2214 124.036 64.4302 123.866C64.639 123.695 64.88 123.568 65.1389 123.493C67.6059 122.793 70.1097 122.229 72.6389 121.805C76.0396 121.201 79.4788 120.839 82.9306 120.721C87.3959 120.721 92.5139 121.186 92.5139 121.186C92.5139 121.186 93.2084 121.36 93.7014 126.092C94.125 130.519 94.5347 139.4 93.6181 155.557Z" fill="#2A889B"/>
<path d="M73.6914 122.63C73.6914 122.63 75.3928 125.049 81.0386 125.771C81.0386 125.771 83.8164 123.93 82.6497 121.692C82.6497 121.692 81.4275 121.31 81.1636 119.364C81.0396 117.992 81.2174 116.609 81.6845 115.313C81.747 115.104 81.8234 114.882 81.8997 114.66L74.7609 110.191C74.7609 110.191 77.2747 119.246 73.6914 122.63Z" fill="#E4897B"/>
<path opacity="0.2" d="M76.3672 112.785C76.3672 112.785 76.7491 117.893 81.1658 119.366C81.0418 117.994 81.2195 116.611 81.6866 115.315C79.0825 113.967 76.3672 112.785 76.3672 112.785Z" fill="black"/>
<path d="M70.9062 123.27C70.9062 123.27 71.5521 119.17 73.191 118.947C73.191 118.947 76.9479 121.984 82.3924 119.364C82.3924 119.364 83.3924 119.218 83.4132 121.108C83.434 122.999 85.7465 122.637 84.1076 125.973C82.4687 129.308 75.0312 130.309 70.9062 123.27Z" fill="#2A889B"/>
<path opacity="0.1" d="M70.9062 123.27C70.9062 123.27 71.5521 119.17 73.191 118.947C73.191 118.947 76.9479 121.984 82.3924 119.364C82.3924 119.364 83.3924 119.218 83.4132 121.108C83.434 122.999 85.7465 122.637 84.1076 125.973C82.4687 129.308 75.0312 130.309 70.9062 123.27Z" fill="black"/>
<path d="M83.6649 96.0516C89.4982 97.0454 90.8455 100.492 90.2482 106.587C89.4982 114.231 86.9218 119.255 79.901 116.399C70.3871 112.528 73.9774 94.3977 83.6649 96.0516Z" fill="#E4897B"/>
<path d="M86.5321 105.627C86.8506 106.578 87.2819 107.488 87.8168 108.337C87.6043 108.549 87.3376 108.698 87.046 108.767C86.7545 108.837 86.4493 108.825 86.1641 108.733L86.5321 105.627Z" fill="#DE5753"/>
<path d="M83.0417 104.523C82.9723 105.009 82.6528 105.357 82.3473 105.315C82.0417 105.273 81.8264 104.836 81.8959 104.356C81.9653 103.877 82.2848 103.522 82.5903 103.571C82.8959 103.62 83.1112 104.043 83.0417 104.523Z" fill="#263238"/>
<path d="M82.4492 103.542L83.5603 103.285C83.5603 103.285 82.8867 104.119 82.4492 103.542Z" fill="#263238"/>
<path d="M89.0406 105.3C88.9711 105.787 88.6517 106.134 88.3461 106.092C88.0406 106.051 87.8183 105.613 87.8878 105.133C87.9572 104.654 88.2767 104.3 88.5822 104.348C88.8878 104.397 89.1378 104.821 89.0406 105.3Z" fill="#263238"/>
<path d="M88.4414 104.349L89.5456 104.092C89.5456 104.092 88.9067 104.933 88.4414 104.349Z" fill="#263238"/>
<path d="M83.6727 100.485C83.2212 100.349 82.7447 100.32 82.2799 100.398C81.8151 100.477 81.3746 100.661 80.9922 100.936" stroke="#263238" stroke-width="0.72468" stroke-linecap="round" stroke-linejoin="round"/>
<path d="M87.9531 100.963C88.3687 100.931 88.7861 100.994 89.1744 101.145C89.5627 101.297 89.9119 101.534 90.1962 101.839" stroke="#263238" stroke-width="0.72468" stroke-linecap="round" stroke-linejoin="round"/>
<path d="M75.6072 104.799C75.6072 104.799 79.1558 100.47 79.3711 96.6967C79.3711 96.6967 91.7461 93.917 90.3086 105.786C90.3086 105.786 93.2183 95.5501 83.2253 93.6043C73.2322 91.6586 70.7739 106.321 75.2461 111.61C75.2461 111.61 73.4058 107.517 75.6072 104.799Z" fill="#263238"/>
<path d="M76.3543 106.196C76.4045 105.517 76.1859 104.844 75.7455 104.324C75.3052 103.805 74.6784 103.479 74.0002 103.417C72.1599 103.305 70.6599 106.891 75.0071 108.538C75.6321 108.74 76.1043 108.17 76.3543 106.196Z" fill="#E4897B"/>
<path d="M89.0745 98.4203C89.0745 98.4203 91.8523 95.2028 89.5537 92.5135C87.2551 89.8242 77.5467 89.2961 74.2759 92.1661C71.005 95.0361 71.3523 96.5927 71.3523 96.5927C69.867 99.8256 69.238 103.387 69.5259 106.933C70.137 112.402 68.0259 115.793 69.4287 117.53C70.8314 119.268 72.2064 119.365 72.2064 119.365C71.8442 118.084 71.8442 116.727 72.2064 115.446C72.8453 113.708 72.2064 114.925 72.2064 114.925C72.2064 114.925 72.9495 119.441 73.7203 119.963C74.5652 120.346 75.4695 120.581 76.3939 120.658C75.4778 118.513 75.0942 116.179 75.2759 113.854C75.7134 110.463 77.5328 106.989 77.1023 102.993C76.8993 100.476 77.5903 97.9685 79.0537 95.9116C79.0537 95.9116 85.9773 95.1194 89.0745 98.4203Z" fill="#263238"/>
<path d="M89.0738 97.3782C89.7946 97.1226 90.4077 96.6305 90.8137 95.9821C91.2197 95.3336 91.3945 94.5668 91.3099 93.8063C91.046 91.0266 85.8793 89.3449 82.9766 89.8175" stroke="#263238" stroke-width="0.5" stroke-linecap="round" stroke-linejoin="round"/>
<path d="M72.1803 96.2441C72.1803 96.2441 68.5969 101.359 68.9303 107.203C69.2636 113.047 67.2636 114.847 67.8747 116.661" stroke="#263238" stroke-width="0.5" stroke-linecap="round" stroke-linejoin="round"/>
<path d="M81.6875 109.449C81.6875 109.449 81.9028 111.068 85.1597 111.193" stroke="#263238" stroke-width="0.5" stroke-linecap="round" stroke-linejoin="round"/>
<path d="M101.929 154.396C101.929 154.396 105.922 155.196 106.672 155.432C108.934 156.615 111.078 158.011 113.075 159.601C114.019 160.533 107.887 162.041 106.672 161.686C105.457 161.332 103.262 158.733 103.262 158.733L98.8594 158.038L101.929 154.396Z" fill="#E4897B"/>
<path d="M65.1365 123.48C65.1365 123.48 61.824 124.62 61.1296 134.349C60.4351 144.078 61.956 160.061 68.7685 164.467C75.581 168.872 100.268 159.602 100.268 159.602C100.268 159.602 101.345 154.557 100.268 153.459C95.8101 148.907 80.3449 153.056 74.9421 150.534C69.5393 148.011 72.1643 128.366 65.1365 123.48Z" fill="#2A889B"/>
<path opacity="0.1" d="M65.1365 123.48C65.1365 123.48 61.824 124.62 61.1296 134.349C60.4351 144.078 61.956 160.061 68.7685 164.467C75.581 168.872 100.268 159.602 100.268 159.602C100.268 159.602 101.345 154.557 100.268 153.459C95.8101 148.907 80.3449 153.056 74.9421 150.534C69.5393 148.011 72.1643 128.366 65.1365 123.48Z" fill="black"/>
<path d="M100.25 153.457L99.4375 159.892L102.91 160.045L104.417 154.395L100.25 153.457Z" fill="#2A889B"/>
<path opacity="0.2" d="M100.25 153.457L99.4375 159.892L102.91 160.045L104.417 154.395L100.25 153.457Z" fill="black"/>
<path d="M141.915 160.525V162.568C141.915 163.09 141.297 163.305 140.783 163.305H100.012C99.4913 163.305 98.8594 163.09 98.8594 162.568V160.525H141.915Z" fill="#263238"/>
<path opacity="0.4" d="M141.915 160.525V162.568C141.915 163.09 141.297 163.305 140.783 163.305H100.012C99.4913 163.305 98.8594 163.09 98.8594 162.568V160.525H141.915Z" fill="white"/>
<path opacity="0.2" d="M141.917 160.525V162.568C141.917 163.09 141.299 163.305 140.785 163.305H113.896C113.368 163.305 112.75 163.09 112.75 162.568V160.525H141.917Z" fill="black"/>
<path d="M148.736 139.329L143.875 161.358C143.788 161.712 143.586 162.026 143.3 162.253C143.015 162.479 142.663 162.604 142.299 162.609H115.799C115.633 162.606 115.47 162.564 115.323 162.487C115.176 162.41 115.049 162.299 114.952 162.164C114.855 162.03 114.79 161.874 114.764 161.71C114.737 161.546 114.749 161.378 114.799 161.219L119.66 139.357C119.761 139.028 119.971 138.744 120.255 138.549C120.538 138.355 120.88 138.262 121.222 138.287H147.736C148.452 138.287 148.896 138.607 148.736 139.329Z" fill="#263238"/>
<path opacity="0.4" d="M148.733 139.33L143.872 161.359C143.784 161.712 143.582 162.027 143.297 162.253C143.011 162.48 142.659 162.605 142.295 162.61H116.698C116.532 162.606 116.369 162.564 116.222 162.487C116.074 162.41 115.947 162.3 115.849 162.165C115.752 162.03 115.687 161.875 115.659 161.711C115.632 161.547 115.643 161.379 115.691 161.22L120.552 139.358C120.654 139.028 120.864 138.742 121.149 138.547C121.435 138.353 121.777 138.261 122.122 138.288H147.733C148.448 138.288 148.892 138.607 148.733 139.33Z" fill="white"/>
<path opacity="0.2" d="M135.663 150.525C135.663 152.409 133.642 153.944 132.19 153.944C130.739 153.944 129.829 152.409 130.253 150.525C130.676 148.642 132.149 147.169 133.6 147.113C133.176 148.996 134.079 150.525 135.551 150.525H135.663Z" fill="black"/>
<path d="M95.6189 54.8977H67.4523C66.4216 54.8733 65.4229 55.2565 64.6727 55.9642C63.9226 56.6719 63.4816 57.6471 63.4453 58.6781V73.9662C63.4779 75.0059 63.9151 75.9917 64.6636 76.7135C65.4121 77.4353 66.4128 77.8359 67.4523 77.8299H79.5356L81.6814 83.2781L83.8273 77.8299H95.6328C96.6651 77.8337 97.6573 77.4303 98.3943 76.707C99.1314 75.9838 99.5539 74.999 99.5703 73.9662V58.6781C99.5604 58.1698 99.4502 57.6684 99.2459 57.2029C99.0417 56.7374 98.7475 56.3169 98.3803 55.9656C98.0131 55.6142 97.5801 55.339 97.1062 55.1558C96.6323 54.9725 96.1268 54.8848 95.6189 54.8977Z" fill="#2A889B"/>
<path opacity="0.6" d="M95.6189 54.8977H67.4523C66.4216 54.8733 65.4229 55.2565 64.6727 55.9642C63.9226 56.6719 63.4816 57.6471 63.4453 58.6781V73.9662C63.4779 75.0059 63.9151 75.9917 64.6636 76.7135C65.4121 77.4353 66.4128 77.8359 67.4523 77.8299H79.5356L81.6814 83.2781L83.8273 77.8299H95.6328C96.6651 77.8337 97.6573 77.4303 98.3943 76.707C99.1314 75.9838 99.5539 74.999 99.5703 73.9662V58.6781C99.5604 58.1698 99.4502 57.6684 99.2459 57.2029C99.0417 56.7374 98.7475 56.3169 98.3803 55.9656C98.0131 55.6142 97.5801 55.339 97.1062 55.1558C96.6323 54.9725 96.1268 54.8848 95.6189 54.8977Z" fill="white"/>
<path opacity="0.2" d="M68.3047 70.5327L76.3811 64.6259L78.895 65.3208L82.2839 63.2361L87.6866 64.9734L93.9991 59.4141V71.5751H68.3047V70.5327Z" fill="black"/>
<path d="M68.3047 61.1523V71.5761H93.9991V61.8473L85.7769 68.1015L82.2839 65.1759L74.4366 68.7964L68.9991 70.8812V61.1523H68.3047Z" fill="white"/>
<path d="M210.664 118.137V119.874" stroke="#2A889B" stroke-width="2" stroke-linejoin="round"/>
<path d="M210.664 121.91V148.039" stroke="#2A889B" stroke-width="2" stroke-linejoin="round" stroke-dasharray="4.88 2.93"/>
<path d="M210.666 149.061V150.798H208.93" stroke="#2A889B" stroke-width="2" stroke-linejoin="round"/>
<path d="M206.924 150.797H154.383" stroke="#2A889B" stroke-width="2" stroke-linejoin="round" stroke-dasharray="4.82 2.89"/>
<path d="M153.377 150.797H151.641" stroke="#2A889B" stroke-width="2" stroke-linejoin="round"/>
<path d="M210.666 118.588C212.055 118.588 213.18 117.462 213.18 116.072C213.18 114.683 212.055 113.557 210.666 113.557C209.278 113.557 208.152 114.683 208.152 116.072C208.152 117.462 209.278 118.588 210.666 118.588Z" fill="#2A889B"/>
<path d="M151.639 153.312C153.027 153.312 154.153 152.186 154.153 150.797C154.153 149.408 153.027 148.281 151.639 148.281C150.251 148.281 149.125 149.408 149.125 150.797C149.125 152.186 150.251 153.312 151.639 153.312Z" fill="#2A889B"/>
<path d="M285.457 0H135.18C132.763 0 130.805 1.96008 130.805 4.37797V106.114C130.805 108.531 132.763 110.492 135.18 110.492H285.457C287.874 110.492 289.832 108.531 289.832 106.114V4.37797C289.832 1.96008 287.874 0 285.457 0Z" fill="#263238"/>
<path opacity="0.4" d="M285.457 0H135.18C132.763 0 130.805 1.96008 130.805 4.37797V106.114C130.805 108.531 132.763 110.492 135.18 110.492H285.457C287.874 110.492 289.832 108.531 289.832 106.114V4.37797C289.832 1.96008 287.874 0 285.457 0Z" fill="white"/>
<path d="M289.832 18.0684H130.805V90.3395H289.832V18.0684Z" fill="#2A889B"/>
<path opacity="0.4" d="M289.832 18.0684H130.805V90.3395H289.832V18.0684Z" fill="black"/>
<path d="M285.666 70.186V54.8978H282.888V36.1351H279.416V54.8978H273.166V82.6945H260.666V54.8978H238.444V82.6945H227.332V84.0843H216.916V56.2877H212.749V72.2707H202.332V67.4063H183.582V52.1182H180.805V33.3555H177.332V52.1182H171.082V79.9148H158.582V52.1182H136.36V79.9148H130.805V90.3385H227.332H243.999H289.832V70.186H285.666Z" fill="#2A889B"/>
<path opacity="0.3" d="M285.666 70.186V54.8978H282.888V36.1351H279.416V54.8978H273.166V82.6945H260.666V54.8978H238.444V82.6945H227.332V84.0843H216.916V56.2877H212.749V72.2707H202.332V67.4063H183.582V52.1182H180.805V33.3555H177.332V52.1182H171.082V79.9148H158.582V52.1182H136.36V79.9148H130.805V90.3385H227.332H243.999H289.832V70.186H285.666Z" fill="black"/>
<path d="M168.997 31.9668H141.219V90.3397H168.997V31.9668Z" fill="#2A889B"/>
<g opacity="0.4">
<path opacity="0.4" d="M168.997 37.5254H141.219V38.2203H168.997V37.5254Z" fill="black"/>
</g>
<path opacity="0.4" d="M168.997 43.084H141.219V43.7789H168.997V43.084Z" fill="black"/>
<path opacity="0.4" d="M168.997 59.0684H141.219V59.7633H168.997V59.0684Z" fill="black"/>
<path opacity="0.4" d="M168.997 64.627H141.219V65.3219H168.997V64.627Z" fill="black"/>
<path opacity="0.4" d="M168.997 70.1855H141.219V70.8805H168.997V70.1855Z" fill="black"/>
<path opacity="0.4" d="M168.997 75.7461H141.219V76.441H168.997V75.7461Z" fill="black"/>
<path d="M208.583 57.6777H181.5V90.3387H208.583V57.6777Z" fill="#2A889B"/>
<path opacity="0.4" d="M208.583 63.2363H181.5V63.9312H208.583V63.2363Z" fill="black"/>
<path opacity="0.4" d="M208.583 68.7969H181.5V69.4918H208.583V68.7969Z" fill="black"/>
<path opacity="0.4" d="M208.583 74.3555H181.5V75.0504H208.583V74.3555Z" fill="black"/>
<path d="M248.168 46.5586H220.391V90.3383H248.168V46.5586Z" fill="#2A889B"/>
<path opacity="0.4" d="M248.168 52.1191H220.391V52.8141H248.168V52.1191Z" fill="black"/>
<path opacity="0.4" d="M248.168 63.9316H220.391V64.6266H248.168V63.9316Z" fill="black"/>
<path opacity="0.4" d="M248.168 79.916H220.391V80.6109H248.168V79.916Z" fill="black"/>
<path opacity="0.4" d="M248.168 85.4746H220.391V86.1695H248.168V85.4746Z" fill="black"/>
<g opacity="0.2">
<path opacity="0.2" d="M168.997 31.9668H141.219V90.3397H168.997V31.9668Z" fill="black"/>
</g>
<g opacity="0.2">
<path opacity="0.2" d="M208.583 57.6777H181.5V90.3387H208.583V57.6777Z" fill="black"/>
</g>
<g opacity="0.2">
<path opacity="0.2" d="M248.168 46.5586H220.391V90.3383H248.168V46.5586Z" fill="black"/>
</g>
<path d="M274.782 110.492H223.164L233.268 56.7955C233.553 55.286 234.355 53.9232 235.537 52.9425C236.719 51.9618 238.205 51.4247 239.74 51.4238H277.935C278.903 51.4233 279.86 51.6366 280.736 52.0485C281.613 52.4604 282.388 53.0607 283.006 53.8067C283.624 54.5526 284.07 55.4258 284.312 56.3641C284.555 57.3023 284.587 58.2825 284.407 59.2347L274.782 110.492Z" fill="#2A889B"/>
<path opacity="0.4" d="M274.782 110.492H223.164L233.268 56.7955C233.553 55.286 234.355 53.9232 235.537 52.9425C236.719 51.9618 238.205 51.4247 239.74 51.4238H277.935C278.903 51.4233 279.86 51.6366 280.736 52.0485C281.613 52.4604 282.388 53.0607 283.006 53.8067C283.624 54.5526 284.07 55.4258 284.312 56.3641C284.555 57.3023 284.587 58.2825 284.407 59.2347L274.782 110.492Z" fill="white"/>
<path opacity="0.2" d="M274.783 110.492H261.359L271.47 56.7955C271.754 55.2854 272.556 53.9219 273.738 52.9409C274.92 51.96 276.407 51.4234 277.943 51.4238V51.4238C278.911 51.4233 279.868 51.6366 280.744 52.0485C281.621 52.4604 282.396 53.0607 283.014 53.8067C283.632 54.5526 284.078 55.4258 284.32 56.3641C284.562 57.3023 284.595 58.2825 284.415 59.2347L274.783 110.492Z" fill="black"/>
<path d="M233.234 75.7473C233.234 75.7473 232.464 77.8321 231.234 80.5005C229.276 84.7743 226.158 90.5421 223.165 91.6887C220.714 92.6338 214.554 92.8075 209.054 92.7519C203.554 92.6963 198.859 92.4253 198.859 92.4253V88.2558L216.915 83.44C216.915 83.44 226.443 66.2339 232.075 63.6836L233.234 75.7473Z" fill="#2A889B"/>
<path opacity="0.2" d="M231.235 80.4999C229.277 84.7737 226.159 90.5414 223.166 91.6881C220.714 92.6331 214.555 92.8069 209.055 92.7513C209.055 92.7513 217.853 87.9842 220.388 85.4755C223.201 82.6959 230.444 71.6328 230.444 71.6328L231.235 80.4999Z" fill="black"/>
<path d="M241.954 60.0292C243.641 59.2578 253.724 59.2578 253.724 59.2578V66.7142L239.488 69.3758C239.488 69.3758 238.572 61.558 241.954 60.0292Z" fill="#2A889B"/>
<path d="M261.359 110.492C261.074 104.036 258.359 82.9938 262.053 62.6467C259.191 62.148 256.297 61.86 253.393 61.785C249.144 61.6309 244.889 61.7238 240.65 62.063C237.748 62.4201 234.878 63.0057 232.067 63.8142C232.067 63.8142 228.081 78.6367 232.518 110.492H261.359Z" fill="white"/>
<path opacity="0.1" d="M252.03 90.7291C254.572 90.1662 257.648 87.6992 260.162 85.267C260.162 80.9377 260.37 76.3304 260.856 71.6328C257.28 76.9072 247.641 91.7298 252.03 90.7291Z" fill="black"/>
<path d="M251.854 47.4902C251.159 51.6111 250.499 59.144 253.423 61.8194C252.235 63.0927 250.807 64.117 249.22 64.8328C247.633 65.5486 245.92 65.9415 244.18 65.9889C238.93 66.2182 240.708 62.0696 240.708 62.0696C245.263 60.8743 245.069 57.4831 244.18 54.3143L251.854 47.4902Z" fill="#B97964"/>
<path opacity="0.2" d="M248.728 50.2852L244.18 54.3435C244.394 55.0794 244.542 55.8329 244.624 56.595C246.367 56.3031 248.721 54.3365 248.867 52.5019C248.957 51.7607 248.91 51.0094 248.728 50.2852V50.2852Z" fill="black"/>
<path d="M241.917 36.8333C244.187 38.376 243.153 41.0028 238.007 45.0889C235.923 42.3788 235.569 37.1113 237.236 35.791C238.903 34.4706 239.896 35.4991 241.917 36.8333Z" fill="#263238"/>
<path d="M251.636 41.07C251.386 46.6293 251.518 49.9024 248.768 52.8002C244.601 57.1643 237.726 54.739 236.268 49.2075C235.004 44.2458 235.615 36.0041 241.011 33.6761C242.2 33.1545 243.503 32.9468 244.795 33.073C246.087 33.1992 247.326 33.655 248.392 34.3968C249.458 35.1386 250.316 36.1416 250.884 37.3099C251.452 38.4783 251.711 39.7729 251.636 41.07V41.07Z" fill="#B97964"/>
<path d="M243.395 42.7392C243.395 43.1909 243.166 43.5592 242.874 43.5662C242.582 43.5731 242.339 43.2117 242.332 42.76C242.325 42.3084 242.547 41.94 242.846 41.9261C243.145 41.9123 243.36 42.2945 243.395 42.7392Z" fill="#263238"/>
<path d="M238.257 42.8365C238.257 43.2882 238.028 43.6565 237.736 43.6634C237.445 43.6704 237.195 43.309 237.188 42.8504C237.181 42.3917 237.41 42.0234 237.708 42.0234C238.007 42.0234 238.25 42.3917 238.257 42.8365Z" fill="#263238"/>
<path d="M239.935 43.0156C239.422 44.4064 238.721 45.7204 237.852 46.9211C238.164 47.1372 238.52 47.2822 238.894 47.3458C239.268 47.4095 239.652 47.3902 240.018 47.2894L239.935 43.0156Z" fill="#A24E3F"/>
<path d="M244.772 41.0915C244.829 41.1087 244.889 41.1087 244.946 41.0915C245 41.0467 245.035 40.983 245.044 40.9134C245.053 40.8438 245.035 40.7734 244.994 40.7163C244.742 40.3779 244.412 40.1048 244.033 39.9199C243.654 39.7349 243.236 39.6434 242.814 39.653C242.78 39.6548 242.747 39.6632 242.716 39.6778C242.686 39.6924 242.659 39.7129 242.636 39.7381C242.613 39.7632 242.596 39.7926 242.585 39.8245C242.574 39.8565 242.569 39.8903 242.571 39.924V39.924C242.579 39.9922 242.614 40.0545 242.666 40.0984C242.719 40.1423 242.787 40.1644 242.855 40.1603V40.1603C243.189 40.155 243.519 40.2299 243.817 40.3786C244.116 40.5274 244.374 40.7456 244.571 41.0151C244.596 41.042 244.628 41.0629 244.663 41.0761C244.698 41.0893 244.735 41.0946 244.772 41.0915Z" fill="#263238"/>
<path d="M235.889 41.1394C235.939 41.137 235.988 41.1217 236.031 41.0949C236.073 41.0682 236.108 41.0308 236.132 40.9865C236.261 40.6785 236.462 40.406 236.718 40.1919C236.974 39.9779 237.278 39.8285 237.604 39.7565C237.674 39.7446 237.736 39.7059 237.777 39.6488C237.819 39.5917 237.836 39.5206 237.826 39.4507C237.816 39.3831 237.78 39.3221 237.725 39.2806C237.671 39.2391 237.603 39.2204 237.535 39.2284C237.121 39.3138 236.733 39.498 236.406 39.7654C236.078 40.0328 235.82 40.3754 235.653 40.7641C235.624 40.8269 235.621 40.8984 235.645 40.9634C235.668 41.0283 235.716 41.0815 235.778 41.1116V41.1116C235.813 41.1273 235.851 41.1367 235.889 41.1394V41.1394Z" fill="#263238"/>
<path d="M249.366 36.1855C246.783 37.1236 247.151 39.9172 251.137 45.143C253.832 43.0235 255.457 37.9992 254.165 36.3175C252.873 34.6358 251.637 35.3725 249.366 36.1855Z" fill="#263238"/>
<path d="M254.415 45.4759C254.049 46.828 253.163 47.9799 251.95 48.6794C250.339 49.5967 249.089 48.2555 249.172 46.5043C249.241 44.9199 250.165 42.5364 251.95 42.3348C253.734 42.1333 254.825 43.815 254.415 45.4759Z" fill="#B97964"/>
<path d="M254.477 36.9708C254.477 36.9708 255.644 33.7047 251.804 31.0154C248.491 28.6874 239.658 29.014 237.186 31.7937C235.684 33.5707 234.84 35.8114 234.797 38.1383L236.144 36.0535L235.776 38.6595L239.373 35.8798L238.255 38.6595C238.255 38.6595 241.964 38.1383 243.811 36.0535L242.866 37.9437C242.866 37.9437 245.137 38.2217 248.172 35.9632C248.172 35.9632 245.929 38.5691 248.915 40.1327C251.901 41.6962 254.477 36.9708 254.477 36.9708Z" fill="#263238"/>
<path d="M244.18 48.2148C243.789 48.8118 243.241 49.2896 242.597 49.596C241.953 49.9024 241.237 50.0256 240.527 49.9521" stroke="#263238" stroke-width="0.5" stroke-linecap="round" stroke-linejoin="round"/>
<path d="M263.275 110.494C262.83 97.2139 262.018 71.6549 262.08 62.6488C262.08 62.6488 256.566 61.662 254.157 61.8149C251.747 61.9678 247.719 63.4688 247.719 63.4688C247.719 63.4688 247.629 92.0854 250.247 110.494H263.275Z" fill="#2A889B"/>
<path opacity="0.2" d="M263.275 110.494C262.83 97.2139 262.018 71.6549 262.08 62.6488C262.08 62.6488 256.566 61.662 254.157 61.8149C251.747 61.9678 247.719 63.4688 247.719 63.4688C247.719 63.4688 247.629 92.0854 250.247 110.494H263.275Z" fill="white"/>
<path d="M253.421 59.2578L247.727 63.469L249.782 68.1041L255.865 61.7178L253.421 59.2578Z" fill="#2A889B"/>
<path d="M233.798 110.494C237.103 67.1726 241.207 63.6772 241.207 63.6772L240.402 61.252L232.069 63.8162C228.194 69.5145 227.402 98.2353 227.242 110.494H233.798Z" fill="#2A889B"/>
<path opacity="0.2" d="M233.798 110.494C237.103 67.1726 241.207 63.6772 241.207 63.6772L240.402 61.252L232.069 63.8162C228.194 69.5145 227.402 98.2353 227.242 110.494H233.798Z" fill="white"/>
<path d="M225.944 87.8456C225.944 87.8456 215.472 87.5259 214.403 87.4147C213.333 87.3035 208.785 84.7462 207.826 84.6351C206.868 84.5239 204.271 88.5822 203.951 89.5412C203.632 90.5001 211.187 93.0644 211.937 92.9601C212.789 92.7339 213.617 92.4267 214.41 92.0429L225.944 93.391V87.8456Z" fill="#B97964"/>
<path d="M262.053 62.6484C271.838 66.1786 254.664 92.6896 249.331 95.4206C243.997 98.1517 216.914 92.4256 216.914 92.4256L217.977 86.9427C217.977 86.9427 241.949 87.5542 244.157 86.9983C246.365 86.4423 251.615 75.1361 254.636 69.7991C256.313 66.708 258.904 64.2106 262.053 62.6484V62.6484Z" fill="#2A889B"/>
<path d="M219.92 86.1699L218.531 93.5916L215.969 92.6465L216.927 86.1699H219.92Z" fill="#2A889B"/>
<path opacity="0.2" d="M219.92 86.1699L218.531 93.5916L215.969 92.6465L216.927 86.1699H219.92Z" fill="white"/>
<path d="M241.653 60.1113C241.653 60.1113 237.591 62.891 237.848 65.5525L241.209 63.6762C241.209 63.6762 240.695 61.383 241.653 60.1113Z" fill="#2A889B"/>
<path d="M175.653 95.5039L239.438 95.5039C239.852 95.5039 240.188 95.1679 240.188 94.7534V92.8841C240.188 92.4696 239.852 92.1336 239.438 92.1336L175.653 92.1336C175.239 92.1336 174.903 92.4696 174.903 92.8841V94.7534C174.903 95.1679 175.239 95.5039 175.653 95.5039Z" fill="#2A889B"/>
<path opacity="0.5" d="M175.25 92.7933V94.6696C175.25 95.0865 175.25 95.2047 175.646 95.2047H239.438C239.854 95.2047 240.528 95.0865 240.528 94.6696V92.7933C240.528 92.3833 239.833 92.425 239.438 92.425H175.646C175.25 92.425 175.25 92.3833 175.25 92.7933Z" fill="white"/>
<path opacity="0.2" d="M213.445 92.7933V94.6696C213.445 95.0865 213.661 95.2047 214.07 95.2047H239.438C239.855 95.2047 240.529 95.0865 240.529 94.6696V92.7933C240.529 92.3833 239.834 92.425 239.438 92.425H214.07C213.661 92.425 213.445 92.3833 213.445 92.7933Z" fill="black"/>
<path d="M180.109 89.6445V91.6876C180.109 92.2088 180.637 92.4242 181.151 92.4242H221.922C222.443 92.4242 223.165 92.2088 223.165 91.6876V89.6445H180.109Z" fill="#263238"/>
<path opacity="0.6" d="M180.109 89.6445V91.6876C180.109 92.2088 180.637 92.4242 181.151 92.4242H221.922C222.443 92.4242 223.165 92.2088 223.165 91.6876V89.6445H180.109Z" fill="white"/>
<path opacity="0.2" d="M180.109 89.6445V91.6876C180.109 92.2088 180.637 92.4242 181.151 92.4242H208.04C208.561 92.4242 209.276 92.2088 209.276 91.6876V89.6445H180.109Z" fill="black"/>
<path d="M173.2 68.4491L178.062 90.4779C178.151 90.8303 178.354 91.1436 178.639 91.3696C178.924 91.5955 179.275 91.7217 179.638 91.7287H206.152C206.318 91.7259 206.481 91.6842 206.628 91.607C206.775 91.5298 206.902 91.4192 206.998 91.2841C207.095 91.1489 207.158 90.9931 207.184 90.8289C207.209 90.6648 207.196 90.497 207.145 90.3389L202.284 68.4769C202.185 68.1435 201.974 67.8545 201.687 67.6584C201.4 67.4622 201.054 67.3709 200.707 67.3998H174.2C173.485 67.4067 173.041 67.7264 173.2 68.4491Z" fill="#263238"/>
<path opacity="0.6" d="M173.2 68.4491L178.062 90.4779C178.151 90.8303 178.354 91.1436 178.639 91.3696C178.924 91.5955 179.275 91.7217 179.638 91.7287H206.152C206.318 91.7259 206.481 91.6842 206.628 91.607C206.775 91.5298 206.902 91.4192 206.998 91.2841C207.095 91.1489 207.158 90.9931 207.184 90.8289C207.209 90.6648 207.196 90.497 207.145 90.3389L202.284 68.4769C202.185 68.1435 201.974 67.8545 201.687 67.6584C201.4 67.4622 201.054 67.3709 200.707 67.3998H174.2C173.485 67.4067 173.041 67.7264 173.2 68.4491Z" fill="white"/>
<path opacity="0.4" d="M173.2 68.4506L178.062 90.4794C178.151 90.8318 178.354 91.1451 178.639 91.3711C178.924 91.597 179.275 91.7232 179.638 91.7302H205.249C205.415 91.7271 205.578 91.6852 205.725 91.608C205.872 91.5308 205.999 91.4204 206.096 91.2856C206.193 91.1507 206.258 90.9951 206.284 90.831C206.311 90.667 206.299 90.499 206.249 90.3404L201.388 68.4784C201.288 68.1457 201.076 67.8575 200.79 67.6615C200.503 67.4656 200.158 67.3737 199.812 67.4013H174.2C173.485 67.4082 173.041 67.7279 173.2 68.4506Z" fill="white"/>
<path opacity="0.2" d="M191.936 80.4239L191.485 78.3809H184.582L185.033 80.4239H191.936Z" fill="black"/>
<path d="M159.471 57.9977C159.47 58.4128 159.43 58.8268 159.353 59.2347L149.707 110.492H135.18C134.019 110.492 132.907 110.03 132.086 109.209C131.266 108.388 130.805 107.275 130.805 106.114V51.4238H152.881C154.626 51.422 156.3 52.1133 157.536 53.346C158.771 54.5786 159.468 56.2517 159.471 57.9977V57.9977Z" fill="#2A889B"/>
<path opacity="0.4" d="M159.471 57.9977C159.47 58.4128 159.43 58.8268 159.353 59.2347L149.707 110.492H135.18C134.019 110.492 132.907 110.03 132.086 109.209C131.266 108.388 130.805 107.275 130.805 106.114V51.4238H152.881C154.626 51.422 156.3 52.1133 157.536 53.346C158.771 54.5786 159.468 56.2517 159.471 57.9977V57.9977Z" fill="white"/>
<path opacity="0.2" d="M149.707 110.492H136.305L146.416 56.7955C146.698 55.2859 147.498 53.9226 148.679 52.9416C149.86 51.9605 151.346 51.4236 152.881 51.4238V51.4238C153.849 51.4233 154.806 51.6366 155.683 52.0485C156.559 52.4604 157.334 53.0607 157.952 53.8067C158.57 54.5526 159.016 55.4258 159.259 56.3641C159.501 57.3023 159.533 58.2825 159.353 59.2347L149.707 110.492Z" fill="black"/>
<path d="M228.47 14.5928H208.636C206.497 14.5928 204.414 16.2397 204.414 18.3731V33.6613C204.414 35.7946 206.497 37.525 208.636 37.525H220.275L229.81 42.9731L225.942 37.525H228.504C229.004 37.5224 229.499 37.4197 229.958 37.2229C230.418 37.0261 230.833 36.7392 231.18 36.379C231.527 36.0189 231.798 35.5929 231.978 35.1261C232.158 34.6593 232.242 34.1612 232.227 33.6613V18.3731C232.241 17.8746 232.154 17.3783 231.97 16.9146C231.787 16.4509 231.511 16.0293 231.159 15.6757C230.808 15.3221 230.388 15.0437 229.926 14.8575C229.463 14.6713 228.968 14.5813 228.47 14.5928V14.5928Z" fill="white"/>
<path d="M225.866 27.6639C226.855 23.4692 224.259 19.2661 220.067 18.276C215.876 17.286 211.675 19.8839 210.686 24.0786C209.697 28.2733 212.293 32.4764 216.485 33.4665C220.676 34.4565 224.877 31.8586 225.866 27.6639Z" fill="#2A889B"/>
<path opacity="0.4" d="M225.866 27.6639C226.855 23.4692 224.259 19.2661 220.067 18.276C215.876 17.286 211.675 19.8839 210.686 24.0786C209.697 28.2733 212.293 32.4764 216.485 33.4665C220.676 34.4565 224.877 31.8586 225.866 27.6639Z" fill="white"/>
<path d="M214.602 25.2245L217.608 28.7824L222.47 22.2363" stroke="white" stroke-width="2" stroke-linecap="round" stroke-linejoin="round"/>
</g>
<defs>
<clipPath id="clip0_476_38986">
<rect width="275" height="246" fill="white" transform="translate(19)"/>
</clipPath>
</defs>
</svg>
