<svg width="393" height="16" viewBox="0 0 393 16" fill="none" xmlns="http://www.w3.org/2000/svg">
<path opacity="0.2" d="M382.341 6.54803C382.891 5.20701 382.153 4.11204 380.699 4.11067L5.56075 3.75766C3.81589 3.75602 1.8785 5.05094 1.21881 6.65975C0.548881 8.29356 1.45119 9.62623 3.2251 9.62298L378.778 8.93509C380.212 8.93247 381.8 7.86851 382.341 6.54803Z" fill="#FDBC88"/>
<path opacity="0.1" d="M390.87 7.1713C390.803 6.34905 390.13 5.81887 389.153 5.81783L16.6881 5.42053C14.6814 5.41839 12.4655 6.99107 11.8785 8.83413C11.3505 10.492 12.3419 11.7704 14.1505 11.7637L387.328 10.3798C389.12 10.3732 390.993 8.67619 390.87 7.1713Z" fill="#3CC2DD"/>
</svg>
