<svg width="408" height="367" viewBox="0 0 408 367" fill="none" xmlns="http://www.w3.org/2000/svg">
<path opacity="0.25" d="M407.5 12.135C407.5 5.96826 401.973 1.27119 395.887 2.26605L36.6854 60.9833C31.8494 61.7738 28.2986 65.9521 28.2986 70.8523V290.512C28.2986 296.838 34.0995 301.575 40.2983 300.31L399.5 227C404.156 226.05 407.5 221.954 407.5 217.202V12.135Z" fill="#FDBC88"/>
<path opacity="0.15" d="M0 91.378C0 85.2089 5.53121 80.5112 11.6189 81.5099L370.82 140.44C375.654 141.233 379.201 145.41 379.201 150.308V354.377C379.201 360.706 373.395 365.443 367.195 364.173L7.99337 290.598C3.3406 289.645 0 285.551 0 280.801V91.378Z" fill="#3CC2DD"/>
<g clip-path="url(#clip0_611_6115)">
<path d="M345.977 273.589C345.977 273.589 339.965 261.851 346.838 250.224C353.712 238.596 355.7 235.881 351.316 233.533C346.932 231.186 344.928 242.813 344.928 242.813C344.928 242.813 341.233 234.801 344.286 226.381C347.34 217.962 349.25 204.315 345.069 202.852C340.889 201.389 344.286 219.902 340.654 226.217C340.654 226.217 337.625 219.174 337.124 212.445C336.623 205.716 337.405 194.941 334.118 192.179C330.83 189.417 328.716 191.334 331.949 206.209C333.891 215.074 334.966 224.108 335.159 233.181C335.159 233.181 328.019 213.666 323.228 213.095C318.437 212.523 318.445 218.846 322.547 224.323C326.649 229.801 334.556 239.629 335.855 244.668C335.855 244.668 328.027 229.981 320.982 234.496C313.936 239.011 327.119 247.868 332.998 251.069C338.877 254.269 342.948 274.371 342.948 274.371L345.977 273.589Z" fill="#829197"/>
<path opacity="0.6" d="M345.977 273.589C345.977 273.589 339.965 261.851 346.838 250.224C353.712 238.596 355.7 235.881 351.316 233.533C346.932 231.186 344.928 242.813 344.928 242.813C344.928 242.813 341.233 234.801 344.286 226.381C347.34 217.962 349.25 204.315 345.069 202.852C340.889 201.389 344.286 219.902 340.654 226.217C340.654 226.217 337.625 219.174 337.124 212.445C336.623 205.716 337.405 194.941 334.118 192.179C330.83 189.417 328.716 191.334 331.949 206.209C333.891 215.074 334.966 224.108 335.159 233.181C335.159 233.181 328.019 213.666 323.228 213.095C318.437 212.523 318.445 218.846 322.547 224.323C326.649 229.801 334.556 239.629 335.855 244.668C335.855 244.668 328.027 229.981 320.982 234.496C313.936 239.011 327.119 247.868 332.998 251.069C338.877 254.269 342.948 274.371 342.948 274.371L345.977 273.589Z" fill="white"/>
<path d="M341.224 278.416C341.224 278.416 347.087 266.569 340.058 255.059C333.028 243.548 331 240.849 335.361 238.415C339.721 235.982 341.866 247.617 341.866 247.617C341.866 247.617 345.451 239.55 342.289 231.185C339.126 222.82 337.036 209.197 341.177 207.671C345.318 206.146 342.202 224.714 345.874 230.974C345.874 230.974 348.817 223.931 349.224 217.163C349.632 210.394 348.708 199.659 351.964 196.857C355.221 194.056 357.342 195.934 354.313 210.856C352.493 219.744 351.539 228.788 351.463 237.86C351.463 237.86 358.344 218.251 363.127 217.625C367.911 216.999 367.989 223.306 363.957 228.846C359.926 234.386 352.152 244.3 350.923 249.37C350.923 249.37 358.564 234.581 365.672 238.987C372.78 243.392 359.714 252.445 353.882 255.724C348.05 259.003 344.238 279.152 344.238 279.152L341.224 278.416Z" fill="#829197"/>
<path opacity="0.7" d="M341.224 278.416C341.224 278.416 347.087 266.569 340.058 255.059C333.028 243.548 331 240.849 335.361 238.415C339.721 235.982 341.866 247.617 341.866 247.617C341.866 247.617 345.451 239.55 342.289 231.185C339.126 222.82 337.036 209.197 341.177 207.671C345.318 206.146 342.202 224.714 345.874 230.974C345.874 230.974 348.817 223.931 349.224 217.163C349.632 210.394 348.708 199.659 351.964 196.857C355.221 194.056 357.342 195.934 354.313 210.856C352.493 219.744 351.539 228.788 351.463 237.86C351.463 237.86 358.344 218.251 363.127 217.625C367.911 216.999 367.989 223.306 363.957 228.846C359.926 234.386 352.152 244.3 350.923 249.37C350.923 249.37 358.564 234.581 365.672 238.987C372.78 243.392 359.714 252.445 353.882 255.724C348.05 259.003 344.238 279.152 344.238 279.152L341.224 278.416Z" fill="white"/>
<path d="M368.25 269.974H319.855L323.769 301.023H364.336L368.25 269.974Z" fill="#829197"/>
<path d="M226.566 283.998H79.7858V301.017H226.566V283.998Z" fill="#829197"/>
<path opacity="0.4" d="M226.566 283.998H79.7858V301.017H226.566V283.998Z" fill="white"/>
<path opacity="0.4" d="M226.564 283.998H141.134V301.017H226.564V283.998Z" fill="white"/>
<path d="M294.713 283.998H147.933V301.017H294.713V283.998Z" fill="#829197"/>
<path opacity="0.4" d="M294.713 283.998H147.933V301.017H294.713V283.998Z" fill="white"/>
<path opacity="0.4" d="M294.716 283.998H209.286V301.017H294.716V283.998Z" fill="white"/>
<path d="M230.803 248.401H80.7193C76.9839 248.401 73.9557 251.428 73.9557 255.162V281.547C73.9557 285.281 76.9839 288.308 80.7193 288.308H230.803C234.539 288.308 237.567 285.281 237.567 281.547V255.162C237.567 251.428 234.539 248.401 230.803 248.401Z" fill="#829197"/>
<path opacity="0.6" d="M230.802 248.401H143.345C139.609 248.401 136.581 251.428 136.581 255.162V281.547C136.581 285.281 139.609 288.308 143.345 288.308H230.802C234.538 288.308 237.566 285.281 237.566 281.547V255.162C237.566 251.428 234.538 248.401 230.802 248.401Z" fill="white"/>
<path opacity="0.6" d="M230.803 248.401H80.7193C76.9839 248.401 73.9557 251.428 73.9557 255.162V281.547C73.9557 285.281 76.9839 288.308 80.7193 288.308H230.803C234.539 288.308 237.567 285.281 237.567 281.547V255.162C237.567 251.428 234.539 248.401 230.803 248.401Z" fill="white"/>
<path d="M296.564 248.401H146.48C142.744 248.401 139.716 251.428 139.716 255.162V281.547C139.716 285.281 142.744 288.308 146.48 288.308H296.564C300.299 288.308 303.327 285.281 303.327 281.547V255.162C303.327 251.428 300.299 248.401 296.564 248.401Z" fill="#829197"/>
<path opacity="0.6" d="M296.563 248.401H209.105C205.37 248.401 202.341 251.428 202.341 255.162V281.547C202.341 285.281 205.37 288.308 209.105 288.308H296.563C300.298 288.308 303.326 285.281 303.326 281.547V255.162C303.326 251.428 300.298 248.401 296.563 248.401Z" fill="white"/>
<path opacity="0.6" d="M296.564 248.401H146.48C142.744 248.401 139.716 251.428 139.716 255.162V281.547C139.716 285.281 142.744 288.308 146.48 288.308H296.564C300.299 288.308 303.327 285.281 303.327 281.547V255.162C303.327 251.428 300.299 248.401 296.564 248.401Z" fill="white"/>
<path d="M173.885 249.325H77.5974L62.935 173.596C62.5602 171.655 62.6192 169.655 63.1077 167.739C63.5963 165.823 64.5024 164.038 65.7612 162.513C67.02 160.988 68.6005 159.76 70.3895 158.916C72.1785 158.073 74.132 157.635 76.11 157.634H145.046C148.163 157.635 151.182 158.72 153.586 160.703C155.99 162.686 157.628 165.444 158.221 168.502L173.885 249.325Z" fill="#829197"/>
<path d="M104.949 249.325H77.6052L62.935 173.596C62.5602 171.655 62.6192 169.655 63.1077 167.739C63.5963 165.823 64.5024 164.038 65.7612 162.513C67.02 160.988 68.6005 159.76 70.3895 158.916C72.1785 158.073 74.132 157.635 76.11 157.634C79.2278 157.635 82.2482 158.72 84.6533 160.703C87.0585 162.685 88.6987 165.443 89.2929 168.502L104.949 249.325Z" fill="#829197"/>
<g opacity="0.6">
<path opacity="0.6" d="M173.885 249.325H77.5974L62.935 173.596C62.5602 171.655 62.6192 169.655 63.1077 167.739C63.5963 165.823 64.5024 164.038 65.7612 162.513C67.02 160.988 68.6005 159.76 70.3895 158.916C72.1785 158.073 74.132 157.635 76.11 157.634H145.046C148.163 157.635 151.182 158.72 153.586 160.703C155.99 162.686 157.628 165.444 158.221 168.502L173.885 249.325Z" fill="white"/>
<path opacity="0.6" d="M104.949 249.325H77.6052L62.935 173.596C62.5602 171.655 62.6192 169.655 63.1077 167.739C63.5963 165.823 64.5024 164.038 65.7612 162.513C67.02 160.988 68.6005 159.76 70.3895 158.916C72.1785 158.073 74.132 157.635 76.11 157.634C79.2278 157.635 82.2482 158.72 84.6533 160.703C87.0585 162.685 88.6987 165.443 89.2929 168.502L104.949 249.325Z" fill="white"/>
</g>
<path opacity="0.6" d="M173.884 249.185H104.948L89.2918 168.424C88.6942 165.373 87.0505 162.626 84.6441 160.656C82.2377 158.687 79.2192 157.618 76.1089 157.634H145.045C148.155 157.62 151.172 158.691 153.577 160.662C155.982 162.633 157.624 165.381 158.22 168.432L173.884 249.185Z" fill="white"/>
<path d="M145.871 170.442C152.243 171.851 151.554 192.727 156.486 198.322C160.048 202.368 173.771 203.408 176.644 206.014C179.517 208.62 176.644 213.706 176.644 213.706C176.644 213.706 152.971 213.174 147.124 210.505C141.276 207.837 145.871 170.442 145.871 170.442Z" fill="#829197"/>
<path opacity="0.1" d="M145.871 170.442C152.243 171.851 151.554 192.727 156.486 198.322C160.048 202.368 173.771 203.408 176.644 206.014C179.517 208.62 176.644 213.706 176.644 213.706C176.644 213.706 152.971 213.174 147.124 210.505C141.276 207.837 145.871 170.442 145.871 170.442Z" fill="black"/>
<path d="M190.152 229.975C190.073 230.108 189.987 230.162 189.893 230.147C187.169 229.654 179.858 233.652 170.965 238.269L168.467 239.552L167.614 239.983C163.129 242.275 158.361 244.591 153.649 246.485C148.098 248.731 142.626 250.397 137.812 250.757C137.154 250.812 136.52 250.836 135.894 250.836C114.264 250.836 121.31 215.162 121.31 215.162L147.143 213.182L150.188 218.433L151.84 221.273L155.566 220.272C157.437 219.771 160.224 219.121 163.395 218.441L164.178 218.276C165.25 218.049 166.369 217.823 167.512 217.596C175.943 215.89 185.619 214.239 189.205 214.215C191.757 214.2 191.31 228.277 190.152 229.975Z" fill="#E4897B"/>
<path d="M163.926 217.101L168.937 241.921C168.937 241.921 151.714 255.936 136.841 250.466C121.967 244.997 126.664 219.746 126.664 219.746L146.234 213.752L151.589 220.137L163.926 217.101Z" fill="#829197"/>
<path opacity="0.6" d="M168.937 241.883C168.647 242.04 168.369 242.221 168.108 242.423C164.784 244.714 161.269 246.714 157.602 248.401C151.833 250.749 144.615 252.775 137.82 250.663C137.491 250.561 137.17 250.498 136.849 250.381C121.976 244.904 126.673 219.684 126.673 219.684L146.243 213.706L150.157 218.401L151.559 220.075L163.199 217.243L163.927 217.063L164.17 218.276L166.362 229.136L168.468 239.551L168.937 241.883Z" fill="white"/>
<path d="M163.067 216.578L168.289 243.448L171.42 240.976L167.248 216.061L163.067 216.578Z" fill="#829197"/>
<path opacity="0.4" d="M171.42 240.976L168.289 243.448L168.109 242.517L167.616 239.982L165.494 229.058L163.428 218.44L163.201 217.243L163.067 216.578L167.248 216.061L167.506 217.595L169.463 229.285L170.966 238.268L171.42 240.976Z" fill="white"/>
<path opacity="0.2" d="M190.151 229.973C190.073 230.106 189.987 230.161 189.893 230.145C187.169 229.652 179.857 233.651 170.964 238.267L171.418 240.975L168.287 243.447L168.107 242.422C164.784 244.713 161.269 246.714 157.601 248.401L153.687 246.39L147.973 243.4L150.321 222.054L153.711 226.749C153.711 226.749 161.617 228.666 165.531 229.042L166.4 229.128C167.473 229.214 168.522 229.277 169.532 229.284C170.221 229.284 170.87 229.284 171.489 229.23C178.151 228.76 185.431 228.51 190.151 229.973Z" fill="black"/>
<path d="M244.506 244.379L244.263 249.551H243.66C242.877 249.598 241.453 249.669 239.488 249.763C228.395 250.271 200.894 251.242 189.167 248.894L135.278 249.966L147.122 229.23L221.201 240.756L244.005 244.301L244.506 244.379Z" fill="#E4897B"/>
<path d="M253.405 238.23C253.311 240.249 253.233 242.072 253.154 243.754C253.045 246.055 252.959 248.105 252.865 250.061C252.708 253.465 249.914 251.204 243.87 250.789C243.721 250.789 243.667 250.296 243.659 249.592C243.659 248.081 243.878 245.53 244.003 244.31C244.003 243.879 244.074 243.613 244.074 243.613C244.812 242.927 245.513 242.201 246.172 241.438C247.852 239.636 249.14 237.504 249.953 235.178C251.158 230.929 253.616 233.441 253.405 238.23Z" fill="#263238"/>
<path d="M161.83 230.794L155.763 251.976L143.832 250.833C143.832 250.833 112.95 262.618 121.13 216.091L145.586 211.623L152.342 227.86L161.83 230.794Z" fill="#829197"/>
<path opacity="0.6" d="M161.83 230.794L155.763 251.976L143.832 250.833C143.832 250.833 112.95 262.618 121.13 216.091L145.586 211.623L152.342 227.86L161.83 230.794Z" fill="white"/>
<path d="M160.525 229.637L153.675 252.314H157.722L163.727 230.795L160.525 229.637Z" fill="#829197"/>
<path opacity="0.4" d="M160.525 229.637L153.675 252.314H157.722L163.727 230.795L160.525 229.637Z" fill="white"/>
<path opacity="0.2" d="M253.152 243.746C253.042 246.046 252.956 248.096 252.862 250.053C252.706 253.456 249.911 251.195 243.868 250.78C243.719 250.78 243.664 250.287 243.656 249.583C242.873 249.63 241.449 249.7 239.484 249.794C233.769 246.578 225.769 242.838 221.197 240.757L244.001 244.301C244.001 243.871 244.071 243.605 244.071 243.605C244.81 242.919 245.51 242.192 246.169 241.43L253.152 243.746Z" fill="black"/>
<path d="M189.197 214.214C188.258 214.214 188.9 229.965 189.894 230.145C194.098 230.928 251.456 247.822 251.456 247.822L253.131 242.806C253.131 242.806 198.599 214.167 189.197 214.214Z" fill="#E4897B"/>
<path d="M250.773 248.792C250.225 248.596 252.926 241.937 252.926 241.937C252.926 241.937 258.578 239.167 260.887 235.419C263.197 231.671 264.88 234.762 263.369 239.332C261.858 243.901 260.699 247.344 259.627 250.576C258.554 253.808 256.472 250.834 250.773 248.792Z" fill="#263238"/>
<path d="M149.497 216.844L151.587 220.099C151.587 220.099 129.144 246.837 123.797 248.402C123.797 248.402 120.775 245.866 120.853 239.833C120.932 233.8 149.497 216.844 149.497 216.844Z" fill="#829197"/>
<path opacity="0.1" d="M149.497 216.844L151.587 220.099C151.587 220.099 129.144 246.837 123.797 248.402C123.797 248.402 120.775 245.866 120.853 239.833C120.932 233.8 149.497 216.844 149.497 216.844Z" fill="black"/>
<path d="M141.994 141.006C143.213 141.869 144.198 143.022 144.86 144.361C145.521 145.699 145.838 147.182 145.783 148.674C145.587 153.823 144.522 161.797 145.783 164.7C147.043 167.603 142.526 168.409 142.526 168.409C142.785 167.618 142.785 166.766 142.526 165.975C142.526 165.975 142.526 167.321 140.725 167.806C138.925 168.291 124.544 168.651 121.311 165.975C118.078 163.299 124.834 141.718 128.553 140.419C132.271 139.12 141.994 141.006 141.994 141.006Z" fill="#263238"/>
<path d="M145.398 151.46C145.398 154.59 145.296 161.304 146.76 163.918C148.224 166.531 146.079 167.627 146.079 167.627" stroke="#263238" stroke-width="0.5" stroke-linecap="round" stroke-linejoin="round"/>
<path d="M147.115 209.16L151.201 218.409L121.516 245.796C114.8 242.862 120.045 195.6 114.361 178.502C114.087 177.72 113.806 176.82 113.5 175.936C113.404 175.648 113.367 175.343 113.391 175.04C113.415 174.738 113.501 174.443 113.642 174.174C113.783 173.905 113.977 173.667 114.212 173.475C114.448 173.283 114.719 173.141 115.011 173.056C117.792 172.267 120.615 171.632 123.466 171.155C127.299 170.475 131.176 170.067 135.067 169.934C140.101 169.934 145.87 170.458 145.87 170.458C145.87 170.458 146.653 170.654 147.209 175.983C147.686 180.967 148.148 190.967 147.115 209.16Z" fill="#829197"/>
<path d="M124.652 172.084C124.652 172.084 126.57 174.807 132.934 175.621C132.934 175.621 136.066 173.548 134.751 171.028C134.751 171.028 133.373 170.598 133.075 168.407C132.936 166.861 133.136 165.304 133.662 163.845C133.733 163.61 133.819 163.36 133.905 163.109L125.858 158.078C125.858 158.078 128.691 168.274 124.652 172.084Z" fill="#E4897B"/>
<path opacity="0.2" d="M127.668 160.999C127.668 160.999 128.099 166.75 133.078 168.409C132.938 166.863 133.138 165.306 133.665 163.847C130.729 162.329 127.668 160.999 127.668 160.999Z" fill="black"/>
<path d="M121.513 172.804C121.513 172.804 122.241 168.188 124.088 167.937C124.088 167.937 128.323 171.357 134.46 168.407C134.46 168.407 135.588 168.242 135.611 170.371C135.635 172.499 138.242 172.092 136.394 175.848C134.547 179.604 126.163 180.731 121.513 172.804Z" fill="#829197"/>
<path opacity="0.1" d="M121.513 172.804C121.513 172.804 122.241 168.188 124.088 167.937C124.088 167.937 128.323 171.357 134.46 168.407C134.46 168.407 135.588 168.242 135.611 170.371C135.635 172.499 138.242 172.092 136.394 175.848C134.547 179.604 126.163 180.731 121.513 172.804Z" fill="black"/>
<path d="M135.895 142.156C142.471 143.275 143.989 147.156 143.316 154.019C142.471 162.626 139.566 168.284 131.652 165.068C120.927 160.709 124.975 140.294 135.895 142.156Z" fill="#E4897B"/>
<path d="M139.127 152.938C139.486 154.01 139.972 155.034 140.575 155.99C140.336 156.228 140.035 156.396 139.706 156.474C139.378 156.553 139.034 156.54 138.712 156.436L139.127 152.938Z" fill="#DE5753"/>
<path d="M135.192 151.695C135.114 152.243 134.754 152.634 134.41 152.587C134.065 152.54 133.823 152.047 133.901 151.507C133.979 150.967 134.339 150.568 134.684 150.623C135.028 150.678 135.271 151.155 135.192 151.695Z" fill="#263238"/>
<path d="M134.525 150.591L135.777 150.301C135.777 150.301 135.018 151.24 134.525 150.591Z" fill="#263238"/>
<path d="M141.955 152.57C141.877 153.118 141.516 153.509 141.172 153.462C140.828 153.416 140.577 152.923 140.655 152.383C140.734 151.843 141.094 151.444 141.438 151.498C141.783 151.553 142.064 152.031 141.955 152.57Z" fill="#263238"/>
<path d="M141.279 151.499L142.524 151.21C142.524 151.21 141.804 152.157 141.279 151.499Z" fill="#263238"/>
<path d="M135.904 147.148C135.395 146.996 134.858 146.962 134.334 147.051C133.81 147.139 133.313 147.346 132.882 147.657" stroke="#263238" stroke-width="0.72468" stroke-linecap="round" stroke-linejoin="round"/>
<path d="M140.729 147.687C141.197 147.651 141.668 147.721 142.106 147.892C142.543 148.062 142.937 148.329 143.257 148.673" stroke="#263238" stroke-width="0.72468" stroke-linecap="round" stroke-linejoin="round"/>
<path d="M126.812 152.006C126.812 152.006 130.812 147.131 131.055 142.883C131.055 142.883 145.005 139.753 143.384 153.117C143.384 153.117 146.664 141.591 135.399 139.4C124.134 137.21 121.363 153.72 126.405 159.675C126.405 159.675 124.33 155.066 126.812 152.006Z" fill="#263238"/>
<path d="M127.654 153.579C127.711 152.814 127.464 152.057 126.968 151.472C126.471 150.886 125.765 150.519 125 150.449C122.926 150.324 121.235 154.362 126.135 156.216C126.84 156.443 127.372 155.802 127.654 153.579Z" fill="#E4897B"/>
<path d="M141.993 144.823C141.993 144.823 145.124 141.201 142.533 138.172C139.942 135.144 128.998 134.549 125.311 137.781C121.624 141.013 122.015 142.765 122.015 142.765C120.341 146.406 119.632 150.415 119.956 154.409C120.645 160.567 118.266 164.386 119.847 166.342C121.428 168.298 122.978 168.408 122.978 168.408C122.57 166.965 122.57 165.437 122.978 163.994C123.698 162.038 122.978 163.407 122.978 163.407C122.978 163.407 123.816 168.494 124.685 169.08C125.637 169.512 126.657 169.777 127.699 169.863C126.666 167.449 126.233 164.82 126.438 162.202C126.931 158.384 128.982 154.471 128.497 149.972C128.268 147.138 129.047 144.315 130.697 141.999C130.697 141.999 138.502 141.107 141.993 144.823Z" fill="#263238"/>
<path d="M141.992 143.65C142.805 143.362 143.496 142.808 143.954 142.078C144.411 141.348 144.608 140.484 144.513 139.628C144.215 136.498 138.391 134.604 135.119 135.137" stroke="#263238" stroke-width="0.5" stroke-linecap="round" stroke-linejoin="round"/>
<path d="M122.949 142.373C122.949 142.373 118.909 148.132 119.285 154.713C119.661 161.294 117.406 163.32 118.095 165.362" stroke="#263238" stroke-width="0.5" stroke-linecap="round" stroke-linejoin="round"/>
<path d="M133.666 157.242C133.666 157.242 133.909 159.065 137.58 159.206" stroke="#263238" stroke-width="0.5" stroke-linecap="round" stroke-linejoin="round"/>
<path d="M156.483 207.854C156.483 207.854 160.985 208.753 161.83 209.019C164.38 210.351 166.797 211.923 169.048 213.714C170.112 214.763 163.2 216.461 161.83 216.062C160.46 215.663 157.986 212.736 157.986 212.736L153.023 211.954L156.483 207.854Z" fill="#E4897B"/>
<path d="M115.008 173.042C115.008 173.042 111.274 174.325 110.492 185.28C109.709 196.234 111.423 214.232 119.103 219.193C126.782 224.154 154.612 213.715 154.612 213.715C154.612 213.715 155.825 208.034 154.612 206.798C149.586 201.673 132.152 206.344 126.062 203.504C119.972 200.663 122.931 178.542 115.008 173.042Z" fill="#829197"/>
<path opacity="0.1" d="M115.008 173.042C115.008 173.042 111.274 174.325 110.492 185.28C109.709 196.234 111.423 214.232 119.103 219.193C126.782 224.154 154.612 213.715 154.612 213.715C154.612 213.715 155.825 208.034 154.612 206.798C149.586 201.673 132.152 206.344 126.062 203.504C119.972 200.663 122.931 178.542 115.008 173.042Z" fill="black"/>
<path d="M154.591 206.796L153.675 214.041L157.589 214.214L159.288 207.852L154.591 206.796Z" fill="#829197"/>
<path opacity="0.2" d="M154.591 206.796L153.675 214.041L157.589 214.214L159.288 207.852L154.591 206.796Z" fill="black"/>
<path d="M201.559 214.755V217.055C201.559 217.642 200.862 217.885 200.283 217.885H154.323C153.736 217.885 153.023 217.642 153.023 217.055V214.755H201.559Z" fill="#263238"/>
<path opacity="0.4" d="M201.559 214.755V217.055C201.559 217.642 200.862 217.885 200.283 217.885H154.323C153.736 217.885 153.023 217.642 153.023 217.055V214.755H201.559Z" fill="white"/>
<path opacity="0.2" d="M201.561 214.755V217.055C201.561 217.642 200.864 217.885 200.285 217.885H169.973C169.379 217.885 168.682 217.642 168.682 217.055V214.755H201.561Z" fill="black"/>
<path d="M209.248 190.888L203.768 215.693C203.67 216.091 203.442 216.445 203.12 216.7C202.799 216.955 202.402 217.096 201.991 217.101H172.119C171.932 217.098 171.748 217.05 171.582 216.964C171.416 216.877 171.273 216.752 171.164 216.6C171.054 216.449 170.982 216.273 170.952 216.089C170.922 215.904 170.935 215.715 170.991 215.536L176.471 190.919C176.585 190.549 176.822 190.228 177.141 190.009C177.461 189.79 177.846 189.686 178.233 189.714H208.121C208.927 189.714 209.428 190.074 209.248 190.888Z" fill="#263238"/>
<path opacity="0.4" d="M209.244 190.888L203.764 215.693C203.666 216.091 203.438 216.446 203.116 216.7C202.795 216.955 202.398 217.096 201.987 217.102H173.132C172.945 217.098 172.761 217.05 172.595 216.964C172.429 216.877 172.286 216.753 172.176 216.601C172.066 216.449 171.992 216.275 171.961 216.09C171.93 215.905 171.943 215.716 171.997 215.537L177.477 190.92C177.591 190.548 177.829 190.226 178.15 190.007C178.472 189.788 178.858 189.685 179.246 189.715H208.117C208.923 189.715 209.424 190.075 209.244 190.888Z" fill="white"/>
<path opacity="0.2" d="M194.51 203.495C194.51 205.615 192.232 207.344 190.596 207.344C188.96 207.344 187.935 205.615 188.412 203.495C188.89 201.374 190.549 199.715 192.185 199.653C191.708 201.773 192.726 203.495 194.385 203.495H194.51Z" fill="black"/>
<path d="M149.37 95.8163H117.619C116.457 95.7888 115.331 96.2203 114.486 97.0172C113.64 97.8141 113.143 98.9121 113.102 100.073V117.288C113.139 118.458 113.632 119.568 114.475 120.381C115.319 121.194 116.447 121.645 117.619 121.638H131.24L133.659 127.773L136.078 121.638H149.386C150.55 121.643 151.668 121.188 152.499 120.374C153.33 119.56 153.806 118.451 153.825 117.288V100.073C153.814 99.5007 153.689 98.9362 153.459 98.412C153.229 97.8879 152.897 97.4143 152.483 97.0187C152.069 96.6231 151.581 96.3132 151.047 96.1069C150.513 95.9005 149.943 95.8018 149.37 95.8163Z" fill="#829197"/>
<path opacity="0.6" d="M149.37 95.8163H117.619C116.457 95.7888 115.331 96.2203 114.486 97.0172C113.64 97.8141 113.143 98.9121 113.102 100.073V117.288C113.139 118.458 113.632 119.568 114.475 120.381C115.319 121.194 116.447 121.645 117.619 121.638H131.24L133.659 127.773L136.078 121.638H149.386C150.55 121.643 151.668 121.188 152.499 120.374C153.33 119.56 153.806 118.451 153.825 117.288V100.073C153.814 99.5007 153.689 98.9362 153.459 98.412C153.229 97.8879 152.897 97.4143 152.483 97.0187C152.069 96.6231 151.581 96.3132 151.047 96.1069C150.513 95.9005 149.943 95.8018 149.37 95.8163Z" fill="white"/>
<path opacity="0.2" d="M118.58 113.422L127.684 106.771L130.518 107.553L134.338 105.206L140.429 107.162L147.544 100.902V114.595H118.58V113.422Z" fill="black"/>
<path d="M118.58 102.859V114.596H147.544V103.642L138.276 110.684L134.338 107.39L125.492 111.466L119.363 113.814V102.859H118.58Z" fill="white"/>
<path d="M279.058 167.024V168.981" stroke="#829197" stroke-width="2" stroke-linejoin="round"/>
<path d="M279.058 171.273V200.695" stroke="#829197" stroke-width="2" stroke-linejoin="round" stroke-dasharray="4.88 2.93"/>
<path d="M279.06 201.845V203.801H277.103" stroke="#829197" stroke-width="2" stroke-linejoin="round"/>
<path d="M274.842 203.8H215.613" stroke="#829197" stroke-width="2" stroke-linejoin="round" stroke-dasharray="4.82 2.89"/>
<path d="M214.479 203.8H212.522" stroke="#829197" stroke-width="2" stroke-linejoin="round"/>
<path d="M279.06 167.532C280.625 167.532 281.894 166.264 281.894 164.7C281.894 163.135 280.625 161.867 279.06 161.867C277.495 161.867 276.226 163.135 276.226 164.7C276.226 166.264 277.495 167.532 279.06 167.532Z" fill="#829197"/>
<path d="M212.52 206.633C214.085 206.633 215.354 205.365 215.354 203.8C215.354 202.236 214.085 200.968 212.52 200.968C210.955 200.968 209.686 202.236 209.686 203.8C209.686 205.365 210.955 206.633 212.52 206.633Z" fill="#829197"/>
<path d="M363.37 34.0005H193.966C191.242 34.0005 189.034 36.2076 189.034 38.9302V153.486C189.034 156.209 191.242 158.416 193.966 158.416H363.37C366.094 158.416 368.302 156.209 368.302 153.486V38.9302C368.302 36.2076 366.094 34.0005 363.37 34.0005Z" fill="#263238"/>
<path opacity="0.4" d="M363.37 34.0005H193.966C191.242 34.0005 189.034 36.2076 189.034 38.9302V153.486C189.034 156.209 191.242 158.416 193.966 158.416H363.37C366.094 158.416 368.302 156.209 368.302 153.486V38.9302C368.302 36.2076 366.094 34.0005 363.37 34.0005Z" fill="white"/>
<path d="M368.302 54.3457H189.034V135.724H368.302V54.3457Z" fill="#829197"/>
<path opacity="0.4" d="M368.302 54.3457H189.034V135.724H368.302V54.3457Z" fill="black"/>
<path d="M363.605 113.031V95.8164H360.474V74.6893H356.56V95.8164H349.514V127.116H335.423V95.8164H310.373V127.116H297.847V128.681H286.105V97.3814H281.408V115.379H269.666V109.901H248.529V92.6864H245.398V71.5593H241.484V92.6864H234.438V123.986H220.347V92.6864H195.297V123.986H189.034V135.723H297.847H316.635H368.302V113.031H363.605Z" fill="#829197"/>
<path opacity="0.3" d="M363.605 113.031V95.8164H360.474V74.6893H356.56V95.8164H349.514V127.116H335.423V95.8164H310.373V127.116H297.847V128.681H286.105V97.3814H281.408V115.379H269.666V109.901H248.529V92.6864H245.398V71.5593H241.484V92.6864H234.438V123.986H220.347V92.6864H195.297V123.986H189.034V135.723H297.847H316.635H368.302V113.031H363.605Z" fill="black"/>
<path d="M232.087 69.9956H200.774V135.724H232.087V69.9956Z" fill="#829197"/>
<g opacity="0.4">
<path opacity="0.4" d="M232.087 76.2546H200.774V77.0371H232.087V76.2546Z" fill="black"/>
</g>
<path opacity="0.4" d="M232.087 82.5137H200.774V83.2962H232.087V82.5137Z" fill="black"/>
<path opacity="0.4" d="M232.087 100.512H200.774V101.295H232.087V100.512Z" fill="black"/>
<path opacity="0.4" d="M232.087 106.771H200.774V107.554H232.087V106.771Z" fill="black"/>
<path opacity="0.4" d="M232.087 113.031H200.774V113.813H232.087V113.031Z" fill="black"/>
<path opacity="0.4" d="M232.087 119.292H200.774V120.074H232.087V119.292Z" fill="black"/>
<path d="M276.712 98.9465H246.182V135.723H276.712V98.9465Z" fill="#829197"/>
<path opacity="0.4" d="M276.712 105.206H246.182V105.988H276.712V105.206Z" fill="black"/>
<path opacity="0.4" d="M276.712 111.467H246.182V112.249H276.712V111.467Z" fill="black"/>
<path opacity="0.4" d="M276.712 117.726H246.182V118.509H276.712V117.726Z" fill="black"/>
<path d="M321.335 86.4263H290.022V135.723H321.335V86.4263Z" fill="#829197"/>
<path opacity="0.4" d="M321.335 92.6875H290.022V93.47H321.335V92.6875Z" fill="black"/>
<path opacity="0.4" d="M321.335 105.989H290.022V106.771H321.335V105.989Z" fill="black"/>
<path opacity="0.4" d="M321.335 123.987H290.022V124.77H321.335V123.987Z" fill="black"/>
<path opacity="0.4" d="M321.335 130.246H290.022V131.029H321.335V130.246Z" fill="black"/>
<g opacity="0.2">
<path opacity="0.2" d="M232.087 69.9956H200.774V135.724H232.087V69.9956Z" fill="black"/>
</g>
<g opacity="0.2">
<path opacity="0.2" d="M276.712 98.9465H246.182V135.723H276.712V98.9465Z" fill="black"/>
</g>
<g opacity="0.2">
<path opacity="0.2" d="M321.335 86.4263H290.022V135.723H321.335V86.4263Z" fill="black"/>
</g>
<path d="M351.336 158.416H293.149L304.539 97.9532C304.86 96.2534 305.764 94.7189 307.096 93.6146C308.428 92.5104 310.104 91.9055 311.835 91.9045H354.89C355.982 91.904 357.06 92.1442 358.048 92.6079C359.036 93.0717 359.91 93.7477 360.607 94.5877C361.304 95.4276 361.806 96.4109 362.079 97.4673C362.352 98.5238 362.389 99.6275 362.186 100.7L351.336 158.416Z" fill="#829197"/>
<path opacity="0.4" d="M351.336 158.416H293.149L304.539 97.9532C304.86 96.2534 305.764 94.7189 307.096 93.6146C308.428 92.5104 310.104 91.9055 311.835 91.9045H354.89C355.982 91.904 357.06 92.1442 358.048 92.6079C359.036 93.0717 359.91 93.7477 360.607 94.5877C361.304 95.4276 361.806 96.4109 362.079 97.4673C362.352 98.5238 362.389 99.6275 362.186 100.7L351.336 158.416Z" fill="white"/>
<path opacity="0.2" d="M351.337 158.416H336.205L347.603 97.9532C347.923 96.2527 348.827 94.7174 350.159 93.6128C351.491 92.5083 353.168 91.904 354.899 91.9045C355.991 91.904 357.069 92.1442 358.057 92.6079C359.045 93.0717 359.919 93.7477 360.616 94.5877C361.312 95.4276 361.815 96.4109 362.088 97.4673C362.361 98.5238 362.398 99.6275 362.195 100.7L351.337 158.416Z" fill="black"/>
<path d="M304.501 119.293C304.501 119.293 303.632 121.641 302.246 124.645C300.038 129.458 296.524 135.952 293.15 137.243C290.386 138.308 283.442 138.503 277.242 138.441C271.042 138.378 265.751 138.073 265.751 138.073V133.378L286.104 127.955C286.104 127.955 296.844 108.581 303.193 105.709L304.501 119.293Z" fill="#829197"/>
<path opacity="0.2" d="M302.247 124.645C300.039 129.457 296.524 135.952 293.15 137.243C290.387 138.307 283.443 138.503 277.243 138.44C277.243 138.44 287.162 133.072 290.019 130.248C293.19 127.118 301.355 114.66 301.355 114.66L302.247 124.645Z" fill="black"/>
<path d="M314.329 101.594C316.232 100.726 327.598 100.726 327.598 100.726V109.122L311.55 112.119C311.55 112.119 310.517 103.316 314.329 101.594Z" fill="#829197"/>
<path d="M336.204 158.416C335.883 151.147 332.822 127.453 336.987 104.542C333.761 103.98 330.498 103.656 327.225 103.571C322.435 103.398 317.638 103.502 312.86 103.884C309.588 104.287 306.353 104.946 303.185 105.856C303.185 105.856 298.691 122.547 303.693 158.416H336.204Z" fill="white"/>
<path opacity="0.1" d="M325.688 136.163C328.553 135.529 332.021 132.751 334.855 130.013C334.855 125.138 335.09 119.95 335.638 114.66C331.606 120.599 320.741 137.29 325.688 136.163Z" fill="black"/>
<path d="M325.49 87.4753C324.707 92.1155 323.963 100.598 327.259 103.61C325.92 105.044 324.309 106.197 322.521 107.003C320.732 107.809 318.801 108.252 316.839 108.305C310.921 108.563 312.925 103.892 312.925 103.892C318.06 102.546 317.841 98.7275 316.839 95.1594L325.49 87.4753Z" fill="#B97964"/>
<path opacity="0.2" d="M321.966 90.6226L316.839 95.1923C317.08 96.021 317.248 96.8694 317.34 97.7275C319.305 97.3989 321.959 95.1845 322.123 93.1187C322.224 92.2841 322.171 91.438 321.966 90.6226Z" fill="black"/>
<path d="M314.288 75.4756C316.847 77.2127 315.681 80.1705 309.88 84.7715C307.532 81.7198 307.133 75.7886 309.011 74.3018C310.89 72.8151 312.01 73.9732 314.288 75.4756Z" fill="#263238"/>
<path d="M325.244 80.2461C324.962 86.506 325.111 90.1915 322.011 93.4545C317.314 98.3685 309.564 95.6376 307.92 89.409C306.495 83.8221 307.184 74.5418 313.267 71.9205C314.607 71.3331 316.076 71.0993 317.533 71.2413C318.989 71.3834 320.385 71.8966 321.587 72.7319C322.789 73.5672 323.756 74.6966 324.396 76.0122C325.036 77.3278 325.328 78.7856 325.244 80.2461Z" fill="#B97964"/>
<path d="M315.954 82.1256C315.954 82.6343 315.696 83.049 315.367 83.0568C315.038 83.0646 314.764 82.6577 314.756 82.1491C314.748 81.6405 314.999 81.2258 315.336 81.2101C315.672 81.1945 315.915 81.6248 315.954 82.1256Z" fill="#263238"/>
<path d="M310.163 82.2351C310.163 82.7437 309.904 83.1584 309.575 83.1662C309.247 83.1741 308.965 82.7672 308.957 82.2507C308.949 81.7343 309.207 81.3196 309.544 81.3196C309.881 81.3196 310.155 81.7343 310.163 82.2351Z" fill="#263238"/>
<path d="M312.054 82.4368C311.475 84.0028 310.685 85.4824 309.705 86.8344C310.057 87.0777 310.459 87.241 310.881 87.3127C311.303 87.3843 311.735 87.3626 312.148 87.2491L312.054 82.4368Z" fill="#A24E3F"/>
<path d="M317.507 80.2702C317.57 80.2896 317.639 80.2896 317.702 80.2702C317.763 80.2197 317.803 80.148 317.813 80.0697C317.823 79.9913 317.803 79.912 317.757 79.8476C317.473 79.4666 317.101 79.1591 316.673 78.9509C316.246 78.7426 315.775 78.6396 315.299 78.6504C315.261 78.6524 315.224 78.6619 315.189 78.6783C315.155 78.6948 315.124 78.7178 315.099 78.7462C315.073 78.7745 315.054 78.8076 315.041 78.8436C315.028 78.8795 315.023 78.9176 315.025 78.9556C315.035 79.0324 315.073 79.1025 315.133 79.1519C315.193 79.2013 315.269 79.2262 315.346 79.2216C315.722 79.2157 316.094 79.3 316.43 79.4675C316.767 79.635 317.058 79.8807 317.28 80.1841C317.309 80.2145 317.344 80.2379 317.383 80.2528C317.423 80.2677 317.465 80.2737 317.507 80.2702Z" fill="#263238"/>
<path d="M307.493 80.3243C307.55 80.3216 307.605 80.3044 307.653 80.2742C307.701 80.2441 307.74 80.202 307.767 80.1521C307.912 79.8053 308.139 79.4984 308.428 79.2574C308.717 79.0164 309.059 78.8482 309.427 78.7671C309.505 78.7537 309.575 78.7102 309.622 78.6459C309.669 78.5816 309.688 78.5015 309.677 78.4228C309.665 78.3467 309.625 78.2779 309.563 78.2312C309.502 78.1845 309.425 78.1634 309.348 78.1724C308.881 78.2686 308.445 78.4761 308.075 78.7771C307.706 79.0782 307.415 79.464 307.227 79.9017C307.194 79.9724 307.191 80.053 307.217 80.1261C307.244 80.1992 307.298 80.2591 307.368 80.293C307.407 80.3107 307.45 80.3213 307.493 80.3243Z" fill="#263238"/>
<path d="M322.686 74.746C319.774 75.8023 320.189 78.9479 324.682 84.8322C327.719 82.4456 329.551 76.7883 328.095 74.8946C326.639 73.001 325.246 73.8305 322.686 74.746Z" fill="#263238"/>
<path d="M328.377 85.207C327.964 86.7295 326.965 88.0266 325.598 88.8143C323.782 89.8472 322.373 88.3369 322.466 86.3651C322.545 84.581 323.586 81.8971 325.598 81.6702C327.61 81.4432 328.839 83.3369 328.377 85.207Z" fill="#B97964"/>
<path d="M328.447 75.6303C328.447 75.6303 329.762 71.9526 325.433 68.9244C321.699 66.3031 311.742 66.6708 308.955 69.8008C307.262 71.8017 306.311 74.3248 306.262 76.9449L307.781 74.5974L307.366 77.5317L311.421 74.4018L310.16 77.5317C310.16 77.5317 314.341 76.9449 316.423 74.5974L315.358 76.7258C315.358 76.7258 317.918 77.0388 321.339 74.4957C321.339 74.4957 318.811 77.43 322.177 79.1906C325.543 80.9512 328.447 75.6303 328.447 75.6303Z" fill="#263238"/>
<path d="M316.839 88.2913C316.398 88.9634 315.781 89.5015 315.055 89.8465C314.329 90.1915 313.522 90.3302 312.722 90.2475" stroke="#263238" stroke-width="0.5" stroke-linecap="round" stroke-linejoin="round"/>
<path d="M338.364 158.418C337.863 143.465 336.947 114.685 337.018 104.544C337.018 104.544 330.802 103.433 328.086 103.605C325.369 103.777 320.829 105.468 320.829 105.468C320.829 105.468 320.727 137.69 323.678 158.418H338.364Z" fill="#829197"/>
<path opacity="0.2" d="M338.364 158.418C337.863 143.465 336.947 114.685 337.018 104.544C337.018 104.544 330.802 103.433 328.086 103.605C325.369 103.777 320.829 105.468 320.829 105.468C320.829 105.468 320.727 137.69 323.678 158.418H338.364Z" fill="white"/>
<path d="M327.256 100.726L320.837 105.468L323.154 110.687L330.012 103.496L327.256 100.726Z" fill="#829197"/>
<path d="M305.136 158.418C308.862 109.638 313.488 105.702 313.488 105.702L312.58 102.971L303.186 105.859C298.818 112.275 297.926 144.615 297.746 158.418H305.136Z" fill="#829197"/>
<path opacity="0.2" d="M305.136 158.418C308.862 109.638 313.488 105.702 313.488 105.702L312.58 102.971L303.186 105.859C298.818 112.275 297.926 144.615 297.746 158.418H305.136Z" fill="white"/>
<path d="M296.283 132.916C296.283 132.916 284.478 132.556 283.272 132.431C282.066 132.306 276.939 129.426 275.859 129.301C274.778 129.176 271.851 133.746 271.49 134.825C271.13 135.905 279.648 138.793 280.493 138.675C281.453 138.42 282.386 138.075 283.28 137.642L296.283 139.16V132.916Z" fill="#B97964"/>
<path d="M336.987 104.544C348.017 108.519 328.658 138.371 322.646 141.446C316.633 144.521 286.103 138.073 286.103 138.073L287.301 131.899C287.301 131.899 314.324 132.588 316.814 131.962C319.303 131.336 325.221 118.605 328.626 112.595C330.517 109.115 333.437 106.303 336.987 104.544Z" fill="#829197"/>
<path d="M289.492 131.029L287.926 139.386L285.037 138.322L286.118 131.029H289.492Z" fill="#829197"/>
<path opacity="0.2" d="M289.492 131.029L287.926 139.386L285.037 138.322L286.118 131.029H289.492Z" fill="white"/>
<path d="M313.991 101.687C313.991 101.687 309.411 104.817 309.701 107.814L313.49 105.701C313.49 105.701 312.91 103.119 313.991 101.687Z" fill="#829197"/>
<path d="M239.59 141.54H311.493C311.96 141.54 312.339 141.161 312.339 140.694V138.59C312.339 138.123 311.96 137.745 311.493 137.745H239.59C239.123 137.745 238.745 138.123 238.745 138.59V140.694C238.745 141.161 239.123 141.54 239.59 141.54Z" fill="#829197"/>
<path opacity="0.5" d="M239.136 138.487V140.6C239.136 141.07 239.136 141.203 239.583 141.203H311.493C311.963 141.203 312.722 141.07 312.722 140.6V138.487C312.722 138.026 311.939 138.073 311.493 138.073H239.583C239.136 138.073 239.136 138.026 239.136 138.487Z" fill="white"/>
<path opacity="0.2" d="M282.193 138.487V140.6C282.193 141.07 282.436 141.203 282.897 141.203H311.494C311.964 141.203 312.723 141.07 312.723 140.6V138.487C312.723 138.026 311.94 138.073 311.494 138.073H282.897C282.436 138.073 282.193 138.026 282.193 138.487Z" fill="black"/>
<path d="M244.614 134.942V137.242C244.614 137.829 245.209 138.072 245.788 138.072H291.748C292.335 138.072 293.149 137.829 293.149 137.242V134.942H244.614Z" fill="#263238"/>
<path opacity="0.6" d="M244.614 134.942V137.242C244.614 137.829 245.209 138.072 245.788 138.072H291.748C292.335 138.072 293.149 137.829 293.149 137.242V134.942H244.614Z" fill="white"/>
<path opacity="0.2" d="M244.614 134.942V137.242C244.614 137.829 245.209 138.072 245.788 138.072H276.1C276.687 138.072 277.493 137.829 277.493 137.242V134.942H244.614Z" fill="black"/>
<path d="M236.826 111.075L242.306 135.88C242.407 136.277 242.635 136.63 242.956 136.884C243.277 137.139 243.673 137.281 244.083 137.289H273.971C274.158 137.285 274.342 137.239 274.508 137.152C274.673 137.065 274.816 136.94 274.925 136.788C275.034 136.636 275.106 136.46 275.134 136.275C275.163 136.091 275.148 135.902 275.091 135.724L269.611 111.107C269.499 110.731 269.261 110.406 268.938 110.185C268.614 109.964 268.224 109.861 267.834 109.894H237.953C237.147 109.902 236.646 110.262 236.826 111.075Z" fill="#263238"/>
<path opacity="0.6" d="M236.826 111.075L242.306 135.88C242.407 136.277 242.635 136.63 242.956 136.884C243.277 137.139 243.673 137.281 244.083 137.289H273.971C274.158 137.285 274.342 137.239 274.508 137.152C274.673 137.065 274.816 136.94 274.925 136.788C275.034 136.636 275.106 136.46 275.134 136.275C275.163 136.091 275.148 135.902 275.091 135.724L269.611 111.107C269.499 110.731 269.261 110.406 268.938 110.185C268.614 109.964 268.224 109.861 267.834 109.894H237.953C237.147 109.902 236.646 110.262 236.826 111.075Z" fill="white"/>
<path opacity="0.4" d="M236.826 111.077L242.306 135.882C242.407 136.279 242.635 136.631 242.956 136.886C243.277 137.14 243.673 137.282 244.083 137.29H272.953C273.141 137.287 273.324 137.24 273.49 137.153C273.656 137.066 273.799 136.942 273.909 136.79C274.018 136.638 274.091 136.463 274.12 136.278C274.15 136.093 274.137 135.904 274.081 135.725L268.601 111.108C268.488 110.734 268.25 110.409 267.927 110.189C267.603 109.968 267.214 109.865 266.824 109.896H237.953C237.147 109.903 236.646 110.263 236.826 111.077Z" fill="white"/>
<path opacity="0.2" d="M257.946 124.559L257.437 122.259H249.656L250.165 124.559H257.946Z" fill="black"/>
<path d="M221.35 99.3069C221.348 99.7742 221.303 100.24 221.216 100.7L210.343 158.416H193.966C192.658 158.416 191.404 157.896 190.479 156.972C189.554 156.047 189.034 154.794 189.034 153.486V91.9045H213.92C215.887 91.9025 217.775 92.6809 219.168 94.0689C220.561 95.4569 221.345 97.3409 221.35 99.3069Z" fill="#829197"/>
<path opacity="0.4" d="M221.35 99.3069C221.348 99.7742 221.303 100.24 221.216 100.7L210.343 158.416H193.966C192.658 158.416 191.404 157.896 190.479 156.972C189.554 156.047 189.034 154.794 189.034 153.486V91.9045H213.92C215.887 91.9025 217.775 92.6809 219.168 94.0689C220.561 95.4569 221.345 97.3409 221.35 99.3069Z" fill="white"/>
<path opacity="0.2" d="M210.343 158.416H195.234L206.632 97.9532C206.95 96.2533 207.853 94.7182 209.184 93.6135C210.515 92.5089 212.19 91.9043 213.921 91.9045C215.012 91.904 216.09 92.1442 217.079 92.6079C218.067 93.0717 218.94 93.7477 219.637 94.5877C220.334 95.4276 220.837 96.4109 221.11 97.4673C221.383 98.5238 221.419 99.6275 221.216 100.7L210.343 158.416Z" fill="black"/>
<path d="M299.129 50.4323H276.772C274.361 50.4323 272.012 52.2868 272.012 54.689V71.9037C272.012 74.3059 274.361 76.2543 276.772 76.2543H289.892L300.64 82.389L296.28 76.2543H299.169C299.732 76.2514 300.289 76.1358 300.807 75.9142C301.325 75.6925 301.794 75.3694 302.185 74.9639C302.576 74.5584 302.882 74.0787 303.084 73.5531C303.287 73.0275 303.382 72.4667 303.364 71.9037V54.689C303.381 54.1276 303.282 53.5688 303.075 53.0467C302.869 52.5245 302.558 52.0499 302.161 51.6516C301.765 51.2534 301.292 50.94 300.771 50.7303C300.25 50.5207 299.691 50.4193 299.129 50.4323Z" fill="white"/>
<path d="M296.195 65.1505C297.31 60.4272 294.383 55.6944 289.658 54.5796C284.932 53.4648 280.198 56.3901 279.082 61.1134C277.967 65.8368 280.894 70.5695 285.619 71.6843C290.344 72.7991 295.079 69.8738 296.195 65.1505Z" fill="#829197"/>
<path opacity="0.4" d="M296.195 65.1505C297.31 60.4272 294.383 55.6944 289.658 54.5796C284.932 53.4648 280.198 56.3901 279.082 61.1134C277.967 65.8368 280.894 70.5695 285.619 71.6843C290.344 72.7991 295.079 69.8738 296.195 65.1505Z" fill="white"/>
<path d="M283.496 62.4038L286.886 66.4101L292.366 59.0391" stroke="white" stroke-width="2" stroke-linecap="round" stroke-linejoin="round"/>
</g>
<defs>
<clipPath id="clip0_611_6115">
<rect width="310" height="277" fill="white" transform="translate(63 34.0005)"/>
</clipPath>
</defs>
</svg>
