<svg width="538" height="80" viewBox="0 0 538 80" fill="none" xmlns="http://www.w3.org/2000/svg">
<path opacity="0.2" d="M523.258 24.4429C523.557 21.6312 521.455 19.2918 518.621 19.2815L8.14521 17.4281C5.44319 17.4183 3.07391 19.5369 2.78901 22.2177L0.56115 43.1799C0.260085 46.0127 2.39474 48.3614 5.25205 48.3412L516.309 44.7296C518.992 44.7107 521.328 42.6002 521.611 39.9402L523.258 24.4429Z" fill="#FDBC88"/>
<path opacity="0.1" d="M534.038 32.8091C533.984 30.2516 531.965 28.2887 529.379 28.2781L22.69 26.1929C19.9402 26.1816 17.5428 28.3719 17.3175 31.1015L15.379 54.5815C15.1478 57.383 17.29 59.6629 20.1156 59.6225L529.042 52.3408C531.961 52.299 534.398 49.805 534.337 46.9221L534.038 32.8091Z" fill="#3CC2DD"/>
</svg>
