<svg width="286" height="266" viewBox="0 0 286 266" fill="none" xmlns="http://www.w3.org/2000/svg">
<path opacity="0.15" d="M8.5 74.715C8.5 68.5439 14.0344 63.8457 20.1236 64.8476L255.096 103.51C259.927 104.305 263.472 108.482 263.472 113.378V244.237C263.472 250.569 257.662 255.307 251.46 254.032L16.4877 205.761C11.8376 204.806 8.5 200.713 8.5 195.966V74.715Z" fill="#FB9D50"/>
<path opacity="0.25" d="M282.5 21.273C282.5 15.1043 276.97 10.4067 270.882 11.4047L35.9099 49.928C31.076 50.7205 27.5278 54.8978 27.5278 59.7962V201.171C27.5278 207.5 33.3328 212.237 39.5331 210.968L274.505 162.87C279.159 161.918 282.5 157.824 282.5 153.074V21.273Z" fill="#2A889B"/>
<g clip-path="url(#clip0_476_37500)">
<path d="M142.999 265.675C222.34 265.675 286.659 261.93 286.659 257.311C286.659 252.691 222.34 248.946 142.999 248.946C63.6584 248.946 -0.660156 252.691 -0.660156 257.311C-0.660156 261.93 63.6584 265.675 142.999 265.675Z" fill="#F5F5F5"/>
<path d="M215.721 34.9934C214.143 33.4195 211.105 27.4567 214.017 24.6489C216.929 21.8411 219.522 24.3903 219.722 25.7573C219.922 27.1242 219.389 38.6435 215.721 34.9934Z" fill="#263238"/>
<path d="M215.056 249.485L208.439 249.545L206.639 234.294L213.248 234.235L215.056 249.485Z" fill="#FF8B7B"/>
<path d="M208.43 248.784L215.647 248.717C215.78 248.719 215.909 248.763 216.016 248.843C216.122 248.922 216.201 249.034 216.24 249.161L217.988 255.005C218.035 255.141 218.048 255.286 218.026 255.428C218.004 255.571 217.949 255.705 217.864 255.821C217.778 255.937 217.667 256.031 217.537 256.095C217.408 256.159 217.266 256.19 217.122 256.187C214.521 256.187 210.742 256.047 207.489 256.077C203.666 256.077 201.962 256.343 197.472 256.387C194.76 256.387 193.767 253.683 194.916 253.431C200.006 252.257 202.636 252.101 206.897 249.316C207.345 248.993 207.878 248.808 208.43 248.784Z" fill="#263238"/>
<path opacity="0.2" d="M206.639 234.301L207.572 242.163L214.181 242.104L213.255 234.242L206.639 234.301Z" fill="black"/>
<path d="M205.697 249.958C206.41 249.945 207.12 249.859 207.816 249.699C207.849 249.695 207.879 249.679 207.902 249.655C207.925 249.631 207.939 249.6 207.942 249.566C207.945 249.535 207.938 249.503 207.922 249.475C207.906 249.447 207.882 249.425 207.853 249.411C207.542 249.256 204.763 247.934 204 248.399C203.929 248.444 203.872 248.506 203.833 248.58C203.794 248.654 203.775 248.737 203.778 248.82C203.776 248.962 203.807 249.103 203.869 249.231C203.93 249.359 204.021 249.472 204.133 249.559C204.597 249.859 205.146 249.999 205.697 249.958ZM207.282 249.485C205.852 249.736 204.763 249.685 204.319 249.33C204.242 249.27 204.18 249.192 204.14 249.104C204.1 249.015 204.083 248.917 204.089 248.82C204.084 248.79 204.089 248.759 204.102 248.731C204.116 248.704 204.137 248.681 204.163 248.665C204.578 248.414 206.149 249.005 207.282 249.485Z" fill="#A8E1F0"/>
<path d="M207.785 249.744C207.82 249.742 207.854 249.729 207.882 249.707C207.904 249.691 207.921 249.668 207.93 249.641C207.939 249.615 207.941 249.587 207.934 249.56C207.934 249.441 207.415 246.604 205.844 246.781C205.429 246.826 205.311 247.04 205.288 247.203C205.177 247.941 206.874 249.375 207.719 249.73L207.785 249.744ZM205.977 247.084C206.926 247.084 207.4 248.629 207.563 249.301C206.689 248.813 205.533 247.69 205.6 247.247C205.6 247.247 205.6 247.121 205.881 247.092L205.977 247.084Z" fill="#A8E1F0"/>
<path d="M210.379 68.295L209.698 69.0339L209.061 69.662C208.638 70.0758 208.201 70.4674 207.764 70.8516C206.895 71.6299 206.005 72.3688 205.097 73.0683C203.262 74.522 201.332 75.8501 199.317 77.0435C198.302 77.642 197.257 78.2109 196.198 78.7503C195.138 79.2897 194.02 79.7552 192.893 80.2281C190.584 81.1469 188.178 81.8037 185.721 82.1862L185.173 82.2674C184.817 82.3132 184.458 82.3354 184.098 82.3339C183.273 82.3262 182.457 82.1659 181.69 81.861C180.93 81.5567 180.234 81.1132 179.638 80.5532C179.163 80.1017 178.75 79.5899 178.408 79.0311C177.935 78.2203 177.578 77.3473 177.349 76.4376C177.169 75.7331 177.038 75.0172 176.956 74.2948C176.821 73.046 176.784 71.7885 176.845 70.5339C176.897 69.3369 176.993 68.1842 177.126 67.0537C177.408 64.7853 177.808 62.6204 178.297 60.4037C178.786 58.1871 179.342 56.1403 180.06 53.9976L184.928 54.9581C184.751 59.1107 184.55 63.3667 184.684 67.3862C184.708 69.2527 184.907 71.1129 185.277 72.9427C185.35 73.2807 185.451 73.6119 185.58 73.9328C185.684 74.184 185.81 74.3392 185.803 74.2727C185.76 74.1601 185.691 74.059 185.603 73.9771C185.401 73.7826 185.165 73.6273 184.906 73.519C184.64 73.4074 184.357 73.34 184.069 73.3195C183.935 73.3195 183.876 73.3195 183.795 73.3195H183.876L184.032 73.2752C185.787 72.8256 187.494 72.2069 189.129 71.4279C190.84 70.6046 192.496 69.6716 194.086 68.6349C195.694 67.5709 197.28 66.4183 198.806 65.1991C199.547 64.5932 200.325 63.9578 201.029 63.3149L202.111 62.3396L202.629 61.8593L203.081 61.4308L210.379 68.295Z" fill="#FF8B7B"/>
<path d="M214.298 65.6868C214.046 58.7191 208.311 56.2955 201.124 61.0466C197.956 63.0499 194.905 65.2332 191.988 67.5858L196.634 82.467C196.634 82.467 205.525 79.6518 210.667 74.1249C214.127 70.3714 214.387 68.0586 214.298 65.6868Z" fill="#263238"/>
<path opacity="0.2" d="M205.549 68.6572C205.549 68.6572 201.259 74.7752 199.74 81.2775C201.849 80.3806 203.881 79.313 205.816 78.0855L205.549 68.6572Z" fill="black"/>
<path d="M184.682 57.1676L187.172 51.5595L180.126 49.5054C180.126 49.5054 178.918 52.1875 179.607 56.7908L184.682 57.1676Z" fill="#FF8B7B"/>
<path d="M187.922 44.9834L181.794 45.7149L180.127 49.5054L187.173 51.5595L187.922 44.9834Z" fill="#FF8B7B"/>
<path d="M205.594 116.197C205.594 116.197 201.045 154.22 200.541 174.569C200.022 195.709 204.179 238.35 204.179 238.35L216.115 238.099C216.115 238.099 217.553 192.45 219.286 171.532C221.168 148.73 225.91 115.783 225.91 115.783L205.594 116.197Z" fill="#A8E1F0"/>
<path opacity="0.6" d="M205.594 116.197C205.594 116.197 201.045 154.22 200.541 174.569C200.022 195.709 204.179 238.35 204.179 238.35L216.115 238.099C216.115 238.099 217.553 192.45 219.286 171.532C221.168 148.73 225.91 115.783 225.91 115.783L205.594 116.197Z" fill="white"/>
<path opacity="0.2" d="M219.812 126.963C214.477 138.689 215.907 164.882 218.938 176.114C219.049 174.481 219.167 172.936 219.286 171.51C220.523 156.481 222.99 137.056 224.554 125.551C223.102 123.453 221.479 123.29 219.812 126.963Z" fill="black"/>
<path d="M217.582 238.609L203.549 238.89L202.512 234.242L217.412 234.205L217.582 238.609Z" fill="#A8E1F0"/>
<path d="M244.537 249.485L237.927 249.545L236.127 234.294L242.736 234.235L244.537 249.485Z" fill="#FF8B7B"/>
<path d="M237.913 248.784L245.137 248.717C245.27 248.72 245.399 248.765 245.505 248.844C245.611 248.924 245.69 249.034 245.73 249.161L247.479 255.005C247.523 255.141 247.535 255.286 247.512 255.427C247.49 255.569 247.434 255.703 247.349 255.818C247.265 255.934 247.154 256.027 247.025 256.092C246.897 256.156 246.755 256.189 246.612 256.187C244.004 256.187 240.232 256.047 236.98 256.077C233.156 256.077 231.445 256.343 226.962 256.387C224.25 256.387 223.258 253.683 224.406 253.431C229.489 252.257 232.119 252.101 236.387 249.316C236.833 248.993 237.363 248.809 237.913 248.784Z" fill="#263238"/>
<path opacity="0.2" d="M236.127 234.301L237.053 242.163L243.67 242.104L242.743 234.242L236.127 234.301Z" fill="black"/>
<path d="M235.185 249.959C235.899 249.945 236.609 249.858 237.304 249.7C237.336 249.695 237.366 249.679 237.387 249.655C237.409 249.63 237.422 249.599 237.423 249.567C237.428 249.536 237.422 249.504 237.408 249.476C237.393 249.448 237.37 249.426 237.341 249.412C237.023 249.257 234.244 247.934 233.489 248.4C233.417 248.443 233.358 248.506 233.319 248.58C233.28 248.654 233.262 248.737 233.266 248.821C233.265 248.962 233.295 249.102 233.356 249.23C233.416 249.358 233.504 249.471 233.614 249.56C234.081 249.859 234.632 249.999 235.185 249.959ZM236.771 249.486C235.341 249.737 234.252 249.685 233.807 249.331C233.731 249.27 233.669 249.192 233.628 249.104C233.587 249.015 233.567 248.918 233.57 248.821C233.566 248.79 233.57 248.76 233.584 248.732C233.597 248.704 233.618 248.681 233.644 248.666C234.059 248.414 235.615 249.005 236.771 249.486Z" fill="#A8E1F0"/>
<path d="M237.267 249.744C237.29 249.744 237.312 249.738 237.333 249.728C237.353 249.718 237.371 249.704 237.386 249.686C237.401 249.669 237.412 249.649 237.418 249.627C237.424 249.605 237.426 249.582 237.423 249.56C237.423 249.441 236.904 246.604 235.333 246.781C234.918 246.826 234.8 247.04 234.77 247.203C234.666 247.941 236.363 249.375 237.208 249.73L237.267 249.744ZM235.467 247.084C236.408 247.084 236.889 248.629 237.052 249.301C236.178 248.813 235.015 247.69 235.081 247.247C235.081 247.247 235.081 247.121 235.363 247.092L235.467 247.084Z" fill="#A8E1F0"/>
<path d="M217.24 115.946C217.24 115.946 220.537 156.858 222.945 177.044C225.442 198.044 233.667 238.328 233.667 238.328L245.603 238.077C245.603 238.077 242.328 192.34 241.061 171.385C239.676 148.516 239.32 115.443 239.32 115.443L217.24 115.946Z" fill="#A8E1F0"/>
<path opacity="0.6" d="M217.24 115.946C217.24 115.946 220.537 156.858 222.945 177.044C225.442 198.044 233.667 238.328 233.667 238.328L245.603 238.077C245.603 238.077 242.328 192.34 241.061 171.385C239.676 148.516 239.32 115.443 239.32 115.443L217.24 115.946Z" fill="white"/>
<path d="M247.071 238.609L233.03 238.89L232 234.242L246.9 234.205L247.071 238.609Z" fill="#A8E1F0"/>
<path d="M204.772 59.2219C204.772 59.2219 199.889 77.2951 205.594 116.198C216.249 115.969 234.142 115.555 239.321 115.459C239.455 110.043 235.446 83.487 240.136 57.8845C236.762 57.3035 233.35 56.9726 229.926 56.8944C224.916 56.712 219.898 56.8205 214.9 57.2195C211.477 57.6234 208.091 58.2929 204.772 59.2219Z" fill="#263238"/>
<path opacity="0.2" d="M238.09 76.1053L232.57 71.5464C232.933 75.1078 236.164 83.8341 237.868 88.2526C237.838 84.3809 237.875 80.2948 238.09 76.1053Z" fill="black"/>
<path d="M218.344 69.6989L212.32 81.5876C212.193 81.8372 212.148 82.1207 212.193 82.3971C212.237 82.6736 212.369 82.9288 212.568 83.126C212.768 83.3232 213.025 83.4522 213.302 83.4944C213.58 83.5366 213.864 83.4899 214.113 83.3609L218.047 81.2033C218.261 81.0886 218.503 81.0361 218.745 81.0518C218.988 81.0675 219.221 81.1507 219.418 81.292L223.293 84.0776C223.515 84.2391 223.784 84.3248 224.059 84.3222C224.335 84.3195 224.602 84.2286 224.821 84.0629C225.04 83.8971 225.2 83.6654 225.278 83.4019C225.355 83.1384 225.345 82.8572 225.249 82.5998L220.722 69.9057C220.643 69.6643 220.495 69.4513 220.296 69.2932C220.097 69.1352 219.855 69.0392 219.601 69.0171C219.348 68.995 219.093 69.0479 218.87 69.1692C218.646 69.2904 218.463 69.4746 218.344 69.6989Z" fill="white"/>
<path d="M228.071 40.0176C227.227 44.8647 226.471 53.7166 229.924 56.8568C229.924 56.8568 228.916 61.2458 219.721 62.768C213.542 60.7877 214.898 57.2115 214.898 57.2115C220.262 55.8076 220.032 51.825 219.017 48.101L228.071 40.0176Z" fill="#FF8B7B"/>
<path opacity="0.2" d="M224.382 43.3062L219.018 48.0646C219.267 48.9321 219.441 49.8197 219.536 50.7172C221.596 50.3773 224.375 48.0572 224.545 45.907C224.65 45.0374 224.595 44.156 224.382 43.3062Z" fill="black"/>
<path d="M231.014 34.055C229.228 40.3503 228.509 44.1261 224.568 46.7048C218.64 50.5766 211.372 45.9659 211.231 39.2494C211.098 33.2201 214.032 23.9322 220.863 22.75C222.364 22.4846 223.907 22.6056 225.348 23.1016C226.788 23.5976 228.078 24.4522 229.094 25.5844C230.111 26.7166 230.821 28.0888 231.157 29.5712C231.493 31.0536 231.443 32.5969 231.014 34.055Z" fill="#FF8B7B"/>
<path d="M227.213 37.9121C226.383 35.9023 225.783 29.2818 229.243 27.6563C232.703 26.0307 236.297 29.9986 235.386 31.8753C233.985 34.7866 229.14 42.5671 227.213 37.9121Z" fill="#263238"/>
<path d="M229.28 29.9912C228.428 27.7745 218.27 26.5184 216.847 24.1318C215.158 21.2944 222.086 20.9545 226.85 22.3954C231.036 23.6663 233.83 24.8928 233.341 27.9962C233.066 29.7547 229.28 29.9912 229.28 29.9912Z" fill="#263238"/>
<path d="M231.488 27.7077C231.488 27.7077 233.711 28.3135 234.926 26.688C234.541 28.2988 232.652 29.9243 231.488 27.7077Z" fill="#263238"/>
<path d="M221.315 20.8733C218.262 18.5088 214.106 21.2871 214.499 24.3682C214.891 27.4494 225.183 29.7917 225.183 29.7917C225.183 29.7917 225.368 24.0135 221.315 20.8733Z" fill="#263238"/>
<path d="M214.506 24.383C214.973 26.5405 216.551 28.2326 219.744 29.4887C217.896 28.1257 216.496 26.2457 215.721 24.0874L214.506 24.383Z" fill="#263238"/>
<path d="M220.917 33.7372C220.805 34.2618 220.442 34.6239 220.101 34.55C219.761 34.4761 219.575 33.9884 219.687 33.4712C219.798 32.954 220.168 32.5919 220.509 32.6658C220.85 32.7397 221.035 33.2495 220.917 33.7372Z" fill="#263238"/>
<path d="M215.031 32.4665C214.913 32.9838 214.55 33.3458 214.209 33.2719C213.868 33.198 213.683 32.7178 213.794 32.2005C213.905 31.6833 214.276 31.3213 214.616 31.3878C214.957 31.4543 215.143 31.9493 215.031 32.4665Z" fill="#263238"/>
<path d="M216.849 33.1313C215.882 34.5849 214.717 35.8978 213.389 37.0327C214.13 38.0893 215.782 38.0376 215.782 38.0376L216.849 33.1313Z" fill="#FF5652"/>
<path d="M216.98 39.8036C217.675 39.9759 218.403 39.9779 219.099 39.8093C219.796 39.6408 220.441 39.3067 220.981 38.8356C220.995 38.8212 221.007 38.8039 221.015 38.7849C221.023 38.7659 221.027 38.7454 221.027 38.7248C221.027 38.7041 221.023 38.6837 221.015 38.6647C221.007 38.6456 220.995 38.6284 220.981 38.614C220.951 38.5859 220.911 38.5703 220.87 38.5703C220.828 38.5703 220.789 38.5859 220.758 38.614C220.253 39.0386 219.654 39.3392 219.011 39.4919C218.367 39.6446 217.697 39.645 217.054 39.4932C217.013 39.4844 216.969 39.4923 216.934 39.5152C216.899 39.538 216.874 39.574 216.865 39.6151C216.856 39.6563 216.864 39.6993 216.887 39.7346C216.91 39.7699 216.946 39.7947 216.987 39.8036H216.98Z" fill="#263238"/>
<path d="M223.102 32.2297C223.158 32.2411 223.217 32.2367 223.272 32.2172C223.326 32.1976 223.375 32.1636 223.411 32.1187C223.448 32.0738 223.471 32.0199 223.479 31.9626C223.488 31.9054 223.48 31.847 223.457 31.7938C223.257 31.3387 222.951 30.9378 222.564 30.6242C222.178 30.3107 221.722 30.0936 221.234 29.9909C221.152 29.9803 221.069 30.0021 221.002 30.0518C220.936 30.1015 220.892 30.1751 220.879 30.2569C220.872 30.2972 220.874 30.3383 220.884 30.3779C220.893 30.4175 220.911 30.4549 220.935 30.4878C220.959 30.5208 220.989 30.5486 221.024 30.5699C221.059 30.5911 221.098 30.6053 221.138 30.6116C221.523 30.6958 221.881 30.8706 222.184 31.1212C222.487 31.3719 222.725 31.6912 222.879 32.0524C222.9 32.0971 222.931 32.1364 222.969 32.1672C223.008 32.198 223.053 32.2194 223.102 32.2297Z" fill="#263238"/>
<path d="M212.885 29.8876C212.943 29.9037 213.005 29.9017 213.062 29.8819C213.118 29.8621 213.168 29.8254 213.203 29.7768C213.438 29.4629 213.743 29.2085 214.095 29.0339C214.446 28.8594 214.834 28.7696 215.226 28.7719C215.309 28.7798 215.391 28.7546 215.455 28.7019C215.519 28.6493 215.559 28.5735 215.567 28.4911C215.575 28.4088 215.55 28.3268 215.497 28.2631C215.444 28.1993 215.368 28.1591 215.286 28.1513C214.788 28.1365 214.295 28.2417 213.848 28.4578C213.4 28.6739 213.011 28.9946 212.714 29.3926C212.688 29.4242 212.669 29.4608 212.657 29.5002C212.645 29.5396 212.642 29.5809 212.647 29.6217C212.651 29.6624 212.665 29.7018 212.685 29.7374C212.706 29.7729 212.733 29.8039 212.766 29.8285C212.8 29.8581 212.841 29.8785 212.885 29.8876Z" fill="#263238"/>
<path d="M241.75 62.9233C243.099 65.273 244.225 67.5488 245.396 69.8911C246.566 72.2333 247.618 74.5904 248.619 76.9992C249.619 79.408 250.59 81.8537 251.434 84.3881C252.312 86.9156 253.054 89.4881 253.657 92.0947L254.109 94.1118C254.307 95.0591 254.391 96.0264 254.361 96.9935C254.298 98.7904 253.898 100.56 253.183 102.21C251.925 104.991 250.135 107.501 247.915 109.599C245.934 111.506 243.776 113.221 241.469 114.719C240.35 115.458 239.194 116.138 238.031 116.788C236.867 117.439 235.712 118.037 234.415 118.606L231.955 114.313C232.852 113.574 233.837 112.835 234.756 112.037C235.675 111.239 236.571 110.427 237.46 109.614C239.177 108.025 240.77 106.309 242.224 104.478C243.518 102.909 244.522 101.123 245.188 99.2028C245.417 98.4875 245.508 97.7352 245.455 96.9861C245.433 96.6849 245.376 96.3873 245.284 96.0994L244.781 94.4443C243.283 89.8535 241.502 85.3598 239.446 80.9892C238.431 78.7725 237.349 76.5558 236.267 74.3392C235.186 72.1225 234.045 69.9058 232.941 67.8L241.75 62.9233Z" fill="#FF8B7B"/>
<path d="M240.387 57.9214C246.566 59.2514 250.863 75.3296 250.863 75.3296L239.816 85.3268C236.304 81.43 233.541 76.9215 231.666 72.0268C228.739 63.9803 233.777 56.4879 240.387 57.9214Z" fill="#263238"/>
<path d="M233.295 113.552L226.189 113.626L230.635 120.771C230.635 120.771 235.696 119.522 236.148 116.988L233.295 113.552Z" fill="#FF8B7B"/>
<path d="M221.768 117.845L225.687 123.579L230.599 120.771L226.191 113.626L221.768 117.845Z" fill="#FF8B7B"/>
<path d="M232.957 39.8181C232.168 41.2666 230.836 42.345 229.252 42.818C227.148 43.4313 226.074 41.5619 226.637 39.5743C227.148 37.7862 228.86 35.3109 230.964 35.5695C233.068 35.8281 233.898 38.0374 232.957 39.8181Z" fill="#FF8B7B"/>
<path d="M169.978 162.073L162.078 162.645L162.132 163.381L170.032 162.81L169.978 162.073Z" fill="#A8E1F0"/>
<path d="M177.077 161.563L173.197 161.843L173.251 162.58L177.131 162.299L177.077 161.563Z" fill="#A8E1F0"/>
<path d="M211.165 74.8276L80.3456 84.2337C77.6229 84.4455 75.0938 85.7196 73.3071 87.7793C71.5205 89.8391 70.6205 92.5184 70.8023 95.2357L75.2479 156.726C75.4585 159.445 76.7373 161.972 78.8062 163.755C80.8751 165.539 83.5667 166.436 86.2953 166.25L93.7046 165.718C94.2429 165.68 94.7746 165.856 95.183 166.207C95.5914 166.559 95.8431 167.058 95.8829 167.595L96.7128 178.989C96.7263 179.209 96.8057 179.421 96.9407 179.596C97.0758 179.772 97.2603 179.903 97.4706 179.973C97.6809 180.042 97.9074 180.048 98.1209 179.989C98.3344 179.929 98.5252 179.807 98.6688 179.639L111.072 165.342C111.594 164.743 112.331 164.374 113.124 164.314L217.092 156.844C219.816 156.634 222.347 155.361 224.135 153.301C225.923 151.241 226.825 148.561 226.643 145.842L222.197 84.3519C221.987 81.6354 220.71 79.1114 218.644 77.3282C216.578 75.5449 213.891 74.6463 211.165 74.8276Z" fill="#7FD1E6"/>
<path d="M99.4531 112.46L106.522 111.95L107.1 119.93L114.82 119.376L114.242 111.396L121.34 110.878L122.993 133.681L115.894 134.19L115.228 124.969L107.507 125.531L108.174 134.752L101.113 135.262L99.4531 112.46Z" fill="white"/>
<path opacity="0.2" d="M80.3456 84.2334C77.6229 84.4452 75.0938 85.7193 73.3071 87.779C71.5205 89.8388 70.6205 92.5181 70.8023 95.2355L75.2479 156.726C75.4585 159.445 76.7373 161.971 78.8062 163.755C80.8751 165.539 83.5667 166.435 86.2952 166.25L87.3844 166.169C89.1941 166.038 90.91 165.316 92.2658 164.113C93.6216 162.911 94.5415 161.296 94.8827 159.519L109.783 82.1128L80.3456 84.2334Z" fill="black"/>
<path d="M145.17 125.36L132.441 126.277C132.538 127.099 132.885 127.872 133.434 128.493C133.748 128.824 134.136 129.077 134.565 129.233C134.994 129.39 135.454 129.445 135.908 129.395C136.532 129.35 137.134 129.147 137.657 128.804C138.066 128.495 138.415 128.114 138.687 127.681L144.985 127.806C144.299 129.355 143.187 130.677 141.776 131.619C140.482 132.437 138.571 132.929 136.042 133.097C134.273 133.302 132.482 133.113 130.796 132.542C129.444 131.977 128.284 131.035 127.454 129.831C126.502 128.459 125.956 126.849 125.876 125.183C125.744 124.026 125.856 122.854 126.206 121.743C126.555 120.632 127.135 119.607 127.906 118.733C129.447 117.018 131.67 116.055 134.575 115.844C136.497 115.616 138.447 115.844 140.265 116.509C141.657 117.102 142.83 118.111 143.621 119.398C144.528 120.995 145.036 122.787 145.103 124.622L145.17 125.36ZM138.502 122.789C138.411 121.828 137.996 120.927 137.323 120.233C136.985 119.973 136.596 119.785 136.182 119.681C135.767 119.577 135.336 119.559 134.914 119.628C134.492 119.698 134.089 119.853 133.73 120.084C133.371 120.315 133.063 120.617 132.826 120.971C132.43 121.667 132.231 122.456 132.248 123.255L138.502 122.789Z" fill="white"/>
<path d="M147.133 109.024L153.497 108.565L155.15 131.36L148.785 131.818L147.133 109.024Z" fill="white"/>
<path d="M157.766 108.255L164.13 107.797L165.783 130.592L159.425 131.05L157.766 108.255Z" fill="white"/>
<path d="M168.464 122.146C168.344 120.99 168.469 119.821 168.832 118.716C169.194 117.611 169.786 116.595 170.568 115.733C172.154 113.974 174.399 112.989 177.304 112.777C180.613 112.541 183.187 113.319 185.024 115.112C186.55 116.717 187.432 118.825 187.502 121.036C187.571 123.247 186.824 125.407 185.402 127.104C183.831 128.848 181.554 129.833 178.571 130.06C176.253 130.337 173.912 129.787 171.961 128.508C170.924 127.79 170.068 126.842 169.462 125.738C168.855 124.634 168.513 123.404 168.464 122.146ZM174.829 121.673C174.817 122.84 175.218 123.973 175.962 124.873C176.263 125.179 176.626 125.417 177.027 125.569C177.429 125.722 177.858 125.786 178.287 125.756C178.715 125.727 179.132 125.605 179.509 125.398C179.885 125.192 180.212 124.907 180.467 124.562C181.066 123.534 181.291 122.331 181.105 121.156C181.112 120.013 180.716 118.904 179.986 118.023C179.7 117.711 179.347 117.469 178.952 117.315C178.558 117.161 178.133 117.1 177.711 117.137C177.271 117.157 176.842 117.278 176.456 117.491C176.071 117.704 175.739 118.002 175.488 118.363C174.891 119.357 174.668 120.53 174.858 121.673H174.829Z" fill="white"/>
<path d="M189.508 105.964L196.287 105.477L196.665 110.649L196.11 121.178L191.916 121.481L189.878 111.136L189.508 105.964ZM190.99 123.166L197.317 122.707L197.725 128.293L191.39 128.744L190.99 123.166Z" fill="white"/>
<path d="M78.5383 63.9877C78.5051 65.0693 78.5621 66.1518 78.7087 67.2241C71.9948 69.46 64.8346 70.0256 57.8515 68.8718C58.1867 67.6079 58.3903 66.3129 58.459 65.0074C58.2254 66.322 57.7668 67.5867 57.1031 68.7462C55.7843 68.4949 55.0433 68.2807 55.0433 68.2807C55.0433 68.2807 56.3918 61.01 53.9616 55.7196C51.5313 50.4291 52.7464 47.4736 54.5839 46.6386C57.9922 36.1907 70.803 37.8384 75.1374 42.0797C80.6351 47.4588 80.6648 62.6134 81.6428 66.0788C80.8352 66.4261 80.0424 66.7438 79.2496 67.0246C78.8525 66.0563 78.6124 65.0312 78.5383 63.9877Z" fill="#263238"/>
<path d="M83.8363 80.2505L84.5031 82.3563C84.7476 83.0952 84.9921 83.8341 85.244 84.5361C85.7405 86.0138 86.2591 87.4916 86.8148 88.9103C87.3705 90.3289 87.904 91.8215 88.4819 93.2697L89.3414 95.4864L89.5563 96.0332L89.6081 96.1588C89.5165 96.0788 89.4111 96.0162 89.2969 95.9741C89.1339 95.9149 89.0672 95.9741 89.171 95.9741C89.3494 95.9733 89.5267 95.9459 89.697 95.8928C90.2764 95.7097 90.8332 95.4618 91.3567 95.1539C92.6203 94.4196 93.8287 93.5949 94.9725 92.686C96.1728 91.755 97.3509 90.7575 98.5067 89.7304C99.6626 88.7034 100.826 87.632 101.945 86.5828L104.219 88.5039C103.271 89.8634 102.271 91.1048 101.256 92.3683C100.241 93.6318 99.0995 94.814 97.9288 95.9888C96.7237 97.2153 95.4121 98.333 94.0093 99.3286C93.2066 99.8894 92.3444 100.36 91.4382 100.733C90.8631 100.963 90.2603 101.117 89.6452 101.191C88.8102 101.294 87.9625 101.18 87.1853 100.858C86.3381 100.498 85.6163 99.8966 85.1107 99.1291C84.9995 98.9592 84.8958 98.7892 84.8143 98.6341L84.6142 98.2351L84.3475 97.6957C83.9993 96.9568 83.6066 96.2179 83.3028 95.5233C82.6285 94.0456 81.9543 92.5678 81.3393 91.09C80.7243 89.6122 80.1242 88.0901 79.5537 86.568C79.2869 85.8291 79.0202 85.0237 78.7683 84.2479C78.5164 83.472 78.2719 82.711 78.0273 81.8022L83.8363 80.2505Z" fill="#FFC3BD"/>
<path d="M82.0806 73.6891C84.6368 74.3393 86.4224 84.8167 86.4224 84.8167L79.3836 89.59C79.3836 89.59 72.6411 79.0165 74.6046 76.2161C76.6495 73.3048 78.3537 72.7433 82.0806 73.6891Z" fill="#A8E1F0"/>
<path d="M82.0806 73.6891C84.6368 74.3393 86.4224 84.8167 86.4224 84.8167L79.3836 89.59C79.3836 89.59 72.6411 79.0165 74.6046 76.2161C76.6495 73.3048 78.3537 72.7433 82.0806 73.6891Z" fill="#A8E1F0"/>
<path opacity="0.4" d="M82.0806 73.6891C84.6368 74.3393 86.4224 84.8167 86.4224 84.8167L79.3836 89.59C79.3836 89.59 72.6411 79.0165 74.6046 76.2161C76.6495 73.3048 78.3537 72.7433 82.0806 73.6891Z" fill="white"/>
<path opacity="0.3" d="M81.8505 76.0312L83.814 86.59L79.8574 89.2647L81.8505 76.0312Z" fill="black"/>
<path d="M101.826 86.8341L104.175 81.189L107.072 86.8341C107.072 86.8341 105.19 89.6418 102.708 88.9547L101.826 86.8341Z" fill="#FFC3BD"/>
<path d="M106.761 80.6055L110.481 82.098L107.072 86.8343L104.168 81.1892L106.761 80.6055Z" fill="#FFC3BD"/>
<path d="M68.2617 250.077H74.4633L74.8782 235.765H68.6766L68.2617 250.077Z" fill="#FFC3BD"/>
<path d="M26.6797 231.642L32.3775 234.065L39.8386 221.681L34.1335 219.258L26.6797 231.642Z" fill="#FFC3BD"/>
<path d="M33.4753 233.223L27.5479 229.588C27.4465 229.523 27.3247 229.497 27.2057 229.516C27.0868 229.536 26.9791 229.598 26.9033 229.691L23.3394 233.955C23.2507 234.066 23.187 234.195 23.1526 234.333C23.1181 234.472 23.1138 234.616 23.1397 234.756C23.1657 234.896 23.2214 235.028 23.3031 235.145C23.3849 235.262 23.4907 235.36 23.6135 235.432C25.703 236.666 26.7699 237.154 29.378 238.75C30.9858 239.74 33.2234 241.336 35.4388 242.696C37.6542 244.055 39.1435 241.957 38.321 241.181C34.7275 237.76 34.8312 236.134 34.157 234.11C34.0449 233.742 33.8027 233.427 33.4753 233.223Z" fill="#263238"/>
<path d="M74.6717 249.36H67.7144C67.5946 249.359 67.4783 249.4 67.3871 249.478C67.2959 249.555 67.2358 249.663 67.2179 249.781L66.4251 255.278C66.4058 255.419 66.4174 255.563 66.4591 255.699C66.5008 255.835 66.5717 255.961 66.6668 256.067C66.7619 256.173 66.879 256.257 67.01 256.314C67.141 256.37 67.2827 256.398 67.4254 256.394C69.8556 256.357 71.0263 256.209 74.0938 256.209C75.9758 256.209 79.8731 256.409 82.4737 256.409C85.0744 256.409 85.2078 253.845 84.126 253.608C79.2729 252.567 77.3613 251.133 75.7238 249.766C75.4339 249.509 75.0601 249.364 74.6717 249.36Z" fill="#263238"/>
<path opacity="0.2" d="M74.872 235.772L74.6645 243.146H68.4629L68.6778 235.772H74.872Z" fill="black"/>
<path opacity="0.2" d="M34.1345 219.266L39.8323 221.682L35.9868 228.066L30.2891 225.642L34.1345 219.266Z" fill="black"/>
<path d="M82.0796 73.6893C82.0796 73.6893 85.0433 74.7238 79.1158 110.981H53.9241C54.3464 100.77 54.3613 94.4743 49.4785 73.512C53.001 72.786 56.5719 72.3168 60.1628 72.1081C63.9687 71.8344 67.7894 71.8344 71.5954 72.1081C76.5152 72.5514 82.0796 73.6893 82.0796 73.6893Z" fill="#A8E1F0"/>
<path opacity="0.4" d="M82.0796 73.6893C82.0796 73.6893 85.0433 74.7238 79.1158 110.981H53.9241C54.3464 100.77 54.3613 94.4743 49.4785 73.512C53.001 72.786 56.5719 72.3168 60.1628 72.1081C63.9687 71.8344 67.7894 71.8344 71.5954 72.1081C76.5152 72.5514 82.0796 73.6893 82.0796 73.6893Z" fill="white"/>
<path d="M60.1781 72.1007C63.9843 71.8343 67.8045 71.8343 71.6107 72.1007C72.2257 72.1598 72.8555 72.2263 73.4779 72.3002C73.7369 72.6885 73.9031 73.131 73.9634 73.5935C74.0238 74.056 73.9768 74.5261 73.8261 74.9676C73.0185 76.9552 70.1214 77.1843 68.0172 77.1843C60.23 77.1843 58.9111 72.6475 58.8593 72.4554L58.7852 72.182L60.1781 72.1007Z" fill="white"/>
<path d="M61.3114 59.2734C62.0523 62.9679 62.7562 69.6622 60.1777 72.1079C60.1777 72.1079 61.1854 75.8024 68.0168 75.8024C75.5299 75.8024 71.6103 72.1079 71.6103 72.1079C67.5056 71.1326 67.6167 68.0958 68.328 65.251L61.3114 59.2734Z" fill="#FFC3BD"/>
<path d="M62.06 56.665C61.1783 59.5689 62.4008 66.4405 64.2161 69.1005C60.6374 67.0538 59.4297 60.8176 59.4297 60.8176L62.06 56.665Z" fill="#263238"/>
<path opacity="0.2" d="M64.1718 61.7119L68.3284 65.2438C68.1461 65.9059 68.027 66.5838 67.9728 67.2683C66.4094 67.0393 64.2681 65.3251 64.0903 63.6921C63.9982 63.0325 64.0259 62.3618 64.1718 61.7119Z" fill="black"/>
<path d="M57.9184 52.7269C59.3558 58.6898 59.83 61.2463 63.431 63.8103C68.8472 67.6599 75.8786 64.6009 76.2565 58.3277C76.5973 52.6826 74.1967 43.8825 67.8617 42.5229C66.466 42.2156 65.0146 42.2691 63.6453 42.6783C62.2761 43.0876 61.0345 43.839 60.0383 44.8613C59.0421 45.8836 58.3245 47.1428 57.9535 48.5194C57.5825 49.896 57.5704 51.3444 57.9184 52.7269Z" fill="#FFC3BD"/>
<path d="M79.1246 110.981C79.1246 110.981 84.0074 158.58 83.5702 177.422C83.1479 197.017 75.946 241.705 75.946 241.705H67.5735C67.5735 241.705 68.8997 198.148 68.1588 178.9C67.3512 157.915 60.668 110.966 60.668 110.966L79.1246 110.981Z" fill="#A8E1F0"/>
<path opacity="0.4" d="M79.1246 110.981C79.1246 110.981 84.0074 158.58 83.5702 177.422C83.1479 197.017 75.946 241.705 75.946 241.705H67.5735C67.5735 241.705 68.8997 198.148 68.1588 178.9C67.3512 157.915 60.668 110.966 60.668 110.966L79.1246 110.981Z" fill="black"/>
<path d="M66.8773 242.016H76.7021L77.4282 238.89L66.418 238.506L66.8773 242.016Z" fill="#A8E1F0"/>
<path opacity="0.2" d="M68.2689 122.825C74.4483 135.224 69.5063 157.841 67.3205 166.257C66.2017 153.622 64.3123 138.18 62.8379 126.823C63.7715 120.439 65.4163 117.106 68.2689 122.825Z" fill="black"/>
<path d="M72.4783 110.981C72.4783 110.981 66.7731 160.487 62.4683 176.35C57.3633 195.214 37.9286 227.334 37.9286 227.334L30.1562 224.038C30.1562 224.038 42.1816 187.567 46.0937 177.629C54.4292 156.423 47.294 124.82 53.955 110.981H72.4783Z" fill="#A8E1F0"/>
<path opacity="0.4" d="M72.4783 110.981C72.4783 110.981 66.7731 160.487 62.4683 176.35C57.3633 195.214 37.9286 227.334 37.9286 227.334L30.1562 224.038C30.1562 224.038 42.1816 187.567 46.0937 177.629C54.4292 156.423 47.294 124.82 53.955 110.981H72.4783Z" fill="black"/>
<path d="M29.082 224.06L38.729 228.154L41.0481 225.568L29.9193 220.24L29.082 224.06Z" fill="#A8E1F0"/>
<path d="M67.4244 52.8087C67.5134 53.2963 67.8394 53.651 68.1654 53.5919C68.4914 53.5328 68.6766 53.0894 68.5877 52.6018C68.4988 52.1141 68.1728 51.7594 67.8468 51.8112C67.5208 51.8629 67.2985 52.3136 67.4244 52.8087Z" fill="#263238"/>
<path d="M72.9514 51.8331C73.0329 52.3207 73.3663 52.6754 73.6923 52.6163C74.0183 52.5572 74.211 52.1138 74.122 51.6262C74.0331 51.1385 73.7071 50.7839 73.3811 50.8356C73.0551 50.8873 72.8625 51.338 72.9514 51.8331Z" fill="#263238"/>
<path d="M73.2402 50.8945L74.359 50.3403C74.359 50.3403 73.9145 51.3674 73.2402 50.8945Z" fill="#263238"/>
<path d="M71.625 52.9341C72.2611 53.9769 73.0391 54.9268 73.9367 55.7566C73.7168 55.9786 73.4512 56.1504 73.1583 56.2601C72.8654 56.3698 72.552 56.4148 72.24 56.3921L71.625 52.9341Z" fill="#ED847E"/>
<path d="M70.0107 58.7048C70.2914 58.7042 70.5715 58.6795 70.8479 58.6309C70.8691 58.63 70.8898 58.6247 70.9087 58.6151C70.9276 58.6056 70.9443 58.5922 70.9575 58.5757C70.9708 58.5593 70.9803 58.5402 70.9856 58.5197C70.9908 58.4992 70.9916 58.4779 70.9878 58.4571C70.9841 58.4363 70.9759 58.4166 70.9639 58.3992C70.9518 58.3818 70.9362 58.3672 70.918 58.3564C70.8999 58.3456 70.8796 58.3387 70.8585 58.3364C70.8375 58.334 70.8162 58.3362 70.7961 58.3427C70.1859 58.464 69.5557 58.4395 68.9569 58.2712C68.358 58.103 67.8077 57.7958 67.3507 57.3748C67.323 57.3477 67.2858 57.3325 67.247 57.3325C67.2082 57.3325 67.171 57.3477 67.1433 57.3748C67.1289 57.3879 67.1174 57.4039 67.1096 57.4217C67.1017 57.4395 67.0977 57.4587 67.0977 57.4782C67.0977 57.4977 67.1017 57.5169 67.1096 57.5347C67.1174 57.5525 67.1289 57.5685 67.1433 57.5816C67.9166 58.3131 68.9449 58.7158 70.0107 58.7048Z" fill="#263238"/>
<path d="M60.015 49.2319C60.177 50.8031 60.4243 52.3645 60.7559 53.909C60.7559 53.909 64.4606 49.2319 65.0755 46.727C64.9285 47.7132 64.6416 48.6735 64.2235 49.5791C64.2235 49.5791 69.2099 48.493 69.699 45.2123C69.6905 46.681 69.5266 48.1447 69.2099 49.5791C69.2099 49.5791 73.9667 47.7171 73.5296 44.5695C73.0924 41.4218 65.7868 40.2026 62.4156 41.2666C59.0443 42.3306 55.7472 45.7812 56.74 50.5249C57.7329 55.2686 59.6371 57.0493 59.6371 57.0493C59.6371 57.0493 58.2664 52.2687 60.015 49.2319Z" fill="#263238"/>
<path d="M57.66 57.2196C58.1173 58.3141 58.9913 59.1831 60.0902 59.6358C61.5721 60.2269 62.4538 58.9634 62.1945 57.5004C61.9648 56.1778 60.9201 54.2862 59.3864 54.3158C59.0507 54.3306 58.7241 54.4285 58.436 54.6008C58.1479 54.773 57.9073 55.0141 57.7359 55.3023C57.5646 55.5904 57.468 55.9166 57.4547 56.2513C57.4414 56.5861 57.512 56.9189 57.66 57.2196Z" fill="#FFC3BD"/>
<path d="M60.9119 46.9565C60.1709 49.9121 61.7121 56.7099 63.6533 59.2738C59.9487 57.4044 58.4668 51.2273 58.4668 51.2273L60.9119 46.9565Z" fill="#263238"/>
<path d="M65.3959 51.1234C65.434 51.1119 65.4693 51.0929 65.4999 51.0675C65.5304 51.0421 65.5555 51.0108 65.5737 50.9756C65.7299 50.6423 65.9631 50.3506 66.2542 50.1246C66.5453 49.8985 66.8859 49.7445 67.2482 49.6751C67.3249 49.6641 67.3944 49.6243 67.4426 49.5639C67.4908 49.5035 67.514 49.427 67.5076 49.35C67.5039 49.3114 67.4925 49.2739 67.474 49.2398C67.4554 49.2057 67.4302 49.1757 67.3998 49.1515C67.3693 49.1274 67.3343 49.1096 67.2968 49.0993C67.2593 49.0889 67.2201 49.0863 67.1816 49.0914C66.7219 49.1709 66.2881 49.3594 65.9168 49.641C65.5454 49.9226 65.2473 50.2891 65.0477 50.7096C65.0225 50.761 65.0128 50.8185 65.0198 50.8753C65.0267 50.932 65.0501 50.9855 65.0869 51.0293C65.1238 51.0731 65.1726 51.1053 65.2274 51.122C65.2823 51.1387 65.3408 51.1392 65.3959 51.1234Z" fill="#263238"/>
<path d="M74.9742 48.8332C75.0114 48.8347 75.0486 48.8283 75.0831 48.8143C75.1176 48.8003 75.1487 48.779 75.1743 48.7519C75.2286 48.6966 75.259 48.6224 75.259 48.545C75.259 48.4676 75.2286 48.3934 75.1743 48.3381C74.8583 47.9971 74.4663 47.7351 74.0299 47.5734C73.5935 47.4116 73.1251 47.3547 72.6625 47.4071C72.624 47.4142 72.5873 47.4288 72.5544 47.4502C72.5216 47.4715 72.4934 47.4991 72.4713 47.5314C72.4493 47.5637 72.4339 47.6 72.426 47.6383C72.4181 47.6766 72.4179 47.716 72.4254 47.7544C72.4415 47.8291 72.486 47.8947 72.5495 47.9374C72.6131 47.9801 72.6908 47.9966 72.7662 47.9834C73.131 47.9428 73.5003 47.9885 73.844 48.1169C74.1877 48.2453 74.4963 48.4527 74.7445 48.7223C74.7721 48.7567 74.8071 48.7845 74.8468 48.8037C74.8865 48.8228 74.9301 48.8329 74.9742 48.8332Z" fill="#263238"/>
<path d="M52.5535 82.2824C51.5236 85.5261 50.5381 88.9324 49.7009 92.287C48.8581 95.5985 48.2417 98.9632 47.8559 102.358L47.7967 102.979C47.7967 103.178 47.7967 103.223 47.7967 103.4C47.8049 103.748 47.8321 104.096 47.8782 104.442C47.9725 105.251 48.1086 106.055 48.2857 106.85C48.6339 108.498 49.0266 110.198 49.5305 111.882C50.0343 113.567 50.464 115.281 50.9679 116.981L52.4497 122.079L49.7009 123.209C48.0115 119.988 46.5445 116.707 45.1738 113.323C44.5143 111.624 43.8697 109.909 43.3363 108.099C43.0695 107.198 42.8176 106.274 42.5953 105.269C42.4898 104.737 42.4156 104.199 42.373 103.658C42.373 103.385 42.373 102.979 42.373 102.735V101.996C42.4359 100.113 42.609 98.2356 42.8917 96.373C43.1362 94.5258 43.4993 92.7229 43.892 90.9274C44.6629 87.3314 45.6526 83.7856 46.8557 80.3096L52.5535 82.2824Z" fill="#FFC3BD"/>
<path d="M49.4949 73.5122C46.9757 74.2511 43.9453 82.933 43.9453 82.933L53.7256 89.9081C53.7256 89.9081 57.2969 82.6818 56.2374 79.4307C55.1334 76.0466 52.3771 72.6403 49.4949 73.5122Z" fill="#A8E1F0"/>
<path opacity="0.4" d="M49.4949 73.5122C46.9757 74.2511 43.9453 82.933 43.9453 82.933L53.7256 89.9081C53.7256 89.9081 57.2969 82.6818 56.2374 79.4307C55.1334 76.0466 52.3771 72.6403 49.4949 73.5122Z" fill="white"/>
<path d="M35.9798 235.573C36.1003 235.53 36.2099 235.462 36.3009 235.373C36.3918 235.283 36.4618 235.175 36.5059 235.055C36.5487 234.979 36.5712 234.892 36.5712 234.804C36.5712 234.716 36.5487 234.63 36.5059 234.553C36.0613 233.903 33.8163 233.955 33.5422 233.962C33.5137 233.962 33.4861 233.971 33.4624 233.987C33.4388 234.002 33.4201 234.025 33.4088 234.051C33.3944 234.074 33.3867 234.101 33.3867 234.128C33.3867 234.156 33.3944 234.182 33.4088 234.206C33.9941 234.789 35.0907 235.743 35.8613 235.595L35.9798 235.573ZM33.8978 234.228C34.7943 234.228 35.9946 234.354 36.2317 234.701C36.252 234.734 36.2627 234.773 36.2627 234.812C36.2627 234.851 36.252 234.889 36.2317 234.922C36.199 235.012 36.1446 235.091 36.0735 235.155C36.0024 235.218 35.9168 235.262 35.8242 235.285C35.4167 235.388 34.7054 234.967 33.8978 234.228Z" fill="#A8E1F0"/>
<path d="M34.5574 234.072C35.239 233.858 35.9651 233.481 36.1207 233.06C36.1594 232.951 36.1599 232.831 36.1223 232.721C36.0847 232.611 36.0111 232.517 35.9133 232.454C35.827 232.382 35.7254 232.331 35.6163 232.304C35.5072 232.277 35.3934 232.276 35.2835 232.299C34.4018 232.454 33.4534 233.962 33.4163 234.028C33.4033 234.051 33.3965 234.076 33.3965 234.102C33.3965 234.128 33.4033 234.153 33.4163 234.176C33.4297 234.197 33.4481 234.216 33.4701 234.228C33.492 234.241 33.5168 234.249 33.5423 234.25C33.8875 234.24 34.2294 234.18 34.5574 234.072ZM35.239 232.595H35.3354C35.405 232.58 35.477 232.581 35.5462 232.598C35.6154 232.614 35.68 232.646 35.7355 232.691C35.8836 232.809 35.8688 232.898 35.8466 232.964C35.6984 233.37 34.5722 233.858 33.8239 233.954C34.1643 233.386 34.6536 232.921 35.239 232.609V232.595Z" fill="#A8E1F0"/>
<path d="M76.9982 250.439C77.5205 250.482 78.0421 250.349 78.4801 250.062C78.5819 249.97 78.6595 249.855 78.706 249.726C78.7525 249.597 78.7665 249.459 78.7468 249.323C78.741 249.243 78.7148 249.166 78.6708 249.099C78.6267 249.032 78.5662 248.977 78.4949 248.939C77.754 248.525 75.2719 249.782 74.9903 249.922C74.9631 249.933 74.9399 249.952 74.9235 249.976C74.9072 250.001 74.8984 250.029 74.8984 250.059C74.8984 250.088 74.9072 250.117 74.9235 250.141C74.9399 250.165 74.9631 250.184 74.9903 250.195C75.6497 250.344 76.3224 250.426 76.9982 250.439ZM78.1022 249.161C78.1965 249.155 78.2908 249.173 78.3764 249.213C78.4056 249.229 78.43 249.252 78.4469 249.281C78.4639 249.309 78.4728 249.342 78.4727 249.375C78.4865 249.46 78.4788 249.547 78.4504 249.628C78.4219 249.71 78.3736 249.783 78.3097 249.841C77.9318 250.181 76.9093 250.24 75.5386 250.011C76.3387 249.585 77.2056 249.297 78.1022 249.161Z" fill="#A8E1F0"/>
<path d="M75.078 250.225H75.1372C75.8782 249.892 77.36 248.562 77.2267 247.86C77.2267 247.69 77.0785 247.491 76.671 247.447C76.5251 247.43 76.3774 247.444 76.2372 247.487C76.097 247.531 75.9672 247.602 75.856 247.698C75.115 248.348 74.9372 250.01 74.9298 250.077C74.9288 250.103 74.9345 250.129 74.9461 250.152C74.9578 250.175 74.9751 250.195 74.9965 250.21C75.0207 250.225 75.0499 250.23 75.078 250.225ZM76.5598 247.72H76.6487C76.9155 247.72 76.9377 247.86 76.9377 247.89C77.0118 248.311 76.019 249.368 75.2632 249.818C75.3225 249.116 75.5996 248.45 76.056 247.912C76.1919 247.789 76.3688 247.72 76.5524 247.72H76.5598Z" fill="#A8E1F0"/>
<path d="M53.576 109.511L52.9388 111.728C52.8499 111.898 53.0573 112.075 53.3463 112.075H79.2789C79.5086 112.075 79.6939 111.964 79.7087 111.824L79.9384 109.607C79.9384 109.452 79.7531 109.319 79.5086 109.319H53.9909C53.911 109.313 53.8309 109.327 53.7582 109.361C53.6855 109.394 53.6228 109.446 53.576 109.511Z" fill="#263238"/>
<path d="M56.9992 112.348H56.3101C56.1768 112.348 56.073 112.281 56.0805 112.193L56.399 109.237C56.399 109.156 56.5324 109.082 56.6658 109.082H57.3474C57.4882 109.082 57.5845 109.156 57.5771 109.237L57.2585 112.193C57.2585 112.311 57.14 112.348 56.9992 112.348Z" fill="#A8E1F0"/>
<path opacity="0.4" d="M56.9992 112.348H56.3101C56.1768 112.348 56.073 112.281 56.0805 112.193L56.399 109.237C56.399 109.156 56.5324 109.082 56.6658 109.082H57.3474C57.4882 109.082 57.5845 109.156 57.5771 109.237L57.2585 112.193C57.2585 112.311 57.14 112.348 56.9992 112.348Z" fill="black"/>
<path d="M77.3238 112.348H76.6422C76.5088 112.348 76.4051 112.281 76.4125 112.193L76.7385 109.237C76.7385 109.156 76.8644 109.082 76.9978 109.082H77.6795C77.8202 109.082 77.924 109.156 77.9092 109.237L77.5906 112.193C77.5831 112.311 77.4646 112.348 77.3238 112.348Z" fill="#A8E1F0"/>
<path opacity="0.4" d="M77.3238 112.348H76.6422C76.5088 112.348 76.4051 112.281 76.4125 112.193L76.7385 109.237C76.7385 109.156 76.8644 109.082 76.9978 109.082H77.6795C77.8202 109.082 77.924 109.156 77.9092 109.237L77.5906 112.193C77.5831 112.311 77.4646 112.348 77.3238 112.348Z" fill="black"/>
<path d="M67.1647 112.348H66.4831C66.3423 112.348 66.2385 112.281 66.2534 112.193L66.572 109.237C66.572 109.156 66.6979 109.082 66.8387 109.082H67.5204C67.6537 109.082 67.7575 109.156 67.7501 109.237L67.4314 112.193C67.424 112.311 67.2981 112.348 67.1647 112.348Z" fill="#A8E1F0"/>
<path opacity="0.4" d="M67.1647 112.348H66.4831C66.3423 112.348 66.2385 112.281 66.2534 112.193L66.572 109.237C66.572 109.156 66.6979 109.082 66.8387 109.082H67.5204C67.6537 109.082 67.7575 109.156 67.7501 109.237L67.4314 112.193C67.424 112.311 67.2981 112.348 67.1647 112.348Z" fill="black"/>
<path d="M67.6758 51.8627L68.7946 51.3159C68.7946 51.3159 68.35 52.343 67.6758 51.8627Z" fill="#263238"/>
<path d="M52.2423 121.244L57.5548 125.308L51.3976 126.66C51.3976 126.66 48.7821 123.705 49.6861 121.266L52.2423 121.244Z" fill="#FFC3BD"/>
<path d="M58.8602 130.34L53.644 131.19L50.7988 125.855L57.5561 125.308L58.8602 130.34Z" fill="#FFC3BD"/>
</g>
<defs>
<clipPath id="clip0_476_37500">
<rect width="286" height="266" fill="white"/>
</clipPath>
</defs>
</svg>
