<svg width="275" height="248" viewBox="0 0 275 248" fill="none" xmlns="http://www.w3.org/2000/svg">
<path opacity="0.15" d="M274.5 65.715C274.5 59.5439 268.966 54.8457 262.876 55.8476L27.9042 94.5104C23.0729 95.3054 19.5278 99.4815 19.5278 104.378V235.237C19.5278 241.569 25.3378 246.307 31.5401 245.032L266.512 196.761C271.162 195.806 274.5 191.713 274.5 186.966V65.715Z" fill="#FB9D50"/>
<path opacity="0.25" d="M0.5 12.273C0.5 6.10431 6.03047 1.40671 12.1179 2.40473L247.09 40.928C251.924 41.7205 255.472 45.8978 255.472 50.7962V192.171C255.472 198.5 249.667 203.237 243.467 201.968L8.49466 153.87C3.84128 152.918 0.5 148.824 0.5 144.074V12.273Z" fill="#2A889B"/>
<g clip-path="url(#clip0_476_36250)">
<path d="M142.25 238.13C211.117 238.13 266.945 234.867 266.945 230.842C266.945 226.817 211.117 223.555 142.25 223.555C73.3826 223.555 17.5547 226.817 17.5547 230.842C17.5547 234.867 73.3826 238.13 142.25 238.13Z" fill="#F5F5F5"/>
<path d="M153.182 45.8503V54.2903C153.18 54.8857 152.943 55.4562 152.523 55.8772C152.102 56.2982 151.532 56.5354 150.938 56.5371H130.248C129.654 56.5354 129.084 56.2982 128.663 55.8772C128.243 55.4562 128.006 54.8857 128.004 54.2903V23.6911C128.009 23.098 128.247 22.5308 128.668 22.1126C129.088 21.6943 129.656 21.4589 130.248 21.4572H150.905C151.202 21.4538 151.496 21.5089 151.77 21.6194C152.045 21.7299 152.295 21.8936 152.507 22.1012C152.718 22.3087 152.887 22.556 153.003 22.8288C153.119 23.1016 153.18 23.3947 153.182 23.6911V37.0433" fill="white"/>
<path d="M150.905 56.9034H130.248C129.566 56.9034 128.912 56.632 128.429 56.1491C127.947 55.6662 127.676 55.0112 127.676 54.3282V23.6904C127.676 23.0074 127.947 22.3524 128.429 21.8695C128.912 21.3865 129.566 21.1152 130.248 21.1152H150.905C151.588 21.1152 152.242 21.3865 152.724 21.8695C153.207 22.3524 153.478 23.0074 153.478 23.6904V37.0425H152.796V23.6904C152.796 23.1782 152.593 22.6869 152.231 22.3247C151.869 21.9625 151.378 21.759 150.867 21.759H130.248C129.737 21.759 129.246 21.9625 128.884 22.3247C128.522 22.6869 128.319 23.1782 128.319 23.6904V54.2896C128.319 54.8018 128.522 55.2931 128.884 55.6553C129.246 56.0175 129.737 56.2209 130.248 56.2209H150.905C151.417 56.2209 151.908 56.0175 152.27 55.6553C152.631 55.2931 152.835 54.8018 152.835 54.2896V45.8495H153.516V54.2896C153.522 54.6343 153.458 54.9765 153.328 55.296C153.199 55.6154 153.007 55.9056 152.763 56.1494C152.52 56.3932 152.23 56.5855 151.911 56.715C151.592 56.8445 151.25 56.9086 150.905 56.9034Z" fill="#A8E1F0"/>
<path d="M139.033 52.3576C139.457 52.0919 139.897 51.8532 140.351 51.643C140.561 51.5479 140.776 51.464 140.994 51.3919C141.236 51.2932 141.493 51.2345 141.753 51.2181L141.49 51.07C141.445 50.9992 141.419 51.1795 141.406 51.2246L141.316 51.4499C141.24 51.6094 141.186 51.7782 141.155 51.952C141.138 52.0139 141.137 52.0789 141.151 52.1416C141.164 52.2042 141.193 52.2627 141.234 52.3119C141.275 52.3612 141.327 52.3999 141.386 52.4246C141.445 52.4494 141.509 52.4595 141.573 52.4542C142.248 52.3333 142.892 52.0818 143.47 51.7138H143.233C143.303 51.7138 143.387 51.8104 143.458 51.8361C143.563 51.8742 143.674 51.8959 143.786 51.9005C144.036 51.9005 144.287 51.8619 144.538 51.9005C144.93 51.9391 144.924 51.3276 144.538 51.2954C144.274 51.2954 143.998 51.3533 143.741 51.2954C143.483 51.2374 143.406 51.0572 143.136 51.1795C142.866 51.3018 142.647 51.4627 142.384 51.5722C142.262 51.624 142.137 51.6691 142.011 51.7074L141.766 51.7782C141.695 51.7782 141.567 51.7782 141.67 51.8812L141.76 52.0937C141.76 51.6816 142.197 51.2954 142.081 50.8705C141.966 50.4456 141.438 50.6323 141.123 50.7095C140.269 50.9574 139.456 51.3305 138.711 51.8168C138.641 51.857 138.59 51.9232 138.569 52.0011C138.548 52.079 138.559 52.1621 138.599 52.2321C138.639 52.3021 138.705 52.3533 138.783 52.3744C138.861 52.3955 138.944 52.3849 139.014 52.3447L139.033 52.3576Z" fill="#E0E0E0"/>
<path d="M150.753 26.0215H130.398V26.6975H150.753V26.0215Z" fill="#E0E0E0"/>
<path d="M148.451 30.8164H130.398V31.4924H148.451V30.8164Z" fill="#E0E0E0"/>
<path d="M150.753 35.6191H130.398V36.2951H150.753V35.6191Z" fill="#E0E0E0"/>
<path d="M135.994 40.4219H130.398V41.0978H135.994V40.4219Z" fill="#E0E0E0"/>
<path d="M145.777 40.4219H138.336V41.0978H145.777V40.4219Z" fill="#E0E0E0"/>
<path d="M150.753 45.2188H130.398V45.8947H150.753V45.2188Z" fill="#E0E0E0"/>
<path d="M133.193 53.7931C132.572 53.7931 131.966 53.6089 131.449 53.2637C130.933 52.9185 130.531 52.4278 130.294 51.8537C130.056 51.2797 129.994 50.648 130.115 50.0385C130.236 49.4291 130.535 48.8693 130.974 48.4299C131.413 47.9906 131.972 47.6914 132.581 47.5701C133.19 47.4489 133.821 47.5111 134.394 47.7489C134.968 47.9867 135.458 48.3894 135.803 48.906C136.147 49.4227 136.332 50.0301 136.332 50.6515C136.332 51.4847 136.001 52.2838 135.412 52.873C134.824 53.4621 134.025 53.7931 133.193 53.7931ZM133.193 48.1922C132.706 48.1922 132.229 48.337 131.824 48.6082C131.419 48.8794 131.103 49.2649 130.917 49.7158C130.731 50.1667 130.682 50.6628 130.778 51.1413C130.873 51.6198 131.109 52.0591 131.454 52.4037C131.799 52.7483 132.238 52.9826 132.717 53.077C133.195 53.1714 133.69 53.1217 134.14 52.9341C134.59 52.7464 134.974 52.4294 135.244 52.0231C135.514 51.6167 135.658 51.1394 135.656 50.6515C135.655 49.9986 135.394 49.3731 134.933 48.9121C134.471 48.4511 133.845 48.1922 133.193 48.1922Z" fill="#A8E1F0"/>
<path d="M135.048 50.6524C135.049 51.0193 134.942 51.3784 134.739 51.6842C134.536 51.9899 134.248 52.2286 133.909 52.3699C133.571 52.5112 133.198 52.5489 132.839 52.4781C132.479 52.4073 132.148 52.2312 131.889 51.9721C131.629 51.7131 131.452 51.3827 131.38 51.0229C131.308 50.6631 131.344 50.2899 131.484 49.9508C131.624 49.6116 131.862 49.3216 132.166 49.1176C132.471 48.9136 132.829 48.8047 133.196 48.8047C133.686 48.8047 134.156 48.9991 134.503 49.3455C134.851 49.6918 135.046 50.1617 135.048 50.6524Z" fill="#A8E1F0"/>
<path d="M145.516 50.0989C145.624 49.2171 145.937 48.3729 146.429 47.6332C146.892 46.9315 147.451 46.3456 147.966 45.6568C149.001 44.3692 150.075 43.0816 151.182 41.794C153.355 39.2639 155.561 36.7596 157.966 34.4098C158.028 34.3573 158.105 34.3277 158.186 34.3262C158.267 34.3248 158.345 34.3514 158.409 34.4017C158.472 34.452 158.515 34.5227 158.532 34.6017C158.549 34.6807 158.538 34.7631 158.5 34.8347C156.764 37.7124 154.828 40.4356 152.86 43.1331C151.87 44.4722 150.866 45.8048 149.837 47.1182C149.316 47.7619 148.841 48.4572 148.262 49.0495C147.656 49.6983 146.907 50.1965 146.075 50.5045C145.974 50.538 145.865 50.5312 145.769 50.4856C145.673 50.44 145.598 50.3591 145.561 50.2598C145.535 50.2096 145.52 50.155 145.516 50.0989Z" fill="#A8E1F0"/>
<path d="M147.18 72.8943L142.953 76.584L143.397 77.0935L147.624 73.4038L147.18 72.8943Z" fill="#A8E1F0"/>
<path d="M142.147 67.1815L140.359 75.166L141.018 75.3138L142.806 67.3293L142.147 67.1815Z" fill="#A8E1F0"/>
<path d="M135.852 73.2997L135.359 73.7617L137.711 76.2758L138.204 75.8137L135.852 73.2997Z" fill="#A8E1F0"/>
<path d="M185.376 225.724H179.903L179.234 213.041H184.701L185.376 225.724Z" fill="#7F3E3B"/>
<path d="M212.966 225.724H207.493L205.352 213.041H210.818L212.966 225.724Z" fill="#7F3E3B"/>
<path d="M207.143 225.086H213.285C213.392 225.084 213.496 225.121 213.579 225.19C213.661 225.258 213.717 225.354 213.735 225.459L214.584 230.326C214.602 230.448 214.593 230.572 214.558 230.69C214.524 230.808 214.464 230.917 214.383 231.01C214.303 231.103 214.203 231.177 214.091 231.228C213.98 231.279 213.858 231.305 213.735 231.305C211.594 231.266 210.558 231.138 207.851 231.138C206.191 231.138 201.709 231.311 199.413 231.311C197.117 231.311 196.924 229.039 197.869 228.833C202.133 227.912 204.828 226.638 206.23 225.427C206.484 225.207 206.808 225.086 207.143 225.086Z" fill="#263238"/>
<path d="M179.769 225.086H185.738C185.845 225.084 185.949 225.121 186.032 225.19C186.114 225.258 186.169 225.354 186.188 225.459L187.037 230.326C187.056 230.447 187.049 230.571 187.016 230.689C186.983 230.807 186.925 230.917 186.845 231.01C186.766 231.103 186.667 231.178 186.556 231.229C186.444 231.28 186.323 231.306 186.201 231.305C184.053 231.266 180.94 231.138 178.232 231.138C175.068 231.138 174.264 231.311 170.547 231.311C168.303 231.311 167.788 229.039 168.74 228.833C173.062 227.899 174.624 227.796 178.425 225.517C178.826 225.254 179.291 225.105 179.769 225.086Z" fill="#263238"/>
<path d="M179.593 55.1973L172.12 53.002C172.12 53.002 164.506 71.1117 161.927 72.3156C158.422 73.925 149.064 78.8629 145.103 81.1934C144.833 82.0882 144.826 84.5411 145.257 85.2492C151.746 84.7342 165.059 80.3243 167.618 77.865C173.458 72.2512 179.593 55.1973 179.593 55.1973Z" fill="#7F3E3B"/>
<path d="M181.861 51.7804C183.983 56.5187 169.41 77.3001 169.41 77.3001L162.336 69.948C162.336 69.948 168.594 54.2203 171.983 48.188C175.443 41.9884 179.552 46.5657 181.861 51.7804Z" fill="#A8E1F0"/>
<path opacity="0.4" d="M181.861 51.7804C183.983 56.5187 169.41 77.3001 169.41 77.3001L162.336 69.948C162.336 69.948 168.594 54.2203 171.983 48.188C175.443 41.9884 179.552 46.5657 181.861 51.7804Z" fill="white"/>
<path d="M161.818 69.2965C161.374 69.5604 160.422 71.2922 160.21 72.1549C159.997 73.0176 164.975 79.6743 166.911 79.4039C168.847 79.1336 171.059 77.2473 171.458 76.2301C171.857 75.2129 162.75 68.7493 161.818 69.2965Z" fill="#A8E1F0"/>
<path d="M145.935 80.783L141.434 79.959L141.704 86.3968C141.704 86.3968 143.286 87.0406 146.694 84.929L145.935 80.783Z" fill="#7F3E3B"/>
<path d="M135.992 82.1022L136.815 86.0615L141.671 86.422L141.401 79.9648L135.992 82.1022Z" fill="#7F3E3B"/>
<path opacity="0.2" d="M179.234 213.049L179.582 219.583H185.048L184.707 213.049H179.234Z" fill="black"/>
<path opacity="0.2" d="M210.825 213.049H205.352L206.458 219.583H211.931L210.825 213.049Z" fill="black"/>
<path d="M174.909 45.3159C174.909 45.3159 167.61 64.1273 172.279 94.9197H201.534C201.946 90.4131 200.248 66.2132 205.567 45.0326C202.352 44.405 199.099 43.9899 195.83 43.7901C191.687 43.5517 187.535 43.5517 183.392 43.7901C180.53 44.0816 177.694 44.5916 174.909 45.3159Z" fill="#A8E1F0"/>
<path opacity="0.2" d="M174.909 45.3159C174.909 45.3159 167.61 64.1273 172.279 94.9197H201.534C201.946 90.4131 200.248 66.2132 205.567 45.0326C202.352 44.405 199.099 43.9899 195.83 43.7901C191.687 43.5517 187.535 43.5517 183.392 43.7901C180.53 44.0816 177.694 44.5916 174.909 45.3159Z" fill="black"/>
<path opacity="0.2" d="M198.961 50.2609C198.317 53.7502 199.006 62.0872 201.868 71.7247C202.216 63.4507 203.292 55.2234 205.083 47.1385V47.0999C203.141 46.9003 199.584 46.9904 198.961 50.2609Z" fill="black"/>
<path d="M194.76 32.1504C193.783 36.1547 193.159 41.1183 195.828 43.7901C195.828 43.7901 194.027 47.8588 186.592 47.8588C179.795 47.8588 183.377 43.7901 183.377 43.7901C187.879 42.7278 187.924 37.2041 187.293 34.0882L194.76 32.1504Z" fill="#7F3E3B"/>
<path d="M186.625 47.8515C191.005 49.2227 191.873 50.6262 191.873 50.6262C191.873 50.6262 197.333 48.4051 197.127 43.5896C196.464 43.0988 195.748 42.6841 194.992 42.3535C194.992 42.3535 194.529 45.9201 186.625 47.8515Z" fill="#A8E1F0"/>
<path d="M186.626 47.8532C184.169 48.085 182.124 50.1902 182.124 50.1902C182.124 50.1902 180.561 48.5485 182.06 43.7845C182.06 43.7845 183.52 43.2888 184.729 43.0312C184.697 43.0377 183.713 46.8232 186.626 47.8532Z" fill="#A8E1F0"/>
<path opacity="0.2" d="M187.308 34.0946C187.681 35.9165 187.823 38.6011 186.961 40.6677C187.664 40.5524 188.346 40.3355 188.987 40.0239C191.559 38.8393 192.884 36.9659 194.312 34.2298C194.44 33.5152 194.595 32.8199 194.762 32.1504L187.308 34.0946Z" fill="black"/>
<path d="M186.441 19.352C184.692 19.9249 180.782 23.2855 184.512 24.9787C188.242 26.6718 189.49 18.3605 186.441 19.352Z" fill="#263238"/>
<path d="M198.238 27.251C196.534 32.5043 195.8 35.6202 192.45 37.8091C187.414 41.028 181.594 37.1653 181.729 31.6158C181.845 26.5879 184.61 18.8431 190.276 17.8452C195.942 16.8474 199.942 22.017 198.238 27.251Z" fill="#7F3E3B"/>
<path d="M190.022 21.5022C187.128 21.9915 184.716 21.837 183.842 19.4292C182.967 17.0215 186.948 14.4978 189.694 15.6309C191.72 13.5193 197.251 15.1416 197.965 17.1695C201.18 16.9635 204.222 20.6717 202.042 22.5709C202.535 22.8776 202.952 23.2927 203.261 23.7848C203.57 24.2769 203.762 24.8329 203.824 25.4107C203.886 25.9885 203.816 26.5728 203.619 27.1193C203.421 27.6658 203.102 28.16 202.685 28.5646C203.624 31.3586 200.241 34.1462 197.572 33.0131C194.942 32.2277 193.508 32.8715 193.141 31.1719C192.775 29.4723 193.701 27.8306 195.939 27.5023C194.807 26.1504 194.531 24.013 195.296 23.0924C192.588 24.322 190.369 22.7769 190.022 21.5022Z" fill="#263238"/>
<path d="M186.545 32.8261C187.057 32.869 187.572 32.8104 188.061 32.6535C188.55 32.4966 189.003 32.2446 189.395 31.9119C189.419 31.8867 189.432 31.8533 189.432 31.8185C189.432 31.7838 189.419 31.7503 189.395 31.7252C189.383 31.7127 189.369 31.7027 189.354 31.6959C189.338 31.6891 189.321 31.6855 189.305 31.6855C189.288 31.6855 189.271 31.6891 189.255 31.6959C189.24 31.7027 189.226 31.7127 189.214 31.7252C188.785 32.0815 188.281 32.336 187.74 32.4698C187.199 32.6036 186.634 32.6131 186.089 32.4977C186.055 32.4919 186.02 32.4993 185.991 32.5185C185.963 32.5377 185.942 32.5671 185.935 32.6007C185.93 32.6168 185.928 32.6338 185.931 32.6505C185.933 32.6671 185.939 32.683 185.948 32.6971C185.958 32.7112 185.97 32.7231 185.984 32.7321C185.998 32.741 186.014 32.7467 186.031 32.7488C186.201 32.7832 186.373 32.809 186.545 32.8261Z" fill="#263238"/>
<path d="M198.54 34.5068C197.446 35.3624 196.063 35.7615 194.682 35.6205C192.887 35.421 192.752 33.6505 193.878 32.3115C194.894 31.1012 197.055 29.7363 198.553 30.6247C200.052 31.5132 199.884 33.4381 198.54 34.5068Z" fill="#7F3E3B"/>
<path d="M191.507 94.9191C191.507 94.9191 190.761 101.808 189.809 111.136C188.716 121.714 187.359 135.446 186.497 145.901C186.497 145.952 186.497 145.997 186.497 146.042C186.33 148.032 186.182 149.905 186.059 151.592C184.838 168.659 187.024 218.307 187.024 218.307H177.75C177.75 218.307 169.21 167.641 169.422 150.272C169.621 133.579 172.271 94.9062 172.271 94.9062L191.507 94.9191Z" fill="#A8E1F0"/>
<path d="M187.785 214.684C187.83 214.684 187.624 218.508 187.624 218.508H176.942L176.672 214.311L187.785 214.684Z" fill="#263238"/>
<path opacity="0.2" d="M189.838 111.138C188.745 121.715 187.388 135.447 186.526 145.902C186.526 145.954 186.526 145.999 186.526 146.044C184.487 136.123 183.851 123.788 184.642 103.477L189.838 111.138Z" fill="black"/>
<path d="M182.648 94.9199C182.648 94.9199 186.919 134.487 189.575 150.163C192.488 167.333 203.987 218.315 203.987 218.315H214.007C214.007 218.315 207.254 168.743 205.929 151.721C204.502 133.27 201.55 94.9199 201.55 94.9199H182.648Z" fill="#A8E1F0"/>
<path d="M214.131 214.915C214.176 214.915 214.478 218.507 214.478 218.507H203.468L202.664 214.496L214.131 214.915Z" fill="#263238"/>
<path d="M189.153 27.0202C189.037 27.4515 188.722 27.7541 188.446 27.664C188.169 27.5738 188.034 27.2004 188.143 26.7691C188.253 26.3378 188.574 26.0352 188.851 26.1253C189.127 26.2154 189.262 26.6082 189.153 27.0202Z" fill="#263238"/>
<path d="M184.345 25.9638C184.229 26.3951 183.914 26.6977 183.637 26.6076C183.361 26.5174 183.225 26.1505 183.335 25.7127C183.444 25.2749 183.766 24.9788 184.042 25.0689C184.319 25.159 184.454 25.5324 184.345 25.9638Z" fill="#263238"/>
<path d="M186.584 26.5176C185.733 27.7307 184.728 28.8279 183.594 29.7816C184.16 30.6571 185.523 30.6121 185.523 30.6121L186.584 26.5176Z" fill="#630F0F"/>
<path d="M191.769 25.7576C191.731 25.7475 191.696 25.7289 191.666 25.7033C191.636 25.6777 191.612 25.6456 191.596 25.6095C191.483 25.3118 191.298 25.0467 191.058 24.8377C190.818 24.6288 190.53 24.4826 190.22 24.4121C190.186 24.4075 190.154 24.3961 190.125 24.3784C190.096 24.3607 190.071 24.3372 190.052 24.3093C190.032 24.2815 190.019 24.2499 190.012 24.2166C190.006 24.1833 190.006 24.149 190.014 24.1159C190.026 24.0475 190.065 23.9866 190.121 23.9458C190.177 23.9051 190.247 23.8876 190.316 23.897C190.711 23.978 191.08 24.1573 191.388 24.4183C191.696 24.6793 191.933 25.0137 192.078 25.3906C192.103 25.4558 192.101 25.5277 192.075 25.5921C192.049 25.6565 192 25.7087 191.937 25.7383C191.885 25.7633 191.826 25.7701 191.769 25.7576Z" fill="#263238"/>
<path d="M183.408 23.7622C183.373 23.7477 183.34 23.7282 183.311 23.7043C183.287 23.6803 183.268 23.6518 183.254 23.6203C183.241 23.5888 183.234 23.5549 183.234 23.5208C183.234 23.4866 183.241 23.4528 183.254 23.4213C183.268 23.3898 183.287 23.3613 183.311 23.3373C183.583 23.0216 183.926 22.7753 184.312 22.6185C184.698 22.4618 185.115 22.3993 185.53 22.436C185.563 22.4405 185.596 22.452 185.625 22.4697C185.654 22.4874 185.679 22.5109 185.698 22.5388C185.717 22.5666 185.731 22.5982 185.737 22.6315C185.744 22.6648 185.743 22.6991 185.736 22.7322C185.722 22.7998 185.683 22.8598 185.627 22.9003C185.571 22.9408 185.502 22.9589 185.433 22.951C185.104 22.9266 184.773 22.9804 184.468 23.1079C184.163 23.2354 183.892 23.4331 183.678 23.685C183.643 23.7203 183.6 23.746 183.553 23.7595C183.506 23.7731 183.455 23.774 183.408 23.7622Z" fill="#263238"/>
<path d="M208.806 52.5078L201.898 56.6924C201.898 56.6924 209.616 73.4309 209.571 76.2442C209.442 81.4975 211.7 92.8861 211.089 98.8862C211.938 99.1888 214.304 99.2596 215.05 98.8412C216.42 93.414 218.317 79.1542 217.771 75.5811C216.574 67.8106 208.806 52.5078 208.806 52.5078Z" fill="#7F3E3B"/>
<path d="M205.566 45.0327C210.711 45.7859 218.043 71.9237 218.043 71.9237L208.525 75.5353C208.525 75.5353 200.235 61.372 198.202 55.005C196.016 48.3611 200.055 44.2215 205.566 45.0327Z" fill="#A8E1F0"/>
<path opacity="0.4" d="M205.566 45.0327C210.711 45.7859 218.043 71.9237 218.043 71.9237L208.525 75.5353C208.525 75.5353 200.235 61.372 198.202 55.005C196.016 48.3611 200.055 44.2215 205.566 45.0327Z" fill="white"/>
<path d="M205.278 226.046C204.91 226.078 204.543 225.978 204.242 225.763C204.147 225.68 204.075 225.573 204.033 225.453C203.991 225.334 203.981 225.205 204.004 225.08C204.008 225.004 204.033 224.929 204.074 224.865C204.116 224.801 204.174 224.748 204.242 224.713C204.886 224.404 206.577 225.486 206.77 225.615C206.791 225.628 206.808 225.647 206.817 225.671C206.826 225.694 206.828 225.719 206.821 225.744C206.815 225.768 206.802 225.791 206.784 225.809C206.766 225.827 206.743 225.84 206.718 225.847C206.248 225.969 205.764 226.036 205.278 226.046ZM204.525 224.894C204.468 224.89 204.41 224.901 204.358 224.926C204.331 224.94 204.308 224.961 204.293 224.987C204.277 225.013 204.268 225.043 204.268 225.074C204.252 225.16 204.257 225.249 204.284 225.332C204.311 225.415 204.359 225.49 204.423 225.55C204.705 225.801 205.419 225.834 206.352 225.647C205.8 225.275 205.179 225.019 204.525 224.894Z" fill="#A8E1F0"/>
<path d="M206.692 225.854C206.674 225.859 206.653 225.859 206.635 225.854C206.081 225.551 205.046 224.347 205.194 223.735C205.218 223.641 205.273 223.556 205.349 223.496C205.426 223.435 205.521 223.402 205.618 223.401C205.716 223.388 205.815 223.395 205.909 223.423C206.003 223.451 206.09 223.498 206.165 223.562C206.776 224.083 206.808 225.667 206.808 225.731C206.808 225.755 206.802 225.779 206.791 225.8C206.78 225.822 206.764 225.84 206.744 225.854C206.727 225.856 206.71 225.856 206.692 225.854ZM205.696 223.607H205.638C205.471 223.607 205.451 223.703 205.445 223.735C205.355 224.096 206.011 225.023 206.551 225.429C206.549 224.813 206.353 224.214 205.991 223.716C205.91 223.645 205.804 223.606 205.696 223.607Z" fill="#A8E1F0"/>
<path d="M177.447 226.046C176.982 226.09 176.516 225.972 176.128 225.712C176.044 225.63 175.98 225.528 175.943 225.416C175.906 225.304 175.897 225.184 175.916 225.068C175.924 224.996 175.949 224.926 175.989 224.866C176.03 224.805 176.084 224.755 176.148 224.72C176.829 224.347 178.978 225.467 179.222 225.596C179.245 225.609 179.263 225.629 179.273 225.654C179.284 225.678 179.286 225.705 179.28 225.731C179.275 225.758 179.262 225.783 179.242 225.803C179.223 225.823 179.198 225.836 179.17 225.84C178.603 225.961 178.026 226.03 177.447 226.046ZM176.508 224.894C176.424 224.89 176.34 224.905 176.264 224.939C176.239 224.954 176.217 224.975 176.202 224.999C176.186 225.024 176.176 225.052 176.173 225.081C176.16 225.157 176.167 225.235 176.191 225.308C176.216 225.381 176.258 225.447 176.315 225.499C176.637 225.795 177.53 225.847 178.752 225.647C178.054 225.268 177.294 225.013 176.508 224.894Z" fill="#A8E1F0"/>
<path d="M179.153 225.853H179.095C178.452 225.557 177.165 224.372 177.326 223.754C177.326 223.606 177.474 223.426 177.828 223.394C177.955 223.378 178.083 223.389 178.205 223.427C178.327 223.464 178.44 223.528 178.535 223.613C179.178 224.186 179.281 225.66 179.288 225.724C179.287 225.748 179.281 225.77 179.27 225.79C179.259 225.811 179.243 225.828 179.223 225.84C179.202 225.854 179.177 225.858 179.153 225.853ZM177.918 223.606H177.841C177.609 223.606 177.59 223.722 177.584 223.748C177.506 224.121 178.349 225.036 179.005 225.454C178.972 224.838 178.747 224.248 178.362 223.767C178.24 223.659 178.081 223.602 177.918 223.606Z" fill="#A8E1F0"/>
<path d="M227.557 104.177L194.683 108.468C193.242 108.656 192.227 109.978 192.414 111.42L195.214 132.907C195.402 134.349 196.722 135.366 198.162 135.178L231.037 130.886C232.477 130.698 233.493 129.377 233.305 127.935L230.506 106.447C230.318 105.005 228.998 103.988 227.557 104.177Z" fill="#263238"/>
<path opacity="0.3" d="M227.557 104.177L194.683 108.468C193.242 108.656 192.227 109.978 192.414 111.42L195.214 132.907C195.402 134.349 196.722 135.366 198.162 135.178L231.037 130.886C232.477 130.698 233.493 129.377 233.305 127.935L230.506 106.447C230.318 105.005 228.998 103.988 227.557 104.177Z" fill="black"/>
<path d="M209.576 111.278C209.026 111.278 208.492 111.094 208.058 110.756C207.533 110.351 207.188 109.754 207.1 109.096L206.521 104.628C206.479 104.302 206.501 103.971 206.586 103.654C206.671 103.337 206.818 103.04 207.018 102.78C207.218 102.52 207.468 102.302 207.752 102.139C208.036 101.975 208.35 101.869 208.675 101.827L216.104 100.855C216.761 100.769 217.426 100.948 217.951 101.352C218.477 101.757 218.821 102.354 218.908 103.012L219.493 107.48C219.575 108.137 219.395 108.801 218.992 109.326C218.588 109.852 217.994 110.197 217.338 110.287L209.904 111.252C209.795 111.267 209.686 111.276 209.576 111.278ZM216.432 102.265H216.296L208.862 103.237C208.726 103.255 208.595 103.299 208.476 103.367C208.357 103.436 208.252 103.527 208.169 103.636C208.085 103.745 208.024 103.869 207.988 104.002C207.953 104.134 207.944 104.273 207.962 104.409L208.54 108.877C208.578 109.153 208.724 109.403 208.946 109.572C209.054 109.656 209.178 109.717 209.311 109.752C209.443 109.788 209.581 109.796 209.717 109.778L217.145 108.812C217.42 108.774 217.67 108.629 217.839 108.409C218.009 108.188 218.085 107.91 218.052 107.634L217.493 103.218C217.475 103.081 217.431 102.95 217.363 102.83C217.294 102.711 217.203 102.606 217.094 102.522C216.907 102.37 216.673 102.286 216.432 102.284V102.265Z" fill="#263238"/>
<path d="M230.69 103.768L197.815 108.06C196.375 108.248 195.359 109.569 195.547 111.011L198.347 132.499C198.534 133.941 199.854 134.958 201.295 134.77L234.17 130.478C235.61 130.29 236.626 128.969 236.438 127.527L233.638 106.039C233.451 104.597 232.13 103.58 230.69 103.768Z" fill="#263238"/>
<path d="M211.401 97.9844L209.305 102.072L215.453 102.356C215.897 101.463 216.058 100.456 215.915 99.4693C215.773 98.4825 215.333 97.5625 214.655 96.832L211.401 97.9844Z" fill="#7F3E3B"/>
<path d="M211.652 105.24L215.318 104.738L215.453 102.356L209.305 102.072L209.401 103.405C209.42 103.677 209.494 103.942 209.619 104.184C209.744 104.426 209.918 104.639 210.129 104.811C210.34 104.983 210.584 105.11 210.846 105.184C211.108 105.257 211.382 105.276 211.652 105.24Z" fill="#7F3E3B"/>
<path d="M207.087 74.0473C206.991 74.5494 207.673 76.41 208.174 77.131C208.676 77.8521 216.972 78.4894 218.04 76.8542C219.107 75.219 219.152 72.3091 218.644 71.3369C218.136 70.3648 207.287 72.9593 207.087 74.0473Z" fill="#A8E1F0"/>
<path d="M85.8981 53.9575C84.8626 55.3159 83.7372 56.8031 82.6825 58.2645C81.6277 59.7258 80.6116 61.213 79.6405 62.7195C77.6928 65.6103 76.0117 68.6723 74.6177 71.8677C74.4569 72.2475 74.309 72.6273 74.1804 73.0072C74.1118 73.196 74.0475 73.3827 73.9874 73.5673L73.8974 73.8505L73.8588 73.9857V74.0244C73.7411 74.5176 73.7171 75.0287 73.7881 75.5308C74.01 77.1504 74.3913 78.744 74.9264 80.2884C76.0261 83.6168 77.4989 87.0482 78.9459 90.3765L75.6596 92.4624C73.194 89.4169 71.0596 86.1172 69.2926 82.6189C68.3192 80.7306 67.5785 78.731 67.0867 76.6639C66.7674 75.3268 66.7149 73.9397 66.9324 72.5823L66.9838 72.2732L67.0353 72.0672L67.1317 71.6681C67.1896 71.4041 67.2539 71.1402 67.3311 70.8827C67.4726 70.3612 67.6269 69.859 67.7942 69.3569C69.1392 65.569 70.8947 61.9401 73.0292 58.5348C74.0582 56.8674 75.1129 55.2322 76.2448 53.6549C77.3767 52.0777 78.4957 50.5454 79.8013 48.9746L85.8981 53.9575Z" fill="#263238"/>
<path d="M78.0797 89.1855L81.4625 90.9817L77.6037 95.5462C77.6037 95.5462 75.1727 93.8981 75.0312 91.3873L78.0797 89.1855Z" fill="#FFC3BD"/>
<path d="M86.0145 93.7938L81.8471 97.1093L77.5703 95.5449L81.4612 90.9805L86.0145 93.7938Z" fill="#FFC3BD"/>
<path d="M136.576 79.3984L140.576 81.465L140.222 82.9071L137.007 86.126C137.007 86.126 134.692 84.3234 134.743 81.8126L136.576 79.3984Z" fill="#FFC3BD"/>
<path d="M137.156 79.9662L140.822 79.2773L143.176 80.2817L141.607 80.5456L140.578 81.4791L137.156 79.9662Z" fill="#FFC3BD"/>
<path d="M144.584 86.6024L140.609 87.4587C140.192 87.5471 139.758 87.495 139.374 87.3106L136.988 86.1518L140.204 82.9329L142.333 82.2891L144.995 85.3471C145.078 85.4491 145.134 85.5704 145.158 85.6997C145.182 85.829 145.173 85.9623 145.132 86.0872C145.091 86.2121 145.019 86.3248 144.923 86.4148C144.828 86.5048 144.711 86.5694 144.584 86.6024Z" fill="#FFC3BD"/>
<path d="M100.553 27.8575C100.643 28.2888 100.939 28.5914 101.196 28.5013C101.453 28.4112 101.633 28.0442 101.55 27.6129C101.466 27.1815 101.157 26.8789 100.907 26.9691C100.656 27.0592 100.444 27.4262 100.553 27.8575Z" fill="#263238"/>
<path d="M100.898 28.5977C101.681 29.8136 102.627 30.9162 103.709 31.8745C103.066 32.7436 101.728 32.6793 101.728 32.6793L100.898 28.5977Z" fill="#FF5652"/>
<path d="M98.5134 25.7791C98.449 25.7764 98.3876 25.7514 98.3397 25.7083C98.2922 25.659 98.2656 25.5932 98.2656 25.5248C98.2656 25.4563 98.2922 25.3905 98.3397 25.3413C98.6115 25.0332 98.953 24.7948 99.3356 24.6458C99.7183 24.4968 100.131 24.4417 100.539 24.4851C100.599 24.5045 100.65 24.5448 100.683 24.5986C100.716 24.6524 100.728 24.7162 100.718 24.7785C100.708 24.8407 100.676 24.8973 100.628 24.9379C100.58 24.9786 100.519 25.0006 100.456 25.0001C100.132 24.9699 99.8056 25.0173 99.5037 25.1381C99.2018 25.259 98.9329 25.45 98.7192 25.6954C98.6936 25.7242 98.6617 25.7468 98.626 25.7613C98.5904 25.7758 98.5518 25.7819 98.5134 25.7791Z" fill="#263238"/>
<path d="M88.8661 35.4863C89.6122 39.2847 90.0559 44.5444 87.4062 47.0745C87.4062 47.0745 88.4417 50.9372 95.4903 50.9372C103.246 50.9372 99.2204 47.5509 99.2204 47.5509C96.0048 46.553 96.0048 42.877 96.7637 39.9285L88.8661 35.4863Z" fill="#FFC3BD"/>
<path d="M86.2942 49.6753C85.6511 48.6581 85.8633 45.5743 86.6351 45.0722C87.8699 44.261 92.9634 44.3512 99.7226 46.3276C98.8094 49.2761 100.295 50.9371 100.295 50.9371L86.2942 49.6753Z" fill="#A8E1F0"/>
<path opacity="0.2" d="M80.6357 55.1406C78.224 57.5226 77.523 62.4025 77.7867 65.7309C78.3783 64.7202 79.0086 63.7094 79.6581 62.7244C80.6293 61.2115 81.6647 59.7373 82.7065 58.2566C82.9959 57.851 83.2918 57.4389 83.5941 57.0269C83.6519 56.763 83.7034 56.499 83.7548 56.2415L80.6357 55.1406Z" fill="black"/>
<path d="M63.5549 224.894C63.9762 225.041 64.4385 225.016 64.8412 224.823C64.9189 224.753 64.9725 224.659 64.9944 224.557C65.0163 224.454 65.0055 224.347 64.9634 224.25C64.9396 224.171 64.8991 224.098 64.8448 224.036C64.7904 223.974 64.7234 223.924 64.6482 223.89C63.9472 223.555 62.333 224.212 62.2687 224.237C62.2466 224.246 62.2275 224.261 62.2138 224.281C62.2001 224.3 62.1923 224.323 62.1915 224.347C62.1905 224.371 62.1967 224.395 62.2093 224.416C62.2219 224.436 62.2403 224.453 62.2622 224.463C62.6767 224.652 63.11 224.797 63.5549 224.894ZM64.4039 224.064L64.5453 224.109C64.59 224.128 64.6299 224.158 64.6621 224.194C64.6943 224.231 64.7181 224.274 64.7318 224.321C64.7962 224.54 64.7318 224.611 64.6868 224.637C64.4103 224.875 63.4006 224.637 62.6481 224.36C63.2101 224.12 63.8195 224.012 64.4296 224.044L64.4039 224.064Z" fill="#A8E1F0"/>
<path d="M62.2921 224.457H62.35C62.9417 224.29 64.1958 223.395 64.2086 222.809C64.2107 222.716 64.1804 222.626 64.1228 222.553C64.0653 222.48 63.9842 222.43 63.8935 222.41C63.8047 222.377 63.7097 222.364 63.6151 222.371C63.5206 222.379 63.429 222.408 63.3469 222.455C62.6587 222.809 62.2214 224.245 62.2021 224.303C62.1925 224.322 62.1875 224.343 62.1875 224.364C62.1875 224.385 62.1925 224.406 62.2021 224.425C62.2272 224.446 62.2592 224.458 62.2921 224.457ZM63.7585 222.616H63.8163C63.9643 222.668 63.9643 222.745 63.9643 222.777C63.9643 223.125 63.1282 223.82 62.5172 224.103C62.6812 223.535 63.0103 223.029 63.4626 222.648C63.5113 222.621 63.5649 222.605 63.6201 222.599C63.6754 222.594 63.7312 222.599 63.7842 222.616H63.7585Z" fill="#A8E1F0"/>
<path d="M101.854 225.745C102.497 225.745 103.14 225.655 103.378 225.352C103.433 225.274 103.462 225.181 103.462 225.085C103.462 224.989 103.433 224.896 103.378 224.818C103.29 224.673 103.149 224.569 102.985 224.528C102.124 224.296 100.31 225.326 100.233 225.371C100.21 225.383 100.193 225.403 100.182 225.426C100.172 225.449 100.169 225.475 100.175 225.5C100.178 225.525 100.19 225.549 100.207 225.567C100.224 225.585 100.247 225.598 100.271 225.603C100.794 225.695 101.323 225.743 101.854 225.745ZM102.677 224.741C102.756 224.73 102.836 224.73 102.915 224.741C102.964 224.751 103.011 224.772 103.052 224.802C103.093 224.832 103.127 224.87 103.153 224.914C103.243 225.069 103.211 225.14 103.153 225.185C102.915 225.519 101.603 225.526 100.638 225.391C101.27 225.045 101.962 224.824 102.677 224.741Z" fill="#A8E1F0"/>
<path d="M100.286 225.603H100.338C100.981 225.326 102.203 224.199 102.113 223.613C102.113 223.472 101.991 223.304 101.656 223.266C101.534 223.254 101.411 223.267 101.294 223.304C101.177 223.34 101.069 223.4 100.974 223.478C100.331 224.025 100.171 225.409 100.164 225.48C100.164 225.501 100.168 225.522 100.177 225.541C100.186 225.56 100.199 225.577 100.216 225.59C100.237 225.601 100.262 225.605 100.286 225.603ZM101.573 223.497H101.65C101.868 223.497 101.881 223.607 101.888 223.633C101.946 223.987 101.103 224.869 100.466 225.248C100.524 224.659 100.762 224.101 101.148 223.652C101.261 223.555 101.404 223.5 101.553 223.497H101.573Z" fill="#A8E1F0"/>
<path d="M94.5859 225.481H99.7695L100.284 213.455H95.1004L94.5859 225.481Z" fill="#FFC3BD"/>
<path d="M56.6016 223.26L61.6051 224.323L66.1455 212.818L61.142 211.756L56.6016 223.26Z" fill="#FFC3BD"/>
<path d="M62.0696 223.666L56.3715 222.43C56.2719 222.409 56.168 222.422 56.0769 222.467C55.9858 222.513 55.9128 222.588 55.8699 222.681L53.8891 226.975C53.8413 227.08 53.8179 227.194 53.8205 227.31C53.8232 227.425 53.8519 227.539 53.9044 227.641C53.957 227.744 54.0321 227.834 54.1241 227.903C54.2161 227.973 54.3226 228.021 54.4357 228.044C56.4359 228.436 57.4263 228.533 59.928 229.074C61.4715 229.408 64.9508 230.258 67.0795 230.715C69.2083 231.172 69.935 229.132 69.1054 228.752C65.3881 227.052 63.8318 225.533 62.8221 224.155C62.6405 223.904 62.3724 223.73 62.0696 223.666Z" fill="#263238"/>
<path d="M99.7368 224.895H94.0709C93.9682 224.896 93.8688 224.931 93.7885 224.996C93.7082 225.06 93.6514 225.149 93.6272 225.249L92.6046 229.865C92.5794 229.976 92.5797 230.092 92.6056 230.204C92.6314 230.315 92.6821 230.419 92.7538 230.509C92.8256 230.598 92.9165 230.669 93.0199 230.718C93.1232 230.767 93.2363 230.792 93.3506 230.792C95.3957 230.753 98.3477 230.637 100.914 230.637C103.917 230.637 104.985 230.798 108.503 230.798C110.631 230.798 111.223 228.648 110.336 228.448C106.277 227.56 104.49 227.463 100.984 225.3C100.613 225.053 100.182 224.913 99.7368 224.895Z" fill="#263238"/>
<path opacity="0.2" d="M100.282 213.461L100.018 219.654H94.8281L95.0918 213.461H100.282Z" fill="black"/>
<path opacity="0.2" d="M61.1457 211.756L66.1491 212.818L63.8082 218.747L58.8047 217.692L61.1457 211.756Z" fill="black"/>
<path d="M98.2966 93.4023C98.2966 93.4023 92.4056 133.085 89.1772 147.95C85.64 164.232 66.6679 218.123 66.6679 218.123L57.3555 216.076C57.3555 216.076 70.6295 172.183 73.5943 149.425C75.8774 131.946 80.3728 93.4152 80.3728 93.4152L98.2966 93.4023Z" fill="#263238"/>
<path opacity="0.1" d="M98.2966 93.4023C98.2966 93.4023 92.4056 133.085 89.1772 147.95C85.64 164.232 66.6679 218.123 66.6679 218.123L57.3555 216.076C57.3555 216.076 70.6295 172.183 73.5943 149.425C75.8774 131.946 80.3728 93.4152 80.3728 93.4152L98.2966 93.4023Z" fill="white"/>
<path d="M68.8852 214.987C68.9238 214.987 67.1553 218.347 67.1553 218.347L56.7109 216.081L57.592 212.939L68.8852 214.987Z" fill="#263238"/>
<path opacity="0.3" d="M94.5751 107.539C87.7709 108.878 88.4912 134.289 89.3079 147.358C91.2373 138.119 94.1442 120.318 96.1122 107.726C95.6351 107.493 95.0939 107.428 94.5751 107.539Z" fill="black"/>
<path d="M108.163 93.4023C108.163 93.4023 108.877 132.223 108.311 148.06C107.726 164.528 101.982 218.458 101.982 218.458H93.1653C93.1653 218.458 92.8437 165.494 92.4514 149.315C92.0269 131.682 89.8789 93.4023 89.8789 93.4023H108.163Z" fill="#263238"/>
<path opacity="0.1" d="M108.163 93.4023C108.163 93.4023 108.877 132.223 108.311 148.06C107.726 164.528 101.982 218.458 101.982 218.458H93.1653C93.1653 218.458 92.8437 165.494 92.4514 149.315C92.0269 131.682 89.8789 93.4023 89.8789 93.4023H108.163Z" fill="white"/>
<path d="M103.661 214.955C103.699 214.955 103.159 218.605 103.159 218.605H92.4574L92.168 215.348L103.661 214.955Z" fill="#263238"/>
<path d="M108.846 53.4612C109.908 59.075 111.875 74.7576 108.801 97.5735L78.7804 97.1099C78.6067 93.1249 81.7709 71.4936 78.8447 52.2895C78.7631 51.7448 78.7908 51.1892 78.9261 50.6553C79.0614 50.1214 79.3016 49.6199 79.6327 49.1799C79.9638 48.74 80.3791 48.3705 80.8545 48.0931C81.3298 47.8157 81.8556 47.6358 82.4012 47.5641C83.9189 47.3581 85.6811 47.1649 87.4175 47.0812C91.3438 46.8557 95.2797 46.8557 99.206 47.0812C100.492 47.2036 101.778 47.3903 102.923 47.5898C104.389 47.8523 105.74 48.5543 106.798 49.6028C107.855 50.6514 108.57 51.9969 108.846 53.4612Z" fill="#263238"/>
<path opacity="0.2" d="M109.666 59.0371L104.611 60.2925C104.225 65.0179 107.337 70.3678 110.45 74.4558C110.482 69.3055 110.22 64.1576 109.666 59.0371Z" fill="black"/>
<path d="M107.59 50.9375C108.445 52.4761 109.371 54.1564 110.323 55.7208C111.275 57.2852 112.252 58.8883 113.236 60.4334C115.133 63.4697 117.284 66.3385 119.668 69.0086C119.963 69.3112 120.253 69.6202 120.549 69.9035L120.767 70.1159L120.941 70.2704C121.037 70.3734 121.205 70.4893 121.327 70.5987C121.919 71.0623 122.613 71.5515 123.378 72.0215C124.89 72.955 126.51 73.8692 128.157 74.7512C131.45 76.5216 134.858 78.2598 138.222 80.0173L136.89 83.6805C133.084 82.7682 129.337 81.6266 125.668 80.262C123.829 79.5731 121.983 78.8263 120.137 77.9186C119.155 77.4506 118.204 76.9216 117.288 76.3349C117.037 76.1546 116.799 76.013 116.529 75.8005L116.143 75.5044L115.828 75.2404C115.397 74.8928 115.005 74.5323 114.606 74.1718C113.087 72.7534 111.669 71.2303 110.362 69.6138C109.075 68.0494 107.873 66.3948 106.734 64.7918C105.596 63.1888 104.516 61.4892 103.519 59.7831C102.522 58.0771 101.532 56.4032 100.605 54.5491L107.59 50.9375Z" fill="#263238"/>
<path d="M85.9673 29.8664C87.3693 35.1068 87.8967 38.2356 91.1573 40.4245C96.0193 43.7078 102.09 39.9416 102.258 34.3858C102.425 29.39 100.103 21.6581 94.4887 20.6023C93.2509 20.3618 91.9721 20.4424 90.7742 20.8364C89.5762 21.2305 88.499 21.9248 87.6448 22.8534C86.7907 23.7819 86.1882 24.9138 85.8945 26.1414C85.6009 27.3689 85.626 28.6513 85.9673 29.8664Z" fill="#FFC3BD"/>
<path d="M96.8443 29.9308C98.092 28.096 98.5679 25.2762 97.6932 23.9178C98.51 24.259 104.401 24.6646 102.092 20.4671C99.7834 16.2696 95.1529 15.1108 91.1205 16.2696L93.082 16.8361C93.082 16.8361 87.5705 16.437 84.8886 18.6709C85.7054 18.716 86.4128 18.6709 86.4128 18.6709C86.4128 18.6709 80.509 21.4585 83.0815 23.5766C78.9333 26.7376 81.7438 31.1153 88.5737 37.6433C89.7635 38.7184 93.1335 38.3257 93.8795 37.6819C93.4036 34.8364 96.1433 30.9737 96.8443 29.9308Z" fill="#263238"/>
<path d="M97.5394 26.3574C98.7613 27.2523 100.273 29.8854 100.974 31.1987C101.675 32.512 102.414 32.3446 102.768 32.8661C103.122 33.3876 104.569 42.2074 103.019 43.6173C101.469 45.0272 96.8062 42.7997 96.1952 41.1774C95.5843 39.555 96.7033 35.5764 97.0056 34.6687C97.3235 33.1009 97.2305 31.4773 96.7355 29.9562C96.1952 28.4175 97.5394 26.3574 97.5394 26.3574Z" fill="#263238"/>
<path d="M94.7828 30.1757C94.9494 30.8178 95.243 31.4198 95.6462 31.9462C96.0494 32.4725 96.554 32.9126 97.1302 33.2402C98.5515 33.8839 98.7252 32.2294 98.4486 30.665C98.1978 29.2422 97.8055 28.0899 96.6543 27.5362C95.2973 26.8345 94.3133 28.6178 94.7828 30.1757Z" fill="#FFC3BD"/>
</g>
<defs>
<clipPath id="clip0_476_36250">
<rect width="250" height="227" fill="white" transform="translate(17.25 11.25)"/>
</clipPath>
</defs>
</svg>
