<svg width="271" height="245" viewBox="0 0 271 245" fill="none" xmlns="http://www.w3.org/2000/svg">
<path opacity="0.15" d="M268 80.5053C268 74.3353 262.467 69.6374 256.379 70.6376L53.0456 104.04C48.2132 104.834 44.6667 109.011 44.6667 113.908V225.741C44.6667 232.071 50.4745 236.809 56.6758 235.537L260.009 193.833C264.661 192.879 268 188.785 268 184.037V80.5053Z" fill="#FB9D50"/>
<path opacity="0.25" d="M28 33.7699C28 27.6023 33.5287 22.905 39.6153 23.9012L242.949 57.1833C247.784 57.9748 251.333 62.1526 251.333 67.052V188.081C251.333 194.408 245.531 199.145 239.331 197.878L35.9978 156.325C31.3429 155.374 28 151.279 28 146.527V33.7699Z" fill="#2A889B"/>
<path d="M9.17188 46.0547L154.617 67.0492L174.133 86.7963L9.17188 46.0547Z" fill="#3CC2DD"/>
<path opacity="0.6" d="M9.17188 46.0547L154.617 67.0492L174.133 86.7963L9.17188 46.0547Z" fill="white"/>
<path d="M9.17188 46.0547L154.617 67.0492L147.867 95.6048L9.17188 46.0547Z" fill="#3CC2DD"/>
<path opacity="0.2" d="M9.17188 46.0547L154.617 67.0492L147.867 95.6048L9.17188 46.0547Z" fill="black"/>
<path d="M144.881 12.9963L153.322 52.6569C153.541 53.6925 153.342 54.7732 152.768 55.6618C152.194 56.5504 151.292 57.1744 150.259 57.3969L74.9245 73.517C73.8917 73.7354 72.8147 73.535 71.9289 72.9597C71.043 72.3843 70.4203 71.4808 70.1969 70.4465L61.7498 30.786C61.5321 29.7496 61.7328 28.6689 62.308 27.7806C62.8831 26.8922 63.7858 26.2685 64.8186 26.0459L140.154 9.92578C141.187 9.70756 142.265 9.9088 143.151 10.4855C144.037 11.0621 144.659 11.9672 144.881 13.0027V12.9963Z" fill="#3CC2DD"/>
<path opacity="0.4" d="M144.881 12.9963L153.322 52.6569C153.541 53.6925 153.342 54.7732 152.768 55.6618C152.194 56.5504 151.292 57.1744 150.259 57.3969L74.9245 73.517C73.8917 73.7354 72.8147 73.535 71.9289 72.9597C71.043 72.3843 70.4203 71.4808 70.1969 70.4465L61.7498 30.786C61.5321 29.7496 61.7328 28.6689 62.308 27.7806C62.8831 26.8922 63.7858 26.2685 64.8186 26.0459L140.154 9.92578C141.187 9.70756 142.265 9.9088 143.151 10.4855C144.037 11.0621 144.659 11.9672 144.881 13.0027V12.9963Z" fill="black"/>
<path d="M143.024 10.3991L117.854 41.3791C115.52 44.2514 112.278 46.2387 108.664 47.0122C105.05 47.7858 101.281 47.2992 97.9807 45.6331L62.3867 27.6579C62.9626 26.8285 63.8317 26.2498 64.8175 26.0395L140.153 9.91935C141.136 9.70956 142.161 9.88099 143.024 10.3991Z" fill="#3CC2DD"/>
<path d="M9.17188 46.0547L129.135 74.6423L147.867 95.6048L9.17188 46.0547Z" fill="#3CC2DD"/>
<path opacity="0.6" d="M9.17188 46.0547L129.135 74.6423L147.867 95.6048L9.17188 46.0547Z" fill="white"/>
<path d="M52.9318 73.6101L52.6094 74.1621L65.9592 82.0026L66.2817 81.4506L52.9318 73.6101Z" fill="#3CC2DD"/>
<path d="M72.174 84.907L71.8516 85.459L76.652 88.2783L76.9745 87.7264L72.174 84.907Z" fill="#3CC2DD"/>
<path d="M9.17188 46.0547L129.135 74.6423L105.816 102.82L9.17188 46.0547Z" fill="#3CC2DD"/>
<path d="M169.627 113.031C169.466 113.032 169.305 113.001 169.155 112.942L149.62 105.189C149.307 105.063 149.057 104.817 148.924 104.507C148.791 104.197 148.786 103.846 148.91 103.532C149.033 103.218 149.276 102.965 149.585 102.83C149.894 102.694 150.243 102.687 150.557 102.809L170.099 110.562C170.376 110.672 170.605 110.875 170.749 111.136C170.892 111.397 170.939 111.7 170.884 111.993C170.828 112.286 170.671 112.549 170.442 112.739C170.213 112.929 169.924 113.032 169.627 113.031Z" fill="#3CC2DD"/>
<path opacity="0.3" d="M169.627 113.031C169.466 113.032 169.305 113.001 169.155 112.942L149.62 105.189C149.307 105.063 149.057 104.817 148.924 104.507C148.791 104.197 148.786 103.846 148.91 103.532C149.033 103.218 149.276 102.965 149.585 102.83C149.894 102.694 150.243 102.687 150.557 102.809L170.099 110.562C170.376 110.672 170.605 110.875 170.749 111.136C170.892 111.397 170.939 111.7 170.884 111.993C170.828 112.286 170.671 112.549 170.442 112.739C170.213 112.929 169.924 113.032 169.627 113.031Z" fill="black"/>
<path d="M168.475 101.797C168.315 101.796 168.157 101.764 168.009 101.701L157.514 97.5114C157.357 97.4504 157.214 97.3589 157.092 97.2422C156.971 97.1254 156.874 96.9858 156.806 96.8312C156.739 96.6766 156.702 96.5102 156.699 96.3415C156.696 96.1728 156.727 96.0052 156.789 95.8483C156.85 95.6913 156.943 95.5482 157.06 95.4272C157.177 95.3062 157.317 95.2095 157.472 95.1429C157.626 95.0763 157.792 95.0411 157.961 95.0391C158.129 95.0372 158.296 95.0687 158.452 95.1317L168.947 99.3025C169.262 99.4266 169.514 99.6708 169.649 99.9814C169.785 100.292 169.791 100.644 169.668 100.959C169.578 101.204 169.416 101.416 169.202 101.566C168.989 101.716 168.735 101.796 168.475 101.797Z" fill="#3CC2DD"/>
<path opacity="0.5" d="M168.475 101.797C168.315 101.796 168.157 101.764 168.009 101.701L157.514 97.5114C157.357 97.4504 157.214 97.3589 157.092 97.2422C156.971 97.1254 156.874 96.9858 156.806 96.8312C156.739 96.6766 156.702 96.5102 156.699 96.3415C156.696 96.1728 156.727 96.0052 156.789 95.8483C156.85 95.6913 156.943 95.5482 157.06 95.4272C157.177 95.3062 157.317 95.2095 157.472 95.1429C157.626 95.0763 157.792 95.0411 157.961 95.0391C158.129 95.0372 158.296 95.0687 158.452 95.1317L168.947 99.3025C169.262 99.4266 169.514 99.6708 169.649 99.9814C169.785 100.292 169.791 100.644 169.668 100.959C169.578 101.204 169.416 101.416 169.202 101.566C168.989 101.716 168.735 101.796 168.475 101.797Z" fill="white"/>
<path d="M146.533 112.863C146.374 112.862 146.216 112.831 146.067 112.774L127.01 105.187C126.853 105.126 126.71 105.035 126.588 104.918C126.467 104.801 126.37 104.662 126.302 104.507C126.235 104.352 126.199 104.186 126.196 104.017C126.192 103.849 126.223 103.681 126.285 103.524C126.346 103.367 126.439 103.224 126.556 103.103C126.673 102.982 126.813 102.885 126.968 102.819C127.122 102.752 127.288 102.717 127.457 102.715C127.625 102.713 127.792 102.744 127.948 102.808L147.005 110.369C147.282 110.478 147.511 110.681 147.654 110.942C147.798 111.203 147.845 111.507 147.789 111.799C147.733 112.092 147.577 112.356 147.348 112.546C147.118 112.735 146.83 112.839 146.533 112.838V112.863Z" fill="#3CC2DD"/>
<path opacity="0.3" d="M146.533 112.863C146.374 112.862 146.216 112.831 146.067 112.774L127.01 105.187C126.853 105.126 126.71 105.035 126.588 104.918C126.467 104.801 126.37 104.662 126.302 104.507C126.235 104.352 126.199 104.186 126.196 104.017C126.192 103.849 126.223 103.681 126.285 103.524C126.346 103.367 126.439 103.224 126.556 103.103C126.673 102.982 126.813 102.885 126.968 102.819C127.122 102.752 127.288 102.717 127.457 102.715C127.625 102.713 127.792 102.744 127.948 102.808L147.005 110.369C147.282 110.478 147.511 110.681 147.654 110.942C147.798 111.203 147.845 111.507 147.789 111.799C147.733 112.092 147.577 112.356 147.348 112.546C147.118 112.735 146.83 112.839 146.533 112.838V112.863Z" fill="black"/>
<path d="M215.53 55.1777C217.221 58.4849 218.771 61.7985 220.245 65.1888C221.719 68.5792 223.091 72.0143 224.29 75.6157L224.724 76.9782C224.8 77.2213 224.909 77.6179 224.973 77.8994C225.036 78.1809 225.094 78.5007 225.126 78.7694C225.272 79.8014 225.346 80.8423 225.349 81.8847C225.359 83.8071 225.269 85.7287 225.081 87.6418C224.725 91.3454 224.145 95.0239 223.346 98.6572L219.843 98.267C219.798 94.6656 219.767 91.0258 219.639 87.4755C219.582 85.71 219.479 83.938 219.301 82.2749C219.22 81.4938 219.092 80.7184 218.918 79.9528C218.886 79.7737 218.835 79.6393 218.797 79.4922C218.759 79.3451 218.72 79.2939 218.656 79.102L218.172 77.893C216.838 74.6562 215.339 71.3938 213.808 68.1442L209.176 58.3954L215.53 55.1777Z" fill="#E4897B"/>
<path d="M219.891 97.1426L218.258 100.207L223.477 101.665C223.477 101.665 224.472 99.2024 223.285 97.2577L219.891 97.1426Z" fill="#E4897B"/>
<path d="M216.262 104.619L221.059 105.003L223.478 101.664L218.259 100.205L216.262 104.619Z" fill="#E4897B"/>
<path d="M193.564 33.0702C193.493 33.4476 193.232 33.7099 192.989 33.6587C192.747 33.6075 192.613 33.2685 192.69 32.8975C192.766 32.5265 193.021 32.2578 193.264 32.309C193.506 32.3602 193.647 32.6992 193.564 33.0702Z" fill="#263238"/>
<path d="M193.27 33.7109C192.596 34.7575 191.782 35.7066 190.852 36.532C191.069 36.7637 191.334 36.9455 191.628 37.0647C191.922 37.184 192.238 37.2379 192.555 37.2228L193.27 33.7109Z" fill="#DE5753"/>
<path d="M195.336 31.286C195.276 31.2845 195.219 31.2592 195.177 31.2157C194.994 31.0055 194.763 30.8415 194.505 30.737C194.247 30.6326 193.968 30.5905 193.69 30.6144C193.637 30.6149 193.586 30.5966 193.545 30.5627C193.505 30.5288 193.477 30.4816 193.468 30.4294C193.459 30.3772 193.469 30.3234 193.495 30.2776C193.522 30.2318 193.564 30.197 193.614 30.1794C193.969 30.1343 194.329 30.1779 194.663 30.3062C194.997 30.4346 195.294 30.6437 195.528 30.915C195.569 30.9569 195.592 31.0131 195.592 31.0717C195.592 31.1303 195.569 31.1866 195.528 31.2284C195.502 31.2519 195.472 31.2692 195.439 31.2792C195.406 31.2892 195.371 31.2915 195.336 31.286Z" fill="#263238"/>
<path d="M204.116 38.2969C203.446 41.7384 202.776 48.0329 205.175 50.3294C205.175 50.3294 204.237 53.8157 197.863 53.8157C190.845 53.8157 194.52 50.3294 194.52 50.3294C198.348 49.4146 198.24 46.568 197.576 43.9005L204.116 38.2969Z" fill="#E4897B"/>
<path d="M206.137 52.497C206.641 50.8146 207.196 48.8891 206.048 48.2814C204.772 47.6417 197.837 46.9381 195.444 48.1855C193.052 49.4329 193.735 52.8552 193.735 52.8552L206.137 52.497Z" fill="#263238"/>
<path d="M220.849 212.017C220.651 212.043 220.449 212.03 220.257 211.977C220.064 211.924 219.883 211.833 219.726 211.71C219.671 211.632 219.641 211.539 219.641 211.444C219.641 211.349 219.671 211.256 219.726 211.179C219.763 211.112 219.813 211.055 219.873 211.009C219.934 210.964 220.003 210.932 220.077 210.916C220.766 210.763 222.055 211.646 222.112 211.684C222.129 211.698 222.141 211.716 222.149 211.736C222.157 211.756 222.16 211.778 222.157 211.799C222.153 211.82 222.143 211.839 222.128 211.854C222.114 211.869 222.095 211.879 222.074 211.882C221.671 211.969 221.261 212.014 220.849 212.017ZM220.262 211.121H220.128C220.085 211.13 220.044 211.148 220.009 211.175C219.974 211.201 219.945 211.236 219.924 211.275C219.822 211.454 219.886 211.53 219.924 211.556C220.122 211.825 221.079 211.825 221.78 211.71C221.323 211.407 220.804 211.21 220.262 211.134V211.121Z" fill="#3CC2DD"/>
<path d="M222.049 211.902H221.998C221.513 211.633 220.575 210.622 220.671 210.085C220.687 210.002 220.732 209.927 220.797 209.874C220.862 209.82 220.944 209.791 221.028 209.791C221.112 209.782 221.197 209.789 221.278 209.814C221.359 209.838 221.435 209.878 221.5 209.932C222.043 210.379 222.138 211.735 222.138 211.793C222.141 211.813 222.137 211.834 222.128 211.852C222.119 211.87 222.105 211.885 222.087 211.895C222.075 211.9 222.062 211.902 222.049 211.902ZM221.105 209.983H221.079C220.932 209.983 220.92 210.072 220.913 210.098C220.856 210.411 221.456 211.185 221.934 211.55C221.902 211.016 221.711 210.503 221.385 210.079C221.342 210.045 221.293 210.02 221.241 210.006C221.188 209.992 221.133 209.988 221.079 209.995L221.105 209.983Z" fill="#3CC2DD"/>
<path d="M192.709 212.016C192.109 212.016 191.528 211.933 191.331 211.664C191.281 211.593 191.254 211.508 191.254 211.421C191.254 211.334 191.281 211.249 191.331 211.178C191.369 211.112 191.421 211.055 191.482 211.01C191.544 210.965 191.614 210.933 191.688 210.916C192.46 210.705 194.106 211.639 194.176 211.677C194.195 211.689 194.21 211.707 194.219 211.727C194.228 211.747 194.231 211.77 194.227 211.792C194.224 211.815 194.213 211.835 194.197 211.851C194.181 211.867 194.16 211.878 194.138 211.882C193.667 211.971 193.188 212.016 192.709 212.016ZM191.962 211.108C191.892 211.098 191.822 211.098 191.752 211.108C191.707 211.117 191.664 211.135 191.627 211.161C191.59 211.188 191.558 211.222 191.535 211.261C191.452 211.402 191.484 211.466 191.535 211.504C191.745 211.799 192.932 211.818 193.813 211.696C193.239 211.386 192.61 211.19 191.962 211.12V211.108Z" fill="#3CC2DD"/>
<path d="M194.123 211.901H194.078C193.511 211.652 192.394 210.622 192.477 210.104C192.477 209.976 192.585 209.822 192.892 209.79C193.006 209.773 193.122 209.781 193.232 209.814C193.343 209.847 193.444 209.905 193.53 209.982C194.129 210.468 194.251 211.735 194.257 211.792C194.26 211.812 194.257 211.832 194.249 211.85C194.241 211.868 194.228 211.883 194.212 211.895C194.199 211.902 194.184 211.906 194.168 211.908C194.153 211.909 194.138 211.906 194.123 211.901ZM192.981 209.982H192.911C192.713 209.982 192.7 210.084 192.694 210.11C192.643 210.43 193.409 211.229 193.97 211.575C193.915 211.037 193.691 210.531 193.332 210.129C193.241 210.05 193.127 210.003 193.007 209.995L192.981 209.982Z" fill="#3CC2DD"/>
<path d="M199.28 211.785H194.591L194.125 200.904H198.814L199.28 211.785Z" fill="#E4897B"/>
<path d="M227.422 211.785H222.733L220.379 200.904H225.062L227.422 211.785Z" fill="#E4897B"/>
<path d="M222.401 211.242H227.665C227.759 211.243 227.849 211.276 227.922 211.335C227.996 211.394 228.046 211.476 228.067 211.568L228.992 215.746C229.013 215.847 229.011 215.952 228.986 216.053C228.961 216.154 228.913 216.248 228.847 216.328C228.781 216.408 228.697 216.472 228.603 216.515C228.509 216.558 228.406 216.579 228.303 216.577C226.465 216.545 225.572 216.436 223.256 216.436C221.833 216.436 218.898 216.59 216.927 216.59C214.956 216.59 214.707 214.671 215.511 214.46C219.122 213.667 220.481 212.573 221.635 211.536C221.845 211.346 222.118 211.241 222.401 211.242Z" fill="#263238"/>
<path d="M194.622 211.242H199.726C199.82 211.243 199.911 211.276 199.984 211.335C200.057 211.394 200.108 211.476 200.128 211.568L201.053 215.746C201.075 215.846 201.074 215.951 201.05 216.051C201.027 216.152 200.98 216.245 200.915 216.325C200.85 216.405 200.768 216.469 200.675 216.513C200.582 216.557 200.48 216.579 200.377 216.577C198.533 216.545 195.866 216.436 193.544 216.436C190.832 216.436 188.484 216.59 185.301 216.59C183.387 216.59 182.845 214.671 183.648 214.46C187.317 213.654 190.309 213.571 193.48 211.613C193.818 211.383 194.214 211.254 194.622 211.242Z" fill="#263238"/>
<path d="M192.37 58.5821C188.45 58.2777 184.551 57.7587 180.688 57.0277C178.774 56.6567 176.822 56.2409 174.882 55.7163C172.894 55.2062 170.942 54.5651 169.038 53.7973C168.547 53.5926 168.049 53.3687 167.558 53.1576C167.005 52.8844 166.472 52.5723 165.963 52.2237C165.044 51.6159 164.253 50.9827 163.468 50.3558C161.905 49.0764 160.457 47.797 159.002 46.4857C156.15 43.8374 153.445 41.0995 150.836 38.2209L153.184 35.5918L162.441 42.2637C163.966 43.364 165.51 44.4451 167.028 45.4622C167.781 45.9675 168.553 46.4409 169.261 46.8439C169.557 47.0132 169.864 47.1628 170.18 47.2917C170.557 47.4388 170.939 47.5859 171.341 47.7267C174.789 48.7912 178.316 49.5826 181.887 50.0935C185.53 50.6692 189.295 51.1426 192.931 51.5264L192.37 58.5821Z" fill="#E4897B"/>
<path d="M213.565 51.3911C217.96 52.4018 222.401 65.2787 222.401 65.2787L213.36 71.7843C213.36 71.7843 210.808 65.7841 208.346 60.5386C205.768 55.0437 209.073 50.3612 213.565 51.3911Z" fill="#3CC2DD"/>
<path opacity="0.4" d="M213.565 51.3911C217.96 52.4018 222.401 65.2787 222.401 65.2787L213.36 71.7843C213.36 71.7843 210.808 65.7841 208.346 60.5386C205.768 55.0437 209.073 50.3612 213.565 51.3911Z" fill="black"/>
<path d="M211.031 58.4277L209.238 62.4514C211.095 66.4686 212.792 70.4475 213.245 71.5093C213.181 66.7565 212.282 60.8585 211.031 58.4277Z" fill="#3CC2DD"/>
<path opacity="0.6" d="M211.031 58.4277L209.238 62.4514C211.095 66.4686 212.792 70.4475 213.245 71.5093C213.181 66.7565 212.282 60.8585 211.031 58.4277Z" fill="black"/>
<path d="M187.311 51.6344C187.311 51.6344 182.322 57.2828 187.03 92.2545H212.097C212.276 88.4164 209.858 69.5712 213.564 51.3913C210.794 50.8563 207.991 50.5016 205.175 50.3294C201.626 50.1246 198.069 50.1246 194.52 50.3294C192.087 50.5752 189.676 51.0116 187.311 51.6344Z" fill="#3CC2DD"/>
<path opacity="0.4" d="M187.311 51.6344C187.311 51.6344 182.322 57.2828 187.03 92.2545H212.097C212.276 88.4164 209.858 69.5712 213.564 51.3913C210.794 50.8563 207.991 50.5016 205.175 50.3294C201.626 50.1246 198.069 50.1246 194.52 50.3294C192.087 50.5752 189.676 51.0116 187.311 51.6344Z" fill="black"/>
<path d="M185.455 58.4277C185.289 59.7519 185.161 61.3191 185.078 63.1678C187.554 62.4229 189.906 61.3149 192.058 59.8798L185.455 58.4277Z" fill="#3CC2DD"/>
<path opacity="0.6" d="M185.455 58.4277C185.289 59.7519 185.161 61.3191 185.078 63.1678C187.554 62.4229 189.906 61.3149 192.058 59.8798L185.455 58.4277Z" fill="black"/>
<path d="M196.197 59.1322C192.841 62.1131 180.03 61.8125 180.03 61.8125L179.609 49.377C183.936 49.9948 188.299 50.3111 192.669 50.3237C199.808 50.1766 199.86 55.8442 196.197 59.1322Z" fill="#3CC2DD"/>
<path opacity="0.4" d="M196.197 59.1322C192.841 62.1131 180.03 61.8125 180.03 61.8125L179.609 49.377C183.936 49.9948 188.299 50.3111 192.669 50.3237C199.808 50.1766 199.86 55.8442 196.197 59.1322Z" fill="black"/>
<path d="M153.305 35.6174L150.115 31.8496L146.676 35.6877C146.676 35.6877 148.794 39.2572 152.156 38.6943L153.305 35.6174Z" fill="#E4897B"/>
<path d="M145.546 27.4551L144.309 32.3743L146.65 35.6623L150.089 31.8497L145.546 27.4551Z" fill="#E4897B"/>
<path d="M194.125 200.912L194.367 206.516H199.057L198.814 200.912H194.125Z" fill="#CE6F64"/>
<path d="M225.068 200.912H220.379L221.591 206.516H226.28L225.068 200.912Z" fill="#CE6F64"/>
<path d="M196.943 28.4265C192.739 26.5074 191.412 17.9804 203.508 20.1106C203.508 20.1106 201.684 22.132 205.384 23.4113C209.084 24.6907 205.99 32.5909 196.943 28.4265Z" fill="#263238"/>
<path d="M206.081 34.8231C204.875 39.3009 204.403 42.026 201.615 43.9003C197.442 46.7149 192.255 43.4845 192.09 38.706C191.943 34.4137 193.94 27.7674 198.757 26.859C199.82 26.65 200.919 26.7176 201.948 27.0554C202.978 27.3931 203.905 27.9898 204.639 28.7884C205.373 29.587 205.892 30.561 206.144 31.6174C206.396 32.6739 206.375 33.7775 206.081 34.8231Z" fill="#E4897B"/>
<path d="M203.341 22.3497C206.206 23.9489 210.085 24.9084 209.721 27.1857C209.242 29.9683 212.062 28.2284 211.405 32.3672C210.978 35.073 206.001 43.2738 202.473 42.8772C197.203 42.2375 197.873 34.2031 197.854 29.9683C197.841 27.4672 197.727 19.196 203.341 22.3497Z" fill="#263238"/>
<path d="M197.224 25.9375C195.948 26.2382 194.257 33.6137 199.202 34.2918C204.886 35.0658 197.224 25.9375 197.224 25.9375Z" fill="#263238"/>
<path d="M197.351 28.5554C195.788 28.6961 192.247 26.809 192.681 23.9688C192.681 23.9496 194.92 27.2888 197.351 28.5554Z" fill="#263238"/>
<path d="M199.675 34.8802C199.195 35.9349 198.381 36.8009 197.359 37.343C196.013 38.0467 195.253 37.0232 195.56 35.667C195.834 34.4516 196.868 32.6157 198.252 32.4686C199.637 32.3215 200.23 33.6009 199.675 34.8802Z" fill="#E4897B"/>
<path d="M206.691 29.7065C207.645 29.2916 208.481 28.6461 209.124 27.8278C209.768 27.0095 210.199 26.0439 210.379 25.0176C210.379 25.0176 212.484 30.8835 206.691 29.7065Z" fill="#263238"/>
<path d="M212.014 29.6107C211.571 29.3117 211.06 29.1278 210.527 29.0753C209.995 29.0228 209.458 29.1035 208.965 29.31C208.965 29.31 210.93 26.7577 212.014 29.6107Z" fill="#263238"/>
<path d="M195.922 92.2541C195.922 92.2541 201.243 128.166 204.158 141.619C207.348 156.332 219.407 205.434 219.407 205.434H227.988C227.988 205.434 220.045 157.541 218.22 142.93C216.242 127.098 212.095 92.2285 212.095 92.2285L195.922 92.2541Z" fill="#3CC2DD"/>
<path opacity="0.5" d="M195.922 92.2541C195.922 92.2541 201.243 128.166 204.158 141.619C207.348 156.332 219.407 205.434 219.407 205.434H227.988C227.988 205.434 220.045 157.541 218.22 142.93C216.242 127.098 212.095 92.2285 212.095 92.2285L195.922 92.2541Z" fill="white"/>
<path d="M218.036 202.262C217.998 202.262 218.923 205.569 218.923 205.569H228.582L228.404 202.62L218.036 202.262Z" fill="#3CC2DD"/>
<path opacity="0.1" d="M218.036 202.262C217.998 202.262 218.923 205.569 218.923 205.569H228.582L228.404 202.62L218.036 202.262Z" fill="black"/>
<path d="M199.287 105.048C205.437 106.257 204.786 129.254 204.046 141.082C202.273 132.721 199.676 116.633 197.902 105.215C198.331 105.003 198.82 104.944 199.287 105.048Z" fill="#3CC2DD"/>
<path opacity="0.4" d="M199.287 105.048C205.437 106.257 204.786 129.254 204.046 141.082C202.273 132.721 199.676 116.633 197.902 105.215C198.331 105.003 198.82 104.944 199.287 105.048Z" fill="white"/>
<path d="M187.027 92.2539C187.027 92.2539 186.389 127.385 186.893 141.721C187.423 156.626 192.635 205.434 192.635 205.434H200.572C200.572 205.434 200.865 157.496 201.21 142.86C201.599 126.899 203.519 92.2539 203.519 92.2539H187.027Z" fill="#3CC2DD"/>
<path opacity="0.5" d="M187.027 92.2539C187.027 92.2539 186.389 127.385 186.893 141.721C187.423 156.626 192.635 205.434 192.635 205.434H200.572C200.572 205.434 200.865 157.496 201.21 142.86C201.599 126.899 203.519 92.2539 203.519 92.2539H187.027Z" fill="white"/>
<path d="M194.282 199.715C194.263 199.715 194.244 199.708 194.23 199.695C194.216 199.682 194.207 199.664 194.205 199.645C192.802 186.135 189.503 153.447 189.101 141.721C188.674 129.753 189.063 102.899 189.191 94.9537C189.191 94.9334 189.199 94.9138 189.213 94.8994C189.228 94.885 189.247 94.877 189.267 94.877C189.288 94.8769 189.308 94.8848 189.324 94.899C189.339 94.9132 189.349 94.9328 189.35 94.9537C189.223 102.899 188.833 129.753 189.261 141.715C189.676 153.44 192.974 186.115 194.365 199.626C194.365 199.647 194.358 199.668 194.343 199.685C194.329 199.701 194.31 199.712 194.288 199.715H194.282Z" fill="#3CC2DD"/>
<path opacity="0.4" d="M194.282 199.715C194.263 199.715 194.244 199.708 194.23 199.695C194.216 199.682 194.207 199.664 194.205 199.645C192.802 186.135 189.503 153.447 189.101 141.721C188.674 129.753 189.063 102.899 189.191 94.9537C189.191 94.9334 189.199 94.9138 189.213 94.8994C189.228 94.885 189.247 94.877 189.267 94.877C189.288 94.8769 189.308 94.8848 189.324 94.899C189.339 94.9132 189.349 94.9328 189.35 94.9537C189.223 102.899 188.833 129.753 189.261 141.715C189.676 153.44 192.974 186.115 194.365 199.626C194.365 199.647 194.358 199.668 194.343 199.685C194.329 199.701 194.31 199.712 194.288 199.715H194.282Z" fill="white"/>
<path d="M191.091 202.262C191.059 202.262 191.544 205.569 191.544 205.569H201.197L201.459 202.62L191.091 202.262Z" fill="#3CC2DD"/>
<path opacity="0.1" d="M191.091 202.262C191.059 202.262 191.544 205.569 191.544 205.569H201.197L201.459 202.62L191.091 202.262Z" fill="black"/>
</svg>
