<svg width="309" height="260" viewBox="0 0 309 260" fill="none" xmlns="http://www.w3.org/2000/svg">
<g clip-path="url(#clip0_825_32211)">
<path d="M154.499 259.648C239.675 259.648 308.724 255.606 308.724 250.62C308.724 245.634 239.675 241.592 154.499 241.592C69.3225 241.592 0.273438 245.634 0.273438 250.62C0.273438 255.606 69.3225 259.648 154.499 259.648Z" fill="#F5F5F5"/>
<path d="M249.855 246.066H249.004C248.826 246.052 248.66 245.974 248.535 245.847C248.411 245.719 248.337 245.55 248.328 245.372L243.094 208.828H247.071L250.539 245.132C250.558 245.239 250.555 245.349 250.531 245.454C250.507 245.56 250.461 245.659 250.397 245.747C250.333 245.834 250.252 245.907 250.159 245.962C250.066 246.017 249.962 246.052 249.855 246.066Z" fill="#A8E1F0"/>
<path opacity="0.3" d="M249.855 246.066H249.004C248.826 246.052 248.66 245.974 248.535 245.847C248.411 245.719 248.337 245.55 248.328 245.372L243.094 208.828H247.071L250.539 245.132C250.558 245.239 250.555 245.349 250.531 245.454C250.507 245.56 250.461 245.659 250.397 245.747C250.333 245.834 250.252 245.907 250.159 245.962C250.066 246.017 249.962 246.052 249.855 246.066Z" fill="black"/>
<path d="M260.769 246.066H259.918C259.74 246.052 259.574 245.974 259.449 245.847C259.325 245.719 259.251 245.55 259.242 245.372L254.008 208.828H257.985L261.461 245.132C261.48 245.24 261.477 245.35 261.452 245.456C261.427 245.562 261.381 245.662 261.316 245.749C261.251 245.837 261.169 245.91 261.075 245.964C260.981 246.019 260.877 246.053 260.769 246.066Z" fill="#A8E1F0"/>
<path opacity="0.3" d="M260.769 246.066H259.918C259.74 246.052 259.574 245.974 259.449 245.847C259.325 245.719 259.251 245.55 259.242 245.372L254.008 208.828H257.985L261.461 245.132C261.48 245.24 261.477 245.35 261.452 245.456C261.427 245.562 261.381 245.662 261.316 245.749C261.251 245.837 261.169 245.91 261.075 245.964C260.981 246.019 260.877 246.053 260.769 246.066Z" fill="black"/>
<path d="M199.97 246.066H200.821C200.999 246.052 201.166 245.974 201.29 245.847C201.414 245.719 201.488 245.55 201.497 245.372L206.731 208.828H202.754L199.286 245.132C199.267 245.239 199.27 245.349 199.294 245.454C199.318 245.56 199.364 245.659 199.428 245.747C199.492 245.834 199.573 245.907 199.666 245.962C199.76 246.017 199.863 246.052 199.97 246.066Z" fill="#A8E1F0"/>
<path opacity="0.3" d="M199.97 246.066H200.821C200.999 246.052 201.166 245.974 201.29 245.847C201.414 245.719 201.488 245.55 201.497 245.372L206.731 208.828H202.754L199.286 245.132C199.267 245.239 199.27 245.349 199.294 245.454C199.318 245.56 199.364 245.659 199.428 245.747C199.492 245.834 199.573 245.907 199.666 245.962C199.76 246.017 199.863 246.052 199.97 246.066Z" fill="black"/>
<path d="M189.056 246.066H189.907C190.085 246.052 190.251 245.974 190.376 245.847C190.5 245.719 190.574 245.55 190.583 245.372L195.817 208.828H191.84L188.372 245.132C188.353 245.239 188.356 245.349 188.38 245.454C188.404 245.56 188.45 245.659 188.514 245.747C188.578 245.834 188.659 245.907 188.752 245.962C188.845 246.017 188.949 246.052 189.056 246.066Z" fill="#A8E1F0"/>
<path opacity="0.3" d="M189.056 246.066H189.907C190.085 246.052 190.251 245.974 190.376 245.847C190.5 245.719 190.574 245.55 190.583 245.372L195.817 208.828H191.84L188.372 245.132C188.353 245.239 188.356 245.349 188.38 245.454C188.404 245.56 188.45 245.659 188.514 245.747C188.578 245.834 188.659 245.907 188.752 245.962C188.845 246.017 188.949 246.052 189.056 246.066Z" fill="black"/>
<path d="M174.912 165.497H201.702C206.475 148.948 223.561 135.893 241.076 135.893H249.778C268.073 135.893 279.941 150.193 276.202 167.842C275.503 171.089 274.355 174.222 272.79 177.15L268.566 202.823C268.025 206.14 265.384 208.828 262.68 208.828H182.039C179.335 208.828 176.694 206.14 176.153 202.823L170.999 171.471C170.45 168.185 172.208 165.497 174.912 165.497Z" fill="#A8E1F0"/>
<path opacity="0.5" d="M174.912 165.497H201.702C206.475 148.948 223.561 135.893 241.076 135.893H249.778C268.073 135.893 279.941 150.193 276.202 167.842C275.503 171.089 274.355 174.222 272.79 177.15L268.566 202.823C268.025 206.14 265.384 208.828 262.68 208.828H182.039C179.335 208.828 176.694 206.14 176.153 202.823L170.999 171.471C170.45 168.185 172.208 165.497 174.912 165.497Z" fill="white"/>
<path d="M168.206 236.614L174.84 239.661C174.953 239.709 175.043 239.799 175.09 239.912C175.138 240.025 175.14 240.153 175.095 240.267L173.003 245.683C172.878 245.959 172.648 246.175 172.365 246.283C172.082 246.39 171.768 246.381 171.491 246.257C169.2 245.156 168.158 244.51 165.239 243.17C162.154 241.641 159.172 239.91 156.315 237.986C154.151 236.391 155.742 234.238 156.816 234.716C161.668 236.862 164.77 237.053 167.021 236.511C167.416 236.408 167.835 236.444 168.206 236.614Z" fill="#263238"/>
<path d="M215.254 155.066C215.254 155.066 172.834 155.593 172.174 172.357C171.235 196.459 167.688 236.472 167.688 236.472L174.846 239.662C174.846 239.662 187.382 199.514 187.828 180.692C199.759 177.725 230.439 180.692 234.042 170.914C235.808 165.828 236.276 160.38 235.402 155.066H215.254Z" fill="#A8E1F0"/>
<path opacity="0.2" d="M215.254 155.066C215.254 155.066 172.834 155.593 172.174 172.357C171.235 196.459 167.688 236.472 167.688 236.472L174.846 239.662C174.846 239.662 187.382 199.514 187.828 180.692C199.759 177.725 230.439 180.692 234.042 170.914C235.808 165.828 236.276 160.38 235.402 155.066H215.254Z" fill="black"/>
<path d="M224.283 110.954C223.909 112.501 223.535 113.897 223.114 115.348C222.692 116.8 222.255 118.211 221.793 119.631C220.863 122.47 219.837 125.294 218.659 128.085C217.48 130.939 216.112 133.71 214.563 136.38C213.75 137.791 212.852 139.152 211.874 140.455C210.797 141.898 209.556 143.209 208.176 144.363L208.056 144.467L207.802 144.658C206.999 145.184 206.083 145.512 205.129 145.615C204.529 145.689 203.923 145.689 203.324 145.615C202.49 145.513 201.67 145.315 200.882 145.025C199.658 144.583 198.47 144.05 197.326 143.43C195.285 142.291 193.311 141.035 191.416 139.665C189.571 138.334 187.789 136.954 186.055 135.518C184.321 134.083 182.658 132.615 181.012 131.036C180.589 130.625 180.33 130.074 180.282 129.486C180.233 128.897 180.399 128.311 180.749 127.836C181.098 127.361 181.608 127.029 182.182 126.902C182.757 126.775 183.359 126.861 183.875 127.144H183.915C185.792 128.189 187.685 129.297 189.586 130.334C191.488 131.371 193.365 132.416 195.25 133.389C197.135 134.362 199.028 135.287 200.818 136.037C201.639 136.388 202.488 136.67 203.355 136.882C203.613 136.959 203.882 136.994 204.151 136.986C204.206 136.986 204.151 136.986 203.984 136.986C203.579 137.032 203.191 137.177 202.854 137.408L202.472 137.695C203.256 136.931 203.947 136.077 204.533 135.151C205.231 134.1 205.871 133.011 206.45 131.889C207.669 129.482 208.76 127.011 209.719 124.488C210.697 121.92 211.612 119.288 212.463 116.624C213.314 113.961 214.11 111.225 214.849 108.649V108.553C215.187 107.316 215.996 106.263 217.103 105.619C218.209 104.976 219.523 104.795 220.762 105.116C222 105.437 223.063 106.233 223.72 107.333C224.377 108.433 224.577 109.748 224.275 110.994L224.283 110.954Z" fill="#263238"/>
<path d="M207.086 240.061H215.04C215.106 240.058 215.173 240.068 215.235 240.091C215.298 240.114 215.355 240.149 215.404 240.194C215.453 240.239 215.492 240.294 215.52 240.355C215.548 240.415 215.563 240.481 215.565 240.548L215.955 246.856C215.955 247.188 215.825 247.507 215.593 247.745C215.361 247.982 215.045 248.118 214.714 248.124C211.946 248.076 210.617 247.909 207.117 247.909C204.97 247.909 200.627 248.132 197.652 248.132C194.677 248.132 194.764 245.189 196.021 244.942C201.677 243.746 203.864 242.095 205.861 240.516C206.209 240.234 206.639 240.075 207.086 240.061Z" fill="#263238"/>
<path d="M226.686 155.067C226.686 155.067 188.211 158.321 189.158 175.077C190.192 193.421 207.087 240.077 207.087 240.077H214.866C214.866 240.077 208.208 197.352 205.862 178.666C216.711 178.666 241.863 180.708 245.474 170.906C247.24 165.82 247.705 160.371 246.826 155.059L226.686 155.067Z" fill="#A8E1F0"/>
<path d="M184.473 127.926C183.873 126.945 183.145 126.05 182.309 125.262C180.719 126.745 179.852 131.06 179.852 131.06L182.023 131.251C182.023 131.251 184.521 130.438 184.473 127.926Z" fill="#A8E1F0"/>
<path d="M176.489 124.049L174.016 122.973C173.694 122.833 173.333 122.816 173 122.923C172.667 123.03 172.383 123.254 172.202 123.555L171.025 125.501C170.862 125.775 170.794 126.095 170.83 126.412C170.866 126.729 171.004 127.025 171.224 127.255L174.62 130.805L180.284 130.573C180.604 130.562 180.915 130.466 181.185 130.293C181.455 130.12 181.674 129.878 181.819 129.592L182.471 128.308C182.676 127.922 182.732 127.473 182.628 127.047C182.524 126.622 182.267 126.25 181.906 126.003C180.069 124.791 176.489 124.049 176.489 124.049Z" fill="#FFC3BD"/>
<path d="M214.89 109.319C213.76 116.497 212.289 131.993 215.288 155.361L246.826 155.066C246.635 138.868 249.165 123.666 251.639 108.808C251.737 108.225 251.717 107.627 251.581 107.052C251.444 106.476 251.194 105.934 250.844 105.457C250.495 104.98 250.054 104.579 249.546 104.276C249.039 103.974 248.477 103.776 247.892 103.696C238.847 102.635 229.71 102.635 220.665 103.696C219.23 103.892 217.895 104.544 216.856 105.556C215.817 106.568 215.128 107.886 214.89 109.319Z" fill="#263238"/>
<path d="M251.925 106.79C252.856 109.095 253.596 111.304 254.359 113.585C255.123 115.866 255.775 118.155 256.403 120.476C257.032 122.797 257.581 125.166 257.994 127.582C258.476 130.05 258.797 132.546 258.957 135.055C259.005 135.701 259.012 136.371 259.02 137.041V138.062C259.009 139.11 258.736 140.138 258.225 141.053C257.885 141.647 257.437 142.172 256.905 142.6C256.656 142.8 256.39 142.976 256.109 143.127C255.855 143.267 255.589 143.385 255.314 143.477C254.566 143.756 253.773 143.897 252.975 143.892C252.032 143.871 251.096 143.723 250.191 143.454C248.868 143.055 247.58 142.545 246.341 141.93C245.188 141.356 244.106 140.758 243.048 140.136C238.936 137.673 235.033 134.875 231.379 131.77C230.92 131.391 230.615 130.857 230.522 130.269C230.429 129.68 230.555 129.078 230.876 128.576C231.197 128.074 231.69 127.708 232.262 127.547C232.835 127.386 233.446 127.441 233.98 127.702H234.036C238.148 129.664 242.332 131.69 246.405 133.373C247.423 133.787 248.433 134.17 249.428 134.513C250.309 134.838 251.216 135.086 252.14 135.255C252.506 135.319 252.832 135.311 252.792 135.255C252.577 135.235 252.359 135.273 252.164 135.366C252.039 135.415 251.916 135.471 251.798 135.534C251.646 135.616 251.502 135.712 251.368 135.821C251.054 136.067 250.784 136.367 250.573 136.706C250.334 137.104 250.193 137.552 250.159 138.014L250.12 137.289C250.072 136.794 250.032 136.308 249.961 135.797C249.298 131.473 248.303 127.207 246.986 123.036C245.713 118.754 244.249 114.383 242.762 110.228V110.188C242.351 108.99 242.42 107.679 242.955 106.532C243.491 105.385 244.45 104.491 245.63 104.039C246.81 103.588 248.119 103.614 249.281 104.113C250.442 104.611 251.365 105.543 251.854 106.711L251.925 106.79Z" fill="#263238"/>
<path d="M239.316 87.6582L235.506 90.8484L230.304 95.1791C230.465 95.8695 230.576 96.5704 230.638 97.2766C230.885 99.7969 230.336 102.11 227.289 103.282C226.71 103.472 226.182 103.793 225.746 104.221C225.311 104.648 224.979 105.17 224.776 105.747C224.362 107.078 224.848 108.57 229.031 108.57C235.18 108.57 238.386 105.826 239.595 104.478C239.757 104.291 239.851 104.054 239.861 103.806C239.871 103.558 239.797 103.315 239.65 103.115C237.224 99.6373 238.322 91.9809 239.316 87.6582Z" fill="#FFC3BD"/>
<path d="M228.881 107.197C229.148 107.507 229.331 107.881 229.414 108.282C229.729 107.853 230.12 107.485 230.567 107.197C231.096 107.447 231.566 107.806 231.946 108.252C232.326 108.697 232.607 109.219 232.77 109.781C231.611 109.543 230.495 109.129 229.461 108.553C228.779 108.932 228.026 109.166 227.25 109.239C227.298 107.859 228.881 107.197 228.881 107.197Z" fill="#A8E1F0"/>
<path d="M230.57 107.197C231.675 108.53 232.403 110.136 232.678 111.847C232.678 111.847 242.86 109.294 242.382 102.635C241.487 102.211 240.537 101.918 239.559 101.766C239.559 101.766 237.371 105.753 230.57 107.197Z" fill="#A8E1F0"/>
<path d="M228.884 107.197C227.77 108.541 227 110.137 226.641 111.847C226.641 111.847 221.423 107.062 226.506 102.691C227.383 102.411 228.287 102.222 229.202 102.125C229.202 102.125 225.822 104.877 228.884 107.197Z" fill="#A8E1F0"/>
<path opacity="0.2" d="M230.305 95.1547C230.464 95.848 230.576 96.5515 230.639 97.2603C232.58 96.8695 235.165 94.8038 235.411 92.8179C235.507 92.1605 235.531 91.4946 235.483 90.832L230.305 95.1547Z" fill="black"/>
<path d="M224.739 73.9241C219.966 77.3296 222.623 85.3131 226.712 82.2585C230.8 79.2039 228.637 71.1486 224.739 73.9241Z" fill="#263238"/>
<path d="M240.892 81.0371C239.563 87.1463 239.102 90.7831 235.499 93.5745C234.338 94.4936 232.949 95.0771 231.481 95.2619C230.014 95.4467 228.524 95.2258 227.173 94.6231C225.821 94.0203 224.66 93.0587 223.814 91.8421C222.969 90.6256 222.471 89.2003 222.374 87.7205C221.897 82.0261 224.148 72.9819 230.559 71.2512C231.939 70.8387 233.403 70.7975 234.804 71.1317C236.205 71.466 237.494 72.1639 238.541 73.1554C239.588 74.147 240.356 75.3972 240.769 76.7807C241.182 78.1641 241.224 79.6321 240.892 81.0371Z" fill="#FFC3BD"/>
<path d="M238.067 76.4998C234.686 75.5667 225.968 77.7918 222.874 74.482C219.557 70.9329 224.393 69.2022 225.825 70.4384C224.02 68.3648 224.688 66.1476 227.249 66.347C229.118 66.4906 229.707 68.5642 229.707 68.5642C229.707 68.5642 229.397 64.9354 232.61 65.1906C235.521 65.4139 235.529 69.3538 235.529 69.3538C235.529 69.3538 242.481 67.3838 244.804 74.0354C249.179 73.9397 249.084 83.1752 240.278 86.4611C236.707 84.6906 236.54 78.39 238.067 76.4998Z" fill="#263238"/>
<path d="M243.866 75.3667C243.637 75.3807 243.411 75.3046 243.237 75.1545C243.063 75.0044 242.954 74.7922 242.933 74.5629C242.913 74.3335 242.982 74.1052 243.126 73.9262C243.271 73.7472 243.479 73.6317 243.707 73.6041C243.946 73.4524 244.128 73.2251 244.224 72.9581C244.352 72.7029 244.427 72.4239 244.443 72.1386C244.46 71.8533 244.418 71.5676 244.32 71.2992C244.253 71.1926 244.21 71.0729 244.193 70.9482C244.176 70.8234 244.185 70.6965 244.221 70.5758C244.257 70.4552 244.318 70.3436 244.4 70.2485C244.483 70.1534 244.584 70.077 244.698 70.0244C244.813 69.9718 244.936 69.9441 245.062 69.9434C245.188 69.9426 245.312 69.9687 245.427 70.0199C245.541 70.0711 245.644 70.1463 245.727 70.2404C245.811 70.3344 245.873 70.4453 245.91 70.5655C246.127 71.0993 246.222 71.6747 246.189 72.2499C246.156 72.8252 245.995 73.3858 245.72 73.8913C245.564 74.2488 245.329 74.5661 245.032 74.819C244.736 75.0719 244.386 75.2537 244.009 75.3508C243.963 75.3628 243.914 75.3681 243.866 75.3667Z" fill="#263238"/>
<path d="M241.889 86.7087C241.062 87.7857 239.871 88.523 238.54 88.7824C236.814 89.0934 236.289 87.4983 237.053 85.959C237.737 84.5633 239.439 82.729 241.03 83.1277C242.621 83.5265 242.907 85.3369 241.889 86.7087Z" fill="#FFC3BD"/>
<path d="M230.449 81.5964C230.37 82.0988 230.044 82.4737 229.718 82.4338C229.392 82.3939 229.185 81.9553 229.256 81.4528C229.328 80.9504 229.662 80.5755 229.996 80.6553C230.33 80.735 230.521 81.0939 230.449 81.5964Z" fill="#263238"/>
<path d="M224.77 80.9183C224.69 81.4208 224.364 81.7956 224.038 81.7159C223.712 81.6361 223.505 81.2373 223.577 80.7349C223.648 80.2324 223.982 79.8576 224.316 79.8974C224.65 79.9373 224.849 80.4159 224.77 80.9183Z" fill="#263238"/>
<path d="M226.503 81.1172C225.871 82.4121 225.068 83.6164 224.117 84.6982C224.399 84.9239 224.727 85.0845 225.077 85.1686C225.428 85.2527 225.793 85.2582 226.146 85.1847L226.503 81.1172Z" fill="#ED847E"/>
<path d="M228.474 87.7682C229.065 87.776 229.652 87.6642 230.198 87.4395C230.745 87.2147 231.241 86.8817 231.656 86.4602C231.676 86.4298 231.684 86.3935 231.679 86.3577C231.674 86.322 231.657 86.2891 231.63 86.2651C231.603 86.241 231.568 86.2274 231.532 86.2266C231.496 86.2258 231.461 86.2379 231.433 86.2608C230.979 86.7108 230.429 87.0505 229.823 87.2538C229.218 87.457 228.574 87.5184 227.941 87.4332C227.903 87.4305 227.865 87.442 227.834 87.4654C227.803 87.4889 227.782 87.5228 227.774 87.5608C227.772 87.5807 227.774 87.6009 227.78 87.6201C227.785 87.6393 227.795 87.6573 227.807 87.6728C227.82 87.6884 227.835 87.7013 227.853 87.7109C227.87 87.7204 227.89 87.7263 227.91 87.7283C228.097 87.7523 228.285 87.7656 228.474 87.7682Z" fill="#263238"/>
<path d="M232.73 78.7009C232.777 78.6911 232.821 78.6691 232.857 78.6371C232.885 78.6096 232.908 78.5768 232.923 78.5405C232.938 78.5042 232.946 78.4652 232.946 78.4258C232.946 78.3864 232.938 78.3474 232.923 78.3111C232.908 78.2748 232.885 78.2419 232.857 78.2144C232.555 77.857 232.17 77.5797 231.736 77.4072C231.302 77.2347 230.832 77.1723 230.368 77.2255C230.329 77.2317 230.292 77.2456 230.259 77.2662C230.225 77.2869 230.196 77.3139 230.173 77.3457C230.151 77.3776 230.134 77.4136 230.125 77.4518C230.116 77.49 230.115 77.5296 230.121 77.5684C230.127 77.6071 230.141 77.6443 230.162 77.6777C230.182 77.7111 230.209 77.7401 230.241 77.763C230.273 77.786 230.309 77.8025 230.347 77.8115C230.385 77.8205 230.424 77.8219 230.463 77.8156C230.829 77.78 231.199 77.834 231.539 77.9729C231.88 78.1118 232.182 78.3315 232.42 78.6132C232.457 78.6565 232.507 78.6878 232.562 78.7034C232.617 78.719 232.675 78.7181 232.73 78.7009Z" fill="#263238"/>
<path d="M222.741 78.3746C222.788 78.3875 222.836 78.3892 222.883 78.3795C222.93 78.3698 222.974 78.349 223.012 78.3188C223.297 78.0643 223.637 77.8799 224.006 77.7802C224.375 77.6805 224.761 77.6683 225.136 77.7446C225.211 77.7644 225.292 77.7538 225.36 77.7151C225.429 77.6764 225.479 77.6126 225.501 77.5372C225.512 77.4995 225.516 77.46 225.511 77.421C225.506 77.3821 225.494 77.3444 225.475 77.3102C225.456 77.2761 225.43 77.2461 225.399 77.2221C225.368 77.1981 225.332 77.1805 225.295 77.1703C224.829 77.0695 224.345 77.0797 223.884 77.2002C223.423 77.3207 222.996 77.5482 222.638 77.8642C222.578 77.914 222.54 77.9856 222.533 78.0633C222.525 78.1411 222.549 78.2186 222.598 78.2789C222.635 78.3248 222.685 78.3582 222.741 78.3746Z" fill="#263238"/>
<path d="M233.1 123.571L229.616 121.402C229.368 121.247 229.091 121.142 228.803 121.095C228.514 121.048 228.219 121.059 227.935 121.127C227.651 121.195 227.383 121.32 227.147 121.493C226.911 121.666 226.712 121.885 226.561 122.136L226.155 122.821C225.913 123.221 225.804 123.688 225.844 124.154C225.884 124.62 226.071 125.061 226.378 125.413L228.764 128.181C228.764 128.181 230.856 133.07 233.283 131.778L235.128 128.588L233.1 123.571Z" fill="#FFC3BD"/>
<path d="M236.683 129.824C236.206 128.667 235.586 127.573 234.838 126.57C233.088 128.07 231.656 132.855 231.656 132.855L233.796 133.318C234.574 133.099 235.268 132.647 235.783 132.023C236.299 131.399 236.613 130.632 236.683 129.824Z" fill="#A8E1F0"/>
<path d="M263.341 165.498H222.043C219.338 165.498 217.588 168.186 218.129 171.504L223.284 202.823C223.833 206.141 226.465 208.829 229.178 208.829H258.227L263.341 165.498Z" fill="#A8E1F0"/>
<path opacity="0.5" d="M263.341 165.498H222.043C219.338 165.498 217.588 168.186 218.129 171.504L223.284 202.823C223.833 206.141 226.465 208.829 229.178 208.829H258.227L263.341 165.498Z" fill="white"/>
<path d="M72.795 248.754H73.9882C74.1991 248.754 74.4015 248.67 74.5506 248.521C74.6998 248.371 74.7836 248.168 74.7836 247.957L81.322 149.141H76.3983L72.0235 247.845C72.0077 247.957 72.0158 248.07 72.0471 248.179C72.0784 248.287 72.1323 248.388 72.2052 248.474C72.2782 248.56 72.3684 248.629 72.4701 248.677C72.5718 248.726 72.6825 248.752 72.795 248.754Z" fill="#A8E1F0"/>
<path opacity="0.3" d="M72.795 248.754H73.9882C74.1991 248.754 74.4015 248.67 74.5506 248.521C74.6998 248.371 74.7836 248.168 74.7836 247.957L81.322 149.141H76.3983L72.0235 247.845C72.0077 247.957 72.0158 248.07 72.0471 248.179C72.0784 248.287 72.1323 248.388 72.2052 248.474C72.2782 248.56 72.3684 248.629 72.4701 248.677C72.5718 248.726 72.6825 248.752 72.795 248.754Z" fill="white"/>
<path d="M59.2716 248.754H60.4647C60.6757 248.754 60.878 248.67 61.0272 248.521C61.1764 248.371 61.2602 248.168 61.2602 247.957L67.7986 149.141H62.8669L58.5 247.845C58.4843 247.957 58.4923 248.07 58.5236 248.179C58.555 248.287 58.6089 248.388 58.6818 248.474C58.7547 248.56 58.845 248.629 58.9467 248.677C59.0484 248.726 59.1591 248.752 59.2716 248.754Z" fill="#A8E1F0"/>
<path opacity="0.3" d="M59.2716 248.754H60.4647C60.6757 248.754 60.878 248.67 61.0272 248.521C61.1764 248.371 61.2602 248.168 61.2602 247.957L67.7986 149.141H62.8669L58.5 247.845C58.4843 247.957 58.4923 248.07 58.5236 248.179C58.555 248.287 58.6089 248.388 58.6818 248.474C58.7547 248.56 58.845 248.629 58.9467 248.677C59.0484 248.726 59.1591 248.752 59.2716 248.754Z" fill="white"/>
<path d="M226.031 248.754H224.838C224.627 248.754 224.424 248.67 224.275 248.521C224.126 248.371 224.042 248.168 224.042 247.957L217.504 149.141H222.428L226.802 247.845C226.818 247.957 226.81 248.07 226.779 248.179C226.748 248.287 226.694 248.388 226.621 248.474C226.548 248.56 226.457 248.629 226.356 248.677C226.254 248.726 226.143 248.752 226.031 248.754Z" fill="#A8E1F0"/>
<path opacity="0.3" d="M226.031 248.754H224.838C224.627 248.754 224.424 248.67 224.275 248.521C224.126 248.371 224.042 248.168 224.042 247.957L217.504 149.141H222.428L226.802 247.845C226.818 247.957 226.81 248.07 226.779 248.179C226.748 248.287 226.694 248.388 226.621 248.474C226.548 248.56 226.457 248.629 226.356 248.677C226.254 248.726 226.143 248.752 226.031 248.754Z" fill="white"/>
<path d="M239.554 248.754H238.361C238.15 248.754 237.948 248.67 237.799 248.521C237.65 248.371 237.566 248.168 237.566 247.957L231.027 149.141H235.959L240.326 247.845C240.342 247.957 240.334 248.07 240.302 248.179C240.271 248.287 240.217 248.388 240.144 248.474C240.071 248.56 239.981 248.629 239.879 248.677C239.778 248.726 239.667 248.752 239.554 248.754Z" fill="#A8E1F0"/>
<path opacity="0.3" d="M239.554 248.754H238.361C238.15 248.754 237.948 248.67 237.799 248.521C237.65 248.371 237.566 248.168 237.566 247.957L231.027 149.141H235.959L240.326 247.845C240.342 247.957 240.334 248.07 240.302 248.179C240.271 248.287 240.217 248.388 240.144 248.474C240.071 248.56 239.981 248.629 239.879 248.677C239.778 248.726 239.667 248.752 239.554 248.754Z" fill="white"/>
<path d="M245.241 147.131H53.3047V149.165H245.241V147.131Z" fill="#A8E1F0"/>
<path d="M50.1102 115.644L48.2966 129.019C47.7239 133.469 47.1273 137.936 46.7057 142.322C46.65 142.872 46.6103 143.407 46.5625 143.917L46.4989 144.715C46.5121 144.582 46.5121 144.449 46.4989 144.316C46.4838 144.188 46.4545 144.062 46.4114 143.941C46.379 143.845 46.3391 143.752 46.2921 143.662C46.2604 143.598 46.2231 143.536 46.1807 143.479C46.0376 143.295 46.0217 143.319 46.0614 143.359C46.1427 143.446 46.2334 143.524 46.3319 143.59C46.6666 143.82 47.0175 144.025 47.3818 144.204C49.275 145.072 51.229 145.8 53.2282 146.382C57.3963 147.65 61.7791 148.774 66.1062 149.819L65.613 153.623C60.987 153.484 56.3772 153.007 51.8203 152.196C49.4059 151.789 47.0336 151.161 44.7331 150.322C44.0572 150.06 43.4006 149.751 42.7684 149.396C42.3781 149.173 42.0057 148.92 41.6548 148.639C41.1682 148.252 40.7419 147.795 40.39 147.283C40.1367 146.904 39.9335 146.494 39.7855 146.063C39.7042 145.801 39.6404 145.535 39.5946 145.265C39.5654 145 39.5495 144.734 39.5469 144.468V143.582C39.5469 142.992 39.5469 142.402 39.5946 141.82C39.7855 137.162 40.2071 132.616 40.7002 128.07C41.1934 123.524 41.7661 119.018 42.4741 114.512L50.1102 115.644Z" fill="#7F3E3B"/>
<path d="M76.0796 153.925L73.1604 156.597C72.8266 156.901 72.4098 157.098 71.9635 157.164C71.5171 157.229 71.0615 157.159 70.6548 156.964L67.4333 155.408C67.4333 155.408 62.6608 155.209 61.9688 152.282L63.2096 150.009L70.615 149.211C71.3751 149.129 72.1409 149.3 72.7945 149.698L75.849 151.572C76.041 151.694 76.2028 151.858 76.322 152.052C76.4412 152.247 76.5147 152.465 76.537 152.692C76.5592 152.919 76.5296 153.148 76.4503 153.361C76.3711 153.575 76.2443 153.768 76.0796 153.925Z" fill="#7F3E3B"/>
<path d="M58.6116 88.1758C59.407 92.7696 60.0115 101.152 56.7344 104.127C56.7344 104.127 64.6887 108.322 69.9623 115.643C75.5303 111.193 70.8771 104.549 70.8771 104.549C65.8341 103.186 66.1045 99.4132 67.067 95.896L58.6116 88.1758Z" fill="#7F3E3B"/>
<path d="M73.5557 107.341C73.5557 107.341 73.1341 103.449 71.0182 101.527C69.2444 99.9316 59.8822 100.809 56.963 101.136C56.6919 101.168 56.4334 101.269 56.211 101.428C55.9886 101.587 55.8096 101.799 55.6903 102.045L53.5586 106.511L73.5557 107.341Z" fill="#A8E1F0"/>
<path opacity="0.8" d="M73.5557 107.341C73.5557 107.341 73.1341 103.449 71.0182 101.527C69.2444 99.9316 59.8822 100.809 56.963 101.136C56.6919 101.168 56.4334 101.269 56.211 101.428C55.9886 101.587 55.8096 101.799 55.6903 102.045L53.5586 106.511L73.5557 107.341Z" fill="white"/>
<path d="M47.6974 105.276C41.9385 107.158 40.6976 114.902 41.2226 120.923L52.8438 128.101C52.8438 128.101 55.6676 119.328 55.6437 114.607C55.6198 109.614 51.6109 104.015 47.6974 105.276Z" fill="#A8E1F0"/>
<path d="M49.9472 126.354C49.8007 126.357 49.655 126.331 49.5185 126.278C49.382 126.224 49.2574 126.145 49.1517 126.043C49.1044 125.991 49.0618 125.935 49.0245 125.875C48.9807 125.817 48.9458 125.753 48.9211 125.684C48.8951 125.619 48.8739 125.552 48.8574 125.485C48.8496 125.416 48.8496 125.346 48.8574 125.277C48.854 125.13 48.8804 124.983 48.9351 124.846C48.9898 124.709 49.0716 124.584 49.1756 124.48C49.3822 124.284 49.6554 124.176 49.9392 124.176C50.2231 124.176 50.4962 124.284 50.7028 124.48C50.8068 124.584 50.8887 124.709 50.9433 124.846C50.998 124.983 51.0244 125.13 51.021 125.277C51.0288 125.346 51.0288 125.416 51.021 125.485C51.0086 125.554 50.9872 125.621 50.9574 125.684C50.9353 125.752 50.9031 125.817 50.8619 125.875L50.7267 126.043C50.624 126.144 50.5021 126.224 50.3682 126.277C50.2344 126.331 50.0912 126.357 49.9472 126.354Z" fill="white"/>
<path d="M47.7136 125.62C47.5159 125.544 47.3449 125.411 47.2219 125.238C47.0988 125.065 47.0292 124.86 47.0215 124.647C46.8657 124.789 46.6715 124.881 46.4634 124.913C46.2553 124.944 46.0427 124.913 45.8523 124.823C45.6621 124.734 45.5017 124.592 45.3902 124.413C45.2788 124.235 45.221 124.028 45.2239 123.818C45.0602 123.951 44.8608 124.031 44.651 124.05C44.4413 124.068 44.2309 124.024 44.0466 123.922C43.862 123.823 43.7101 123.672 43.6098 123.488C43.5094 123.304 43.465 123.094 43.4819 122.885C43.3097 123.006 43.1058 123.075 42.8952 123.082C42.6847 123.089 42.4767 123.034 42.2967 122.925C42.0528 122.776 41.8775 122.536 41.809 122.259C41.7404 121.981 41.7842 121.687 41.9308 121.441C42.0807 121.196 42.321 121.02 42.5994 120.952C42.8778 120.883 43.172 120.927 43.4183 121.074C43.5871 121.181 43.7241 121.332 43.8151 121.51C43.9061 121.688 43.9476 121.887 43.9353 122.087C44.0978 121.97 44.29 121.901 44.4898 121.889C44.6895 121.876 44.8888 121.92 45.0648 122.015C45.2408 122.111 45.3874 122.252 45.4884 122.425C45.5894 122.598 45.641 122.796 45.6375 122.996C45.7934 122.872 45.981 122.793 46.1791 122.769C46.3772 122.745 46.578 122.777 46.7591 122.861C46.9401 122.944 47.0946 123.077 47.2055 123.243C47.3164 123.409 47.3793 123.602 47.3874 123.802C47.5375 123.671 47.7205 123.582 47.9167 123.547C48.1128 123.512 48.3149 123.531 48.501 123.603C48.7662 123.709 48.9787 123.916 49.0919 124.179C49.2052 124.442 49.2101 124.74 49.1056 125.006C49.027 125.209 48.8892 125.382 48.7103 125.505C48.5315 125.627 48.3199 125.692 48.1033 125.692C47.9703 125.691 47.8385 125.666 47.7136 125.62Z" fill="white"/>
<path d="M41.2214 122.024C41.15 122.032 41.078 122.032 41.0066 122.024C40.9378 122.012 40.871 121.99 40.8078 121.96C40.7397 121.938 40.6754 121.906 40.6169 121.864L40.4578 121.729C40.4063 121.682 40.3609 121.628 40.3226 121.569C40.3226 121.506 40.251 121.442 40.2192 121.378C40.1944 121.313 40.1731 121.246 40.1555 121.179C40.1516 121.107 40.1516 121.035 40.1555 120.963C40.1513 120.894 40.1513 120.825 40.1555 120.756C40.1731 120.686 40.1943 120.616 40.2192 120.548C40.2454 120.483 40.2802 120.421 40.3226 120.365C40.3628 120.305 40.408 120.249 40.4578 120.198L40.6169 120.062C40.6772 120.024 40.7411 119.992 40.8078 119.966L41.0066 119.902C41.1801 119.871 41.3586 119.882 41.5273 119.933C41.696 119.984 41.8502 120.075 41.9771 120.198C42.0269 120.249 42.0721 120.305 42.1123 120.365C42.1514 120.423 42.186 120.485 42.2157 120.548C42.2416 120.615 42.2603 120.685 42.2714 120.756C42.2796 120.825 42.2796 120.894 42.2714 120.963C42.2792 121.035 42.2792 121.107 42.2714 121.179C42.2603 121.247 42.2416 121.314 42.2157 121.378C42.2157 121.442 42.1521 121.506 42.1123 121.569C42.074 121.628 42.0286 121.682 41.9771 121.729C41.7724 121.921 41.5018 122.027 41.2214 122.024Z" fill="white"/>
<path d="M84.32 116.545C83.8348 123.181 82.3633 134.346 78.752 153.152L47.619 152.227C48.4144 140.703 47.1974 132.113 44.3816 111.943C44.2617 111.07 44.3182 110.182 44.5477 109.332C44.7773 108.482 45.1752 107.687 45.7178 106.994C46.2604 106.301 46.9365 105.725 47.7059 105.299C48.4753 104.874 49.3222 104.608 50.1962 104.518C52.1927 104.311 54.4676 104.143 56.7505 104.095C61.4687 103.899 66.1949 104.04 70.8932 104.518C72.4045 104.701 73.9715 104.949 75.4669 105.204C78.0853 105.651 80.4433 107.061 82.0804 109.158C83.7175 111.255 84.5161 113.889 84.32 116.545Z" fill="#A8E1F0"/>
<path d="M74.7185 79.7546C74.7901 80.3687 75.1799 80.8313 75.5776 80.7754C75.9753 80.7196 76.2457 80.1932 76.1742 79.5791C76.1026 78.965 75.7128 78.5024 75.3151 78.5503C74.9174 78.5981 74.6469 79.1165 74.7185 79.7546Z" fill="#263238"/>
<path d="M75.1406 78.5886L76.5645 77.9824C76.5645 77.9824 75.944 79.2266 75.1406 78.5886Z" fill="#263238"/>
<path d="M74.957 80.6875C75.6714 82.0263 76.5653 83.2607 77.6138 84.3562C77.3283 84.6194 76.9888 84.8165 76.619 84.9336C76.2493 85.0507 75.8585 85.085 75.4741 85.0341L74.957 80.6875Z" fill="#630F0F"/>
<path d="M74.7913 74.3378C74.8226 74.2817 74.8391 74.2186 74.8391 74.1543C74.8391 74.0901 74.8226 74.0269 74.7913 73.9709C74.7485 73.8847 74.6736 73.8189 74.5829 73.7876C74.4921 73.7562 74.3927 73.7619 74.3061 73.8034C73.7785 74.0384 73.3151 74.3974 72.9551 74.85C72.5951 75.3025 72.3491 75.8354 72.238 76.4034C72.2312 76.4506 72.234 76.4986 72.246 76.5448C72.258 76.5909 72.2791 76.6341 72.308 76.672C72.3369 76.7099 72.373 76.7416 72.4142 76.7653C72.4554 76.789 72.501 76.8043 72.5482 76.8101C72.5952 76.8169 72.6432 76.8141 72.6892 76.8021C72.7351 76.79 72.7783 76.7689 72.8161 76.7399C72.8538 76.711 72.8854 76.6748 72.9091 76.6334C72.9328 76.5921 72.948 76.5464 72.9538 76.4991C73.0506 76.0514 73.2517 75.633 73.5406 75.2782C73.8296 74.9233 74.1982 74.6421 74.6163 74.4574C74.6871 74.44 74.7492 74.3975 74.7913 74.3378Z" fill="#263238"/>
<path d="M53.5261 79.5951C54.8942 87.1 55.3158 90.3062 59.5873 93.7356C66.0143 98.8878 74.9152 95.562 75.814 87.7939C76.6094 80.7994 74.2231 69.6976 66.5075 67.5761C64.8021 67.1006 63.0039 67.0699 61.2834 67.4869C59.5628 67.9039 57.9771 68.7548 56.6767 69.9588C55.3763 71.1629 54.4042 72.6801 53.8528 74.3666C53.3014 76.0531 53.189 77.8528 53.5261 79.5951Z" fill="#7F3E3B"/>
<path d="M70.0254 81.6998C71.2822 85.8232 74.2889 95.7925 67.6392 98.0176C62.445 99.7563 46.1626 101.144 44.2934 91.5814C42.3605 81.6998 51.1499 74.6575 51.1499 74.6575C51.1499 74.6575 44.182 68.9311 48.6443 62.6943C54.3953 54.6551 68.1721 59.2011 72.2526 64.8796C76.2377 70.4066 70.0254 81.6998 70.0254 81.6998Z" fill="#263238"/>
<path d="M57.4584 99.389C54.4583 99.3857 51.4872 98.8008 48.7087 97.6663C45.0179 96.0712 42.8623 93.6068 42.4725 90.5362C41.168 80.1123 50.8404 74.3859 50.9438 74.3301L51.3257 74.992C51.2302 75.0479 41.9953 80.527 43.2362 90.4405C43.6816 93.9577 46.6247 95.9276 49.0189 96.9565C53.7438 98.9982 59.8447 98.9822 61.3242 97.8976L61.7776 98.5196C61.0299 99.0859 59.4072 99.389 57.4584 99.389Z" fill="#263238"/>
<path d="M48.1601 73.1661C48.0726 74.498 46.9749 76.3563 51.5804 77.0183C56.186 77.6803 62.5971 77.6404 63.9175 76.5318C65.2379 75.4232 66.5265 72.7594 63.7743 72.9987C61.0222 73.2379 48.3112 70.8852 48.1601 73.1661Z" fill="#A8E1F0"/>
<path d="M67.5027 82.8727C68.2543 84.2659 69.5232 85.3061 71.0344 85.7678C73.0389 86.358 74.0729 84.5635 73.54 82.6494C73.0548 80.9267 71.4242 78.542 69.4038 78.7893C67.3834 79.0365 66.6039 81.158 67.5027 82.8727Z" fill="#7F3E3B"/>
<path d="M116.032 240.507L123.414 240.364L119.842 221.893L112.461 222.028L116.032 240.507Z" fill="#7F3E3B"/>
<path d="M121.568 232.461C123.517 239.838 130.7 247.614 130.7 247.614L120.455 244.998L115.977 238.618L116.772 236.927L121.568 232.461Z" fill="#7F3E3B"/>
<path d="M114.294 235.89C114.273 236.754 114.323 237.618 114.445 238.474C114.882 241.52 116.219 249.639 116.219 249.639H116.919C116.602 247.168 116.414 244.681 116.354 242.19C116.449 240.188 117.738 243.73 119.297 245.739C120.856 247.749 123.664 249.576 128.206 249.727C133.519 249.895 135.643 249.671 133.941 248.339C132.238 247.007 128.611 246.146 128.611 246.146C125.686 244.89 123.195 242.795 121.452 240.125C119.733 237.725 117.474 235.766 114.858 234.406C114.413 234.43 114.325 235.276 114.294 235.89Z" fill="#263238"/>
<path d="M142.179 215.409L151.597 215.704L141.058 199.992L134.535 205.583L142.179 215.409Z" fill="#7F3E3B"/>
<path d="M144.414 208.74C151.263 211.93 162.224 211.308 162.224 211.308L153.315 218.486L145.671 217.912L144.875 216.213L144.414 208.74Z" fill="#7F3E3B"/>
<path d="M142.965 216.885C143.582 217.486 144.247 218.035 144.954 218.528C147.451 220.274 154.205 224.748 154.205 224.748L154.634 224.198C152.623 222.749 150.687 221.197 148.836 219.548C147.42 218.097 150.816 219.509 153.25 219.652C155.684 219.796 158.755 218.855 161.658 215.345C165.07 211.27 166.208 209.443 164.187 209.874C162.167 210.305 159.287 212.57 159.287 212.57C156.583 214.021 153.485 214.564 150.45 214.117C147.631 213.829 144.786 214.272 142.186 215.401C141.971 215.8 142.504 216.422 142.965 216.885Z" fill="#263238"/>
<path d="M67.877 152.609C67.877 152.609 118.275 145.152 123.477 158.088C132.561 180.627 145.376 206.451 145.376 206.451L139.187 211.588C139.187 211.588 117.209 191.186 109.398 168.52C100.06 171.551 70.3508 181.281 59.4693 181.281C47.8481 181.281 43.0994 171.351 47.2993 154.85C47.4832 154.143 47.8948 153.517 48.4701 153.068C49.0454 152.62 49.7523 152.374 50.481 152.37C57.8546 152.442 67.877 152.609 67.877 152.609Z" fill="#263238"/>
<path d="M72.7062 159.189C72.7062 159.189 114.068 157.945 114.426 172.635C114.999 196.937 121.832 231.758 121.832 231.758L114.283 232.459C114.283 232.459 101.946 204.761 98.6849 181.042C83.9535 181.999 70.3676 181.337 59.4862 181.337C47.2923 181.337 46.2821 167.914 58.1498 152.242C65.4121 152.226 72.7062 159.189 72.7062 159.189Z" fill="#263238"/>
<path d="M47.1864 150.377L46.3194 153.129C46.2001 153.344 46.4467 153.568 46.8126 153.584L78.8524 154.533C79.1308 154.533 79.3694 154.413 79.3933 154.238L79.7592 151.454C79.7592 151.255 79.5444 151.087 79.2342 151.079L47.7114 150.138C47.6105 150.127 47.5085 150.143 47.4162 150.186C47.3238 150.228 47.2444 150.294 47.1864 150.377Z" fill="white"/>
<path d="M51.3182 154.037H50.4751C50.308 154.037 50.1807 153.941 50.1967 153.838L50.6978 150.217C50.6978 150.113 50.8648 150.033 51.0319 150.033H51.875C52.042 150.033 52.1693 150.129 52.1534 150.233L51.6523 153.845C51.6364 153.965 51.4852 154.045 51.3182 154.037Z" fill="#263238"/>
<path d="M76.4588 154.795H75.6157C75.4486 154.795 75.3214 154.699 75.3373 154.595L75.8464 150.974C75.8464 150.871 76.0054 150.791 76.1725 150.791H77.0156C77.1906 150.791 77.3099 150.887 77.302 150.99L76.7929 154.611C76.777 154.723 76.6338 154.795 76.4588 154.795Z" fill="#263238"/>
<path d="M63.8886 154.412H63.0455C62.8705 154.412 62.7511 154.316 62.767 154.212L63.2682 150.592C63.2682 150.488 63.4352 150.408 63.6022 150.408H64.4454C64.6124 150.408 64.7397 150.504 64.7238 150.608L64.2227 154.228C64.2068 154.34 64.0556 154.42 63.8886 154.412Z" fill="#263238"/>
<path d="M102.262 119.32H122.379C122.528 119.321 122.676 119.356 122.809 119.423C122.943 119.49 123.06 119.587 123.15 119.707C123.24 119.827 123.301 119.966 123.329 120.113C123.356 120.26 123.35 120.412 123.309 120.557L115.785 146.437C115.727 146.638 115.606 146.814 115.44 146.939C115.273 147.065 115.07 147.132 114.862 147.131H94.7376C94.5877 147.132 94.4394 147.098 94.305 147.032C94.1705 146.965 94.0536 146.868 93.9637 146.747C93.8739 146.627 93.8136 146.487 93.7877 146.339C93.7619 146.191 93.7712 146.038 93.815 145.895L101.332 120.014C101.391 119.813 101.513 119.636 101.681 119.511C101.849 119.386 102.053 119.319 102.262 119.32Z" fill="#A8E1F0"/>
<path d="M102.63 120.27L122.189 120.732L114.466 145.145L94.9062 144.674L102.63 120.27Z" fill="#E0E0E0"/>
<path d="M102.02 120.029L121.579 120.109L114.333 144.666L94.7734 144.586L102.02 120.029Z" fill="white"/>
<path d="M84.3716 120.541C84.3716 121.339 84.4909 122.28 84.5546 123.165C84.6182 124.05 84.7375 124.975 84.8568 125.877C85.0795 127.679 85.3765 129.455 85.7477 131.204C86.1046 132.91 86.5777 134.588 87.1636 136.229C87.4579 137.026 87.784 137.824 88.134 138.526C88.309 138.893 88.4999 139.235 88.6908 139.586L88.9851 140.073C88.9851 140.073 88.9294 140.073 88.9851 140.073C89.3503 140.406 89.7812 140.659 90.2498 140.815C90.9946 141.104 91.7605 141.336 92.5407 141.508C94.2971 141.88 96.074 142.146 97.8621 142.306C101.537 142.665 105.379 142.84 109.133 142.92L109.515 146.74C105.606 147.518 101.639 147.969 97.6552 148.088C95.5864 148.152 93.5156 148.067 91.4589 147.833C90.332 147.695 89.2176 147.468 88.126 147.155C86.7304 146.785 85.4326 146.112 84.3239 145.185C83.9526 144.863 83.6166 144.502 83.3217 144.109L82.8126 143.391C82.4865 142.912 82.1683 142.434 81.8978 141.947C81.3309 140.999 80.8286 140.013 80.3945 138.996C79.5452 137.047 78.8588 135.03 78.3423 132.967C77.8273 130.961 77.4315 128.926 77.1571 126.874C77.0219 125.861 76.9185 124.84 76.831 123.811C76.7435 122.782 76.6878 121.801 76.6719 120.621L84.3716 120.541Z" fill="#7F3E3B"/>
<path d="M81.7565 108.776C86.7677 113.506 85.5586 125.828 85.5586 125.828L75.9658 127.511C75.9658 127.511 70.0398 118.674 72.1239 114.973C74.2874 111.113 79.052 106.216 81.7565 108.776Z" fill="#A8E1F0"/>
<path d="M85.5611 126.913C85.414 126.915 85.2679 126.888 85.1313 126.834C84.9947 126.779 84.8704 126.697 84.7657 126.594C84.7145 126.543 84.6691 126.487 84.6305 126.426C84.5939 126.368 84.562 126.306 84.535 126.243C84.5188 126.167 84.5081 126.089 84.5032 126.011C84.4989 125.942 84.4989 125.873 84.5032 125.804C84.4982 125.657 84.5232 125.51 84.5765 125.373C84.6298 125.236 84.7104 125.111 84.8134 125.007C84.8655 124.957 84.9213 124.912 84.9804 124.871C85.037 124.831 85.0985 124.799 85.1634 124.775C85.2299 124.747 85.2992 124.725 85.3702 124.711C85.5265 124.681 85.6876 124.685 85.8421 124.724C85.9965 124.764 86.1404 124.836 86.2635 124.938C86.3865 125.039 86.4858 125.166 86.5541 125.311C86.6225 125.455 86.6582 125.612 86.6588 125.772C86.667 125.841 86.667 125.911 86.6588 125.98C86.6461 126.051 86.6247 126.121 86.5952 126.187C86.5714 126.252 86.5393 126.314 86.4997 126.37C86.4611 126.431 86.4157 126.487 86.3645 126.538C86.2642 126.653 86.1409 126.746 86.0025 126.811C85.8641 126.875 85.7137 126.91 85.5611 126.913Z" fill="white"/>
<path d="M76.8398 127.488C76.8156 127.201 76.9059 126.917 77.0908 126.697C77.2758 126.477 77.5403 126.34 77.8261 126.315C78.0253 126.297 78.2257 126.335 78.4043 126.425C78.583 126.515 78.7327 126.654 78.8363 126.826C78.9005 126.636 79.0152 126.467 79.168 126.338C79.3208 126.209 79.5059 126.124 79.7034 126.092C79.9019 126.065 80.1039 126.094 80.2876 126.174C80.4713 126.254 80.6296 126.383 80.7454 126.547C80.7906 126.353 80.889 126.175 81.0296 126.034C81.1702 125.893 81.3472 125.794 81.5408 125.749C81.7371 125.708 81.941 125.723 82.1294 125.792C82.3178 125.861 82.4831 125.981 82.6067 126.14C82.6536 125.947 82.7526 125.77 82.8929 125.629C83.0331 125.489 83.2093 125.389 83.4021 125.342C83.5411 125.306 83.686 125.297 83.8283 125.317C83.9707 125.338 84.1074 125.387 84.2306 125.461C84.3537 125.535 84.4607 125.634 84.5452 125.75C84.6297 125.867 84.69 126 84.7225 126.14C84.7581 126.279 84.7657 126.424 84.7449 126.567C84.7241 126.709 84.6752 126.846 84.6012 126.969C84.5272 127.092 84.4295 127.199 84.3137 127.284C84.198 127.369 84.0666 127.43 83.9271 127.464C83.724 127.516 83.5101 127.509 83.3112 127.442C83.1123 127.376 82.9367 127.253 82.8055 127.089C82.7607 127.295 82.6572 127.484 82.5076 127.633C82.358 127.782 82.1686 127.883 81.9624 127.926C81.756 127.965 81.5428 127.944 81.3483 127.864C81.1537 127.785 80.9859 127.652 80.8647 127.48C80.8121 127.685 80.7003 127.87 80.5433 128.012C80.3862 128.154 80.1909 128.246 79.9818 128.277C79.7734 128.307 79.5609 128.276 79.3701 128.187C79.1794 128.097 79.0188 127.954 78.9079 127.775C78.8398 127.974 78.7157 128.149 78.5506 128.28C78.3855 128.41 78.1864 128.489 77.9773 128.509H77.8898C77.6197 128.499 77.3626 128.39 77.1686 128.201C76.9746 128.012 76.8574 127.758 76.8398 127.488Z" fill="white"/>
<path d="M75.9664 128.596C75.8951 128.604 75.8231 128.604 75.7517 128.596L75.5528 128.532C75.4869 128.505 75.4231 128.473 75.3619 128.437L75.2028 128.301C75.1493 128.253 75.1037 128.196 75.0676 128.134C75.0285 128.075 74.9939 128.014 74.9642 127.95C74.9383 127.883 74.9196 127.814 74.9085 127.743C74.9003 127.674 74.9003 127.604 74.9085 127.535C74.9007 127.464 74.9007 127.392 74.9085 127.32C74.9197 127.252 74.9383 127.185 74.9642 127.121C74.9642 127.057 75.0278 126.993 75.0676 126.929C75.1059 126.871 75.1513 126.817 75.2028 126.77L75.3619 126.634C75.4213 126.594 75.4855 126.562 75.5528 126.539C75.616 126.509 75.6829 126.487 75.7517 126.475C75.9251 126.439 76.1047 126.448 76.2741 126.499C76.4435 126.551 76.5975 126.644 76.7221 126.77C76.7736 126.817 76.819 126.871 76.8573 126.929C76.8971 126.993 76.9289 127.057 76.9607 127.121C76.9855 127.186 77.0068 127.253 77.0244 127.32C77.0283 127.392 77.0283 127.464 77.0244 127.535C77.0286 127.605 77.0286 127.674 77.0244 127.743C77.0068 127.813 76.9856 127.882 76.9607 127.95C76.931 128.014 76.8964 128.075 76.8573 128.134C76.8191 128.195 76.7737 128.251 76.7221 128.301C76.5174 128.493 76.2468 128.599 75.9664 128.596Z" fill="white"/>
<path d="M118.07 138.947L114.745 138.724C113.917 138.666 113.094 138.887 112.406 139.354L106.306 143.461L106.258 146.053C108.215 148.334 112.542 146.293 112.542 146.293L116.559 146.157C116.879 146.149 117.189 146.044 117.449 145.856C117.708 145.668 117.905 145.406 118.014 145.104L119.47 141.117C119.561 140.882 119.595 140.628 119.569 140.377C119.543 140.127 119.459 139.885 119.322 139.674C119.186 139.462 119.001 139.286 118.783 139.16C118.565 139.033 118.321 138.961 118.07 138.947Z" fill="#7F3E3B"/>
<path d="M49.1764 252.351H50.0753C50.2616 252.333 50.4356 252.249 50.5666 252.115C50.6975 251.981 50.777 251.805 50.7911 251.618L56.3591 212.984H52.1513L48.4844 251.362C48.4627 251.473 48.4636 251.587 48.4869 251.697C48.5103 251.808 48.5556 251.912 48.6202 252.005C48.6849 252.097 48.7675 252.175 48.863 252.235C48.9586 252.294 49.0652 252.334 49.1764 252.351Z" fill="#A8E1F0"/>
<path opacity="0.3" d="M49.1764 252.351H50.0753C50.2616 252.333 50.4356 252.249 50.5666 252.115C50.6975 251.981 50.777 251.805 50.7911 251.618L56.3591 212.984H52.1513L48.4844 251.362C48.4627 251.473 48.4636 251.587 48.4869 251.697C48.5103 251.808 48.5556 251.912 48.6202 252.005C48.6849 252.097 48.7675 252.175 48.863 252.235C48.9586 252.294 49.0652 252.334 49.1764 252.351Z" fill="black"/>
<path d="M37.6452 252.351H38.544C38.7304 252.333 38.9044 252.249 39.0353 252.115C39.1663 251.981 39.2458 251.805 39.2599 251.618L44.8279 212.984H40.6201L36.9531 251.362C36.9315 251.473 36.9323 251.587 36.9557 251.697C36.979 251.808 37.0244 251.912 37.089 252.005C37.1536 252.097 37.2362 252.175 37.3318 252.235C37.4274 252.294 37.534 252.334 37.6452 252.351Z" fill="#A8E1F0"/>
<path opacity="0.3" d="M37.6452 252.351H38.544C38.7304 252.333 38.9044 252.249 39.0353 252.115C39.1663 251.981 39.2458 251.805 39.2599 251.618L44.8279 212.984H40.6201L36.9531 251.362C36.9315 251.473 36.9323 251.587 36.9557 251.697C36.979 251.808 37.0244 251.912 37.089 252.005C37.1536 252.097 37.2362 252.175 37.3318 252.235C37.4274 252.294 37.534 252.334 37.6452 252.351Z" fill="black"/>
<path d="M101.913 252.351H101.006C100.821 252.331 100.649 252.247 100.52 252.113C100.391 251.979 100.312 251.804 100.298 251.618L94.7305 212.984H98.9303L102.597 251.362C102.619 251.472 102.618 251.586 102.596 251.696C102.573 251.806 102.528 251.91 102.464 252.002C102.4 252.094 102.319 252.173 102.224 252.233C102.129 252.293 102.024 252.333 101.913 252.351Z" fill="#A8E1F0"/>
<path opacity="0.3" d="M101.913 252.351H101.006C100.821 252.331 100.649 252.247 100.52 252.113C100.391 251.979 100.312 251.804 100.298 251.618L94.7305 212.984H98.9303L102.597 251.362C102.619 251.472 102.618 251.586 102.596 251.696C102.573 251.806 102.528 251.91 102.464 252.002C102.4 252.094 102.319 252.173 102.224 252.233C102.129 252.293 102.024 252.333 101.913 252.351Z" fill="black"/>
<path d="M113.448 252.351H112.542C112.357 252.331 112.184 252.247 112.055 252.113C111.926 251.979 111.847 251.804 111.834 251.618L106.266 212.984H110.465L114.132 251.362C114.154 251.472 114.154 251.586 114.131 251.696C114.108 251.806 114.063 251.91 113.999 252.002C113.936 252.094 113.854 252.173 113.759 252.233C113.665 252.293 113.559 252.333 113.448 252.351Z" fill="#A8E1F0"/>
<path opacity="0.3" d="M113.448 252.351H112.542C112.357 252.331 112.184 252.247 112.055 252.113C111.926 251.979 111.847 251.804 111.834 251.618L106.266 212.984H110.465L114.132 251.362C114.154 251.472 114.154 251.586 114.131 251.696C114.108 251.806 114.063 251.91 113.999 252.002C113.936 252.094 113.854 252.173 113.759 252.233C113.665 252.293 113.559 252.333 113.448 252.351Z" fill="black"/>
<path d="M128.393 167.188H100.076C95.049 149.69 77.0086 135.893 58.4593 135.893H49.2641C29.8875 135.893 17.3834 151.046 21.3287 169.661C22.0757 173.091 23.2881 176.402 24.932 179.502L29.4023 206.619C29.975 210.12 32.767 212.959 35.6225 212.959H120.861C123.716 212.959 126.508 210.12 127.081 206.619L132.53 173.505C133.11 170.028 131.257 167.188 128.393 167.188Z" fill="#A8E1F0"/>
<path opacity="0.5" d="M128.393 167.188H100.076C95.049 149.69 77.0086 135.893 58.4593 135.893H49.2641C29.8875 135.893 17.3834 151.046 21.3287 169.661C22.0757 173.091 23.2881 176.402 24.932 179.502L29.4023 206.619C29.975 210.12 32.767 212.959 35.6225 212.959H120.861C123.716 212.959 126.508 210.12 127.081 206.619L132.53 173.505C133.11 170.028 131.257 167.188 128.393 167.188Z" fill="white"/>
<path d="M124.706 39.998H118.207V40.7956H124.706V39.998Z" fill="#A8E1F0"/>
<path d="M94.3032 49.3933H93.5078V45.4614C93.5099 44.0096 94.0866 42.618 95.1112 41.5922C96.1357 40.5664 97.5245 39.9902 98.9724 39.9902H113.473V40.7878H98.9724C97.7354 40.7878 96.549 41.2799 95.6736 42.1562C94.7982 43.0324 94.3053 44.2211 94.3032 45.4614V49.3933Z" fill="#A8E1F0"/>
<path d="M98.9696 42.7891H171.489C172.198 42.7891 172.877 43.0714 173.379 43.574C173.88 44.0765 174.161 44.7581 174.161 45.4688V73.9811C174.161 74.6939 173.879 75.3776 173.376 75.8816C172.874 76.3857 172.192 76.6688 171.481 76.6688H98.9696C98.2587 76.6688 97.5769 76.3857 97.0742 75.8816C96.5715 75.3776 96.2891 74.6939 96.2891 73.9811V45.4609C96.2901 45.1089 96.3603 44.7607 96.4955 44.436C96.6308 44.1112 96.8286 43.8164 97.0775 43.5683C97.3264 43.3202 97.6216 43.1237 97.9463 42.99C98.2709 42.8563 98.6187 42.788 98.9696 42.7891Z" fill="#A8E1F0"/>
<path d="M168.062 61.5307H102.399C101.922 61.5307 101.465 61.3408 101.128 61.0028C100.791 60.6647 100.602 60.2063 100.602 59.7282C100.602 59.2502 100.791 58.7917 101.128 58.4537C101.465 58.1157 101.922 57.9258 102.399 57.9258H168.062C168.539 57.9258 168.996 58.1157 169.333 58.4537C169.67 58.7917 169.859 59.2502 169.859 59.7282C169.859 60.2063 169.67 60.6647 169.333 61.0028C168.996 61.3408 168.539 61.5307 168.062 61.5307Z" fill="white"/>
<path d="M154.007 69.0193H102.399C101.923 69.0193 101.465 68.8294 101.128 68.4914C100.791 68.1534 100.602 67.6949 100.602 67.2168C100.6 66.9788 100.644 66.7427 100.734 66.5222C100.823 66.3016 100.955 66.1011 101.122 65.932C101.29 65.7629 101.489 65.6287 101.708 65.5371C101.927 65.4456 102.162 65.3984 102.399 65.3984H154.007C154.483 65.3984 154.941 65.5883 155.278 65.9264C155.615 66.2644 155.804 66.7228 155.804 67.2009C155.806 67.4389 155.761 67.675 155.672 67.8956C155.583 68.1161 155.451 68.3167 155.283 68.4857C155.116 68.6548 154.917 68.789 154.698 68.8806C154.479 68.9722 154.244 69.0193 154.007 69.0193Z" fill="white"/>
<path d="M124.544 54.0424H102.399C101.922 54.0424 101.465 53.8525 101.128 53.5145C100.791 53.1765 100.602 52.718 100.602 52.2399C100.602 51.7619 100.791 51.3034 101.128 50.9654C101.465 50.6274 101.922 50.4375 102.399 50.4375H124.544C125.021 50.4375 125.478 50.6274 125.815 50.9654C126.152 51.3034 126.342 51.7619 126.342 52.2399C126.342 52.718 126.152 53.1765 125.815 53.5145C125.478 53.8525 125.021 54.0424 124.544 54.0424Z" fill="white"/>
<path d="M153.896 54.0424H131.751C131.274 54.0424 130.817 53.8525 130.48 53.5145C130.143 53.1765 129.953 52.718 129.953 52.2399C129.953 51.7619 130.143 51.3034 130.48 50.9654C130.817 50.6274 131.274 50.4375 131.751 50.4375H153.896C154.372 50.4375 154.83 50.6274 155.167 50.9654C155.504 51.3034 155.693 51.7619 155.693 52.2399C155.693 52.718 155.504 53.1765 155.167 53.5145C154.83 53.8525 154.372 54.0424 153.896 54.0424Z" fill="white"/>
<path d="M100.602 74.508V83.1454C100.602 83.5157 100.704 83.8786 100.899 84.1936C101.093 84.5086 101.37 84.7632 101.701 84.9288C102.031 85.0944 102.401 85.1645 102.769 85.1312C103.137 85.0979 103.488 84.9627 103.783 84.7405L116.987 74.5L100.602 74.508Z" fill="#A8E1F0"/>
<path d="M212.418 0H139.899C139.547 0 139.199 0.0695179 138.874 0.204589C138.548 0.33966 138.253 0.537641 138.004 0.78722C137.755 1.0368 137.558 1.33309 137.423 1.65918C137.288 1.98527 137.219 2.33477 137.219 2.68773V31.2C137.219 31.9128 137.501 32.5965 138.004 33.1005C138.507 33.6046 139.188 33.8877 139.899 33.8877H197.17L207.558 41.9429C207.854 42.1651 208.205 42.3004 208.573 42.3337C208.941 42.3669 209.311 42.2968 209.641 42.1312C209.971 41.9656 210.249 41.7111 210.443 41.3961C210.637 41.0811 210.74 40.7181 210.74 40.3478V33.8718H212.371C213.082 33.8718 213.764 33.5886 214.266 33.0846C214.769 32.5805 215.051 31.8969 215.051 31.1841V2.68773C215.051 1.98312 214.776 1.30663 214.283 0.803941C213.791 0.301247 213.121 0.0125451 212.418 0Z" fill="white"/>
<path d="M208.791 42.7647C208.261 42.7613 207.747 42.5849 207.327 42.2623L197.05 34.2868H139.899C139.083 34.2847 138.301 33.9589 137.724 33.3805C137.147 32.8021 136.822 32.0183 136.82 31.2003V2.68807C136.822 1.87012 137.147 1.08628 137.724 0.507905C138.301 -0.0704713 139.083 -0.396332 139.899 -0.398438H212.418C213.234 -0.396332 214.015 -0.0704713 214.592 0.507905C215.169 1.08628 215.494 1.87012 215.496 2.68807V31.2003C215.494 32.0183 215.169 32.8021 214.592 33.3805C214.015 33.9589 213.234 34.2847 212.418 34.2868H211.185V40.3641C211.185 40.9987 210.933 41.6073 210.486 42.056C210.038 42.5047 209.431 42.7568 208.799 42.7568L208.791 42.7647ZM139.899 0.399108C139.294 0.40121 138.714 0.643041 138.287 1.07185C137.859 1.50066 137.618 2.08165 137.616 2.68807V31.2003C137.618 31.8068 137.859 32.3877 138.287 32.8165C138.714 33.2454 139.294 33.4872 139.899 33.4893H197.329L207.796 41.6243C208.031 41.8105 208.314 41.9264 208.612 41.9586C208.91 41.9909 209.211 41.9381 209.48 41.8065C209.749 41.6748 209.976 41.4696 210.134 41.2144C210.292 40.9592 210.375 40.6645 210.374 40.3641V33.4973H212.402C213.007 33.4952 213.586 33.2533 214.014 32.8245C214.441 32.3957 214.683 31.8147 214.685 31.2083V2.68807C214.683 2.08165 214.441 1.50066 214.014 1.07185C213.586 0.643041 213.007 0.40121 212.402 0.399108H139.899Z" fill="#A8E1F0"/>
<path d="M174.61 18.7512H208.989C209.225 18.7512 209.458 18.7046 209.677 18.614C209.895 18.5234 210.093 18.3907 210.26 18.2233C210.427 18.0559 210.559 17.8572 210.649 17.6385C210.74 17.4199 210.786 17.1855 210.786 16.9488C210.782 16.4728 210.591 16.0176 210.255 15.6817C209.918 15.3459 209.463 15.1564 208.989 15.1543H174.61C174.133 15.1564 173.675 15.3481 173.339 15.6874C173.002 16.0267 172.812 16.4859 172.813 16.9647C172.817 17.44 173.008 17.8944 173.345 18.229C173.681 18.5635 174.136 18.7512 174.61 18.7512Z" fill="#A8E1F0"/>
<path d="M150.602 18.7512H167.625C167.861 18.7512 168.094 18.7046 168.312 18.614C168.531 18.5234 168.729 18.3907 168.896 18.2233C169.063 18.0559 169.195 17.8572 169.285 17.6385C169.376 17.4199 169.422 17.1855 169.422 16.9488C169.418 16.4728 169.227 16.0176 168.891 15.6817C168.554 15.3459 168.099 15.1564 167.625 15.1543H150.602C150.125 15.1564 149.668 15.3481 149.331 15.6874C148.994 16.0267 148.805 16.4859 148.805 16.9647C148.809 17.44 149 17.8944 149.337 18.229C149.673 18.5635 150.128 18.7512 150.602 18.7512Z" fill="#A8E1F0"/>
<path d="M157.372 26.2402L208.987 26.2402C209.98 26.2402 210.785 25.4332 210.785 24.4378C210.785 23.4423 209.98 22.6353 208.987 22.6353L157.372 22.6353C156.379 22.6353 155.575 23.4423 155.575 24.4378C155.575 25.4332 156.379 26.2402 157.372 26.2402Z" fill="#A8E1F0"/>
<path d="M143.368 11.2613H208.991C209.468 11.2613 209.925 11.0714 210.262 10.7334C210.599 10.3954 210.788 9.93691 210.788 9.45887C210.788 8.98009 210.599 8.52081 210.262 8.18151C209.925 7.84222 209.468 7.65055 208.991 7.64844H143.368C142.89 7.65055 142.433 7.84222 142.096 8.18151C141.759 8.52081 141.57 8.98009 141.57 9.45887C141.57 9.93691 141.76 10.3954 142.097 10.7334C142.434 11.0714 142.891 11.2613 143.368 11.2613Z" fill="#A8E1F0"/>
</g>
<defs>
<clipPath id="clip0_825_32211">
<rect width="308.626" height="260" fill="white" transform="translate(0.1875)"/>
</clipPath>
</defs>
</svg>
