<svg width="144" height="172" viewBox="0 0 144 172" fill="none" xmlns="http://www.w3.org/2000/svg">
<path opacity="0.25" d="M143.461 11.7861C143.461 5.61299 137.923 0.914213 131.832 1.91966L-64.4861 34.3277C-69.315 35.1248 -72.8573 39.2999 -72.8573 44.1941V161.932C-72.8573 168.266 -67.0427 173.005 -60.8387 171.726L135.48 131.264C140.127 130.306 143.461 126.215 143.461 121.47V11.7861Z" fill="#FDBC88"/>
<path opacity="0.15" d="M-89 57.4396C-89 51.2641 -83.458 46.5647 -77.3655 47.5741L118.953 80.0995C123.779 80.8991 127.318 85.073 127.318 89.965V198.72C127.318 205.057 121.499 209.796 115.293 208.512L-81.0256 167.904C-85.6694 166.943 -89 162.853 -89 158.111V57.4396Z" fill="#3CC2DD"/>
</svg>
