<svg width="285" height="298" viewBox="0 0 285 298" fill="none" xmlns="http://www.w3.org/2000/svg">
<path opacity="0.8" d="M285 10.3515C285 4.69328 280.31 0.162069 274.655 0.35746L48.6547 8.1664C43.2695 8.35248 39 12.772 39 18.1604V244.148C39 249.807 43.6905 254.338 49.3453 254.143L275.345 246.334C280.731 246.148 285 241.728 285 236.34V10.3515Z" fill="#FDBC88"/>
<path opacity="0.25" d="M246 53.3515C246 47.6933 241.31 43.1621 235.655 43.3575L9.65468 51.1664C4.26945 51.3525 0 55.772 0 61.1604V287.148C0 292.807 4.69048 297.338 10.3453 297.143L236.345 289.334C241.731 289.148 246 284.728 246 279.34V53.3515Z" fill="#FDBC88"/>
<path d="M260 32.3515C260 26.6933 255.31 22.1621 249.655 22.3575L23.6547 30.1664C18.2695 30.3525 14 34.772 14 40.1604V266.148C14 271.807 18.6905 276.338 24.3453 276.143L250.345 268.334C255.731 268.148 260 263.728 260 258.34V32.3515Z" fill="#3CC2DD"/>
<path d="M78.5072 94.4166H76.1383V93.875C76.1383 91.4916 74.0063 89.5416 71.4005 89.5416H66.0705V84.58C65.4783 84.645 64.8861 84.6666 64.2938 84.6666C63.7016 84.6666 63.1094 84.645 62.5172 84.58V89.5416H57.1872C54.5814 89.5416 52.4494 91.4916 52.4494 93.875V94.4166H50.0805C49.1093 94.4166 48.3038 95.1533 48.3038 96.0416C48.3038 96.93 49.1093 97.6666 50.0805 97.6666H78.5072C79.4784 97.6666 80.2838 96.93 80.2838 96.0416C80.2838 95.1533 79.4784 94.4166 78.5072 94.4166Z" fill="#2A889B"/>
<path d="M48.9435 75.22C47.38 74.6784 46.0061 73.79 44.9164 72.7934C42.7133 70.5617 41.2683 67.8967 41.2683 64.7767C41.2683 61.6567 43.9452 59.2084 47.3564 59.2084H48.6829C48.067 60.3567 47.7117 61.635 47.7117 63V69.5C47.7117 71.5367 48.1381 73.465 48.9435 75.22Z" fill="#2A889B"/>
<path d="M87.3195 64.7767C87.3195 67.8967 85.8745 70.5617 83.6714 72.7934C82.5817 73.79 81.2078 74.6784 79.6443 75.22C80.4497 73.465 80.8761 71.5367 80.8761 69.5V63C80.8761 61.635 80.5208 60.3567 79.9049 59.2084H81.2314C84.6426 59.2084 87.3195 61.6567 87.3195 64.7767Z" fill="#2A889B"/>
<path d="M71.4006 54.3334H57.1872C51.952 54.3334 47.7117 58.2117 47.7117 63V69.5C47.7117 77.885 55.1263 84.6667 64.2939 84.6667C73.4615 84.6667 80.8761 77.885 80.8761 69.5V63C80.8761 58.2117 76.6358 54.3334 71.4006 54.3334ZM71.0215 68.3084L69.5528 69.955C69.3159 70.1934 69.1501 70.67 69.1738 70.995L69.3159 73.1184C69.4107 74.4184 68.3921 75.09 67.0655 74.6134L64.9098 73.8334C64.5782 73.725 64.0096 73.725 63.678 73.8334L61.5223 74.6134C60.1957 75.09 59.1771 74.4184 59.2718 73.1184L59.414 70.995C59.4377 70.67 59.2718 70.1934 59.035 69.955L57.5662 68.3084C56.6424 67.3117 57.0451 66.2067 58.419 65.8817L60.6695 65.3617C61.0248 65.275 61.4512 64.9717 61.6407 64.69L62.8962 62.9134C63.678 61.8084 64.9098 61.8084 65.6915 62.9134L66.947 64.69C67.1366 64.9717 67.563 65.275 67.9183 65.3617L70.1687 65.8817C71.5427 66.2067 71.9454 67.3117 71.0215 68.3084Z" fill="#A8E1F0"/>
<path d="M71.0215 68.3083L69.5528 69.955C69.3159 70.1933 69.1501 70.67 69.1738 70.995L69.3159 73.1183C69.4107 74.4183 68.392 75.09 67.0655 74.6133L64.9098 73.8333C64.5781 73.725 64.0096 73.725 63.678 73.8333L61.5223 74.6133C60.1957 75.09 59.1771 74.4183 59.2718 73.1183L59.414 70.995C59.4376 70.67 59.2718 70.1933 59.0349 69.955L57.5662 68.3083C56.6424 67.3117 57.0451 66.2067 58.419 65.8817L60.6695 65.3617C61.0248 65.275 61.4512 64.9717 61.6407 64.69L62.8962 62.9133C63.678 61.8083 64.9098 61.8083 65.6915 62.9133L66.947 64.69C67.1365 64.9717 67.5629 65.275 67.9183 65.3617L70.1687 65.8817C71.5427 66.2067 71.9454 67.3117 71.0215 68.3083Z" fill="#2A889B"/>
<path d="M63.5891 198.768C60.2611 198.768 57.3598 198.192 54.8851 197.04C52.4531 195.845 50.5758 194.16 49.2531 191.984C47.9305 189.808 47.2691 187.227 47.2691 184.24H56.0371C56.0371 185.733 56.3145 187.077 56.8691 188.272C57.4665 189.424 58.3198 190.32 59.4291 190.96C60.5385 191.557 61.8398 191.856 63.3331 191.856C64.7838 191.856 66.0211 191.536 67.0451 190.896C68.1118 190.256 68.9438 189.339 69.5411 188.144C70.1385 186.907 70.4371 185.392 70.4371 183.6C70.4371 181.936 70.1385 180.549 69.5411 179.44C68.9865 178.288 68.1758 177.435 67.1091 176.88C66.0851 176.283 64.8691 175.984 63.4611 175.984C62.3518 175.984 61.3705 176.176 60.5171 176.56C59.7065 176.901 59.0025 177.328 58.4051 177.84C57.8078 178.352 57.2958 178.907 56.8691 179.504L48.8691 178.48L50.6611 154.096H77.0291V161.968H58.0851L57.3811 171.888C57.8505 171.547 58.4691 171.184 59.2371 170.8C60.0051 170.416 60.9438 170.075 62.0531 169.776C63.2051 169.435 64.5278 169.264 66.0211 169.264C68.5811 169.264 70.8638 169.797 72.8691 170.864C74.9171 171.931 76.5385 173.531 77.7331 175.664C78.9278 177.755 79.5251 180.421 79.5251 183.664C79.5251 186.779 78.8638 189.467 77.5411 191.728C76.2611 193.989 74.4265 195.739 72.0371 196.976C69.6905 198.171 66.8745 198.768 63.5891 198.768ZM101.588 198.768C98.9423 198.768 96.617 198.384 94.6116 197.616C92.6063 196.805 90.921 195.525 89.5556 193.776C88.233 191.984 87.2303 189.637 86.5476 186.736C85.9076 183.835 85.5876 180.272 85.5876 176.048C85.5876 171.781 85.9076 168.219 86.5476 165.36C87.2303 162.459 88.233 160.112 89.5556 158.32C90.921 156.528 92.6063 155.248 94.6116 154.48C96.617 153.712 98.9423 153.328 101.588 153.328C104.276 153.328 106.601 153.712 108.564 154.48C110.526 155.248 112.169 156.528 113.492 158.32C114.857 160.112 115.86 162.459 116.5 165.36C117.182 168.219 117.524 171.781 117.524 176.048C117.524 180.272 117.182 183.835 116.5 186.736C115.86 189.637 114.857 191.984 113.492 193.776C112.169 195.525 110.526 196.805 108.564 197.616C106.601 198.384 104.276 198.768 101.588 198.768ZM101.588 191.856C103.465 191.856 104.894 191.365 105.876 190.384C106.857 189.36 107.54 187.824 107.924 185.776C108.308 183.728 108.5 181.168 108.5 178.096V174.128C108.5 171.013 108.308 168.432 107.924 166.384C107.54 164.293 106.857 162.736 105.876 161.712C104.894 160.688 103.465 160.176 101.588 160.176C99.7103 160.176 98.2596 160.688 97.2356 161.712C96.2543 162.736 95.5716 164.272 95.1876 166.32C94.8036 168.325 94.6116 170.885 94.6116 174V177.968C94.6116 181.083 94.8036 183.685 95.1876 185.776C95.5716 187.824 96.2543 189.36 97.2356 190.384C98.2596 191.365 99.7103 191.856 101.588 191.856ZM137.73 198V184.944H125.634V178.16H137.73V165.04H144.45V178.16H156.61V184.944H144.45V198H137.73Z" fill="#ECFAFD"/>
<path d="M45.7491 228V217.024H51.2211C51.9998 217.024 52.6451 217.168 53.1571 217.456C53.6691 217.744 54.0531 218.144 54.3091 218.656C54.5758 219.157 54.7091 219.755 54.7091 220.448C54.7091 221.141 54.5705 221.755 54.2931 222.288C54.0158 222.811 53.6105 223.216 53.0771 223.504C52.5545 223.792 51.9145 223.936 51.1571 223.936H47.5411V228H45.7491ZM47.5411 222.4H51.0771C51.6425 222.4 52.0851 222.229 52.4051 221.888C52.7358 221.547 52.9011 221.072 52.9011 220.464C52.9011 220.059 52.8318 219.717 52.6931 219.44C52.5545 219.152 52.3518 218.933 52.0851 218.784C51.8185 218.635 51.4825 218.56 51.0771 218.56H47.5411V222.4ZM56.921 228V217.024H62.697C63.4757 217.024 64.121 217.163 64.633 217.44C65.145 217.717 65.529 218.107 65.785 218.608C66.041 219.099 66.169 219.675 66.169 220.336C66.169 221.072 66.0037 221.712 65.673 222.256C65.3423 222.8 64.873 223.2 64.265 223.456L66.553 228H64.601L62.521 223.76H58.713V228H56.921ZM58.713 222.256H62.553C63.129 222.256 63.5717 222.085 63.881 221.744C64.201 221.403 64.361 220.928 64.361 220.32C64.361 219.947 64.2917 219.632 64.153 219.376C64.0143 219.109 63.8117 218.907 63.545 218.768C63.2783 218.629 62.9477 218.56 62.553 218.56H58.713V222.256ZM73.7876 228.192C72.657 228.192 71.6756 227.984 70.8436 227.568C70.0223 227.152 69.3876 226.523 68.9396 225.68C68.5023 224.837 68.2836 223.781 68.2836 222.512C68.2836 221.232 68.5023 220.176 68.9396 219.344C69.3876 218.501 70.0223 217.872 70.8436 217.456C71.6756 217.04 72.657 216.832 73.7876 216.832C74.9396 216.832 75.9263 217.04 76.7476 217.456C77.569 217.872 78.1983 218.501 78.6356 219.344C79.0836 220.176 79.3076 221.232 79.3076 222.512C79.3076 223.781 79.0836 224.837 78.6356 225.68C78.1983 226.523 77.569 227.152 76.7476 227.568C75.9263 227.984 74.9396 228.192 73.7876 228.192ZM73.7876 226.672C74.3743 226.672 74.8916 226.592 75.3396 226.432C75.7983 226.272 76.1823 226.027 76.4916 225.696C76.8116 225.365 77.0516 224.949 77.2116 224.448C77.3823 223.947 77.4676 223.365 77.4676 222.704V222.352C77.4676 221.669 77.3823 221.077 77.2116 220.576C77.0516 220.075 76.8116 219.659 76.4916 219.328C76.1823 218.997 75.7983 218.752 75.3396 218.592C74.8916 218.432 74.3743 218.352 73.7876 218.352C73.2116 218.352 72.6943 218.432 72.2356 218.592C71.7876 218.752 71.4036 218.997 71.0836 219.328C70.7743 219.659 70.5396 220.075 70.3796 220.576C70.2196 221.077 70.1396 221.669 70.1396 222.352V222.704C70.1396 223.365 70.2196 223.947 70.3796 224.448C70.5396 224.949 70.7743 225.365 71.0836 225.696C71.4036 226.027 71.7876 226.272 72.2356 226.432C72.6943 226.592 73.2116 226.672 73.7876 226.672ZM84.8021 228.192C84.0235 228.192 83.3621 228.069 82.8181 227.824C82.2741 227.579 81.8581 227.221 81.5701 226.752C81.2821 226.283 81.1381 225.696 81.1381 224.992V224.464H82.9141V225.04C82.9141 225.563 83.0741 225.968 83.3941 226.256C83.7141 226.533 84.1835 226.672 84.8021 226.672C85.4101 226.672 85.8741 226.469 86.1941 226.064C86.5141 225.659 86.6741 225.077 86.6741 224.32V217.024H88.4661V224.288C88.4661 225.152 88.3221 225.877 88.0341 226.464C87.7461 227.04 87.3301 227.472 86.7861 227.76C86.2421 228.048 85.5808 228.192 84.8021 228.192ZM91.5148 228V217.024H100.027V218.56H93.3068V221.616H99.3228V223.152H93.3068V226.464H100.123V228H91.5148ZM107.548 228.192C106.428 228.192 105.473 227.995 104.684 227.6C103.905 227.195 103.308 226.571 102.892 225.728C102.476 224.885 102.268 223.813 102.268 222.512C102.268 220.592 102.732 219.168 103.66 218.24C104.599 217.301 105.9 216.832 107.564 216.832C108.481 216.832 109.303 216.987 110.028 217.296C110.764 217.605 111.34 218.069 111.756 218.688C112.183 219.296 112.396 220.075 112.396 221.024H110.572C110.572 220.437 110.449 219.947 110.204 219.552C109.959 219.157 109.607 218.859 109.148 218.656C108.7 218.453 108.177 218.352 107.58 218.352C106.833 218.352 106.199 218.501 105.676 218.8C105.164 219.088 104.775 219.525 104.508 220.112C104.252 220.699 104.124 221.445 104.124 222.352V222.704C104.124 223.611 104.252 224.357 104.508 224.944C104.775 225.531 105.164 225.968 105.676 226.256C106.188 226.533 106.823 226.672 107.58 226.672C108.199 226.672 108.737 226.576 109.196 226.384C109.655 226.181 110.007 225.883 110.252 225.488C110.508 225.093 110.636 224.603 110.636 224.016H112.396C112.396 224.965 112.183 225.749 111.756 226.368C111.34 226.987 110.764 227.445 110.028 227.744C109.303 228.043 108.476 228.192 107.548 228.192ZM117.265 228V218.56H113.633V217.024H122.721V218.56H119.057V228H117.265ZM128.938 228.192C128.341 228.192 127.765 228.128 127.21 228C126.655 227.883 126.165 227.691 125.738 227.424C125.311 227.147 124.975 226.8 124.73 226.384C124.485 225.957 124.362 225.451 124.362 224.864C124.362 224.8 124.362 224.741 124.362 224.688C124.373 224.624 124.378 224.571 124.378 224.528H126.17C126.17 224.56 126.165 224.608 126.154 224.672C126.154 224.736 126.154 224.789 126.154 224.832C126.154 225.227 126.271 225.563 126.506 225.84C126.741 226.117 127.066 226.325 127.482 226.464C127.909 226.603 128.394 226.672 128.938 226.672C129.237 226.672 129.525 226.656 129.802 226.624C130.079 226.581 130.33 226.523 130.554 226.448C130.789 226.363 130.991 226.261 131.162 226.144C131.333 226.016 131.466 225.867 131.562 225.696C131.658 225.525 131.706 225.328 131.706 225.104C131.706 224.763 131.605 224.48 131.402 224.256C131.21 224.032 130.943 223.845 130.602 223.696C130.271 223.547 129.893 223.413 129.466 223.296C129.05 223.179 128.618 223.061 128.17 222.944C127.722 222.827 127.285 222.688 126.858 222.528C126.442 222.368 126.063 222.176 125.722 221.952C125.391 221.717 125.125 221.429 124.922 221.088C124.73 220.736 124.634 220.309 124.634 219.808C124.634 219.328 124.735 218.901 124.938 218.528C125.141 218.155 125.434 217.845 125.818 217.6C126.202 217.344 126.661 217.152 127.194 217.024C127.727 216.896 128.33 216.832 129.002 216.832C129.578 216.832 130.122 216.896 130.634 217.024C131.146 217.141 131.594 217.328 131.978 217.584C132.362 217.84 132.661 218.165 132.874 218.56C133.098 218.955 133.21 219.424 133.21 219.968V220.16H131.434V219.952C131.434 219.611 131.333 219.323 131.13 219.088C130.927 218.853 130.645 218.672 130.282 218.544C129.919 218.416 129.498 218.352 129.018 218.352C128.453 218.352 127.978 218.411 127.594 218.528C127.21 218.635 126.917 218.789 126.714 218.992C126.522 219.184 126.426 219.419 126.426 219.696C126.426 220.005 126.527 220.261 126.73 220.464C126.933 220.656 127.199 220.821 127.53 220.96C127.871 221.099 128.25 221.227 128.666 221.344C129.093 221.451 129.525 221.568 129.962 221.696C130.41 221.813 130.842 221.952 131.258 222.112C131.685 222.272 132.063 222.469 132.394 222.704C132.735 222.939 133.007 223.232 133.21 223.584C133.413 223.925 133.514 224.347 133.514 224.848C133.514 225.637 133.317 226.283 132.922 226.784C132.527 227.275 131.983 227.632 131.29 227.856C130.607 228.08 129.823 228.192 128.938 228.192ZM139.874 228V217.024H145.65C146.429 217.024 147.074 217.163 147.586 217.44C148.098 217.717 148.482 218.107 148.738 218.608C148.994 219.099 149.122 219.675 149.122 220.336C149.122 221.072 148.957 221.712 148.626 222.256C148.295 222.8 147.826 223.2 147.218 223.456L149.506 228H147.554L145.474 223.76H141.666V228H139.874ZM141.666 222.256H145.506C146.082 222.256 146.525 222.085 146.834 221.744C147.154 221.403 147.314 220.928 147.314 220.32C147.314 219.947 147.245 219.632 147.106 219.376C146.967 219.109 146.765 218.907 146.498 218.768C146.231 218.629 145.901 218.56 145.506 218.56H141.666V222.256ZM151.921 228V217.024H160.433V218.56H153.713V221.616H159.729V223.152H153.713V226.464H160.529V228H151.921ZM163.202 228V217.024H164.994V226.448H170.466V228H163.202ZM172.53 228V217.024H181.042V218.56H174.322V221.616H180.338V223.152H174.322V226.464H181.138V228H172.53ZM182.612 228L186.916 217.024H189.204L193.524 228H191.604L190.628 225.456H185.428L184.452 228H182.612ZM186.004 223.936H190.036L188.804 220.72C188.772 220.624 188.724 220.491 188.66 220.32C188.596 220.149 188.526 219.963 188.452 219.76C188.388 219.557 188.318 219.355 188.244 219.152C188.18 218.939 188.121 218.747 188.068 218.576H187.972C187.908 218.779 187.828 219.019 187.732 219.296C187.636 219.573 187.54 219.84 187.444 220.096C187.358 220.352 187.284 220.56 187.22 220.72L186.004 223.936ZM199.501 228.192C198.903 228.192 198.327 228.128 197.773 228C197.218 227.883 196.727 227.691 196.301 227.424C195.874 227.147 195.538 226.8 195.293 226.384C195.047 225.957 194.925 225.451 194.925 224.864C194.925 224.8 194.925 224.741 194.925 224.688C194.935 224.624 194.941 224.571 194.941 224.528H196.733C196.733 224.56 196.727 224.608 196.717 224.672C196.717 224.736 196.717 224.789 196.717 224.832C196.717 225.227 196.834 225.563 197.069 225.84C197.303 226.117 197.629 226.325 198.045 226.464C198.471 226.603 198.957 226.672 199.501 226.672C199.799 226.672 200.087 226.656 200.365 226.624C200.642 226.581 200.893 226.523 201.117 226.448C201.351 226.363 201.554 226.261 201.725 226.144C201.895 226.016 202.029 225.867 202.125 225.696C202.221 225.525 202.269 225.328 202.269 225.104C202.269 224.763 202.167 224.48 201.965 224.256C201.773 224.032 201.506 223.845 201.165 223.696C200.834 223.547 200.455 223.413 200.029 223.296C199.613 223.179 199.181 223.061 198.733 222.944C198.285 222.827 197.847 222.688 197.421 222.528C197.005 222.368 196.626 222.176 196.285 221.952C195.954 221.717 195.687 221.429 195.485 221.088C195.293 220.736 195.197 220.309 195.197 219.808C195.197 219.328 195.298 218.901 195.501 218.528C195.703 218.155 195.997 217.845 196.381 217.6C196.765 217.344 197.223 217.152 197.757 217.024C198.29 216.896 198.893 216.832 199.565 216.832C200.141 216.832 200.685 216.896 201.197 217.024C201.709 217.141 202.157 217.328 202.541 217.584C202.925 217.84 203.223 218.165 203.437 218.56C203.661 218.955 203.773 219.424 203.773 219.968V220.16H201.997V219.952C201.997 219.611 201.895 219.323 201.693 219.088C201.49 218.853 201.207 218.672 200.845 218.544C200.482 218.416 200.061 218.352 199.581 218.352C199.015 218.352 198.541 218.411 198.157 218.528C197.773 218.635 197.479 218.789 197.277 218.992C197.085 219.184 196.989 219.419 196.989 219.696C196.989 220.005 197.09 220.261 197.293 220.464C197.495 220.656 197.762 220.821 198.093 220.96C198.434 221.099 198.813 221.227 199.229 221.344C199.655 221.451 200.087 221.568 200.525 221.696C200.973 221.813 201.405 221.952 201.821 222.112C202.247 222.272 202.626 222.469 202.957 222.704C203.298 222.939 203.57 223.232 203.773 223.584C203.975 223.925 204.077 224.347 204.077 224.848C204.077 225.637 203.879 226.283 203.485 226.784C203.09 227.275 202.546 227.632 201.853 227.856C201.17 228.08 200.386 228.192 199.501 228.192ZM206.655 228V217.024H215.167V218.56H208.447V221.616H214.463V223.152H208.447V226.464H215.263V228H206.655ZM217.937 228V217.024H222.177C223.307 217.024 224.273 217.221 225.073 217.616C225.873 218 226.486 218.597 226.913 219.408C227.35 220.208 227.569 221.243 227.569 222.512C227.569 223.771 227.35 224.805 226.913 225.616C226.486 226.427 225.873 227.029 225.073 227.424C224.273 227.808 223.307 228 222.177 228H217.937ZM219.729 226.464H222.161C222.726 226.464 223.227 226.389 223.665 226.24C224.113 226.091 224.486 225.861 224.785 225.552C225.094 225.243 225.323 224.853 225.473 224.384C225.633 223.904 225.713 223.339 225.713 222.688V222.352C225.713 221.691 225.633 221.125 225.473 220.656C225.323 220.176 225.094 219.781 224.785 219.472C224.486 219.163 224.113 218.933 223.665 218.784C223.227 218.635 222.726 218.56 222.161 218.56H219.729V226.464Z" fill="#ECFAFD"/>
</svg>
