<svg width="165" height="164" viewBox="0 0 165 164" fill="none" xmlns="http://www.w3.org/2000/svg">
<rect opacity="0.8" x="26" y="13.061" width="87.6305" height="87.3963" rx="10" fill="#9BA7AB"/>
<g opacity="0.8" filter="url(#filter0_dd_580_1384)">
<rect x="38.5" y="26.061" width="87.6305" height="87.3963" rx="10" fill="#374F58"/>
</g>
<path d="M99.4808 53.0083L86.5558 45.5333C84.0808 44.1083 80.2058 44.1083 77.7308 45.5333L64.6808 53.0583C59.5058 56.5583 59.2058 57.0833 59.2058 62.6583V76.2333C59.2058 81.8083 59.5058 82.3583 64.7808 85.9083L77.7058 93.3833C78.9558 94.1083 80.5558 94.4583 82.1308 94.4583C83.7058 94.4583 85.3058 94.1083 86.5308 93.3833L99.5808 85.8583C104.756 82.3583 105.056 81.8333 105.056 76.2583V62.6583C105.056 57.0833 104.756 56.5583 99.4808 53.0083Z" fill="#2A889B"/>
<path d="M82.1309 77.5833C86.6182 77.5833 90.2559 73.9456 90.2559 69.4583C90.2559 64.9709 86.6182 61.3333 82.1309 61.3333C77.6435 61.3333 74.0059 64.9709 74.0059 69.4583C74.0059 73.9456 77.6435 77.5833 82.1309 77.5833Z" fill="#FB9D50"/>
<defs>
<filter id="filter0_dd_580_1384" x="0.5" y="0.0610352" width="163.63" height="163.396" filterUnits="userSpaceOnUse" color-interpolation-filters="sRGB">
<feFlood flood-opacity="0" result="BackgroundImageFix"/>
<feColorMatrix in="SourceAlpha" type="matrix" values="0 0 0 0 0 0 0 0 0 0 0 0 0 0 0 0 0 0 127 0" result="hardAlpha"/>
<feMorphology radius="4" operator="erode" in="SourceAlpha" result="effect1_dropShadow_580_1384"/>
<feOffset dy="12"/>
<feGaussianBlur stdDeviation="21"/>
<feColorMatrix type="matrix" values="0 0 0 0 0.0941176 0 0 0 0 0.152941 0 0 0 0 0.294118 0 0 0 0.12 0"/>
<feBlend mode="normal" in2="BackgroundImageFix" result="effect1_dropShadow_580_1384"/>
<feColorMatrix in="SourceAlpha" type="matrix" values="0 0 0 0 0 0 0 0 0 0 0 0 0 0 0 0 0 0 127 0" result="hardAlpha"/>
<feMorphology radius="6" operator="erode" in="SourceAlpha" result="effect2_dropShadow_580_1384"/>
<feOffset dy="8"/>
<feGaussianBlur stdDeviation="9"/>
<feColorMatrix type="matrix" values="0 0 0 0 0.0941176 0 0 0 0 0.152941 0 0 0 0 0.294118 0 0 0 0.12 0"/>
<feBlend mode="normal" in2="effect1_dropShadow_580_1384" result="effect2_dropShadow_580_1384"/>
<feBlend mode="normal" in="SourceGraphic" in2="effect2_dropShadow_580_1384" result="shape"/>
</filter>
</defs>
</svg>
