<svg width="240" height="80" viewBox="0 0 240 80" fill="none" xmlns="http://www.w3.org/2000/svg">
<path opacity="0.2" d="M233.524 24.6838C233.662 21.778 231.305 19.2799 228.404 19.2563L6.43044 17.448C3.82148 17.4267 1.70902 19.4303 1.58524 22.0435L0.59908 42.8637C0.459199 45.8169 2.89248 48.3375 5.83817 48.2908L228.064 44.767C230.625 44.7264 232.669 42.7394 232.791 40.172L233.524 24.6838Z" fill="#FDBC88"/>
<path opacity="0.1" d="M238.346 33.3939C238.319 30.5931 236.012 28.2755 233.225 28.2498L12.9124 26.2154C10.2816 26.1911 8.15806 28.2252 8.06103 30.8625L7.20442 54.1448C7.09524 57.1121 9.57283 59.6135 12.5271 59.5186L233.829 52.4139C236.465 52.3292 238.504 50.1906 238.479 47.537L238.346 33.3939Z" fill="#3CC2DD"/>
</svg>
