<svg width="165" height="164" viewBox="0 0 165 164" fill="none" xmlns="http://www.w3.org/2000/svg">
<rect opacity="0.8" x="26" y="13.061" width="87.6305" height="87.3963" rx="10" fill="#9BA7AB"/>
<g opacity="0.8" filter="url(#filter0_dd_580_2274)">
<rect x="38.5" y="26.061" width="87.6305" height="87.3963" rx="10" fill="#374F58"/>
</g>
<path d="M100.131 76.4082C97.9809 78.3832 95.1309 79.4832 92.2059 79.4582H68.0559C57.8808 78.7332 57.8559 63.9582 68.0559 63.2332H68.1559C61.1809 43.8332 90.6559 36.1081 94.0309 56.4581C103.456 57.6581 107.281 70.1832 100.131 76.4082Z" fill="#2A889B"/>
<path d="M99.0059 91.9583C99.0059 92.9833 98.1559 93.8333 97.1309 93.8333H87.1309C87.0059 93.8333 86.9058 93.8333 86.7808 93.7833C86.0558 95.6333 84.2309 96.9583 82.1309 96.9583C80.0309 96.9583 78.2059 95.6333 77.4809 93.7833C77.3559 93.8333 77.2559 93.8333 77.1309 93.8333H67.1309C66.1059 93.8333 65.2559 92.9833 65.2559 91.9583C65.2559 90.9333 66.1059 90.0833 67.1309 90.0833H77.1309C77.2559 90.0833 77.3559 90.0832 77.4809 90.1332C77.9809 88.8332 79.0058 87.8083 80.3058 87.3083C80.2558 87.1833 80.2559 87.0833 80.2559 86.9583V79.4583H84.0059V86.9583C84.0059 87.0833 84.0059 87.1833 83.9559 87.3083C85.2559 87.8083 86.2808 88.8332 86.7808 90.1332C86.9058 90.0832 87.0059 90.0833 87.1309 90.0833H97.1309C98.1559 90.0833 99.0059 90.9333 99.0059 91.9583Z" fill="#FB9D50"/>
<defs>
<filter id="filter0_dd_580_2274" x="0.5" y="0.0610352" width="163.63" height="163.396" filterUnits="userSpaceOnUse" color-interpolation-filters="sRGB">
<feFlood flood-opacity="0" result="BackgroundImageFix"/>
<feColorMatrix in="SourceAlpha" type="matrix" values="0 0 0 0 0 0 0 0 0 0 0 0 0 0 0 0 0 0 127 0" result="hardAlpha"/>
<feMorphology radius="4" operator="erode" in="SourceAlpha" result="effect1_dropShadow_580_2274"/>
<feOffset dy="12"/>
<feGaussianBlur stdDeviation="21"/>
<feColorMatrix type="matrix" values="0 0 0 0 0.0941176 0 0 0 0 0.152941 0 0 0 0 0.294118 0 0 0 0.12 0"/>
<feBlend mode="normal" in2="BackgroundImageFix" result="effect1_dropShadow_580_2274"/>
<feColorMatrix in="SourceAlpha" type="matrix" values="0 0 0 0 0 0 0 0 0 0 0 0 0 0 0 0 0 0 127 0" result="hardAlpha"/>
<feMorphology radius="6" operator="erode" in="SourceAlpha" result="effect2_dropShadow_580_2274"/>
<feOffset dy="8"/>
<feGaussianBlur stdDeviation="9"/>
<feColorMatrix type="matrix" values="0 0 0 0 0.0941176 0 0 0 0 0.152941 0 0 0 0 0.294118 0 0 0 0.12 0"/>
<feBlend mode="normal" in2="effect1_dropShadow_580_2274" result="effect2_dropShadow_580_2274"/>
<feBlend mode="normal" in="SourceGraphic" in2="effect2_dropShadow_580_2274" result="shape"/>
</filter>
</defs>
</svg>
