<svg width="45" height="40" viewBox="0 0 45 40" fill="none" xmlns="http://www.w3.org/2000/svg">
<path d="M33.6203 34.1666H31.7981V33.75C31.7981 31.9166 30.1581 30.4166 28.1536 30.4166H24.0536V26.6C23.5981 26.65 23.1425 26.6666 22.687 26.6666C22.2314 26.6666 21.7759 26.65 21.3203 26.6V30.4166H17.2203C15.2159 30.4166 13.5759 31.9166 13.5759 33.75V34.1666H11.7536C11.0065 34.1666 10.387 34.7333 10.387 35.4166C10.387 36.1 11.0065 36.6666 11.7536 36.6666H33.6203C34.3674 36.6666 34.987 36.1 34.987 35.4166C34.987 34.7333 34.3674 34.1666 33.6203 34.1666Z" fill="#2A889B"/>
<path d="M10.879 19.4C9.67631 18.9834 8.61942 18.3 7.7812 17.5334C6.08653 15.8167 4.97498 13.7667 4.97498 11.3667C4.97498 8.96671 7.03409 7.08337 9.65809 7.08337H10.6785C10.2048 7.96671 9.93142 8.95004 9.93142 10V15C9.93142 16.5667 10.2594 18.05 10.879 19.4Z" fill="#2A889B"/>
<path d="M40.399 11.3667C40.399 13.7667 39.2874 15.8167 37.5928 17.5334C36.7545 18.3 35.6976 18.9834 34.495 19.4C35.1145 18.05 35.4425 16.5667 35.4425 15V10C35.4425 8.95004 35.1692 7.96671 34.6954 7.08337H35.7159C38.3399 7.08337 40.399 8.96671 40.399 11.3667Z" fill="#2A889B"/>
<path d="M28.1536 3.33337H17.2203C13.1932 3.33337 9.93143 6.31671 9.93143 10V15C9.93143 21.45 15.635 26.6667 22.687 26.6667C29.739 26.6667 35.4425 21.45 35.4425 15V10C35.4425 6.31671 32.1808 3.33337 28.1536 3.33337ZM27.8621 14.0834L26.7323 15.35C26.5501 15.5334 26.4225 15.9 26.4408 16.15L26.5501 17.7834C26.623 18.7834 25.8394 19.3 24.819 18.9334L23.1608 18.3334C22.9056 18.25 22.4683 18.25 22.2132 18.3334L20.555 18.9334C19.5345 19.3 18.751 18.7834 18.8239 17.7834L18.9332 16.15C18.9514 15.9 18.8239 15.5334 18.6416 15.35L17.5119 14.0834C16.8012 13.3167 17.111 12.4667 18.1679 12.2167L19.899 11.8167C20.1723 11.75 20.5003 11.5167 20.6461 11.3L21.6119 9.93337C22.2132 9.08337 23.1608 9.08337 23.7621 9.93337L24.7279 11.3C24.8736 11.5167 25.2016 11.75 25.475 11.8167L27.2061 12.2167C28.263 12.4667 28.5728 13.3167 27.8621 14.0834Z" fill="#A8E1F0"/>
<path d="M27.8621 14.0833L26.7323 15.3499C26.5501 15.5333 26.4225 15.8999 26.4408 16.1499L26.5501 17.7833C26.623 18.7833 25.8394 19.2999 24.819 18.9333L23.1608 18.3333C22.9056 18.2499 22.4683 18.2499 22.2132 18.3333L20.555 18.9333C19.5345 19.2999 18.751 18.7833 18.8239 17.7833L18.9332 16.1499C18.9514 15.8999 18.8239 15.5333 18.6416 15.3499L17.5119 14.0833C16.8012 13.3166 17.111 12.4666 18.1679 12.2166L19.899 11.8166C20.1723 11.7499 20.5003 11.5166 20.6461 11.2999L21.6119 9.93328C22.2132 9.08328 23.1608 9.08328 23.7621 9.93328L24.7279 11.2999C24.8736 11.5166 25.2016 11.7499 25.475 11.8166L27.2061 12.2166C28.263 12.4666 28.5728 13.3166 27.8621 14.0833Z" fill="#2A889B"/>
</svg>
