<svg width="60" height="61" viewBox="0 0 60 61" fill="none" xmlns="http://www.w3.org/2000/svg">
<path opacity="0.25" d="M10.5 6.73003C10.5 3.53227 13.4604 1.15638 16.5823 1.84858L55.5823 10.4957C57.8711 11.0032 59.5 13.0328 59.5 15.3772V46.9278C59.5 50.2326 56.351 52.6283 53.166 51.7466L14.1661 40.9505C11.9998 40.3508 10.5 38.3794 10.5 36.1317V6.73003Z" fill="#FDBC88"/>
<path opacity="0.25" d="M2.5 11.8105C2.5 8.58705 5.50525 6.20588 8.6433 6.94295L46.6433 15.8685C48.9028 16.3992 50.5 18.415 50.5 20.736V53.8232C50.5 57.1596 47.2945 59.56 44.093 58.6211L6.09298 47.4774C3.96316 46.8528 2.5 44.899 2.5 42.6795V11.8105Z" fill="#FDBC88"/>
<path d="M21.9 38.5V35.812H25.836V26.092H21.876V24.076C22.404 24.028 23.012 23.908 23.7 23.716C24.404 23.508 25.108 23.26 25.812 22.972C26.516 22.668 27.148 22.348 27.708 22.012H29.196V35.812H32.868V38.5H21.9Z" fill="#FB9D50"/>
</svg>
