<svg width="354" height="81" viewBox="0 0 354 81" fill="none" xmlns="http://www.w3.org/2000/svg">
<path opacity="0.2" d="M326.079 25.7845C326.258 22.923 323.998 20.495 321.131 20.4675L6.98488 17.4559C4.32831 17.4304 2.11825 19.4874 1.95312 22.1392L0.652784 43.0203C0.472471 45.9158 2.78603 48.3595 5.6868 48.3374L320.169 45.9489C322.793 45.929 324.952 43.8842 325.115 41.2655L326.079 25.7845Z" fill="#FDBC88"/>
<path opacity="0.1" d="M351.85 34.4734C351.803 31.7645 349.607 29.5835 346.898 29.5547L33.6189 26.2226C30.9317 26.194 28.7051 28.2952 28.5779 30.9798L27.47 54.3543C27.333 57.2451 29.671 59.6512 32.5642 59.5967L347.199 53.6746C349.954 53.6227 352.146 51.35 352.097 48.5937L351.85 34.4734Z" fill="#3CC2DD"/>
</svg>
