<svg width="177" height="211" viewBox="0 0 177 211" fill="none" xmlns="http://www.w3.org/2000/svg">
<path opacity="0.25" d="M0 11.7861C0 5.61299 5.53804 0.914213 11.6287 1.91966L207.947 34.3277C212.776 35.1248 216.318 39.2999 216.318 44.1941V161.932C216.318 168.266 210.504 173.005 204.3 171.726L7.98139 131.264C3.33429 130.306 0 126.215 0 121.47V11.7861Z" fill="#FDBC88"/>
<path opacity="0.15" d="M232.461 57.4396C232.461 51.2641 226.919 46.5647 220.826 47.5741L24.5082 80.0995C19.6819 80.8991 16.1427 85.073 16.1427 89.965V198.72C16.1427 205.057 21.9623 209.796 28.1683 208.512L224.487 167.904C229.13 166.943 232.461 162.853 232.461 158.111V57.4396Z" fill="#3CC2DD"/>
</svg>
