<svg width="162" height="169" viewBox="0 0 162 169" fill="none" xmlns="http://www.w3.org/2000/svg">
<path opacity="0.25" d="M161.461 -30.2139C161.461 -36.387 155.923 -41.0858 149.832 -40.0803L-46.4861 -7.67233C-51.315 -6.87518 -54.8573 -2.7001 -54.8573 2.19414V119.932C-54.8573 126.266 -49.0427 131.005 -42.8387 129.726L153.48 89.264C158.127 88.3062 161.461 84.2147 161.461 79.4699V-30.2139Z" fill="#FDBC88"/>
<path opacity="0.15" d="M-71 15.4396C-71 9.26406 -65.458 4.56467 -59.3655 5.57405L136.953 38.0995C141.779 38.8991 145.318 43.073 145.318 47.965V156.72C145.318 163.057 139.499 167.796 133.293 166.512L-63.0256 125.904C-67.6694 124.943 -71 120.853 -71 116.111V15.4396Z" fill="#3CC2DD"/>
</svg>
