<svg width="285" height="298" viewBox="0 0 285 298" fill="none" xmlns="http://www.w3.org/2000/svg">
<path opacity="0.8" d="M285 10.3515C285 4.69328 280.31 0.162069 274.655 0.35746L48.6547 8.1664C43.2695 8.35248 39 12.772 39 18.1604V244.148C39 249.807 43.6905 254.338 49.3453 254.143L275.345 246.334C280.731 246.148 285 241.728 285 236.34V10.3515Z" fill="#FDBC88"/>
<path opacity="0.25" d="M246 53.3515C246 47.6933 241.31 43.1621 235.655 43.3575L9.65468 51.1664C4.26945 51.3525 0 55.772 0 61.1604V287.148C0 292.807 4.69048 297.338 10.3453 297.143L236.345 289.334C241.731 289.148 246 284.728 246 279.34V53.3515Z" fill="#FDBC88"/>
<path d="M260 32.3515C260 26.6933 255.31 22.1621 249.655 22.3575L23.6547 30.1664C18.2695 30.3525 14 34.772 14 40.1604V266.148C14 271.807 18.6905 276.338 24.3453 276.143L250.345 268.334C255.731 268.148 260 263.728 260 258.34V32.3515Z" fill="#3CC2DD"/>
<path d="M78.5073 94.4166H76.1384V93.875C76.1384 91.4916 74.0064 89.5416 71.4006 89.5416H66.0706V84.58C65.4784 84.645 64.8862 84.6666 64.294 84.6666C63.7017 84.6666 63.1095 84.645 62.5173 84.58V89.5416H57.1873C54.5815 89.5416 52.4495 91.4916 52.4495 93.875V94.4166H50.0806C49.1094 94.4166 48.304 95.1533 48.304 96.0416C48.304 96.93 49.1094 97.6666 50.0806 97.6666H78.5073C79.4785 97.6666 80.284 96.93 80.284 96.0416C80.284 95.1533 79.4785 94.4166 78.5073 94.4166Z" fill="#2A889B"/>
<path d="M48.9435 75.22C47.38 74.6784 46.0061 73.79 44.9164 72.7934C42.7133 70.5617 41.2683 67.8967 41.2683 64.7767C41.2683 61.6567 43.9452 59.2084 47.3564 59.2084H48.6829C48.067 60.3567 47.7117 61.635 47.7117 63V69.5C47.7117 71.5367 48.1381 73.465 48.9435 75.22Z" fill="#2A889B"/>
<path d="M87.3195 64.7767C87.3195 67.8967 85.8745 70.5617 83.6714 72.7934C82.5817 73.79 81.2078 74.6784 79.6443 75.22C80.4497 73.465 80.8761 71.5367 80.8761 69.5V63C80.8761 61.635 80.5208 60.3567 79.9049 59.2084H81.2314C84.6426 59.2084 87.3195 61.6567 87.3195 64.7767Z" fill="#2A889B"/>
<path d="M71.4006 54.3334H57.1872C51.952 54.3334 47.7117 58.2117 47.7117 63V69.5C47.7117 77.885 55.1263 84.6667 64.2939 84.6667C73.4615 84.6667 80.8761 77.885 80.8761 69.5V63C80.8761 58.2117 76.6358 54.3334 71.4006 54.3334ZM71.0215 68.3084L69.5528 69.955C69.3159 70.1934 69.1501 70.67 69.1738 70.995L69.3159 73.1184C69.4107 74.4184 68.3921 75.09 67.0655 74.6134L64.9098 73.8334C64.5782 73.725 64.0096 73.725 63.678 73.8334L61.5223 74.6134C60.1957 75.09 59.1771 74.4184 59.2718 73.1184L59.414 70.995C59.4377 70.67 59.2718 70.1934 59.035 69.955L57.5662 68.3084C56.6424 67.3117 57.0451 66.2067 58.419 65.8817L60.6695 65.3617C61.0248 65.275 61.4512 64.9717 61.6407 64.69L62.8962 62.9134C63.678 61.8084 64.9098 61.8084 65.6915 62.9134L66.947 64.69C67.1366 64.9717 67.563 65.275 67.9183 65.3617L70.1687 65.8817C71.5427 66.2067 71.9454 67.3117 71.0215 68.3084Z" fill="#A8E1F0"/>
<path d="M71.0214 68.3083L69.5527 69.955C69.3158 70.1933 69.15 70.67 69.1737 70.995L69.3158 73.1183C69.4105 74.4183 68.3919 75.09 67.0653 74.6133L64.9097 73.8333C64.578 73.725 64.0095 73.725 63.6778 73.8333L61.5221 74.6133C60.1956 75.09 59.1769 74.4183 59.2717 73.1183L59.4138 70.995C59.4375 70.67 59.2717 70.1933 59.0348 69.955L57.5661 68.3083C56.6422 67.3117 57.0449 66.2067 58.4189 65.8817L60.6693 65.3617C61.0247 65.275 61.4511 64.9717 61.6406 64.69L62.8961 62.9133C63.6778 61.8083 64.9097 61.8083 65.6914 62.9133L66.9469 64.69C67.1364 64.9717 67.5628 65.275 67.9181 65.3617L70.1686 65.8817C71.5425 66.2067 71.9453 67.3117 71.0214 68.3083Z" fill="#2A889B"/>
</svg>
