<svg width="41" height="40" viewBox="0 0 41 40" fill="none" xmlns="http://www.w3.org/2000/svg">
<path d="M32.5001 24.6333C31.0667 25.95 29.1667 26.6833 27.2167 26.6667H11.1167C4.33337 26.1833 4.3167 16.3333 11.1167 15.85H11.1834C6.53338 2.91667 26.1834 -2.23337 28.4334 11.3333C34.7167 12.1333 37.2667 20.4833 32.5001 24.6333Z" fill="#2A889B"/>
<path d="M31.75 35C31.75 35.6834 31.1833 36.25 30.5 36.25H23.8333C23.75 36.25 23.6833 36.25 23.6 36.2167C23.1166 37.45 21.9 38.3334 20.5 38.3334C19.1 38.3334 17.8834 37.45 17.4 36.2167C17.3167 36.25 17.25 36.25 17.1667 36.25H10.5C9.81667 36.25 9.25 35.6834 9.25 35C9.25 34.3167 9.81667 33.75 10.5 33.75H17.1667C17.25 33.75 17.3167 33.75 17.4 33.7833C17.7334 32.9167 18.4166 32.2334 19.2833 31.9C19.25 31.8167 19.25 31.75 19.25 31.6667V26.6667H21.75V31.6667C21.75 31.75 21.75 31.8167 21.7167 31.9C22.5834 32.2334 23.2666 32.9167 23.6 33.7833C23.6833 33.75 23.75 33.75 23.8333 33.75H30.5C31.1833 33.75 31.75 34.3167 31.75 35Z" fill="#FB9D50"/>
</svg>
