<svg width="66" height="75" viewBox="0 0 66 75" fill="none" xmlns="http://www.w3.org/2000/svg">
<path opacity="0.25" d="M0 -22.4782C0 -28.6368 5.51347 -33.3318 11.5934 -32.3504L105.121 -17.2543C109.967 -16.4723 113.528 -12.2899 113.528 -7.3821V42.9537C113.528 49.2702 107.744 54.0045 101.553 52.7567L8.02451 33.9089C3.35702 32.9683 0 28.8673 0 24.106V-22.4782Z" fill="#FDBC88"/>
<path opacity="0.15" d="M122 0.951452C122 -5.20952 116.483 -9.90506 110.401 -8.91987L16.8729 6.2309C12.0304 7.01535 8.47199 11.1966 8.47199 16.1022V61.8266C8.47199 68.1458 14.2605 72.8808 20.4544 71.6281L113.982 52.712C118.647 51.7687 122 47.6692 122 42.9105V0.951452Z" fill="#3CC2DD"/>
</svg>
