<svg width="355" height="215" viewBox="0 0 355 215" fill="none" xmlns="http://www.w3.org/2000/svg">
<path opacity="0.5" d="M12 44.3791C12 39.1048 16.0964 34.7373 21.3599 34.3997L344.36 13.6825C350.123 13.3128 355 17.8873 355 23.6619V183.621C355 188.895 350.904 193.263 345.64 193.6L22.6401 214.318C16.8772 214.687 12 210.113 12 204.338V44.3791Z" fill="#FDBC88"/>
<path opacity="0.8" d="M0 31.3791C0 26.1048 4.0964 21.7373 9.35992 21.3997L332.36 0.682454C338.123 0.312826 343 4.88727 343 10.6619V170.621C343 175.895 338.904 180.263 333.64 180.6L10.6401 201.318C4.87724 201.687 0 197.113 0 191.338V31.3791Z" fill="#2A889B"/>
</svg>
