<svg width="316" height="80" viewBox="0 0 316 80" fill="none" xmlns="http://www.w3.org/2000/svg">
<path opacity="0.2" d="M307.085 25.0656C307.264 22.1974 304.993 19.7663 302.12 19.7484L7.15157 17.9208C4.50146 17.9043 2.30146 19.9589 2.13673 22.6042L0.836897 43.4773C0.656034 46.3816 2.98373 48.8293 5.89323 48.7942L301.197 45.2326C303.812 45.2011 305.958 43.1596 306.121 40.5495L307.085 25.0656Z" fill="#FDBC88"/>
<path opacity="0.1" d="M313.416 33.6876C313.382 30.9617 311.171 28.7625 308.445 28.7433L15.6737 26.687C12.9953 26.6682 10.7804 28.7639 10.651 31.4396L9.52106 54.7992C9.3806 57.7029 11.7372 60.1168 14.643 60.0458L308.72 52.8648C311.454 52.798 313.625 50.5456 313.591 47.8099L313.416 33.6876Z" fill="#3CC2DD"/>
</svg>
