<svg width="83" height="98" viewBox="0 0 83 98" fill="none" xmlns="http://www.w3.org/2000/svg">
<path opacity="0.25" d="M83 11.9671C83 5.80847 77.4865 1.11355 71.4066 2.0949L-22.1215 17.191C-26.9665 17.973 -30.528 22.1554 -30.528 27.0632V77.399C-30.528 83.7155 -24.7445 88.4498 -18.5525 87.202L74.9755 68.3542C79.643 67.4136 83 63.3126 83 58.5513V11.9671Z" fill="#FDBC88"/>
<path opacity="0.15" d="M-39 35.3987C-39 29.2377 -33.4826 24.5422 -27.4009 25.5274L66.1271 40.6782C70.9696 41.4626 74.528 45.6439 74.528 50.5495V96.2738C74.528 102.593 68.7395 107.328 62.5456 106.075L-30.9824 87.1593C-35.6466 86.216 -39 82.1164 -39 77.3578V35.3987Z" fill="#3CC2DD"/>
</svg>
